<svg width="34" height="34" viewBox="0 0 34 34" fill="none" xmlns="http://www.w3.org/2000/svg">
<circle cx="17" cy="17" r="17" fill="#C4122F"/>
<path d="M25 24.0114L20.4679 19.5882C21.2711 18.4923 21.7444 17.1492 21.7444 15.7036C21.7444 12.0079 18.6609 9 14.8722 9C11.0835 9 8 12.0079 8 15.7036C8 19.3993 11.0835 22.4072 14.8722 22.4072C16.6602 22.4072 18.2927 21.7356 19.5166 20.6398L23.9865 25L25 24.0114ZM14.8722 21.0082C11.8747 21.0082 9.4342 18.6275 9.4342 15.7036C9.4342 12.7797 11.8747 10.399 14.8722 10.399C17.8697 10.399 20.3102 12.7797 20.3102 15.7036C20.3102 18.6275 17.8697 21.0082 14.8722 21.0082Z" fill="white"/>
</svg>
