<svg width="27" height="29" viewBox="0 0 27 29" fill="none" xmlns="http://www.w3.org/2000/svg">
<path d="M8.00487 13.3061L7.28999 18.341C7.17033 19.1832 7.75328 19.9669 8.5909 20.0872C8.7259 20.1057 8.86396 20.1088 8.99896 20.0903L14.0921 19.4547C14.4327 19.4115 14.7457 19.2573 14.9881 19.0136L25.067 8.87899C26.8865 7.0742 26.9079 4.12484 25.11 2.29537C23.312 0.465907 20.3819 0.444311 18.5625 2.25218C18.5471 2.26761 18.5318 2.28303 18.5195 2.29537L8.43749 12.433C8.2043 12.6706 8.0509 12.976 8.00487 13.3061ZM10.9687 14.2502L20.6887 4.47654C21.3269 3.89346 22.3149 3.94282 22.8948 4.58452C23.4348 5.18303 23.4348 6.09623 22.8948 6.69474L13.1932 16.4591L10.6159 16.7676L10.9687 14.2502Z" fill="#C4122F"/>
<path d="M14.267 0H3.98864C1.78568 0 0 1.79553 0 4.01064V24.9894C0 27.2045 1.78568 29 3.98864 29H23.0114C25.2143 29 27 27.2045 27 24.9894V12.4176C27 11.5661 26.3127 10.875 25.4659 10.875C24.6191 10.875 23.9318 11.5661 23.9318 12.4176V24.9894C23.9318 25.5015 23.5207 25.9149 23.0114 25.9149H3.98864C3.47932 25.9149 3.06818 25.5015 3.06818 24.9894V4.01064C3.06818 3.49851 3.47932 3.08511 3.98864 3.08511H14.267C15.1139 3.08511 15.8011 2.39404 15.8011 1.54255C15.8011 0.691064 15.1139 0 14.267 0Z" fill="#C4122F"/>
</svg>
