<svg width="30" height="30" viewBox="0 0 30 30" fill="none" xmlns="http://www.w3.org/2000/svg">
<path d="M15 30C23.2843 30 30 23.2843 30 15C30 6.71573 23.2843 0 15 0C6.71573 0 0 6.71573 0 15C0 23.2843 6.71573 30 15 30Z" fill="#07354F"/>
<path d="M12.0402 22.28C11.7902 22.28 11.5502 22.19 11.3702 22.02L6.60019 17.69C6.19019 17.32 6.16019 16.69 6.53019 16.28C6.90019 15.87 7.53019 15.84 7.94019 16.21L11.9502 19.84L21.9702 8.06999C22.3302 7.64999 22.9602 7.59999 23.3802 7.95999C23.8002 8.31999 23.8502 8.94999 23.4902 9.36999L12.8002 21.93C12.6202 22.14 12.3702 22.26 12.1002 22.28C12.0802 22.28 12.0602 22.28 12.0402 22.28Z" fill="white"/>
</svg>
