<svg width="33" height="34" viewBox="0 0 33 34" fill="none" xmlns="http://www.w3.org/2000/svg">
<g clip-path="url(#clip0_835:837)">
<path d="M26.4263 33.4998C26.3481 33.4998 26.27 33.4998 26.1918 33.4911C25.6447 33.4563 23.7689 33.3346 22.3707 32.9695C17.6552 31.735 12.8181 28.814 8.74522 24.7369C4.67232 20.6597 1.75443 15.8175 0.529955 11.097C0.260745 10.0451 0.121797 8.65413 0.00890265 7.32405C-0.0779395 5.86356 0.616797 4.47263 1.81522 3.69022L5.86206 0.995281C6.58285 0.517146 7.46864 0.378052 8.28496 0.60408C9.09259 0.821414 9.76996 1.37779 10.1434 2.12542L13.426 8.47157C14.086 9.7408 13.7473 11.3056 12.6357 12.1923L10.2476 14.0527C11.3157 15.9739 12.3839 17.5214 14.2163 19.3296C16.0486 21.1639 17.6031 22.2419 19.4007 23.2503L21.2852 20.8335C22.1797 19.6947 23.7863 19.3644 25.0281 20.0511L31.3936 23.3372C32.1318 23.7023 32.6876 24.3891 32.9047 25.1976C33.1305 26.0235 32.9828 26.9015 32.5139 27.623L29.8479 31.6742C29.0836 32.8043 27.7897 33.4998 26.4263 33.4998ZM7.50338 2.23843C7.26022 2.23843 7.01706 2.30798 6.80864 2.44707L2.7618 5.14201C2.08443 5.59407 1.69364 6.38517 1.73706 7.20234C1.81522 8.10645 1.94548 9.66256 2.20601 10.6623C3.36101 15.0872 6.1139 19.6512 9.97838 23.5111C13.8342 27.3709 18.3934 30.1354 22.8136 31.2916C23.795 31.5438 25.2626 31.7002 26.296 31.7611C27.121 31.8132 27.9286 31.4047 28.3802 30.7005L31.0463 26.6494C31.246 26.3451 31.3068 25.98 31.2113 25.6323C31.1244 25.2932 30.8986 25.0237 30.5947 24.8759L24.2031 21.5725C23.6821 21.2856 23.0221 21.4247 22.6486 21.9028L19.861 25.4758L19.2184 25.1281C17.0647 23.9718 15.1802 22.7548 12.9918 20.564C10.8121 18.4168 9.63969 16.6173 8.36311 14.2353L8.01575 13.592L11.5589 10.8362C12.0105 10.4797 12.1494 9.81035 11.8802 9.28875L8.59759 2.90782C8.43259 2.59486 8.16338 2.36883 7.82469 2.2819C7.72048 2.25582 7.61627 2.23843 7.50338 2.23843Z" fill="#C4122F"/>
</g>
<defs>
<clipPath id="clip0_835:837">
<rect width="33" height="33" fill="white" transform="translate(0 0.5)"/>
</clipPath>
</defs>
</svg>
