<svg width="20" height="20" viewBox="0 0 20 20" fill="none" xmlns="http://www.w3.org/2000/svg">
<path d="M10 20C15.5228 20 20 15.5228 20 10C20 4.47715 15.5228 0 10 0C4.47715 0 0 4.47715 0 10C0 15.5228 4.47715 20 10 20Z" fill="#33C600"/>
<path d="M8.02671 14.8533C7.86004 14.8533 7.70004 14.7933 7.58004 14.68L4.40004 11.7933C4.12671 11.5466 4.10671 11.1266 4.35338 10.8533C4.60004 10.58 5.02004 10.56 5.29338 10.8066L7.96671 13.2266L14.6467 5.37995C14.8867 5.09995 15.3067 5.06662 15.5867 5.30662C15.8667 5.54662 15.9 5.96662 15.66 6.24662L8.53338 14.62C8.41338 14.76 8.24671 14.84 8.06671 14.8533C8.05338 14.8533 8.04004 14.8533 8.02671 14.8533Z" fill="white"/>
</svg>
