<svg width="30" height="21" viewBox="0 0 30 21" fill="none" xmlns="http://www.w3.org/2000/svg">
<path d="M13.9411 11.1985H8.05895C3.61726 11.1985 0 14.3311 0 18.183V19.993C0 20.5499 0.449263 21 1.00505 21C1.56084 21 2.01011 20.5499 2.01011 19.993V18.183C2.01011 15.4403 4.72421 13.2126 8.05895 13.2126H13.9411C17.2758 13.2126 19.9899 15.4403 19.9899 18.183V19.993C19.9899 20.5499 20.4392 21 20.9949 21C21.5507 21 22 20.5499 22 19.993V18.183C22 14.3311 18.3827 11.1985 13.9411 11.1985Z" fill="#282828"/>
<path d="M11.4402 10.5627C14.3488 10.5627 16.7109 8.19116 16.7109 5.28133C16.7109 2.37149 14.3488 0 11.4402 0C8.53154 0 6.16943 2.37149 6.16943 5.28133C6.16943 8.19116 8.53617 10.5627 11.4402 10.5627ZM11.4402 2.01414C13.2372 2.01414 14.7054 3.48066 14.7054 5.28133C14.7054 7.08199 13.2419 8.55315 11.4402 8.55315C9.63849 8.55315 8.17491 7.08663 8.17491 5.28133C8.17491 3.47602 9.64312 2.01414 11.4402 2.01414Z" fill="#282828"/>
<path d="M29.2857 8.28571H25.7143V4.71429C25.7143 4.31905 25.3952 4 25 4C24.6048 4 24.2857 4.31905 24.2857 4.71429V8.28571H20.7143C20.319 8.28571 20 8.60476 20 9C20 9.39524 20.319 9.71429 20.7143 9.71429H24.2857V13.2857C24.2857 13.681 24.6048 14 25 14C25.3952 14 25.7143 13.681 25.7143 13.2857V9.71429H29.2857C29.681 9.71429 30 9.39524 30 9C30 8.60476 29.681 8.28571 29.2857 8.28571Z" fill="#C4122F"/>
</svg>
