<svg width="19" height="27" viewBox="0 0 19 27" fill="none" xmlns="http://www.w3.org/2000/svg">
<g clip-path="url(#clip0_593:37504)">
<path d="M9.2 1.5C13.45 1.5 16.9 4.95 16.9 9.2C16.9 13.2 10.13 24.65 9.84 25.14C9.7 25.36 9.46 25.5 9.2 25.5C8.94 25.5 8.7 25.36 8.56 25.14C8.27 24.65 1.5 13.2 1.5 9.2C1.5 4.95 4.95 1.5 9.2 1.5ZM9.2 0C4.13 0 0 4.13 0 9.2C0 13.45 6.06 23.86 7.27 25.91C7.67 26.58 8.41 27 9.2 27C9.99 27 10.72 26.58 11.13 25.9C12.34 23.85 18.4 13.44 18.4 9.19C18.4 4.13 14.27 0 9.2 0Z" fill="#07354F"/>
<path d="M13.23 9.19992C13.23 6.97992 11.42 5.16992 9.20004 5.16992C6.98004 5.16992 5.17004 6.97992 5.17004 9.19992C5.17004 11.4199 6.98004 13.2299 9.20004 13.2299C11.42 13.2299 13.23 11.4199 13.23 9.19992Z" stroke="#07354F" stroke-width="1.5" stroke-miterlimit="10"/>
</g>
<defs>
<clipPath id="clip0_593:37504">
<rect width="18.4" height="27" fill="white"/>
</clipPath>
</defs>
</svg>
