<svg width="38" height="26" viewBox="0 0 38 26" fill="none" xmlns="http://www.w3.org/2000/svg">
<g clip-path="url(#clip0_593:37543)">
<path d="M36.44 0H0.75C0.34 0 0 0.34 0 0.75V24.75C0 25.16 0.34 25.5 0.75 25.5H36.44C36.85 25.5 37.19 25.16 37.19 24.75V0.75C37.19 0.34 36.86 0 36.44 0ZM35.69 1.5V7.54H1.5V1.5H35.69ZM1.5 24V9.04H35.69V24H1.5Z" fill="#07354F"/>
<path d="M24.42 5.98998C25.3203 5.98998 26.05 5.2602 26.05 4.35998C26.05 3.45976 25.3203 2.72998 24.42 2.72998C23.5198 2.72998 22.79 3.45976 22.79 4.35998C22.79 5.2602 23.5198 5.98998 24.42 5.98998Z" fill="#07354F"/>
<path d="M28.48 5.98998C29.3802 5.98998 30.11 5.2602 30.11 4.35998C30.11 3.45976 29.3802 2.72998 28.48 2.72998C27.5798 2.72998 26.85 3.45976 26.85 4.35998C26.85 5.2602 27.5798 5.98998 28.48 5.98998Z" fill="#07354F"/>
<path d="M32.55 5.98998C33.4503 5.98998 34.18 5.2602 34.18 4.35998C34.18 3.45976 33.4503 2.72998 32.55 2.72998C31.6498 2.72998 30.92 3.45976 30.92 4.35998C30.92 5.2602 31.6498 5.98998 32.55 5.98998Z" fill="#07354F"/>
</g>
<defs>
<clipPath id="clip0_593:37543">
<rect width="37.19" height="25.5" fill="white"/>
</clipPath>
</defs>
</svg>
