<svg width="44" height="40" viewBox="0 0 44 40" fill="none" xmlns="http://www.w3.org/2000/svg">
<g clip-path="url(#clip0_38:14339)">
<path d="M21.7734 40C22.2546 40 22.7161 39.8084 23.0564 39.4675C23.3967 39.1265 23.5878 38.664 23.5878 38.1818V18.9364L25.933 21.2864C26.2734 21.6275 26.7352 21.8192 27.2167 21.8192C27.6982 21.8192 28.1599 21.6275 28.5004 21.2864C28.8409 20.9452 29.0321 20.4825 29.0321 20C29.0321 19.5175 28.8409 19.0548 28.5004 18.7136L23.0571 13.2591C22.8886 13.09 22.6885 12.9559 22.4682 12.8644C22.2479 12.7729 22.0118 12.7258 21.7734 12.7258C21.5349 12.7258 21.2988 12.7729 21.0786 12.8644C20.8583 12.9559 20.6582 13.09 20.4897 13.2591L15.0464 18.7136C14.7059 19.0548 14.5146 19.5175 14.5146 20C14.5146 20.4825 14.7059 20.9452 15.0464 21.2864C15.3868 21.6275 15.8486 21.8192 16.3301 21.8192C16.8116 21.8192 17.2733 21.6275 17.6138 21.2864L19.959 18.9364V38.1818C19.959 38.664 20.1501 39.1265 20.4904 39.4675C20.8307 39.8084 21.2922 40 21.7734 40Z" fill="#C4122F"/>
<path d="M34.4481 9.23636C34.2561 6.72342 33.1241 4.37581 31.2789 2.66326C29.4336 0.950705 27.0111 -0.000485456 24.4959 1.85871e-07C21.3751 1.85871e-07 18.971 1.19091 17.1792 3.63636H15.4238C12.7997 3.63614 10.2812 4.67159 8.4134 6.51854C6.54564 8.36549 5.47899 10.8753 5.4444 13.5045C3.54514 14.3465 1.99164 15.8159 1.04338 17.6674C0.0951193 19.5189 -0.190492 21.6404 0.234249 23.6775C0.658989 25.7146 1.76836 27.544 3.37709 28.8602C4.98581 30.1764 6.99648 30.8996 9.07327 30.9091H14.5166C14.9978 30.9091 15.4593 30.7175 15.7996 30.3766C16.1398 30.0356 16.331 29.5731 16.331 29.0909C16.331 28.6087 16.1398 28.1462 15.7996 27.8053C15.4593 27.4643 14.9978 27.2727 14.5166 27.2727H9.07327C7.75523 27.2528 6.48918 26.7544 5.51018 25.8698C4.53118 24.9853 3.90575 23.7748 3.75003 22.4632C3.59431 21.1515 3.91887 19.8278 4.66345 18.7378C5.40803 17.6478 6.52204 16.8656 7.79863 16.5364C8.24814 16.3926 8.63191 16.0932 8.88124 15.6918C9.13058 15.2903 9.2292 14.8131 9.15945 14.3455C9.11432 14.1114 9.08552 13.8744 9.07327 13.6364C9.07327 11.9486 9.74234 10.33 10.9333 9.13659C12.1242 7.94318 13.7395 7.27273 15.4238 7.27273H18.1454C18.457 7.27299 18.7635 7.19283 19.0352 7.03997C19.3069 6.88711 19.5347 6.66671 19.6968 6.4C20.8671 4.46364 22.3096 3.63636 24.4959 3.63636C26.1802 3.63636 27.7955 4.30682 28.9864 5.50023C30.1774 6.69364 30.8465 8.31226 30.8465 10V10.9091C30.8465 11.3913 31.0376 11.8538 31.3779 12.1947C31.7182 12.5357 32.1797 12.7273 32.6609 12.7273C34.5858 12.7273 36.4318 13.4935 37.7929 14.8574C39.154 16.2213 39.9186 18.0712 39.9186 20C39.9186 21.9288 39.154 23.7787 37.7929 25.1426C36.4318 26.5065 34.5858 27.2727 32.6609 27.2727H29.032C28.5508 27.2727 28.0893 27.4643 27.749 27.8053C27.4088 28.1462 27.2176 28.6087 27.2176 29.0909C27.2176 29.5731 27.4088 30.0356 27.749 30.3766C28.0893 30.7175 28.5508 30.9091 29.032 30.9091H32.6609C35.3957 30.913 38.0317 29.8853 40.0449 28.0305C42.058 26.1757 43.3007 23.6295 43.526 20.8984C43.7512 18.1673 42.9424 15.4513 41.2604 13.2905C39.5784 11.1297 37.1464 9.68236 34.4481 9.23636Z" fill="#C4122F"/>
</g>
<defs>
<clipPath id="clip0_38:14339">
<rect width="44" height="40" fill="white"/>
</clipPath>
</defs>
</svg>
