<svg width="16" height="24" viewBox="0 0 16 24" fill="none" xmlns="http://www.w3.org/2000/svg">
<g clip-path="url(#clip0_835:813)">
<path d="M8 1.80969C11.4529 1.80969 14.2658 4.73968 14.2658 8.34829C14.2658 11.7469 8.75355 21.4686 8.52129 21.8833C8.4129 22.0718 8.21677 22.1903 8.00516 22.1903C7.79355 22.1903 7.59742 22.0718 7.48903 21.8833C7.24645 21.4686 1.73419 11.7469 1.73419 8.34829C1.73419 4.74506 4.5471 1.80969 8 1.80969ZM8 0C3.5871 0 0 3.74327 0 8.34829C0 12.0916 4.99097 21.0485 5.9871 22.8097C6.40516 23.5476 7.17419 24.0054 7.99484 24.0054C8.81548 24.0054 9.58452 23.5476 10.0026 22.8097C10.1626 22.5296 11.5974 19.9928 13.0219 17.0521C16 10.912 16 8.98384 16 8.34829C16 3.74327 12.4129 0 8 0Z" fill="#282828"/>
<path d="M7.99999 12.6732C5.71353 12.6732 3.85547 10.7343 3.85547 8.3429C3.85547 5.9569 5.71353 4.01794 7.99999 4.01794C10.2864 4.01794 12.1445 5.9569 12.1445 8.3429C12.1445 10.7343 10.2864 12.6732 7.99999 12.6732ZM7.99999 5.83303C6.67353 5.83303 5.58966 6.9587 5.58966 8.34829C5.58966 9.73787 6.66837 10.8635 7.99999 10.8635C9.32644 10.8635 10.4103 9.73249 10.4103 8.34829C10.4103 6.9587 9.32644 5.83303 7.99999 5.83303Z" fill="#282828"/>
</g>
<defs>
<clipPath id="clip0_835:813">
<rect width="16" height="24" fill="white"/>
</clipPath>
</defs>
</svg>
