<svg width="38" height="25" viewBox="0 0 38 25" fill="none" xmlns="http://www.w3.org/2000/svg">
<path d="M34.86 0.5H2.66C1.19 0.5 0 1.7 0 3.18V21.82C0 23.3 1.19 24.5 2.66 24.5H34.86C36.32 24.5 37.52 23.3 37.52 21.82V3.18C37.51 1.7 36.32 0.5 34.86 0.5ZM6.1 1.98H31.42H33.05L31.8 3.03L19.14 13.71L18.76 14.03L18.38 13.71L5.71 3.03L4.47 1.98H6.1ZM36.03 21.82C36.03 22.47 35.49 23.02 34.85 23.02H2.66C2.02 23.02 1.48 22.47 1.48 21.82V3.18C1.48 2.91 1.58 2.64 1.77 2.42L2.15 1.96L2.61 2.35L17.67 15.06C17.91 15.26 18.32 15.38 18.76 15.38C19.2 15.38 19.61 15.26 19.85 15.06L34.9 2.34L35.36 1.95L35.74 2.41C35.93 2.64 36.03 2.9 36.03 3.17V21.82Z" fill="#C4122F"/>
</svg>
