<svg width="26" height="30" viewBox="0 0 26 30" fill="none" xmlns="http://www.w3.org/2000/svg">
<path d="M4.23913 18.8512V0.976744C4.23913 0.43814 3.79543 0 3.25 0C2.70457 0 2.26087 0.43814 2.26087 0.976744V18.8512C0.949565 19.2642 0 20.4753 0 21.907C0 23.3386 0.949565 24.5498 2.26087 24.9628V29.0233C2.26087 29.5619 2.70457 30 3.25 30C3.79543 30 4.23913 29.5619 4.23913 29.0233V24.9628C5.55043 24.5498 6.5 23.3386 6.5 21.907C6.5 20.4753 5.55043 19.2642 4.23913 18.8512Z" fill="#C4122F"/>
<path d="M13.9891 5.17674V0.976744C13.9891 0.43814 13.5454 0 13 0C12.4546 0 12.0109 0.43814 12.0109 0.976744V5.17674C10.6996 5.58977 9.75 6.80093 9.75 8.23256C9.75 9.66419 10.6996 10.8753 12.0109 11.2884V29.0233C12.0109 29.5619 12.4546 30 13 30C13.5454 30 13.9891 29.5619 13.9891 29.0233V11.2884C15.3004 10.8753 16.25 9.66419 16.25 8.23256C16.25 6.80093 15.3004 5.58977 13.9891 5.17674Z" fill="#C4122F"/>
<path d="M26 16.6047C26 15.173 25.0504 13.9619 23.7391 13.5488V0.976744C23.7391 0.43814 23.2954 0 22.75 0C22.2046 0 21.7609 0.43814 21.7609 0.976744V13.5488C20.4496 13.9619 19.5 15.173 19.5 16.6047C19.5 18.0363 20.4496 19.2474 21.7609 19.6605V29.0233C21.7609 29.5619 22.2046 30 22.75 30C23.2954 30 23.7391 29.5619 23.7391 29.0233V19.6605C25.0504 19.2474 26 18.0363 26 16.6047Z" fill="#C4122F"/>
</svg>
