<svg width="34" height="38" viewBox="0 0 34 38" fill="none" xmlns="http://www.w3.org/2000/svg">
<path d="M31.2358 37.0191H11.2455C9.72364 37.0191 8.48145 35.7523 8.48145 34.1975V8.04555C8.48145 6.49075 9.72364 5.22388 11.2455 5.22388H31.2358C32.7577 5.22388 33.9999 6.49075 33.9999 8.04555V34.1975C33.9999 35.7523 32.7577 37.0191 31.2358 37.0191ZM12.9895 34H29.5C30.3145 34 30.9808 33.3337 30.9808 32.5193V9.73198C30.9808 8.91756 30.3145 8.25121 29.5 8.25121H12.9895C12.1751 8.25121 11.5088 8.91756 11.5088 9.73198V32.5193C11.5088 33.3337 12.1669 34 12.9895 34Z" fill="#C4122F"/>
<path d="M5.67626 31.2688H2.82168C1.26687 31.2688 0 30.0183 0 28.4718V2.797C0 1.25042 1.26687 0 2.82168 0H23.6593C24.4079 0 25.1071 0.518267 25.2305 1.25865C25.3868 2.20469 24.6547 3.02734 23.7416 3.02734H4.49987C3.68545 3.02734 3.01911 3.69368 3.01911 4.5081V26.7689C3.01911 27.5833 3.68545 28.2497 4.49987 28.2497H5.75852C6.67988 28.2497 7.40381 29.0641 7.24751 30.0183C7.12411 30.7505 6.43309 31.2688 5.67626 31.2688Z" fill="#C4122F"/>
</svg>
