<svg width="31" height="28" viewBox="0 0 31 28" fill="none" xmlns="http://www.w3.org/2000/svg">
<path d="M30.9849 6.41964C30.9849 5.36582 30.1399 4.51055 29.0986 4.51055H20.8293V2.54036C20.8293 1.14036 19.7026 0 18.3193 0H12.6857C11.3024 0 10.1757 1.14036 10.1757 2.54036V4.51055H1.90638C0.865163 4.51055 0.0201201 5.36582 0.0201201 6.41964L0 14.2953C0 14.6465 0.201201 14.9724 0.513062 15.1251C0.814863 15.2727 1.12169 15.4102 1.43355 15.5476V26.096C1.43355 27.1447 2.2786 28 3.31981 28H27.6802C28.7214 28 29.5664 27.1447 29.5664 26.0909V15.3796C29.8884 15.2269 30.2053 15.0691 30.5121 14.9062C30.8139 14.7484 31 14.4327 30.995 14.0916L30.9849 6.41964ZM11.9916 4.51055V2.54036C11.9916 2.15345 12.3034 1.83782 12.6857 1.83782H18.3193C18.6966 1.83782 19.0135 2.15855 19.0135 2.54036V4.51055H11.9916ZM14.1092 18.3527V16.6524H16.8908V18.3527H14.1092ZM3.24939 16.2655C5.98069 17.2429 9.02385 17.8385 12.2883 18.0422V18.7244C12.2883 19.5338 12.9372 20.1905 13.737 20.1905H17.253C18.0527 20.1905 18.7016 19.5338 18.7016 18.7244V18.032C22.0164 17.808 25.0545 17.1767 27.7405 16.1535V26.0909C27.7405 26.1215 27.7053 26.1622 27.6701 26.1622H3.31981C3.2846 26.1622 3.24939 26.1265 3.24939 26.0909V16.2655ZM17.258 14.8145H13.742C12.9724 14.8145 12.3386 15.4255 12.2934 16.1942C8.36995 15.9396 4.84894 15.1047 1.81584 13.7047L1.83093 6.41455C1.83093 6.37891 1.86614 6.34327 1.90135 6.34327H29.0936C29.1288 6.34327 29.164 6.37891 29.164 6.41455L29.1791 13.5164C26.2215 14.9978 22.7005 15.8887 18.7016 16.1738C18.6513 15.4204 18.0226 14.8145 17.258 14.8145Z" fill="#282828"/>
</svg>
