<svg width="28" height="27" viewBox="0 0 28 27" fill="none" xmlns="http://www.w3.org/2000/svg">
<g clip-path="url(#clip0_40:22386)">
<path d="M27.651 24.9462L20.9013 18.1962C22.4256 16.0647 23.2395 13.3905 23.0005 10.529C22.5354 5.05797 18.1497 0.601034 12.6854 0.0584502C5.41893 -0.658535 -0.665498 5.42615 0.057916 12.6994C0.600477 18.1381 5.04431 22.5175 10.4893 22.9955C13.8868 23.2927 17.0194 22.1041 19.3059 20.0049L25.9523 26.6515C26.4238 27.123 27.1795 27.123 27.651 26.6515C28.116 26.18 28.116 25.4178 27.651 24.9462ZM11.5227 20.6379C6.49759 20.6379 2.40901 16.5491 2.40901 11.5238C2.40901 6.4984 6.49113 2.40319 11.5227 2.40319C16.5543 2.40319 20.6365 6.49194 20.6365 11.5173C20.6365 16.5427 16.5479 20.6379 11.5227 20.6379Z" fill="#C4122F"/>
</g>
<defs>
<clipPath id="clip0_40:22386">
<rect width="28" height="27" fill="white"/>
</clipPath>
</defs>
</svg>
