<svg width="40" height="25" viewBox="0 0 40 25" fill="none" xmlns="http://www.w3.org/2000/svg">
<g clip-path="url(#clip0_593:37548)">
<path d="M35.86 0.5H3.66C2.19 0.5 1 1.7 1 3.18V21.82C1 23.3 2.19 24.5 3.66 24.5H35.86C37.32 24.5 38.52 23.3 38.52 21.82V3.18C38.51 1.7 37.32 0.5 35.86 0.5ZM7.1 1.98H32.42H34.05L32.8 3.03L20.14 13.71L19.76 14.03L19.38 13.71L6.71 3.03L5.47 1.98H7.1ZM37.03 21.82C37.03 22.47 36.49 23.02 35.85 23.02H3.66C3.02 23.02 2.48 22.47 2.48 21.82V3.18C2.48 2.91 2.58 2.64 2.77 2.42L3.15 1.96L3.61 2.35L18.67 15.06C18.91 15.26 19.32 15.38 19.76 15.38C20.2 15.38 20.61 15.26 20.85 15.06L35.9 2.34L36.36 1.95L36.74 2.41C36.93 2.64 37.03 2.9 37.03 3.17V21.82Z" fill="#07354F"/>
</g>
<defs>
<clipPath id="clip0_593:37548">
<rect width="40" height="24" fill="white" transform="translate(0 0.5)"/>
</clipPath>
</defs>
</svg>
