<svg width="52" height="52" viewBox="0 0 52 52" fill="none" xmlns="http://www.w3.org/2000/svg">
<path d="M52 26C52 40.2962 40.3011 52 25.9969 52C11.6989 52 0 40.2962 0 26C0 11.6975 11.6989 0 26.0031 0C40.3011 0 52 11.6975 52 26Z" fill="#3C5193"/>
<path d="M34.2283 27.5668L35.0464 21.2241H28.7659V17.1718C28.7659 15.3345 29.2756 14.0823 31.9125 14.0823H35.2667V8.4066C34.6877 8.33109 32.6928 8.15491 30.3706 8.15491C25.5249 8.15491 22.2085 11.1123 22.2085 16.5426V21.2178H16.7272V27.5605H22.2085V43.8388H28.7596V27.5668H34.2283Z" fill="white"/>
</svg>
