<svg width="30" height="30" viewBox="0 0 30 30" fill="none" xmlns="http://www.w3.org/2000/svg">
<circle cx="15" cy="15" r="15" fill="#C4122F"/>
<path d="M22.7552 13.7552H16.2448V7.24481C16.2448 6.55768 15.6871 6 15 6C14.3129 6 13.7552 6.55768 13.7552 7.24481V13.7552H7.24481C6.55768 13.7552 6 14.3129 6 15C6 15.6871 6.55768 16.2448 7.24481 16.2448H13.7552V22.7552C13.7552 23.0888 13.8846 23.4 14.1187 23.6365C14.3527 23.873 14.6664 24 14.9975 24C15.6846 24 16.2423 23.4423 16.2423 22.7552V16.2448H22.7552C23.4423 16.2448 24 15.6871 24 15C24 14.3129 23.4398 13.7552 22.7552 13.7552Z" fill="white"/>
</svg>
