<svg width="52" height="52" viewBox="0 0 52 52" fill="none" xmlns="http://www.w3.org/2000/svg">
<path d="M52 26.0031C52 40.3014 40.3014 52 26.0031 52H25.9969C11.6986 52 0 40.3014 0 26.0031V25.9969C0 11.6986 11.6986 0 25.9969 0H26.0031C40.3014 0 52 11.6986 52 26.0031Z" fill="#006699"/>
<path d="M19.1083 16.27C19.1083 17.7583 18.0094 18.9639 16.2009 18.9639C14.4992 18.9639 13.4003 17.7583 13.4003 16.27C13.4003 14.7441 14.5368 13.5762 16.27 13.5762C18.0094 13.5762 19.0706 14.7504 19.1083 16.27ZM13.5447 38.4239V21.0927H18.9325V38.4239H13.5447Z" fill="white"/>
<path d="M22.1538 26.6186C22.1538 24.4585 22.0848 22.65 22.0094 21.0927H26.6876L26.9388 23.504H27.0455C27.7551 22.3674 29.4882 20.7034 32.3956 20.7034C35.9372 20.7034 38.5997 23.077 38.5997 28.1822V38.4239H33.2119V28.8164C33.2119 26.5809 32.4333 25.0613 30.4804 25.0613C28.9921 25.0613 28.1067 26.0911 27.7174 27.0833C27.573 27.4349 27.5416 27.931 27.5416 28.4334V38.4302H22.1538V26.6186Z" fill="white"/>
</svg>
