<svg width="13" height="21" viewBox="0 0 13 21" fill="none" xmlns="http://www.w3.org/2000/svg">
<g clip-path="url(#clip0_39:14993)">
<path d="M12.5278 9.42639L2.62357 0.411089C2.30621 0.119505 1.87507 -0.0292622 1.44992 0.00644195C1.01878 0.0361954 0.617585 0.24447 0.348124 0.577709C-0.166846 1.21443 -0.100978 2.14274 0.503812 2.69616L8.77926 10.3011C8.85112 10.3726 8.86309 10.4559 8.86309 10.4975C8.86309 10.5392 8.85112 10.6225 8.77926 10.6939L0.503812 18.3048C-0.100978 18.8582 -0.166846 19.7925 0.348124 20.4233C0.617585 20.7565 1.01878 20.9648 1.44992 20.9945C1.48585 20.9945 1.52776 21.0005 1.56369 21.0005C1.95291 21.0005 2.33615 20.8577 2.62357 20.5899L12.5278 11.5746C12.8272 11.3009 13.0008 10.9081 13.0008 10.5035C13.0008 10.0929 12.8272 9.70012 12.5278 9.42639Z" fill="#C4122F"/>
</g>
<defs>
<clipPath id="clip0_39:14993">
<rect width="13" height="21" fill="white"/>
</clipPath>
</defs>
</svg>
