<svg width="40" height="25" viewBox="0 0 40 25" fill="none" xmlns="http://www.w3.org/2000/svg">
<g clip-path="url(#clip0_593:37500)">
<path d="M27.187 24.5C27.1305 24.5 27.074 24.5 27.0175 24.5C26.6222 24.4812 25.2481 24.3871 24.2411 24.1235C20.8151 23.2294 17.3045 21.1117 14.3492 18.1564C11.3939 15.2011 9.27622 11.6811 8.38209 8.25515C8.18444 7.49279 8.08091 6.48573 8.00562 5.51631C7.93974 4.42453 8.45739 3.39864 9.3421 2.81511L12.2692 0.876266C12.8057 0.518616 13.4645 0.405674 14.0857 0.575087C14.688 0.7445 15.1963 1.15862 15.4786 1.71392L17.8504 6.29749C18.3492 7.24809 18.0951 8.42457 17.2575 9.0834L15.5916 10.3822C16.3539 11.7375 17.1163 12.8387 18.4151 14.1187C19.714 15.4176 20.8151 16.1893 22.0857 16.9046L23.4034 15.2105C24.0716 14.3634 25.2764 14.1093 26.2081 14.627L30.8105 16.9988C31.3658 17.2717 31.7799 17.7799 31.9399 18.3917C32.1094 19.0035 31.9964 19.6717 31.6482 20.2082L29.7187 23.1353C29.1635 23.9823 28.2034 24.5 27.187 24.5ZM13.5021 1.91157C13.3421 1.91157 13.1821 1.95863 13.041 2.05275L10.1233 4.001C9.64328 4.31159 9.37975 4.84807 9.40798 5.42219C9.46445 6.07161 9.55857 7.19162 9.74681 7.90692C10.5751 11.0881 12.561 14.3729 15.3469 17.1588C18.1328 19.9447 21.4175 21.9306 24.5987 22.7588C25.3046 22.9376 26.3493 23.0506 27.1023 23.0976C27.6952 23.1353 28.2223 22.8529 28.5423 22.3635L30.4717 19.4364C30.6035 19.2388 30.6411 18.9941 30.5846 18.7682C30.5282 18.5517 30.3776 18.3729 30.1799 18.2694L25.5493 15.8882C25.2011 15.6905 24.7681 15.794 24.5234 16.1046L22.4716 18.74L21.9446 18.4576C20.3822 17.6199 19.0081 16.7352 17.4269 15.1446C15.8363 13.5823 14.9892 12.274 14.0668 10.5516L13.7845 10.0246L16.401 7.99162C16.7022 7.75633 16.7963 7.31397 16.608 6.96573L14.2174 2.35393C14.1139 2.14687 13.9351 1.99628 13.7186 1.9398C13.6433 1.92098 13.5774 1.91157 13.5021 1.91157Z" fill="#07354F"/>
</g>
<defs>
<clipPath id="clip0_593:37500">
<rect width="40" height="24" fill="white" transform="translate(0 0.5)"/>
</clipPath>
</defs>
</svg>
