<svg width="195" height="21" viewBox="0 0 195 21" fill="none" xmlns="http://www.w3.org/2000/svg">
<path d="M13.9411 11.1984H8.05895C3.61726 11.1984 0 14.331 0 18.183V19.9929C0 20.5498 0.449263 21 1.00505 21C1.56084 21 2.01011 20.5498 2.01011 19.9929V18.183C2.01011 15.4402 4.72421 13.2126 8.05895 13.2126H13.9411C17.2758 13.2126 19.9899 15.4402 19.9899 18.183V19.9929C19.9899 20.5498 20.4392 21 20.9949 21C21.5507 21 22 20.5498 22 19.9929V18.183C22 14.331 18.3827 11.1984 13.9411 11.1984Z" fill="#282828"/>
<path d="M11.44 10.5627C14.3487 10.5627 16.7108 8.19116 16.7108 5.28133C16.7108 2.37149 14.3487 0 11.44 0C8.53142 0 6.16931 2.37149 6.16931 5.28133C6.16931 8.19116 8.53605 10.5627 11.44 10.5627ZM11.44 2.01414C13.2371 2.01414 14.7053 3.48066 14.7053 5.28133C14.7053 7.08199 13.2417 8.55315 11.44 8.55315C9.63836 8.55315 8.17479 7.08663 8.17479 5.28133C8.17479 3.47602 9.643 2.01414 11.44 2.01414Z" fill="#282828"/>
<path d="M29.2857 9.28571H25.7143V5.71429C25.7143 5.31905 25.3952 5 25 5C24.6048 5 24.2857 5.31905 24.2857 5.71429V9.28571H20.7143C20.319 9.28571 20 9.60476 20 10C20 10.3952 20.319 10.7143 20.7143 10.7143H24.2857V14.2857C24.2857 14.681 24.6048 15 25 15C25.3952 15 25.7143 14.681 25.7143 14.2857V10.7143H29.2857C29.681 10.7143 30 10.3952 30 10C30 9.60476 29.681 9.28571 29.2857 9.28571Z" fill="#C4122F"/>
<path d="M37.816 11.916C37.816 14.112 39.22 15.204 41.332 15.204C43.444 15.204 44.848 14.112 44.848 11.916V6.432H43.348V11.424C43.348 12.576 43.276 13.908 41.332 13.908C39.388 13.908 39.316 12.576 39.316 11.424V6.432H37.816V11.916ZM40.432 5.76H41.428L43.132 4.044H41.512L40.432 5.76ZM46.3802 15H47.7482V11.34C47.7482 10.428 48.3362 9.708 49.2482 9.708C50.0522 9.708 50.4362 10.128 50.4602 11.1V15H51.8282V10.74C51.8282 9.348 50.9762 8.628 49.6322 8.628C48.8162 8.628 48.1082 9.048 47.7002 9.732L47.6762 9.708V8.796H46.3802V15ZM58.8988 12.252C59.1268 10.392 57.9268 8.628 55.9708 8.628C54.1228 8.628 52.9708 10.14 52.9708 11.904C52.9708 13.812 54.0628 15.168 56.0068 15.168C57.3628 15.168 58.5148 14.412 58.8148 13.056H57.5188C57.2788 13.74 56.7988 14.088 56.0068 14.088C54.8668 14.088 54.3388 13.224 54.3388 12.252H58.8988ZM54.3388 11.352C54.3748 10.428 55.0228 9.708 55.9708 9.708C56.8948 9.708 57.4828 10.488 57.5308 11.352H54.3388ZM59.3148 9.816H60.3468V13.476C60.3708 14.508 60.6348 15.06 62.0628 15.06C62.3628 15.06 62.6508 15.012 62.9508 14.988V13.932C62.7588 13.98 62.5668 13.98 62.3748 13.98C61.7628 13.98 61.7148 13.692 61.7148 13.128V9.816H62.9508V8.796H61.7148V6.936H60.3468V8.796H59.3148V9.816ZM69.5628 12.252C69.7908 10.392 68.5908 8.628 66.6348 8.628C64.7868 8.628 63.6348 10.14 63.6348 11.904C63.6348 13.812 64.7268 15.168 66.6708 15.168C68.0268 15.168 69.1788 14.412 69.4788 13.056H68.1828C67.9428 13.74 67.4628 14.088 66.6708 14.088C65.5308 14.088 65.0028 13.224 65.0028 12.252H69.5628ZM65.0028 11.352C65.0388 10.428 65.6868 9.708 66.6348 9.708C67.5588 9.708 68.1468 10.488 68.1948 11.352H65.0028ZM77.7707 12.912C77.7707 13.776 76.8347 14.088 76.2347 14.088C75.7547 14.088 74.9747 13.908 74.9747 13.296C74.9747 12.576 75.5027 12.36 76.0907 12.264C76.6907 12.156 77.3507 12.168 77.7707 11.892V12.912ZM79.1387 10.428C79.1387 9.12 77.8667 8.628 76.6547 8.628C75.2867 8.628 73.9307 9.096 73.8347 10.692H75.2027C75.2627 10.02 75.8027 9.708 76.5707 9.708C77.1227 9.708 77.8547 9.84 77.8547 10.548C77.8547 11.352 76.9787 11.244 75.9947 11.424C74.8427 11.556 73.6067 11.808 73.6067 13.356C73.6067 14.568 74.6147 15.168 75.7307 15.168C76.4627 15.168 77.3387 14.94 77.8787 14.412C77.9867 14.976 78.3827 15.168 78.9347 15.168C79.1627 15.168 79.5947 15.084 79.7987 15.012V14.064C79.6547 14.088 79.5467 14.088 79.4627 14.088C79.2107 14.088 79.1387 13.956 79.1387 13.62V10.428ZM80.6466 15H82.0146V6.432H80.6466V15ZM88.537 7.656H90.013C92.365 7.656 92.869 9 92.869 10.716C92.869 12.432 92.365 13.776 90.013 13.776H88.537V7.656ZM87.037 15H90.589C93.229 15 94.369 13.08 94.369 10.716C94.369 8.352 93.229 6.432 90.589 6.432H87.037V15ZM95.5412 15H96.9092V8.796H95.5412V15ZM95.5412 7.728H96.9092V6.432H95.5412V7.728ZM98.3997 15H99.7677V12.048C99.7677 10.68 100.512 9.924 101.448 9.924C101.64 9.924 101.844 9.96 102.036 9.984V8.664C101.916 8.652 101.832 8.628 101.52 8.628C100.68 8.628 99.8637 9.336 99.7077 9.996H99.6837V8.796H98.3997V15ZM108.036 12.252C108.264 10.392 107.064 8.628 105.108 8.628C103.26 8.628 102.108 10.14 102.108 11.904C102.108 13.812 103.2 15.168 105.144 15.168C106.5 15.168 107.652 14.412 107.952 13.056H106.656C106.416 13.74 105.936 14.088 105.144 14.088C104.004 14.088 103.476 13.224 103.476 12.252H108.036ZM103.476 11.352C103.512 10.428 104.16 9.708 105.108 9.708C106.032 9.708 106.62 10.488 106.668 11.352H103.476ZM114.631 10.872C114.499 9.348 113.275 8.628 111.835 8.628C109.795 8.628 108.775 10.092 108.775 11.964C108.775 13.788 109.843 15.168 111.787 15.168C113.383 15.168 114.379 14.28 114.631 12.672H113.263C113.131 13.56 112.579 14.088 111.787 14.088C110.599 14.088 110.143 12.996 110.143 11.964C110.143 10.08 111.139 9.708 111.847 9.708C112.603 9.708 113.155 10.116 113.263 10.872H114.631ZM115.119 9.816H116.151V13.476C116.175 14.508 116.439 15.06 117.867 15.06C118.167 15.06 118.455 15.012 118.755 14.988V13.932C118.563 13.98 118.371 13.98 118.179 13.98C117.567 13.98 117.519 13.692 117.519 13.128V9.816H118.755V8.796H117.519V6.936H116.151V8.796H115.119V9.816ZM122.584 14.088C121.36 14.088 120.82 12.972 120.82 11.892C120.82 10.824 121.36 9.708 122.584 9.708C123.808 9.708 124.348 10.824 124.348 11.892C124.348 12.972 123.808 14.088 122.584 14.088ZM122.584 15.168C124.576 15.168 125.716 13.8 125.716 11.892C125.716 9.996 124.576 8.628 122.584 8.628C120.592 8.628 119.452 9.996 119.452 11.892C119.452 13.8 120.592 15.168 122.584 15.168ZM126.853 15H128.221V12.048C128.221 10.68 128.965 9.924 129.901 9.924C130.093 9.924 130.297 9.96 130.489 9.984V8.664C130.369 8.652 130.285 8.628 129.973 8.628C129.133 8.628 128.317 9.336 128.161 9.996H128.137V8.796H126.853V15ZM131.108 15H132.476V8.796H131.108V15ZM131.108 7.728H132.476V6.432H131.108V7.728ZM136.81 14.088C135.586 14.088 135.046 12.972 135.046 11.892C135.046 10.824 135.586 9.708 136.81 9.708C138.034 9.708 138.574 10.824 138.574 11.892C138.574 12.972 138.034 14.088 136.81 14.088ZM136.81 15.168C138.802 15.168 139.942 13.8 139.942 11.892C139.942 9.996 138.802 8.628 136.81 8.628C134.818 8.628 133.678 9.996 133.678 11.892C133.678 13.8 134.818 15.168 136.81 15.168ZM144.611 15H150.467V13.704H146.111V6.432H144.611V15ZM154.154 14.088C152.93 14.088 152.39 12.972 152.39 11.892C152.39 10.824 152.93 9.708 154.154 9.708C155.378 9.708 155.918 10.824 155.918 11.892C155.918 12.972 155.378 14.088 154.154 14.088ZM154.154 15.168C156.146 15.168 157.286 13.8 157.286 11.892C157.286 9.996 156.146 8.628 154.154 8.628C152.162 8.628 151.022 9.996 151.022 11.892C151.022 13.8 152.162 15.168 154.154 15.168ZM161.123 13.92C159.983 13.92 159.491 12.888 159.491 11.868C159.491 10.836 159.911 9.708 161.123 9.708C162.311 9.708 162.791 10.692 162.791 11.76C162.791 12.816 162.335 13.92 161.123 13.92ZM164.159 8.796H162.791V9.648H162.767C162.419 8.952 161.711 8.628 160.931 8.628C159.167 8.628 158.123 10.068 158.123 11.736C158.123 13.512 158.939 15 160.907 15C161.675 15 162.383 14.592 162.767 13.908H162.791V14.856C162.791 15.876 162.299 16.44 161.195 16.44C160.499 16.44 159.875 16.308 159.707 15.528H158.339C158.459 16.98 159.863 17.46 161.111 17.46C163.067 17.46 164.159 16.536 164.159 14.676V8.796ZM166.94 15V8.796H165.572V15H166.94ZM165.356 7.944H166.352L168.056 6.228H166.436L165.356 7.944ZM168.095 13.008C168.119 14.472 169.283 15.168 170.843 15.168C172.127 15.168 173.615 14.628 173.615 13.152C173.615 11.928 172.607 11.568 171.611 11.34C170.603 11.112 169.595 11.016 169.595 10.344C169.595 9.804 170.327 9.708 170.723 9.708C171.323 9.708 171.863 9.888 171.983 10.536H173.411C173.243 9.156 172.091 8.628 170.819 8.628C169.691 8.628 168.227 9.048 168.227 10.404C168.227 11.664 169.211 12.024 170.219 12.24C171.215 12.468 172.211 12.552 172.247 13.272C172.283 13.98 171.383 14.088 170.867 14.088C170.135 14.088 169.535 13.8 169.463 13.008H168.095ZM174.03 9.816H175.062V13.476C175.086 14.508 175.35 15.06 176.778 15.06C177.078 15.06 177.366 15.012 177.666 14.988V13.932C177.474 13.98 177.282 13.98 177.09 13.98C176.478 13.98 176.43 13.692 176.43 13.128V9.816H177.666V8.796H176.43V6.936H175.062V8.796H174.03V9.816ZM178.686 15H180.054V8.796H178.686V15ZM178.686 7.728H180.054V6.432H178.686V7.728ZM187.1 10.872C186.968 9.348 185.744 8.628 184.304 8.628C182.264 8.628 181.244 10.092 181.244 11.964C181.244 13.788 182.312 15.168 184.256 15.168C185.852 15.168 186.848 14.28 187.1 12.672H185.732C185.6 13.56 185.048 14.088 184.256 14.088C183.068 14.088 182.612 12.996 182.612 11.964C182.612 10.08 183.608 9.708 184.316 9.708C185.072 9.708 185.624 10.116 185.732 10.872H187.1ZM191.056 14.088C189.832 14.088 189.292 12.972 189.292 11.892C189.292 10.824 189.832 9.708 191.056 9.708C192.28 9.708 192.82 10.824 192.82 11.892C192.82 12.972 192.28 14.088 191.056 14.088ZM191.056 15.168C193.048 15.168 194.188 13.8 194.188 11.892C194.188 9.996 193.048 8.628 191.056 8.628C189.064 8.628 187.924 9.996 187.924 11.892C187.924 13.8 189.064 15.168 191.056 15.168Z" fill="#282828"/>
</svg>
