<svg width="42" height="21" viewBox="0 0 42 21" fill="none" xmlns="http://www.w3.org/2000/svg">
<path d="M13.9411 11.1985H8.05895C3.61726 11.1985 0 14.3311 0 18.183V19.993C0 20.5499 0.449263 21 1.00505 21C1.56084 21 2.01011 20.5499 2.01011 19.993V18.183C2.01011 15.4403 4.72421 13.2126 8.05895 13.2126H13.9411C17.2758 13.2126 19.9899 15.4403 19.9899 18.183V19.993C19.9899 20.5499 20.4392 21 20.9949 21C21.5507 21 22 20.5499 22 19.993V18.183C22 14.3311 18.3827 11.1985 13.9411 11.1985Z" fill="#282828"/>
<path d="M11.4399 10.5627C14.3486 10.5627 16.7107 8.19116 16.7107 5.28133C16.7107 2.37149 14.3486 0 11.4399 0C8.5313 0 6.16919 2.37149 6.16919 5.28133C6.16919 8.19116 8.53593 10.5627 11.4399 10.5627ZM11.4399 2.01414C13.237 2.01414 14.7052 3.48066 14.7052 5.28133C14.7052 7.08199 13.2416 8.55315 11.4399 8.55315C9.63824 8.55315 8.17466 7.08663 8.17466 5.28133C8.17466 3.47602 9.64287 2.01414 11.4399 2.01414Z" fill="#282828"/>
<path d="M30 9L35 14L40 9L42 10L35 17L28 10L30 9Z" fill="#C4122F"/>
</svg>
