<svg width="35" height="35" viewBox="0 0 35 35" fill="none" xmlns="http://www.w3.org/2000/svg">
<circle cx="17.5" cy="17.5" r="17" stroke="#C4122F"/>
<path d="M13.0762 9.94897C13.0762 11.029 12.2928 11.8979 11.0014 11.8979C9.78341 11.9041 9 11.029 9 9.94897C9 8.85034 9.80789 8 11.0503 8C12.2928 8 13.0517 8.85034 13.0762 9.94897ZM9.10405 26V13.4434H12.9538V26H9.10405Z" fill="#C4122F"/>
<path d="M15.2552 17.4469C15.2552 15.8828 15.2062 14.5731 15.1511 13.4435H18.4928L18.6703 15.1876H18.7438C19.2518 14.3683 20.4881 13.158 22.569 13.158C25.1028 13.158 27.0002 14.8773 27.0002 18.5766V26H23.1504V19.0421C23.1504 17.4221 22.5935 16.3235 21.198 16.3235C20.1331 16.3235 19.5027 17.0683 19.2212 17.7883C19.1171 18.0428 19.0926 18.4028 19.0926 18.7628V26H15.2429V17.4469H15.2552Z" fill="#C4122F"/>
</svg>
