<svg width="55" height="55" viewBox="0 0 55 55" fill="none" xmlns="http://www.w3.org/2000/svg">
<circle cx="27.5" cy="27.5" r="27.5" fill="#C4122F"/>
<path d="M35.2363 31.5842C34.3735 31.5885 33.5226 31.7846 32.7465 32.1581C31.9704 32.5315 31.2889 33.0727 30.7522 33.7418L22.3257 28.5248C22.6328 27.5433 22.6328 26.4926 22.3257 25.5111L30.7522 20.2941C31.6075 21.3429 32.81 22.058 34.1467 22.3128C35.4834 22.5677 36.8681 22.3458 38.0554 21.6864C39.2427 21.027 40.156 19.9727 40.6336 18.7103C41.1111 17.4479 41.1221 16.0589 40.6645 14.7892C40.2069 13.5196 39.3103 12.4513 38.1336 11.7736C36.9568 11.096 35.5758 10.8526 34.2352 11.0867C32.8947 11.3209 31.681 12.0173 30.8093 13.0527C29.9376 14.0882 29.4641 15.3957 29.4727 16.7438C29.4781 17.2543 29.5557 17.7615 29.7032 18.2507L21.2767 23.4677C20.5328 22.5402 19.516 21.8649 18.3672 21.5354C17.2184 21.2059 15.9945 21.2385 14.8652 21.6286C13.736 22.0187 12.7572 22.7471 12.0646 23.7128C11.3721 24.6784 11 25.8335 11 27.018C11 28.2024 11.3721 29.3575 12.0646 30.3232C12.7572 31.2888 13.736 32.0172 14.8652 32.4073C15.9945 32.7974 17.2184 32.83 18.3672 32.5005C19.516 32.171 20.5328 31.4957 21.2767 30.5682L29.7032 35.7852C29.5557 36.2744 29.4781 36.7816 29.4727 37.2921C29.4727 38.421 29.8107 39.5246 30.444 40.4632C31.0773 41.4019 31.9775 42.1335 33.0307 42.5655C34.0838 42.9975 35.2427 43.1106 36.3608 42.8903C37.4788 42.6701 38.5058 42.1265 39.3119 41.3282C40.1179 40.5299 40.6669 39.5129 40.8892 38.4057C41.1116 37.2985 40.9975 36.1508 40.5613 35.1078C40.125 34.0648 39.3863 33.1734 38.4384 32.5462C37.4906 31.919 36.3763 31.5842 35.2363 31.5842ZM35.2363 13.3191C35.9203 13.3191 36.5889 13.5199 37.1576 13.8962C37.7263 14.2725 38.1695 14.8074 38.4313 15.4332C38.693 16.059 38.7615 16.7476 38.6281 17.4119C38.4946 18.0762 38.1653 18.6865 37.6816 19.1654C37.198 19.6444 36.5818 19.9706 35.911 20.1027C35.2402 20.2348 34.5448 20.167 33.9129 19.9078C33.281 19.6486 32.7409 19.2096 32.3609 18.6465C31.9809 18.0833 31.7781 17.4211 31.7781 16.7438C31.7781 15.8355 32.1425 14.9644 32.791 14.3221C33.4395 13.6799 34.3192 13.3191 35.2363 13.3191ZM16.7926 30.4427C16.1086 30.4427 15.44 30.2418 14.8713 29.8655C14.3026 29.4892 13.8594 28.9543 13.5976 28.3285C13.3359 27.7028 13.2674 27.0142 13.4008 26.3498C13.5343 25.6855 13.8636 25.0753 14.3473 24.5963C14.8309 24.1173 15.4471 23.7912 16.1179 23.659C16.7888 23.5269 17.4841 23.5947 18.116 23.8539C18.7479 24.1131 19.288 24.5521 19.668 25.1153C20.048 25.6785 20.2508 26.3406 20.2508 27.018C20.2508 27.9262 19.8864 28.7973 19.2379 29.4396C18.5894 30.0819 17.7098 30.4427 16.7926 30.4427ZM35.2363 40.7168C34.5524 40.7168 33.8838 40.516 33.3151 40.1397C32.7464 39.7634 32.3031 39.2285 32.0414 38.6027C31.7796 37.9769 31.7111 37.2883 31.8446 36.624C31.978 35.9597 32.3074 35.3494 32.791 34.8705C33.2746 34.3915 33.8908 34.0653 34.5617 33.9332C35.2325 33.8011 35.9278 33.8689 36.5597 34.1281C37.1916 34.3873 37.7317 34.8263 38.1117 35.3895C38.4917 35.9526 38.6945 36.6148 38.6945 37.2921C38.6945 38.2004 38.3302 39.0715 37.6816 39.7138C37.0331 40.356 36.1535 40.7168 35.2363 40.7168Z" fill="white"/>
</svg>
