<svg width="55" height="55" viewBox="0 0 55 55" fill="none" xmlns="http://www.w3.org/2000/svg">
<circle cx="27.5" cy="27.5" r="27.5" fill="#C4122F"/>
<path d="M42.144 16H13.856C12.2815 16 11 17.343 11 18.9905V36.0095C11 37.657 12.2815 39 13.856 39H42.144C43.7185 39 45 37.657 45 36.0095V18.9905C45 17.343 43.7185 16 42.144 16ZM39.1206 18.4359L28 28.1905L16.8794 18.4359H39.1206ZM42.6566 36.0095C42.6566 36.2976 42.4108 36.5641 42.144 36.5641H13.856C13.5892 36.5641 13.3434 36.2976 13.3434 36.0095V18.9905C13.3434 18.86 13.3957 18.7404 13.4742 18.6426L26.708 30.2459C27.0271 30.5286 27.5135 30.6645 28 30.6645C28.4865 30.6645 28.9729 30.5232 29.2972 30.2404L42.5206 18.6426C42.5991 18.7404 42.6514 18.86 42.6514 18.9905V36.0095H42.6566Z" fill="white"/>
</svg>
