<svg width="35" height="35" viewBox="0 0 35 35" fill="none" xmlns="http://www.w3.org/2000/svg">
<circle cx="17.5" cy="17.5" r="17" stroke="#C4122F"/>
<path d="M26.5055 11.2725C25.7939 11.6964 25.0017 12.0042 24.159 12.1707C23.4828 11.4491 22.524 11 21.4643 11C19.4256 11 17.7704 12.6552 17.7704 14.6939C17.7704 14.9865 17.8057 15.2641 17.8663 15.5366C14.7931 15.3852 12.0732 13.9117 10.2464 11.6762C9.93356 12.2212 9.74685 12.857 9.74685 13.5332C9.74685 14.815 10.3978 15.9453 11.3919 16.6064C10.7864 16.5862 10.2161 16.4197 9.72161 16.1421V16.1876C9.72161 17.979 10.9933 19.4727 12.6838 19.8108C12.3759 19.8966 12.0479 19.942 11.7098 19.942C11.4727 19.942 11.2405 19.9167 11.0135 19.8764C11.4828 21.3448 12.8452 22.4146 14.4651 22.4449C13.2035 23.434 11.6089 24.0244 9.87805 24.0244C9.58032 24.0244 9.28764 24.0042 9 23.9739C10.6299 25.0235 12.5727 25.6341 14.6569 25.6341C21.4491 25.6341 25.1682 20.0076 25.1682 15.1228C25.1682 14.9613 25.1632 14.8049 25.1581 14.6434C25.8797 14.1236 26.5055 13.4727 27 12.7309C26.3389 13.0235 25.6274 13.2254 24.8806 13.3112C25.6426 12.857 26.2279 12.1354 26.5055 11.2725Z" fill="#C4122F"/>
</svg>
