<svg width="51" height="37" viewBox="0 0 51 37" fill="none" xmlns="http://www.w3.org/2000/svg">
<path d="M16.682 25.1846C13.9112 25.8447 11.1403 26.5047 8.36946 27.1648C7.53142 27.3644 6.69345 27.5641 5.85542 27.7637C6.11349 27.8508 6.3715 27.9379 6.62951 28.0251C5.99579 27.1098 5.36201 26.1945 4.72823 25.2792C4.67458 25.8112 4.62088 26.3431 4.56723 26.8752C5.46664 26.0825 6.36605 25.2898 7.26545 24.4972C7.64793 24.16 7.85309 23.3421 7.42646 22.9012C5.56575 20.9783 3.7051 19.0554 1.84439 17.1324C1.79075 17.6644 1.73704 18.1964 1.68339 18.7283C2.77006 17.998 3.85667 17.2676 4.94334 16.5373C4.73897 16.5715 4.53461 16.6056 4.33024 16.6398C7.05529 17.5471 9.7804 18.4545 12.5055 19.3618C12.7809 19.4536 13.0562 19.5452 13.3316 19.6369C13.831 19.8032 14.4185 19.1765 14.8247 18.8747C17.0309 17.2356 19.2659 15.6591 21.5197 14.1298C21.252 14.1298 20.9843 14.1298 20.7166 14.1298C21.9566 15.1853 23.1967 16.2408 24.4367 17.2962C24.6805 17.5037 24.9932 17.455 25.2399 17.2962C27.7687 15.6693 30.2975 14.0424 32.8263 12.4155C33.464 12.0053 34.1016 11.595 34.7392 11.1848C35.3866 10.7683 35.1653 9.5766 34.5491 9.32757C32.66 8.56393 30.771 7.80022 28.8818 7.03651C28.9451 7.65564 29.0085 8.27469 29.0719 8.89375C31.8752 7.24671 34.6599 5.60033 37.4977 4.18287C38.7407 3.56201 40.0007 2.97714 41.2921 2.54107C41.4671 2.48198 41.6389 2.43219 41.8169 2.39336C41.9384 2.36687 42.0603 2.34386 42.1824 2.32245C41.8743 2.37652 42.1757 2.32521 42.2466 2.31468C42.3522 2.299 42.4581 2.2855 42.564 2.27287C43.0781 2.21154 43.5947 2.18839 44.1109 2.19652C44.4061 2.20116 44.7011 2.22018 44.9954 2.24892C45.1631 2.26533 45.3305 2.28754 45.4976 2.31229C45.5163 2.31505 45.7577 2.35685 45.5793 2.32499C45.6785 2.3427 45.7774 2.36317 45.8763 2.38407C46.5766 2.53214 47.2645 2.77057 47.9265 3.09726C47.9237 3.09588 48.1707 3.22631 48.0392 3.15431C48.115 3.19583 48.1899 3.24003 48.2649 3.28423C48.4416 3.38861 48.6143 3.5038 48.7849 3.62348C49.1355 3.86932 49.4681 4.15478 49.7853 4.46529C49.6634 4.26286 49.5416 4.06043 49.4197 3.858C49.3971 3.69541 49.3924 3.49407 49.395 3.65353C49.3972 3.78679 49.3582 4.0748 49.4126 3.58001C49.4008 3.68823 49.3805 3.7947 49.356 3.8993C49.3397 3.96897 49.321 4.03778 49.3007 4.10579C49.2162 4.39075 49.4044 3.81902 49.2989 4.1108C49.2276 4.30779 49.1443 4.49745 49.0546 4.68159C48.9996 4.79438 48.9417 4.9047 48.8819 5.01343C48.8503 5.07077 48.8181 5.12739 48.7854 5.18364C48.7683 5.21303 48.7511 5.24228 48.7337 5.27139C48.6571 5.40008 48.8962 5.00559 48.7854 5.18552C48.3912 5.82563 47.9371 6.40418 47.4639 6.9484C47.142 7.31864 46.8081 7.67161 46.4675 8.01325C46.4114 8.06943 46.2255 8.25256 46.4686 8.01318C46.4216 8.05949 46.3744 8.10536 46.3272 8.15116C46.2213 8.25401 46.1146 8.3554 46.0074 8.45615C45.7869 8.66352 45.5635 8.86624 45.3385 9.06569C44.2238 10.054 43.0618 10.9538 41.8807 11.8059C40.2821 12.9593 38.6425 14.019 36.9846 15.026C35.97 15.6422 34.9473 16.2362 33.9192 16.8146C33.354 17.1326 32.7869 17.445 32.2185 17.7534C32.1479 17.7917 32.0773 17.8299 32.0066 17.8681C32.1531 17.789 31.9179 17.9157 31.9115 17.9192C31.7672 17.9967 31.6226 18.0739 31.4781 18.1509C31.1576 18.3216 30.8367 18.4906 30.5154 18.6587C25.966 21.0388 21.3385 23.1732 16.682 25.1846C16.2716 25.3618 16.0063 25.8773 16.1263 26.4346C16.2364 26.9453 16.6941 27.3218 17.1051 27.1443C22.9673 24.6121 28.7862 21.8857 34.458 18.7178C37.8742 16.8098 41.2608 14.7431 44.438 12.2405C46.1506 10.8916 47.8635 9.40131 49.2713 7.54945C49.9321 6.68014 50.566 5.68351 50.8709 4.51849C50.9401 4.2543 50.982 3.96585 50.9863 3.68815C50.9882 3.56636 50.9671 3.43992 50.9547 3.32285C50.9029 2.83074 50.3281 2.45368 50.0244 2.20182C49.4105 1.69265 48.7332 1.30666 48.0452 0.993252C45.9893 0.0567247 43.7006 -0.015277 41.5589 0.399748C40.8671 0.533807 40.1967 0.812813 39.5328 1.0879C38.1506 1.66057 36.7973 2.34662 35.4559 3.05807C33.0342 4.34248 30.6506 5.73947 28.2687 7.13893C27.6025 7.53044 27.8597 8.75395 28.4588 8.99616C30.348 9.7598 32.237 10.5235 34.1262 11.2872C34.0628 10.6681 33.9995 10.049 33.9361 9.42998C31.4073 11.0569 28.8785 12.6838 26.3497 14.3107C25.712 14.7209 25.0744 15.1312 24.4368 15.5414C24.7045 15.5414 24.9722 15.5414 25.2399 15.5414C23.9999 14.4859 22.7598 13.4304 21.5198 12.375C21.2798 12.1707 20.9592 12.2104 20.7166 12.375C18.1637 14.1072 15.6237 15.8848 13.1421 17.7798C13.3464 17.7456 13.5508 17.7115 13.7552 17.6773C11.0301 16.7699 8.30501 15.8626 5.5799 14.9552C5.31888 14.8683 5.05779 14.7814 4.79677 14.6944C4.36576 14.5509 4.01233 14.8684 3.64946 15.1123C2.72641 15.7327 1.80336 16.3531 0.880312 16.9735C0.457716 17.2575 0.326209 18.1632 0.71931 18.5695C2.58002 20.4924 4.44067 22.4154 6.30137 24.3383C6.35502 23.8063 6.40873 23.2744 6.46237 22.7423C5.56297 23.535 4.66356 24.3277 3.76415 25.1204C3.32626 25.5063 3.2463 26.201 3.60315 26.7163C4.06513 27.3835 4.52711 28.0507 4.98909 28.718C5.16054 28.9655 5.33195 29.2131 5.50341 29.4607C5.75017 29.8171 6.10332 29.7652 6.42487 29.6886C7.71095 29.3822 8.9971 29.0759 10.2832 28.7694C12.5572 28.2277 14.8311 27.686 17.105 27.1443C17.5317 27.0427 17.7683 26.3938 17.6607 25.8943C17.5386 25.3271 17.1079 25.0831 16.682 25.1846Z" fill="#282828"/>
<path d="M33.9362 9.42998C31.4074 11.0569 28.8786 12.6838 26.3498 14.3107C25.7121 14.7209 25.0746 15.1312 24.4369 15.5414C24.7046 15.5414 24.9723 15.5414 25.24 15.5414C23.4709 14.0355 21.7013 12.5308 19.937 11.0158C17.1923 8.6593 14.4477 6.30278 11.7031 3.94625C11.4674 3.7439 11.2318 3.54161 10.9962 3.33932C10.9962 3.92426 10.9962 4.5092 10.9962 5.09414C12.1361 4.17024 13.276 3.24635 14.4159 2.32238C14.2115 2.35656 14.0072 2.39067 13.8028 2.42486C16.1562 3.48006 18.5095 4.53519 20.8629 5.59031C23.3863 6.72172 25.9098 7.8532 28.4333 8.98461C30.3088 9.82548 32.2312 10.5211 34.1264 11.2872C34.5398 11.4544 34.9935 11.096 35.1051 10.5775C35.2235 10.0282 34.9625 9.4945 34.5494 9.32749C32.5104 8.50325 30.4503 7.73961 28.4322 6.83473C25.4681 5.50568 22.5039 4.1767 19.5397 2.84765C18.1172 2.2098 16.6946 1.57202 15.272 0.93417C14.9478 0.788788 14.6235 0.643406 14.2993 0.498024C13.7961 0.272366 13.3559 0.77565 12.957 1.099C12.0357 1.8458 11.1144 2.59253 10.1931 3.33932C9.66936 3.76378 9.69197 4.66395 10.1931 5.09414C12.4511 7.03288 14.7091 8.97162 16.9671 10.9103C18.9294 12.5951 20.8921 14.2789 22.8597 15.9536C23.3854 16.4011 23.9112 16.8486 24.437 17.2961C24.6808 17.5036 24.9935 17.4549 25.2402 17.2961C27.769 15.6692 30.2978 14.0424 32.8266 12.4154C33.4642 12.0052 34.1019 11.595 34.7395 11.1847C35.1266 10.9357 35.2337 10.2496 35.0249 9.79449C34.7957 9.2949 34.3236 9.18073 33.9362 9.42998Z" fill="#282828"/>
<path d="M7.45745 31.677C6.12499 32.7331 4.79259 33.7891 3.46018 34.845C3.09237 35.1366 2.9512 35.7479 3.17478 36.2353C3.38943 36.7033 3.89454 36.8921 4.26332 36.5998C5.59578 35.5438 6.92819 34.4878 8.26059 33.4319C8.6284 33.1403 8.76957 32.529 8.546 32.0415C8.33135 31.5735 7.82623 31.3848 7.45745 31.677Z" fill="#282828"/>
<path d="M2.05036 30.0969C1.51598 30.5304 0.981595 30.9637 0.447269 31.3971C0.0818448 31.6934 -0.0634723 32.2962 0.161863 32.7874C0.374866 33.2517 0.884016 33.4491 1.25041 33.1519C1.78479 32.7184 2.31917 32.2851 2.8535 31.8517C3.21892 31.5554 3.36424 30.9526 3.1389 30.4614C2.92596 29.9971 2.41681 29.7997 2.05036 30.0969Z" fill="#282828"/>
<path d="M46.0812 0.930616C45.0487 1.85851 44.0163 2.78647 42.9838 3.71443C42.6299 4.03248 42.4653 4.59637 42.6984 5.10467C42.9037 5.55221 43.4317 5.78853 43.787 5.46917C44.8195 4.54128 45.8519 3.61332 46.8844 2.68536C47.2383 2.36731 47.403 1.80342 47.1698 1.29512C46.9645 0.847582 46.4365 0.611255 46.0812 0.930616Z" fill="#282828"/>
</svg>
