<svg width="100" height="72" viewBox="0 0 100 72" fill="none" xmlns="http://www.w3.org/2000/svg">
<path d="M32.7099 49.0079C27.2769 50.2924 21.8438 51.5767 16.4108 52.8613C14.7676 53.2497 13.1245 53.6383 11.4813 54.0267C11.9873 54.1962 12.4932 54.3657 12.9991 54.5353C11.7565 52.7543 10.5138 50.9731 9.27111 49.192C9.16592 50.2272 9.06061 51.2623 8.95542 52.2976C10.719 50.7551 12.4825 49.2127 14.2461 47.6702C14.996 47.0141 15.3983 45.4225 14.5617 44.5646C10.9133 40.8227 7.26497 37.0808 3.61653 33.3387C3.51134 34.3739 3.40603 35.4092 3.30084 36.4443C5.43156 35.0232 7.56217 33.6019 9.69289 32.1807C9.29217 32.2472 8.89146 32.3136 8.49074 32.3801C13.834 34.1458 19.1773 35.9114 24.5207 37.6771C25.0606 37.8556 25.6005 38.0339 26.1405 38.2124C27.1196 38.536 28.2716 37.3165 29.0682 36.7292C33.3939 33.5396 37.7762 30.4718 42.1956 27.4959C41.6707 27.4959 41.1458 27.4959 40.6208 27.4959C43.0523 29.5498 45.4838 31.6037 47.9152 33.6575C48.3933 34.0613 49.0064 33.9664 49.49 33.6575C54.4485 30.4916 59.4069 27.3258 64.3654 24.1599C65.6157 23.3616 66.866 22.5633 68.1162 21.765C69.3856 20.9546 68.9517 18.6355 67.7435 18.1509C64.0393 16.665 60.3353 15.1788 56.631 13.6927C56.7553 14.8975 56.8794 16.1021 57.0038 17.3068C62.5004 14.1017 67.9606 10.8979 73.525 8.13965C75.9622 6.93148 78.4329 5.79336 80.965 4.94478C81.3082 4.82981 81.6449 4.73292 81.9941 4.65736C82.2323 4.6058 82.4712 4.56103 82.7107 4.51937C82.1066 4.62459 82.6975 4.52473 82.8366 4.50425C83.0437 4.47374 83.2513 4.44747 83.4589 4.4229C84.4669 4.30355 85.4799 4.25849 86.4921 4.27431C87.0709 4.28335 87.6493 4.32036 88.2263 4.37629C88.5553 4.40821 88.8833 4.45143 89.2111 4.49959C89.2477 4.50496 89.721 4.58631 89.3713 4.52431C89.5659 4.55877 89.7598 4.5986 89.9536 4.63928C91.3267 4.92741 92.6755 5.39139 93.9736 6.02711C93.968 6.02443 94.4524 6.27824 94.1946 6.13813C94.3432 6.21892 94.4901 6.30493 94.6371 6.39095C94.9836 6.59405 95.3222 6.8182 95.6568 7.05111C96.3441 7.52949 96.9964 8.08499 97.6184 8.68922C97.3793 8.2953 97.1404 7.90138 96.9014 7.50746C96.8571 7.19108 96.8479 6.79928 96.8531 7.10958C96.8573 7.3689 96.781 7.92934 96.8876 6.96651C96.8643 7.1771 96.8246 7.3843 96.7766 7.58782C96.7445 7.72342 96.7078 7.85731 96.6682 7.98965C96.5025 8.54417 96.8715 7.43161 96.6646 7.9994C96.5249 8.38273 96.3615 8.75179 96.1856 9.11012C96.0778 9.32961 95.9643 9.54429 95.8469 9.75587C95.7851 9.86745 95.7218 9.97762 95.6578 10.0871C95.6243 10.1443 95.5905 10.2012 95.5564 10.2578C95.4061 10.5083 95.8749 9.74062 95.6577 10.0908C94.8847 11.3364 93.9943 12.4622 93.0665 13.5212C92.4354 14.2417 91.7807 14.9285 91.1128 15.5934C91.0029 15.7027 90.6383 16.059 91.1149 15.5932C91.0229 15.6833 90.9304 15.7726 90.8378 15.8617C90.6302 16.0619 90.4209 16.2592 90.2107 16.4552C89.7783 16.8587 89.3403 17.2532 88.899 17.6414C86.7135 19.5645 84.4349 21.3156 82.1191 22.9736C78.9846 25.2181 75.7696 27.2802 72.519 29.2398C70.5296 30.4389 68.5241 31.5948 66.5084 32.7204C65.4002 33.3391 64.2882 33.9471 63.1736 34.5472C63.0352 34.6218 62.8967 34.6961 62.7581 34.7703C63.0453 34.6164 62.5842 34.863 62.5717 34.8698C62.2886 35.0206 62.0052 35.1708 61.7219 35.3206C61.0935 35.6528 60.4642 35.9818 59.8343 36.3087C50.9137 40.9403 41.8403 45.0938 32.7099 49.0079C31.9051 49.3528 31.385 50.3559 31.6203 51.4403C31.8361 52.4341 32.7335 53.1668 33.5394 52.8214C45.034 47.8939 56.4436 42.5883 67.5648 36.4238C74.2633 32.7109 80.9037 28.6892 87.1335 23.8194C90.4914 21.1945 93.8501 18.2945 96.6105 14.6908C97.9061 12.9992 99.149 11.0598 99.747 8.79275C99.8826 8.27863 99.9647 7.71734 99.9733 7.17695C99.977 6.93995 99.9355 6.69391 99.9112 6.46609C99.8097 5.50848 98.6827 4.77473 98.0872 4.28462C96.8835 3.29382 95.5553 2.5427 94.2063 1.93282C90.1752 0.11039 85.6875 -0.0297215 81.488 0.777894C80.1316 1.03877 78.8171 1.5817 77.5154 2.117C74.8053 3.23139 72.1516 4.5664 69.5214 5.95084C64.773 8.45024 60.0994 11.1687 55.429 13.892C54.1225 14.6538 54.6269 17.0347 55.8017 17.506C59.5059 18.992 63.2099 20.4782 66.9142 21.9643C66.79 20.7595 66.6658 19.5549 66.5415 18.3502C61.583 21.5162 56.6246 24.6819 51.6661 27.8478C50.4158 28.6461 49.1656 29.4444 47.9154 30.2427C48.4402 30.2427 48.9652 30.2427 49.4901 30.2427C47.0587 28.1888 44.6272 26.1349 42.1957 24.0811C41.7251 23.6835 41.0965 23.7608 40.6209 24.0811C35.6152 27.4518 30.6348 30.9109 25.7688 34.5985C26.1696 34.5319 26.5703 34.4655 26.971 34.399C21.6277 32.6334 16.2844 30.8677 10.9411 29.1021C10.4292 28.9329 9.91731 28.7638 9.4055 28.5946C8.56039 28.3154 7.86738 28.9331 7.15588 29.4077C5.34598 30.6149 3.53607 31.8222 1.72617 33.0295C0.897552 33.5822 0.639695 35.3446 1.41048 36.1352C5.05892 39.8772 8.70726 43.6191 12.3557 47.361C12.4609 46.3258 12.5662 45.2907 12.6714 44.2554C10.9078 45.7979 9.1443 47.3404 7.38075 48.8829C6.52216 49.6338 6.36537 50.9856 7.06506 51.9885C7.9709 53.2867 8.87675 54.5852 9.78259 55.8836C10.1188 56.3654 10.4549 56.8471 10.7911 57.3289C11.2749 58.0224 11.9674 57.9214 12.5978 57.7724C15.1196 57.1761 17.6414 56.5801 20.1633 55.9837C24.622 54.9297 29.0806 53.8754 33.5393 52.8214C34.376 52.6236 34.8399 51.3609 34.6289 50.3889C34.3894 49.2852 33.545 48.8104 32.7099 49.0079Z" fill="#282828"/>
<path d="M66.5415 18.3504C61.5831 21.5163 56.6246 24.6821 51.6661 27.848C50.4159 28.6463 49.1657 29.4446 47.9154 30.2429C48.4403 30.2429 48.9652 30.2429 49.4902 30.2429C46.0213 27.3126 42.5515 24.3844 39.092 21.4364C33.7103 16.8507 28.3287 12.2651 22.9471 7.67939C22.4851 7.28561 22.0231 6.89197 21.561 6.49833C21.561 7.63659 21.561 8.77486 21.561 9.91312C23.7962 8.11526 26.0312 6.31741 28.2663 4.51941C27.8656 4.58593 27.4649 4.65232 27.0642 4.71884C31.6787 6.7722 36.293 8.82542 40.9075 10.8786C45.8554 13.0803 50.8034 15.2821 55.7514 17.4838C59.4288 19.12 63.1984 20.4737 66.9144 21.9645C67.725 22.2898 68.6145 21.5925 68.8335 20.5834C69.0655 19.5145 68.5539 18.476 67.7439 18.151C63.7459 16.5471 59.7064 15.0611 55.7494 13.3002C49.9373 10.714 44.1252 8.12783 38.3131 5.54157C35.5238 4.30034 32.7344 3.05926 29.9451 1.81804C29.3092 1.53513 28.6735 1.25222 28.0378 0.969319C27.051 0.530201 26.188 1.50956 25.4058 2.13879C23.5993 3.59202 21.7928 5.04511 19.9863 6.49833C18.9594 7.32431 19.0038 9.07598 19.9863 9.91312C24.4137 13.6858 28.8412 17.4585 33.2688 21.231C37.1164 24.5095 40.9647 27.7862 44.8228 31.045C45.8537 31.9159 46.8846 32.7867 47.9156 33.6575C48.3937 34.0613 49.0068 33.9664 49.4904 33.6575C54.4489 30.4916 59.4073 27.3259 64.3658 24.1599C65.6161 23.3616 66.8663 22.5634 68.1166 21.7651C68.8756 21.2805 69.0856 19.9455 68.6762 19.0597C68.2267 18.0876 67.301 17.8654 66.5415 18.3504Z" fill="#282828"/>
<path d="M14.6225 61.6417C12.0098 63.6968 9.39729 65.7517 6.78473 67.8064C6.06353 68.3738 5.78673 69.5633 6.22511 70.5119C6.646 71.4226 7.63642 71.79 8.35951 71.2212C10.9722 69.1662 13.5847 67.1113 16.1973 65.0565C16.9185 64.4891 17.1953 63.2996 16.7569 62.351C16.336 61.4403 15.3456 61.0731 14.6225 61.6417Z" fill="#282828"/>
<path d="M4.02037 58.5668C2.97256 59.4103 1.92476 60.2535 0.877057 61.0968C0.16054 61.6735 -0.124396 62.8465 0.317438 63.8023C0.735091 64.7058 1.73342 65.09 2.45184 64.5116C3.49964 63.6681 4.54745 62.8249 5.59515 61.9816C6.31167 61.4049 6.5966 60.2319 6.15477 59.2761C5.73723 58.3726 4.7389 57.9885 4.02037 58.5668Z" fill="#282828"/>
<path d="M90.3552 1.8108C88.3308 3.61642 86.3063 5.42218 84.2819 7.22794C83.588 7.84686 83.2651 8.94416 83.7223 9.93327C84.1248 10.8042 85.1601 11.264 85.8568 10.6426C87.8812 8.83696 89.9056 7.0312 91.9301 5.22543C92.6241 4.60652 92.9469 3.50922 92.4897 2.52011C92.0872 1.64922 91.0519 1.18934 90.3552 1.8108Z" fill="#282828"/>
</svg>
