<svg width="64" height="53" viewBox="0 0 64 53" fill="none" xmlns="http://www.w3.org/2000/svg">
<path d="M63.3489 34.5095C63.7449 34.3418 64 33.9529 64 33.5249V9.93868C64.0018 9.51059 63.7467 9.12352 63.3543 8.95228L42.7915 0.0871808C42.5222 -0.0287612 42.2189 -0.0287612 41.9496 0.085397L0.651059 17.6301C0.256856 17.7978 0 18.1848 0 18.6129C0 18.6129 0 18.6129 0 18.6147V42.2098C0 42.6379 0.255072 43.025 0.649275 43.1944L4.07938 44.6589L21.7222 52.1487L63.3489 34.5095ZM42.3634 2.23478L60.2114 9.93155L21.7507 26.2865L3.80111 18.6165L42.3634 2.23478ZM20.6787 28.1559V49.4196L11.3623 45.4419V24.1746L20.6787 28.1559ZM2.14047 20.2361L9.22185 23.2613V44.5269L2.14047 41.5035V20.2361ZM61.8595 32.8167L22.8192 49.4214V28.1576L61.8595 11.5547V32.8167Z" fill="#282828"/>
<path d="M13.2853 38.3855C13.8757 38.3855 14.3556 37.9057 14.3556 37.3153V33.0218C14.3556 32.4314 13.8757 31.9516 13.2853 31.9516C12.6949 31.9516 12.2151 32.4314 12.2151 33.0218V37.3153C12.2151 37.9057 12.6949 38.3855 13.2853 38.3855Z" fill="#282828"/>
<path d="M7.30607 30.3855C6.71566 30.3855 6.23584 30.8653 6.23584 31.4557V35.7492C6.23584 36.3396 6.71566 36.8194 7.30607 36.8194C7.89649 36.8194 8.37631 36.3396 8.37631 35.7492V31.4557C8.37631 30.8653 7.89827 30.3855 7.30607 30.3855Z" fill="#282828"/>
<path d="M27.0895 46.2927C27.6799 46.2927 28.1598 45.8129 28.1598 45.2225V29.2154C28.1598 28.625 27.6799 28.1451 27.0895 28.1451C26.4991 28.1451 26.0193 28.625 26.0193 29.2154V45.2225C26.0193 45.8129 26.4991 46.2927 27.0895 46.2927Z" fill="#282828"/>
<path d="M32.3121 44.1023C32.9025 44.1023 33.3823 43.6225 33.3823 43.0321V27.0249C33.3823 26.4345 32.9025 25.9547 32.3121 25.9547C31.7216 25.9547 31.2418 26.4345 31.2418 27.0249V43.0321C31.2418 43.6225 31.7199 44.1023 32.3121 44.1023Z" fill="#282828"/>
<path d="M37.5331 41.9119C38.1235 41.9119 38.6034 41.4321 38.6034 40.8416V24.8345C38.6034 24.2441 38.1235 23.7643 37.5331 23.7643C36.9427 23.7643 36.4629 24.2441 36.4629 24.8345V40.8416C36.4629 41.4321 36.9427 41.9119 37.5331 41.9119Z" fill="#282828"/>
<path d="M42.7541 39.6956C43.3445 39.6956 43.8243 39.2158 43.8243 38.6254V22.6183C43.8243 22.0279 43.3445 21.548 42.7541 21.548C42.1637 21.548 41.6838 22.0279 41.6838 22.6183V38.6254C41.6838 39.2158 42.1637 39.6956 42.7541 39.6956Z" fill="#282828"/>
<path d="M47.977 37.5311C48.5674 37.5311 49.0472 37.0513 49.0472 36.4608V20.4537C49.0472 19.8633 48.5674 19.3835 47.977 19.3835C47.3866 19.3835 46.9067 19.8633 46.9067 20.4537V36.4608C46.9067 37.0513 47.3848 37.5311 47.977 37.5311Z" fill="#282828"/>
<path d="M53.1977 35.3407C53.7881 35.3407 54.2679 34.8609 54.2679 34.2705V18.2633C54.2679 17.6729 53.7881 17.1931 53.1977 17.1931C52.6073 17.1931 52.1274 17.6729 52.1274 18.2633V34.2705C52.1274 34.8609 52.6073 35.3407 53.1977 35.3407Z" fill="#282828"/>
<path d="M58.4187 33.1503C59.0092 33.1503 59.489 32.6705 59.489 32.0801V16.0729C59.489 15.4825 59.0092 15.0027 58.4187 15.0027C57.8283 15.0027 57.3485 15.4825 57.3485 16.0729V32.0801C57.3485 32.6705 57.8283 33.1503 58.4187 33.1503Z" fill="#282828"/>
</svg>
