<svg width="62" height="48" viewBox="0 0 62 48" fill="none" xmlns="http://www.w3.org/2000/svg">
<g clip-path="url(#clip0_42_21204)">
<path d="M61.623 4.70944C61.6161 4.24689 61.2945 3.84556 60.838 3.73332L45.7625 0.0260989C45.6345 -0.00451119 45.5031 -0.0113134 45.3717 0.00569217L0.899202 5.93724C0.38389 6.00527 0 6.43721 0 6.95078V40.309C0 40.7885 0.33893 41.2034 0.816199 41.3055L32.0981 47.9785C32.1707 47.9955 32.2433 48.0023 32.3194 48.0023C32.4232 48.0023 32.5269 47.9853 32.6272 47.9547L50.7185 42.3938C50.8776 42.3462 51.0228 42.2578 51.1439 42.1422L61.6957 31.7653C61.8928 31.5715 62.0035 31.3062 62 31.0307L61.623 4.70944ZM59.918 30.6192L47.1735 33.8366V2.48171L59.5583 5.52571L59.918 30.6192ZM2.07508 7.84187L45.1019 2.10418V34.9148L32.1188 45.8936L2.07508 39.4825V7.84187ZM49.8573 40.5198L36.9711 44.4787L46.4646 36.4521C46.7136 36.3705 46.9211 36.197 47.0456 35.9725L57.044 33.4489L49.8573 40.5198Z" fill="#282828"/>
</g>
<defs>
<clipPath id="clip0_42_21204">
<rect width="62" height="48" fill="white"/>
</clipPath>
</defs>
</svg>
