<svg width="101" height="38" viewBox="0 0 101 38" fill="none" xmlns="http://www.w3.org/2000/svg">
<g clip-path="url(#clip0_10_6959)">
<path d="M100.854 20.2301C100.609 19.7302 100.099 19.4068 99.5405 19.4068L70.3877 19.3774V13.3299H79.1345V19.3774H82.0763V11.8597C82.0763 11.0462 81.4193 10.3895 80.6054 10.3895H78.0265V5.16533H86.7831V10.3895H84.8415C84.0276 10.3895 83.3706 11.0462 83.3706 11.8597V19.3774H86.3124V13.3299H95.069V19.3774H98.0107V11.8597C98.0107 11.0462 97.3537 10.3895 96.5399 10.3895H89.7346V3.69512C89.7346 2.88161 89.0776 2.22492 88.2637 2.22492H76.5556C75.7417 2.22492 75.0847 2.88161 75.0847 3.69512V10.3895H73.4275V3.69512C73.4275 2.88161 72.7705 2.22492 71.9567 2.22492H60.474C59.6602 2.22492 59.0032 2.88161 59.0032 3.69512V10.3895H57.1008V3.69512C57.1008 2.88161 56.4438 2.22492 55.63 2.22492H43.7257C42.9118 2.22492 42.2548 2.88161 42.2548 3.69512V10.3895H36.9695C36.1556 10.3895 35.4986 11.0462 35.4986 11.8597V19.3381H32.7137V1.47021C32.7137 0.656693 32.0568 0 31.2429 0H16.7891C16.1909 0 15.6516 0.362652 15.4261 0.921331L12.4059 8.4292H8.52277C7.70888 8.4292 7.05189 9.08589 7.05189 9.89941V19.4068H1.5116C0.707521 19.4068 0.0505304 20.0536 0.0407245 20.8574C0.0407245 20.9064 -0.0377221 26.2481 0.0407245 30.4725C0.0505304 30.9234 0.266259 31.3449 0.619268 31.6193C3.68849 33.9422 8.78752 37.6766 8.83655 37.7158C9.0915 37.902 9.39548 38 9.70927 38C9.70927 38 86.1653 38.0098 87.4303 38.0098C87.8813 38.0098 88.3128 37.804 88.5971 37.4413L100.698 21.7885C101.041 21.3376 101.1 20.7397 100.854 20.2301ZM61.9449 5.16533H70.4858V10.3895H68.9168C68.103 10.3895 67.446 11.0462 67.446 11.8597V19.3676H66.0536V11.8597C66.0536 11.0462 65.3966 10.3895 64.5827 10.3895H61.9449V5.16533ZM54.5709 13.3299H63.1118V19.3676L54.5709 19.3577V13.3299ZM45.1966 5.16533H54.1591V10.3895H53.1001C52.2862 10.3895 51.6292 11.0462 51.6292 11.8597V19.3577H50.3446V11.8597C50.3446 11.0462 49.6876 10.3895 48.8737 10.3895H45.1868V5.16533H45.1966ZM38.4403 13.3299H47.4029V19.3479L38.4403 19.3381V13.3299ZM86.7046 35.0596C79.1639 35.0596 16.3282 35.0498 10.1799 35.0498C9.02286 34.1971 5.50257 31.6095 2.96286 29.6982C2.92364 27.0322 2.94325 24.0624 2.96286 22.3472H8.52277C9.33665 22.3472 9.99364 21.6905 9.99364 20.877V11.3696H13.3963C13.9944 11.3696 14.5337 11.007 14.7593 10.4483L17.7893 2.94042H29.7818V20.7986C29.7818 21.6121 30.4388 22.2688 31.2527 22.2688L96.5497 22.3374L86.7046 35.0596Z" fill="#C4122F"/>
</g>
<defs>
<clipPath id="clip0_10_6959">
<rect width="101" height="38" fill="white"/>
</clipPath>
</defs>
</svg>
