<svg width="30" height="30" viewBox="0 0 30 30" fill="none" xmlns="http://www.w3.org/2000/svg">
<path d="M30 28.1463L22.0022 19.8528C23.4196 17.798 24.2548 15.2798 24.2548 12.5692C24.2548 5.63975 18.8133 0 12.1274 0C5.44151 0 0 5.63975 0 12.5692C0 19.4987 5.44151 25.1384 12.1274 25.1384C15.2826 25.1384 18.1637 23.8793 20.3234 21.8245L28.2115 30L30 28.1463ZM12.1274 22.5153C6.83774 22.5153 2.53093 18.0516 2.53093 12.5692C2.53093 7.08685 6.83774 2.62314 12.1274 2.62314C17.417 2.62314 21.7238 7.08685 21.7238 12.5692C21.7238 18.0516 17.417 22.5153 12.1274 22.5153Z" fill="#C4122F"/>
</svg>
