<svg width="66" height="66" viewBox="0 0 66 66" fill="none" xmlns="http://www.w3.org/2000/svg">
<g clip-path="url(#clip0_10_6963)">
<path d="M21.5006 66.0019C21.3392 66.0019 21.1779 65.9873 21.0019 65.9579C19.9899 65.7966 19.1099 65.1806 18.6259 64.2419L14.9299 57.1286C12.6566 57.5393 11.1166 56.4686 10.3246 55.6766L10.3099 55.6619C9.51789 54.8699 8.46189 53.3299 8.85789 51.0566L1.75922 47.3606C0.820556 46.8766 0.189889 46.0113 0.0285555 44.9846C-0.132778 43.9139 0.248555 42.7993 1.05522 41.9926L3.15256 39.8953C4.44322 38.6046 6.11522 38.7513 6.74589 38.8099L16.6459 39.5726L18.0832 37.7979L26.3992 29.4673L7.24456 20.7259C6.02722 20.1686 5.19122 19.1419 4.97122 17.9099C4.75122 16.6926 5.16189 15.4606 6.08589 14.5366L9.48856 11.1486C11.0139 9.6086 13.1552 9.81394 14.3139 9.9166L43.3099 12.5713L48.4872 7.39394C54.0019 1.87927 59.1646 -0.746064 62.6552 0.207269C64.2392 0.632603 65.3832 1.7766 65.8086 3.3606C66.7472 6.86594 64.1219 12.0286 58.6219 17.5286L53.4446 22.7059L56.0846 51.7019C56.1872 52.8606 56.3779 55.0019 54.8526 56.5419L51.4646 59.9299C50.5406 60.8539 49.3086 61.2646 48.0766 61.0446C46.8446 60.8246 45.8326 59.9886 45.2752 58.7713L36.5486 39.6019L28.0126 48.1086L26.4432 49.3553L27.2059 59.2553C27.2499 59.9593 27.3819 61.5726 26.1059 62.8486L24.0086 64.9459C23.3192 65.6206 22.4099 66.0019 21.5006 66.0019ZM16.8512 51.8926L21.7792 61.3379L23.1139 60.0033C23.1139 59.9299 23.1139 59.7979 23.0992 59.5486L22.1752 47.4779L25.3579 44.9406L37.8539 32.4446L48.8832 56.6593L51.9632 53.5793C52.1246 53.3593 52.0366 52.3619 52.0072 52.0393L49.1912 21.1219L55.7326 14.5806C60.8512 9.46194 62.2006 5.67794 61.8632 4.40194C61.7899 4.25527 61.7606 4.22594 61.5992 4.18194C60.3086 3.82994 56.5392 5.17927 51.4059 10.2979L44.8646 16.8393L13.9472 14.0233C13.6246 13.9939 12.6272 13.9059 12.4072 14.0673L9.32722 17.1473L33.5419 28.1766L21.1046 40.6286L18.5379 43.8553L6.45256 42.9313C6.21789 42.9166 6.08589 42.9019 6.01256 42.9166L4.67789 44.2513L14.1232 49.1793L13.2432 50.9833C12.6566 52.1859 12.9792 52.5086 13.2579 52.7873C13.5366 53.0659 13.8739 53.3886 15.0619 52.8019L16.8512 51.8926Z" fill="#C4122F"/>
</g>
<defs>
<clipPath id="clip0_10_6963">
<rect width="66" height="66" fill="white"/>
</clipPath>
</defs>
</svg>
