<svg width="55" height="55" viewBox="0 0 55 55" fill="none" xmlns="http://www.w3.org/2000/svg">
<circle cx="27.5" cy="27.5" r="27.5" fill="#C4122F"/>
<path d="M26.8825 10C24.1008 10 21.302 11.0616 19.1789 13.1848C17.6006 14.763 16.6469 16.7216 16.2382 18.7596C12.1223 19.5601 9 23.1536 9 27.4965C9 32.4185 13.0193 36.4378 17.9413 36.4378H22.216C22.8575 36.4491 23.3912 35.9325 23.3969 35.2854C23.4082 34.6439 22.8916 34.1102 22.2444 34.1045C22.2331 34.1045 22.2217 34.1045 22.2104 34.1045H17.9356C14.2739 34.1045 11.3276 31.1582 11.3276 27.4965C11.3276 24.0392 13.956 21.2178 17.3282 20.9112C17.8731 20.8601 18.3046 20.4343 18.3727 19.8894C18.5884 18.0387 19.4059 16.2447 20.8252 14.8254C22.4999 13.1507 24.6855 12.3332 26.8769 12.3332C29.0682 12.3332 31.2368 13.1507 32.9172 14.8254C34.853 16.7613 35.6705 19.3898 35.3696 21.9104C35.2902 22.5519 35.7443 23.1309 36.3801 23.2161C36.4256 23.2217 36.4767 23.2274 36.5221 23.2274H36.9819C40.0191 23.2274 42.4262 25.6345 42.4262 28.6716C42.4262 31.7088 40.0191 34.1159 36.9819 34.1159H31.5377C30.8962 34.1045 30.3625 34.6211 30.3569 35.2683C30.3512 35.9155 30.8621 36.4435 31.5093 36.4491C31.5206 36.4491 31.532 36.4491 31.5433 36.4491H36.9876C41.2737 36.4491 44.7651 32.9635 44.7651 28.6716C44.7651 24.6239 41.6484 21.3313 37.6972 20.968C37.7142 18.1522 36.7151 15.3364 34.5749 13.1905C32.4517 11.0616 29.6643 10 26.8825 10ZM26.8825 29.438C26.241 29.438 25.7188 29.9603 25.7188 30.6018V41.1837L23.3969 39.0719C22.9427 38.6632 22.1593 38.6972 21.7449 39.1457C21.3304 39.5942 21.3248 40.3379 21.8187 40.7977L26.0934 44.6865C26.2865 44.8625 26.4965 44.993 26.8825 44.993C27.2686 44.993 27.4389 44.9022 27.6716 44.6865L31.9464 40.7977C32.3949 40.3833 32.4801 39.5942 32.0202 39.1457C31.5831 38.7199 30.8224 38.6632 30.3682 39.0719L28.0463 41.1837V30.6018C28.0463 29.9603 27.524 29.438 26.8825 29.438Z" fill="white"/>
</svg>
