<svg width="412" height="241" viewBox="0 0 412 241" fill="none" xmlns="http://www.w3.org/2000/svg">
<g clip-path="url(#clip0_1290_634)">
<path d="M273.963 51.0486L263.621 45.0741C263.277 44.8677 262.99 45.0397 262.99 45.441C262.99 45.8424 263.265 46.324 263.621 46.519L273.963 52.4934C274.307 52.6999 274.594 52.5393 274.594 52.138C274.605 51.7366 274.319 51.2435 273.963 51.0486Z" fill="#91AAF2"/>
<path d="M278.298 56.8162L263.61 48.3303C263.266 48.1239 262.979 48.2845 262.979 48.6858C262.979 49.0872 263.255 49.5803 263.61 49.7752L278.298 58.2611C278.642 58.4675 278.929 58.2955 278.929 57.8941C278.929 57.5042 278.653 57.0226 278.298 56.8162Z" fill="#91AAF2"/>
<path d="M287.894 62.3671L281.611 58.7434C281.267 58.537 280.98 58.6976 280.98 59.0989C280.98 59.5003 281.267 59.9934 281.611 60.1883L287.894 63.812C288.238 64.0184 288.525 63.8464 288.525 63.445C288.525 63.0437 288.238 62.5621 287.894 62.3671Z" fill="#91AAF2"/>
<path d="M268.838 54.638L263.598 51.6106C263.254 51.4042 262.968 51.5648 262.968 51.9661C262.968 52.3675 263.243 52.8491 263.598 53.044L268.838 56.0714C269.182 56.2778 269.469 56.1173 269.469 55.7159C269.469 55.3146 269.194 54.8329 268.838 54.638Z" fill="#91AAF2"/>
<path d="M282.036 62.2518L271.591 56.22C271.247 56.0136 270.96 56.1741 270.96 56.5755C270.96 56.9768 271.247 57.4585 271.591 57.6649L282.036 63.6967C282.38 63.9031 282.667 63.7426 282.667 63.3412C282.655 62.9398 282.38 62.4582 282.036 62.2518Z" fill="#91AAF2"/>
<path d="M272.53 60.0273L263.598 54.867C263.254 54.6606 262.968 54.8326 262.968 55.234C262.968 55.6353 263.243 56.117 263.598 56.3119L272.53 61.4722C272.874 61.6786 273.161 61.5181 273.161 61.1167C273.15 60.7154 272.874 60.2338 272.53 60.0273Z" fill="#91AAF2"/>
<path d="M278.287 63.3533L275.351 61.6561C275.007 61.4497 274.721 61.6217 274.721 62.0231C274.721 62.4244 274.996 62.906 275.351 63.101L278.287 64.7982C278.631 65.0046 278.917 64.844 278.917 64.4427C278.906 64.0413 278.631 63.5597 278.287 63.3533Z" fill="#91AAF2"/>
<path d="M284.466 57.1033L276.199 52.3329C275.855 52.1264 275.568 52.2985 275.568 52.6998C275.568 53.1012 275.844 53.5828 276.199 53.7777L284.466 58.5482C284.81 58.7546 285.097 58.594 285.097 58.1927C285.097 57.8028 284.81 57.3097 284.466 57.1033Z" fill="#91AAF2"/>
<path d="M278.596 47.849L264.069 39.4549C263.495 39.1223 263.014 39.3861 263.014 40.0626C263.014 40.7278 263.484 41.5419 264.057 41.8745L278.584 50.2686C279.169 50.6011 279.639 50.3374 279.639 49.6723C279.651 48.9957 279.181 48.1815 278.596 47.849Z" fill="#1B1F2D"/>
<path d="M287.665 53.0784L282.219 49.9363C281.634 49.6038 281.164 49.8675 281.164 50.5441C281.164 51.2092 281.634 52.0234 282.219 52.3559L287.665 55.498C288.25 55.8305 288.72 55.5668 288.72 54.9017C288.72 54.2366 288.25 53.4224 287.665 53.0784Z" fill="#1B1F2D"/>
<path d="M273.688 75.0495L263.345 69.075C263.001 68.8686 262.715 69.0406 262.715 69.442C262.715 69.8434 262.99 70.325 263.345 70.5199L273.688 76.4944C274.032 76.7008 274.318 76.5403 274.318 76.1389C274.318 75.7376 274.032 75.2445 273.688 75.0495Z" fill="#91AAF2"/>
<path d="M278.022 80.8289L263.334 72.343C262.99 72.1366 262.703 72.2972 262.703 72.6985C262.703 73.0999 262.978 73.593 263.334 73.7879L278.022 82.2738C278.366 82.4802 278.652 82.3082 278.652 81.9068C278.652 81.5055 278.366 81.0238 278.022 80.8289Z" fill="#91AAF2"/>
<path d="M287.619 86.3681L281.336 82.7444C280.992 82.538 280.705 82.6985 280.705 83.0999C280.705 83.5013 280.992 83.9944 281.336 84.1893L287.619 87.813C287.963 88.0194 288.25 87.8474 288.25 87.446C288.25 87.0447 287.963 86.563 287.619 86.3681Z" fill="#91AAF2"/>
<path d="M268.563 78.639L263.323 75.6116C262.979 75.4052 262.692 75.5657 262.692 75.9671C262.692 76.3684 262.968 76.8501 263.323 77.045L268.563 80.0724C268.907 80.2788 269.194 80.1183 269.194 79.7169C269.194 79.3156 268.907 78.8339 268.563 78.639Z" fill="#91AAF2"/>
<path d="M281.749 86.2528L271.303 80.221C270.959 80.0146 270.673 80.1751 270.673 80.5765C270.673 80.9778 270.959 81.4594 271.303 81.6659L281.749 87.6977C282.093 87.9041 282.38 87.7436 282.38 87.3422C282.38 86.9408 282.104 86.4592 281.749 86.2528Z" fill="#91AAF2"/>
<path d="M272.243 84.0283L263.311 78.868C262.967 78.6616 262.681 78.8336 262.681 79.235C262.681 79.6363 262.956 80.118 263.311 80.3129L272.243 85.4732C272.587 85.6796 272.874 85.5191 272.874 85.1177C272.874 84.7164 272.587 84.2347 272.243 84.0283Z" fill="#91AAF2"/>
<path d="M278 87.3542L275.064 85.6571C274.72 85.4507 274.434 85.6227 274.434 86.024C274.434 86.4254 274.709 86.907 275.064 87.102L278 88.7991C278.344 89.0055 278.63 88.845 278.63 88.4436C278.63 88.0423 278.355 87.5606 278 87.3542Z" fill="#91AAF2"/>
<path d="M284.179 81.1043L275.912 76.3338C275.568 76.1274 275.281 76.2994 275.281 76.7008C275.281 77.1021 275.556 77.5838 275.912 77.7787L284.179 82.5491C284.523 82.7556 284.809 82.595 284.809 82.1936C284.809 81.8038 284.534 81.3107 284.179 81.1043Z" fill="#91AAF2"/>
<path d="M278.321 71.8499L263.794 63.4559C263.221 63.1233 262.739 63.3871 262.739 64.0636C262.739 64.7287 263.209 65.5429 263.783 65.8755L278.31 74.2696C278.895 74.6021 279.365 74.3384 279.365 73.6733C279.376 72.9967 278.906 72.1825 278.321 71.8499Z" fill="#1B1F2D"/>
<path d="M287.39 77.0793L281.944 73.9373C281.359 73.6047 280.889 73.8685 280.889 74.5451C280.889 75.2102 281.359 76.0244 281.944 76.3569L287.39 79.499C287.975 79.8315 288.445 79.5678 288.445 78.9027C288.445 78.2375 287.975 77.4234 287.39 77.0793Z" fill="#1B1F2D"/>
<path d="M265.856 25.2238C265.398 24.9601 265.019 24.3179 265.031 23.7904L265.077 8.45855C265.077 7.93105 265.455 7.71317 265.914 7.97692L285.291 19.1576C285.75 19.4213 286.128 20.0635 286.117 20.591L286.071 35.9228C286.071 36.4503 285.693 36.6682 285.234 36.4045L273.722 29.7649C273.137 29.4323 272.587 29.3635 272.163 29.5929L268.815 31.4276V29.4782C268.815 28.0792 267.829 26.3591 266.613 25.6596L265.856 25.2238ZM285.28 17.5751L265.902 6.39443C264.687 5.69492 263.689 6.25682 263.678 7.65583L263.644 22.9877C263.644 24.3867 264.63 26.1068 265.845 26.8063L266.602 27.2421C267.06 27.5058 267.439 28.148 267.427 28.6755L267.416 30.7855C267.416 31.4047 267.725 32.1271 268.23 32.6661C268.39 32.8381 268.562 32.9757 268.734 33.0789C269.078 33.2739 269.411 33.3198 269.663 33.1821L273.114 31.29C273.275 31.2098 273.481 31.2327 273.699 31.3588L285.211 37.9984C286.426 38.6979 287.424 38.136 287.435 36.737L287.481 21.4052C287.481 19.9947 286.495 18.2746 285.28 17.5751Z" fill="#F24B4B"/>
<path d="M269.652 16.8523C268.655 16.2789 267.841 16.7376 267.829 17.8844C267.829 19.0311 268.632 20.4416 269.641 21.015C270.638 21.5883 271.452 21.1182 271.452 19.9714C271.464 18.8362 270.65 17.4257 269.652 16.8523Z" fill="#F24B4B"/>
<path d="M275.568 20.2703C274.571 19.6969 273.757 20.1556 273.745 21.3023C273.745 22.4491 274.548 23.8596 275.557 24.4329C276.554 25.0063 277.368 24.5476 277.38 23.4009C277.38 22.2541 276.566 20.8436 275.568 20.2703Z" fill="#F24B4B"/>
<path d="M281.484 23.6873C280.487 23.1139 279.673 23.5726 279.661 24.7193C279.661 25.8661 280.464 27.2766 281.473 27.8499C282.47 28.4233 283.284 27.9646 283.296 26.8179C283.296 25.6711 282.482 24.2606 281.484 23.6873Z" fill="#F24B4B"/>
<path d="M171.309 19.6388C170.85 19.3751 170.483 18.7329 170.483 18.2054L170.529 2.87359C170.529 2.34609 170.907 2.12821 171.366 2.39196L190.743 13.5726C191.202 13.8364 191.58 14.4785 191.569 15.006L191.523 30.3493C191.523 30.8768 191.145 31.0947 190.686 30.831L179.174 24.1914C178.59 23.8588 178.039 23.79 177.615 24.0194L174.267 25.8541V23.9047C174.267 22.5057 173.281 20.7856 172.065 20.0861L171.309 19.6388ZM190.743 11.9901L171.366 0.809464C170.151 0.109956 169.153 0.671856 169.142 2.07087L169.096 17.4027C169.096 18.8017 170.082 20.5218 171.297 21.2213L172.054 21.6571C172.513 21.9208 172.891 22.563 172.879 23.0905L172.868 25.2005C172.868 25.8197 173.178 26.5422 173.682 27.0811C173.843 27.2532 174.015 27.3908 174.187 27.494C174.531 27.6889 174.863 27.7348 175.115 27.5972L178.567 25.7051C178.727 25.6248 178.933 25.6477 179.151 25.7739L190.663 32.4135C191.879 33.113 192.876 32.5511 192.888 31.1521L192.933 15.8202C192.945 14.4097 191.959 12.6896 190.743 11.9901Z" fill="#546FBF"/>
<path d="M175.115 11.2673C174.118 10.694 173.303 11.1527 173.292 12.2994C173.292 13.4461 174.095 14.8566 175.104 15.43C176.101 16.0034 176.915 15.5332 176.915 14.3865C176.915 13.2512 176.113 11.8407 175.115 11.2673Z" fill="#546FBF"/>
<path d="M181.032 14.6853C180.035 14.112 179.22 14.5706 179.209 15.7174C179.209 16.8641 180.012 18.2746 181.021 18.848C182.018 19.4213 182.832 18.9626 182.844 17.8159C182.844 16.6692 182.03 15.2587 181.032 14.6853Z" fill="#546FBF"/>
<path d="M186.948 18.1023C185.951 17.5289 185.136 17.9876 185.125 19.1344C185.125 20.2811 185.928 21.6916 186.937 22.265C187.934 22.8383 188.748 22.3796 188.76 21.2329C188.76 20.0862 187.946 18.6757 186.948 18.1023Z" fill="#546FBF"/>
<g opacity="0.2">
<path opacity="0.2" d="M299.143 205.536L173.155 132.787C170.678 131.354 166.677 131.354 164.223 132.787L114.816 161.501C112.362 162.923 112.374 165.251 114.851 166.673L240.838 239.422C243.315 240.855 247.317 240.855 249.77 239.422L299.177 210.708C301.631 209.286 301.62 206.969 299.143 205.536Z" fill="#808080"/>
</g>
<path d="M126.134 165.446L125.927 93.0069L155.601 75.8747L174.853 137.305L126.134 165.446ZM157.975 70.8291L122.717 91.1836L122.946 170.985L179.198 138.509L157.975 70.8291Z" fill="#31394C"/>
<path d="M170.541 136.136L174.864 137.317L155.613 75.8867L152.265 77.8132L170.541 136.136Z" fill="#1B1F2D"/>
<path d="M126.122 161.765L126.134 165.446L174.864 137.328L170.53 136.136L126.122 161.765Z" fill="#1B1F2D"/>
<path d="M118.405 88.6953L122.716 91.1837L122.934 170.985L118.623 168.497L118.405 88.6953Z" fill="#1B1F2D"/>
<path d="M118.405 88.6954L122.716 91.1838L157.974 70.8292L153.663 68.3408L118.405 88.6954Z" fill="#1B1F2D"/>
<path d="M243.522 233.057L243.316 160.618L272.99 143.486L292.241 204.917L243.522 233.057ZM275.352 138.44L240.094 158.795L240.323 238.596L296.575 206.121L275.352 138.44Z" fill="#31394C"/>
<path d="M287.918 203.746L292.241 204.928L272.99 143.497L269.642 145.424L287.918 203.746Z" fill="#1B1F2D"/>
<path d="M243.511 229.377V233.058L292.241 204.928L287.907 203.747L243.511 229.377Z" fill="#1B1F2D"/>
<path d="M235.782 156.307L240.093 158.795L240.323 238.585L236.012 236.096L235.782 156.307Z" fill="#1B1F2D"/>
<path d="M235.782 156.306L240.093 158.795L275.363 138.44L271.052 135.94L235.782 156.306Z" fill="#1B1F2D"/>
<path d="M301.001 124.933L298.673 125.3L173.155 52.826C170.678 51.3926 166.677 51.3926 164.223 52.826L114.897 81.4944L112.993 80.772V84.1319V84.1778C113.016 85.0951 113.635 86.024 114.851 86.7235L240.839 159.472C243.315 160.906 247.317 160.906 249.771 159.472L299.177 130.758C300.462 130.013 301.069 129.015 301.001 128.029H301.012C300.989 127.903 301.001 124.933 301.001 124.933Z" fill="#E29764"/>
<path d="M249.77 159.461L299.177 130.746C300.461 130.001 301.069 129.003 301 128.017H301.012C300.989 127.903 301.012 124.921 301.012 124.921L298.684 125.288L281.164 115.174L245.149 151.193V160.504C246.823 160.539 248.497 160.195 249.77 159.461Z" fill="#7C3301"/>
<path d="M299.143 122.123L173.155 49.3739C170.678 47.9405 166.677 47.9405 164.223 49.3739L114.816 78.0881C112.362 79.5101 112.374 81.8379 114.851 83.2599L240.838 156.009C243.315 157.442 247.317 157.442 249.77 156.009L299.177 127.294C301.631 125.873 301.62 123.556 299.143 122.123Z" fill="#FCDDC5"/>
<path d="M131.763 73.0773C131.121 72.7448 130.124 72.7448 129.504 73.1117L121.146 77.9739C120.504 78.3408 120.515 78.9486 121.157 79.3155L133.483 86.4253C134.125 86.7923 135.157 86.7923 135.799 86.4253L144.158 81.5631C144.777 81.2077 144.789 80.6343 144.204 80.2559C144.468 80.4279 144.605 80.6343 144.628 80.8407L134.068 80.1183L134.848 86.6891C134.641 86.7005 134.423 86.7005 134.217 86.6661L133.437 80.0839L132.268 80.0036L132.13 79.327L120.767 78.8913C120.71 78.7651 120.699 78.6504 120.722 78.5243L132.061 78.9486L130.777 72.8365C131.11 72.848 131.477 72.9282 131.763 73.0773ZM144.169 80.2329C144.181 80.2329 144.181 80.2444 144.192 80.2444C144.181 80.2444 144.169 80.2444 144.169 80.2329ZM131.786 73.0888C131.775 73.0888 131.775 73.0773 131.763 73.0773C131.775 73.0773 131.786 73.0888 131.786 73.0888Z" fill="white"/>
<path d="M134.056 80.1184L133.414 80.0725L134.194 86.6548C134.4 86.6892 134.618 86.7006 134.824 86.6777L134.056 80.1184ZM132.027 78.9487L120.687 78.5244C120.664 78.6506 120.675 78.7652 120.733 78.8914L132.095 79.3271L132.027 78.9487Z" fill="#EEF4FF"/>
<path d="M144.135 80.2212L131.809 73.1114C131.798 73.1114 131.786 73.0999 131.775 73.0999C131.763 73.0999 131.763 73.0885 131.752 73.0885C131.465 72.9394 131.098 72.8591 130.731 72.8477L132.016 78.9597L132.096 79.3267L132.233 80.0033L133.403 80.0836L134.045 80.1294L144.605 80.8519C144.582 80.634 144.445 80.4276 144.181 80.267H144.17C144.158 80.267 144.158 80.2556 144.147 80.2556C144.158 80.2326 144.147 80.2212 144.135 80.2212Z" fill="#EEF4FF"/>
<path d="M149.283 63.7082C148.641 63.3756 147.643 63.3756 147.024 63.7426L138.665 68.6047C138.023 68.9717 138.035 69.5794 138.677 69.9464L151.003 77.0562C151.645 77.4231 152.677 77.4231 153.319 77.0562L161.678 72.194C162.297 71.8385 162.308 71.2651 161.723 70.8867C161.987 71.0587 162.125 71.2651 162.148 71.4716L151.587 70.7491L152.367 77.3199C152.161 77.3314 151.943 77.3314 151.737 77.297L150.957 70.7147L149.787 70.6344L149.65 69.9579L138.287 69.5221C138.23 69.396 138.218 69.2813 138.241 69.1552L149.581 69.5794L148.297 63.4673C148.629 63.4788 148.985 63.5591 149.283 63.7082ZM161.689 70.8753C161.7 70.8753 161.7 70.8867 161.712 70.8867C161.7 70.8867 161.689 70.8753 161.689 70.8753ZM149.306 63.7311C149.294 63.7311 149.294 63.7196 149.283 63.7196C149.294 63.7196 149.294 63.7196 149.306 63.7311Z" fill="white"/>
<path d="M151.576 70.7607L150.934 70.7148L151.713 77.2971C151.92 77.3315 152.138 77.3429 152.344 77.32L151.576 70.7607ZM149.546 69.5796L138.206 69.1553C138.183 69.2814 138.195 69.3961 138.252 69.5222L149.615 69.958L149.546 69.5796Z" fill="#EEF4FF"/>
<path d="M161.655 70.8637L149.329 63.754C149.317 63.754 149.306 63.7425 149.294 63.7425C149.283 63.7425 149.283 63.731 149.271 63.731C148.985 63.582 148.618 63.5017 148.251 63.4902L149.535 69.6023L149.615 69.9693L149.753 70.6459L150.923 70.7261L151.565 70.772L162.125 71.4944C162.102 71.2766 161.976 71.0702 161.701 70.9096H161.689C161.678 70.9096 161.678 70.8981 161.666 70.8981C161.678 70.8752 161.666 70.8637 161.655 70.8637Z" fill="#EEF4FF"/>
<path d="M166.802 54.3507C166.16 54.0182 165.163 54.0182 164.544 54.3851L156.185 59.2473C155.543 59.6142 155.554 60.222 156.196 60.589L168.522 67.6987C169.164 68.0657 170.196 68.0657 170.838 67.6987L179.197 62.8366C179.816 62.4811 179.828 61.9077 179.243 61.5293C179.507 61.7013 179.644 61.9077 179.667 62.1141L169.107 61.3917L169.887 67.9625C169.68 67.9739 169.462 67.9739 169.256 67.9395L168.476 61.3573L167.307 61.277L167.169 60.6004L155.806 60.1647C155.749 60.0385 155.738 59.9239 155.761 59.7977L167.1 60.222L165.816 54.1099C166.149 54.1214 166.504 54.2017 166.802 54.3507ZM179.209 61.5178C179.22 61.5178 179.22 61.5293 179.231 61.5293C179.22 61.5178 179.209 61.5178 179.209 61.5178ZM166.825 54.3622C166.814 54.3622 166.814 54.3507 166.802 54.3507C166.814 54.3622 166.814 54.3622 166.825 54.3622Z" fill="white"/>
<path d="M169.095 61.3918L168.453 61.3459L169.233 67.9282C169.439 67.9626 169.657 67.9741 169.863 67.9511L169.095 61.3918ZM167.066 60.2221L155.726 59.7979C155.703 59.924 155.714 60.0387 155.772 60.1648L167.135 60.6006L167.066 60.2221Z" fill="#EEF4FF"/>
<path d="M179.174 61.4946L166.848 54.3848C166.837 54.3848 166.825 54.3734 166.814 54.3734C166.802 54.3734 166.802 54.3619 166.791 54.3619C166.504 54.2128 166.137 54.1326 165.771 54.1211L167.055 60.2332L167.135 60.6001L167.273 61.2767L168.442 61.357L169.084 61.4029L179.644 62.1253C179.621 61.9074 179.484 61.701 179.22 61.5405H179.209C179.197 61.5405 179.197 61.529 179.186 61.529C179.197 61.5061 179.186 61.5061 179.174 61.4946Z" fill="#EEF4FF"/>
<path d="M275.362 127.776L258.553 118.063L237.57 130.265L254.379 139.966L275.362 127.776Z" fill="white"/>
<path d="M265.513 131.068L252.545 123.58L252.293 123.729L265.261 131.217L265.513 131.068Z" fill="#A6BFFF"/>
<path d="M264.424 131.698L251.467 124.21L251.215 124.359L264.171 131.847L264.424 131.698Z" fill="#A6BFFF"/>
<path d="M263.345 132.329L250.377 124.841L250.125 124.99L263.093 132.478L263.345 132.329Z" fill="#A6BFFF"/>
<path d="M262.257 132.96L249.3 125.472L249.048 125.621L262.004 133.109L262.257 132.96Z" fill="#A6BFFF"/>
<path d="M261.178 133.591L248.21 126.103L247.958 126.252L260.926 133.74L261.178 133.591Z" fill="#A6BFFF"/>
<path d="M260.09 134.222L247.133 126.733L246.881 126.882L259.837 134.371L260.09 134.222Z" fill="#A6BFFF"/>
<path d="M259.011 134.852L246.043 127.364L245.791 127.513L258.759 135.002L259.011 134.852Z" fill="#A6BFFF"/>
<path d="M257.923 135.482L244.955 127.994L244.714 128.143L257.67 135.62L257.923 135.482Z" fill="#A6BFFF"/>
<path d="M256.833 136.113L243.876 128.625L243.624 128.774L256.592 136.251L256.833 136.113Z" fill="#A6BFFF"/>
<path d="M249.013 132.926L242.822 129.359L242.569 129.497L248.761 133.075L249.013 132.926Z" fill="#A6BFFF"/>
<path d="M263.575 125.403L256.443 121.286L255.755 121.687L262.887 125.804L263.575 125.403Z" fill="#F24B4B"/>
<path d="M259.378 124.371L255.262 121.997L254.78 122.284L258.897 124.657L259.378 124.371Z" fill="#546FBF"/>
<path d="M275.707 127.283L258.898 117.582L237.915 129.772L254.724 139.485L275.707 127.283Z" fill="white"/>
<path d="M265.857 130.574L252.889 123.098L252.637 123.247L265.605 130.723L265.857 130.574Z" fill="#A6BFFF"/>
<path d="M264.768 131.205L251.812 123.729L251.56 123.878L264.516 131.354L264.768 131.205Z" fill="#A6BFFF"/>
<path d="M263.69 131.836L250.722 124.359L250.47 124.497L263.438 131.985L263.69 131.836Z" fill="#A6BFFF"/>
<path d="M262.601 132.467L249.645 124.99L249.393 125.128L262.349 132.616L262.601 132.467Z" fill="#A6BFFF"/>
<path d="M261.523 133.098L248.555 125.609L248.303 125.758L261.271 133.247L261.523 133.098Z" fill="#A6BFFF"/>
<path d="M260.434 133.728L247.478 126.24L247.226 126.389L260.182 133.877L260.434 133.728Z" fill="#A6BFFF"/>
<path d="M259.356 134.359L246.388 126.871L246.136 127.02L259.104 134.508L259.356 134.359Z" fill="#A6BFFF"/>
<path d="M258.267 134.989L245.299 127.501L245.059 127.65L258.015 135.138L258.267 134.989Z" fill="#A6BFFF"/>
<path d="M257.178 135.62L244.221 128.132L243.969 128.281L256.937 135.769L257.178 135.62Z" fill="#A6BFFF"/>
<path d="M249.358 132.444L243.166 128.866L242.914 129.015L249.106 132.593L249.358 132.444Z" fill="#A6BFFF"/>
<path d="M263.919 124.921L256.788 120.793L256.1 121.194L263.231 125.311L263.919 124.921Z" fill="#F24B4B"/>
<path d="M259.723 123.889L255.607 121.504L255.125 121.791L259.241 124.164L259.723 123.889Z" fill="#546FBF"/>
<path d="M271.074 126.87L254.265 117.169L233.282 129.359L250.091 139.072L271.074 126.87Z" fill="white"/>
<path d="M261.224 130.161L248.256 122.685L248.004 122.822L260.972 130.31L261.224 130.161Z" fill="#A6BFFF"/>
<path d="M260.136 130.792L247.179 123.315L246.927 123.453L259.883 130.941L260.136 130.792Z" fill="#A6BFFF"/>
<path d="M259.057 131.423L246.089 123.946L245.837 124.084L258.805 131.572L259.057 131.423Z" fill="#A6BFFF"/>
<path d="M257.969 132.054L245.012 124.577L244.76 124.715L257.716 132.203L257.969 132.054Z" fill="#A6BFFF"/>
<path d="M256.89 132.684L243.922 125.196L243.67 125.345L256.638 132.834L256.89 132.684Z" fill="#A6BFFF"/>
<path d="M255.801 133.315L242.845 125.827L242.581 125.976L255.549 133.464L255.801 133.315Z" fill="#A6BFFF"/>
<path d="M254.723 133.946L241.755 126.458L241.503 126.607L254.459 134.095L254.723 133.946Z" fill="#A6BFFF"/>
<path d="M253.635 134.576L240.667 127.088L240.426 127.237L253.382 134.725L253.635 134.576Z" fill="#A6BFFF"/>
<path d="M252.545 135.207L239.588 127.719L239.336 127.868L252.304 135.356L252.545 135.207Z" fill="#A6BFFF"/>
<path d="M244.725 132.031L238.534 128.453L238.281 128.602L244.473 132.169L244.725 132.031Z" fill="#A6BFFF"/>
<path d="M259.287 124.508L252.155 120.38L251.467 120.781L258.599 124.898L259.287 124.508Z" fill="#F24B4B"/>
<path d="M255.09 123.476L250.974 121.091L250.492 121.378L254.608 123.751L255.09 123.476Z" fill="#546FBF"/>
<g opacity="0.3">
<path opacity="0.3" d="M228.754 109.096L209.17 120.471C208.688 120.747 208.092 120.747 207.61 120.471L175.253 101.631C174.222 101.034 174.222 99.532 175.253 98.9357L195.055 87.434C195.537 87.1587 196.133 87.1587 196.615 87.434L228.65 107.685C229.51 108.167 229.453 108.671 228.754 109.096Z" fill="#CCCCCC"/>
</g>
<path d="M229.132 107.4C229.132 107.4 228.18 107.491 227.859 107.319L195.009 88.1802C194.551 87.9165 193.989 87.9165 193.53 88.1802L175.437 97.9733C174.176 98.8563 174.44 100.703 175.426 101.264L207.737 119.922C208.195 120.186 208.757 120.186 209.216 119.922L228.926 108.466C229.396 108.179 229.247 107.686 229.132 107.4Z" fill="#1B1F2D"/>
<path d="M194.367 64.1672L194.849 86.517C194.849 87.1133 195.159 87.6523 195.675 87.9619L227.951 107.009C229.029 107.64 230.348 106.631 230.359 105.381L230.416 83.6273C230.416 83.0424 230.107 82.5035 229.614 82.2053L196.821 62.8026C195.72 62.1489 194.287 62.8255 194.367 64.1672Z" fill="#31394C"/>
<path d="M194.356 64.0406L194.287 86.8033C194.287 87.3996 194.597 87.9386 195.113 88.2482L227.378 107.078C228.456 107.708 229.797 106.929 229.797 105.667L229.855 83.9021C229.855 83.3172 229.545 82.7783 229.052 82.4801L196.156 63.02C195.353 62.5384 194.356 63.1118 194.356 64.0406Z" fill="#1B1F2D"/>
<path d="M195.582 64.2012L195.514 86.5052L228.467 105.552L228.536 83.4778L195.582 64.2012Z" fill="#546FBF"/>
<g opacity="0.03">
<g opacity="0.03">
<path opacity="0.03" d="M199.756 66.6445L195.571 68.5825L195.514 84.5909L215.029 75.5776L199.756 66.6445Z" fill="white"/>
</g>
<g opacity="0.03">
<path opacity="0.03" d="M217.574 77.0684L196.247 86.9188L200.18 89.2008L221.484 79.3504L217.574 77.0684Z" fill="white"/>
</g>
<g opacity="0.03">
<path opacity="0.03" d="M224.03 80.8408L202.737 90.6798L218.113 99.567L228.501 94.7622L228.536 83.4783L224.03 80.8408Z" fill="white"/>
</g>
<g opacity="0.03">
<path opacity="0.03" d="M224.603 103.329L228.478 101.54L228.49 97.4346L220.67 101.047L224.603 103.329Z" fill="white"/>
</g>
</g>
<path d="M228.983 107.858L209.17 119.291C208.711 119.555 208.149 119.555 207.691 119.291L175.437 100.542C174.451 99.9685 174.451 98.5465 175.437 97.9732L193.576 87.5035C194.035 87.2397 194.596 87.2397 195.067 87.5035L228.983 107.227C229.224 107.365 229.224 107.72 228.983 107.858Z" fill="#31394C"/>
<path d="M201.854 108.615L196.901 111.551C196.775 111.62 196.626 111.62 196.5 111.551L187.832 106.551C187.568 106.402 187.568 106.012 187.832 105.863L192.578 103.18C192.705 103.111 192.854 103.111 192.98 103.18L201.854 108.455C201.923 108.489 201.923 108.581 201.854 108.615Z" fill="#E2E2E2"/>
<path d="M194.092 90.1979L195.204 90.8516C195.341 90.9318 195.559 90.9318 195.685 90.8516L196.236 90.519C196.373 90.4387 196.373 90.3126 196.236 90.2323L195.124 89.5902C194.986 89.5099 194.78 89.5214 194.642 89.5902L194.092 89.9112C193.966 89.9915 193.966 90.1177 194.092 90.1979Z" fill="#E2E2E2"/>
<path d="M196.052 91.3445L197.176 91.9981C197.314 92.0784 197.532 92.0784 197.669 91.9981L198.219 91.6656C198.357 91.5853 198.357 91.4592 198.219 91.3789L197.096 90.7252C196.958 90.645 196.74 90.645 196.603 90.7252L196.052 91.0578C195.915 91.1381 195.915 91.2642 196.052 91.3445Z" fill="#E2E2E2"/>
<path d="M198.036 92.5027L199.172 93.1678C199.309 93.2481 199.527 93.2481 199.665 93.1678L200.226 92.8352C200.364 92.755 200.364 92.6174 200.226 92.5485L199.091 91.8834C198.954 91.8032 198.736 91.8032 198.598 91.8834L198.048 92.216C197.899 92.2963 197.899 92.4224 198.036 92.5027Z" fill="#E2E2E2"/>
<path d="M200.043 93.6726L201.189 94.3492C201.327 94.4294 201.545 94.4294 201.682 94.3492L202.244 94.0166C202.382 93.9364 202.382 93.7987 202.244 93.7185L201.086 93.0534C200.948 92.9731 200.731 92.9731 200.593 93.0534L200.043 93.3859C199.905 93.4662 199.905 93.5923 200.043 93.6726Z" fill="#E2E2E2"/>
<path d="M202.072 94.8655L203.242 95.542C203.379 95.6223 203.609 95.6223 203.746 95.542L204.308 95.198C204.446 95.1177 204.446 94.9801 204.308 94.8999L203.139 94.2233C203.001 94.143 202.772 94.143 202.634 94.2233L202.072 94.5558C201.923 94.6476 201.935 94.7852 202.072 94.8655Z" fill="#E2E2E2"/>
<path d="M204.124 96.0696L205.305 96.7576C205.443 96.8379 205.672 96.8379 205.81 96.7576L206.372 96.4136C206.509 96.3333 206.509 96.1957 206.36 96.1154L205.179 95.4274C205.041 95.3471 204.812 95.3471 204.675 95.4274L204.113 95.7714C203.987 95.8517 203.987 95.9778 204.124 96.0696Z" fill="#E2E2E2"/>
<path d="M206.199 97.2851L207.392 97.9846C207.529 98.0649 207.759 98.0649 207.896 97.9846L208.458 97.6406C208.596 97.5603 208.596 97.4227 208.447 97.331L207.254 96.6315C207.117 96.5512 206.887 96.5512 206.75 96.6315L206.188 96.9755C206.062 97.0672 206.062 97.1934 206.199 97.2851Z" fill="#E2E2E2"/>
<path d="M208.309 98.5117L209.513 99.2227C209.662 99.3029 209.891 99.3029 210.029 99.2227L210.591 98.8672C210.728 98.7869 210.728 98.6493 210.579 98.5576L209.364 97.8581C209.215 97.7778 208.986 97.7778 208.848 97.8581L208.286 98.2021C208.16 98.2938 208.171 98.4314 208.309 98.5117Z" fill="#E2E2E2"/>
<path d="M210.442 99.7614L211.669 100.472C211.818 100.553 212.047 100.553 212.185 100.472L212.747 100.117C212.884 100.025 212.873 99.8876 212.735 99.8073L211.508 99.0963C211.359 99.0161 211.13 99.0161 210.992 99.0963L210.431 99.4518C210.293 99.5321 210.305 99.6812 210.442 99.7614Z" fill="#E2E2E2"/>
<path d="M212.609 101.023L213.848 101.746C213.997 101.837 214.226 101.837 214.375 101.746L214.948 101.39C215.086 101.298 215.074 101.161 214.925 101.08L213.687 100.358C213.538 100.278 213.309 100.278 213.171 100.358L212.609 100.714C212.449 100.794 212.46 100.943 212.609 101.023Z" fill="#E2E2E2"/>
<path d="M214.799 102.308L216.06 103.042C216.21 103.134 216.45 103.134 216.588 103.042L217.161 102.686C217.299 102.595 217.287 102.457 217.138 102.365L215.877 101.631C215.728 101.54 215.499 101.54 215.35 101.631L214.776 101.987C214.639 102.079 214.639 102.216 214.799 102.308Z" fill="#E2E2E2"/>
<path d="M217.012 103.604L218.285 104.349C218.434 104.441 218.674 104.441 218.812 104.349L219.385 103.982C219.523 103.89 219.512 103.753 219.362 103.661L218.09 102.915C217.941 102.824 217.7 102.824 217.562 102.915L216.989 103.271C216.851 103.374 216.863 103.512 217.012 103.604Z" fill="#E2E2E2"/>
<path d="M219.26 104.91L220.544 105.667C220.693 105.759 220.934 105.759 221.083 105.667L221.656 105.3C221.794 105.209 221.782 105.059 221.633 104.979L220.338 104.234C220.188 104.142 219.948 104.142 219.81 104.234L219.237 104.601C219.088 104.681 219.099 104.819 219.26 104.91Z" fill="#E2E2E2"/>
<path d="M223.914 106.31L222.607 105.553C222.447 105.461 222.217 105.461 222.068 105.553L221.495 105.92C221.357 106.012 221.369 106.161 221.518 106.253L222.825 107.021C222.985 107.113 223.226 107.113 223.364 107.021L223.937 106.654C224.086 106.551 224.075 106.402 223.914 106.31Z" fill="#E2E2E2"/>
<path d="M192.28 91.333L193.3 91.9407C193.461 92.0439 193.736 92.0325 193.908 91.9407L194.917 91.3444C195.089 91.2412 195.089 91.0807 194.928 90.9889L193.908 90.3926C193.747 90.3009 193.472 90.3009 193.3 90.4041L192.303 91.0004C192.119 91.0807 192.119 91.2412 192.28 91.333Z" fill="#E2E2E2"/>
<path d="M196.82 92.0898L195.788 91.4821C195.616 91.3789 195.352 91.3903 195.18 91.4935L194.171 92.0898C193.999 92.1931 193.999 92.3536 194.16 92.4568L195.192 93.0646C195.364 93.1678 195.639 93.1563 195.8 93.0646L196.809 92.4568C196.981 92.3536 196.981 92.1816 196.82 92.0898Z" fill="#E2E2E2"/>
<path d="M198.735 93.2141L197.692 92.6064C197.52 92.5032 197.245 92.5146 197.073 92.6064L196.064 93.2141C195.892 93.3173 195.892 93.4779 196.064 93.5811L197.107 94.2003C197.279 94.3035 197.554 94.3035 197.726 94.2003L198.735 93.5926C198.896 93.4779 198.896 93.3059 198.735 93.2141Z" fill="#E2E2E2"/>
<path d="M193.232 94.1429L194.263 94.7621C194.435 94.8653 194.711 94.8653 194.883 94.7621L195.903 94.1543C196.075 94.0511 196.075 93.8906 195.903 93.7874L194.871 93.1796C194.699 93.0764 194.424 93.0879 194.263 93.1796L193.254 93.7874C193.071 93.8791 193.06 94.0397 193.232 94.1429Z" fill="#E2E2E2"/>
<path d="M190.399 92.4457L192.291 93.581C192.452 93.6842 192.727 93.6727 192.899 93.581L193.908 92.9732C194.08 92.87 194.08 92.7095 193.919 92.6063L192.016 91.4825C191.856 91.3907 191.58 91.3907 191.408 91.4939L190.399 92.0903C190.25 92.1935 190.239 92.354 190.399 92.4457Z" fill="#E2E2E2"/>
<path d="M197.818 94.9115L196.775 94.2922C196.603 94.189 196.328 94.189 196.156 94.2922L195.135 94.9C194.963 95.0032 194.963 95.1638 195.124 95.267L196.167 95.8977C196.339 96.0009 196.614 96.0009 196.786 95.8977L197.807 95.2784C197.99 95.1867 197.99 95.0147 197.818 94.9115Z" fill="#E2E2E2"/>
<path d="M199.756 96.0694L198.701 95.4387C198.529 95.3355 198.254 95.3355 198.082 95.4387L197.062 96.058C196.89 96.1612 196.89 96.3332 197.062 96.4364L198.116 97.0671C198.288 97.1703 198.564 97.1703 198.747 97.0671L199.768 96.4479C199.928 96.3332 199.928 96.1726 199.756 96.0694Z" fill="#E2E2E2"/>
<path d="M201.716 97.2276L200.638 96.5969C200.467 96.4937 200.18 96.4937 200.008 96.5969L198.987 97.2162C198.815 97.3194 198.815 97.4914 198.987 97.5946L200.054 98.2368C200.226 98.34 200.512 98.34 200.684 98.2368L201.728 97.6061C201.9 97.5029 201.9 97.3308 201.716 97.2276Z" fill="#E2E2E2"/>
<path d="M203.711 98.409L202.622 97.7669C202.45 97.6637 202.163 97.6637 201.991 97.7669L200.971 98.3976C200.799 98.5008 200.799 98.6728 200.971 98.776L202.049 99.4296C202.221 99.5328 202.507 99.5328 202.679 99.4296L203.711 98.7989C203.883 98.6842 203.883 98.5122 203.711 98.409Z" fill="#E2E2E2"/>
<path d="M205.718 99.6012L204.618 98.9475C204.446 98.8443 204.159 98.8443 203.987 98.9475L202.955 99.5782C202.783 99.6814 202.783 99.8534 202.955 99.9681L204.056 100.622C204.239 100.725 204.526 100.725 204.698 100.622L205.73 99.9911C205.902 99.8764 205.902 99.7044 205.718 99.6012Z" fill="#E2E2E2"/>
<path d="M207.76 100.805L206.647 100.152C206.464 100.048 206.177 100.048 206.005 100.152L204.973 100.794C204.801 100.897 204.801 101.08 204.985 101.184L206.097 101.849C206.28 101.952 206.567 101.952 206.739 101.849L207.771 101.207C207.943 101.092 207.932 100.908 207.76 100.805Z" fill="#E2E2E2"/>
<path d="M209.811 102.021L208.687 101.356C208.504 101.253 208.217 101.253 208.045 101.356L207.013 101.998C206.841 102.101 206.841 102.285 207.025 102.388L208.148 103.064C208.332 103.179 208.619 103.179 208.802 103.064L209.834 102.422C210.006 102.308 209.994 102.136 209.811 102.021Z" fill="#E2E2E2"/>
<path d="M209.089 103.638L210.224 104.314C210.407 104.429 210.705 104.429 210.877 104.314L211.921 103.661C212.093 103.546 212.093 103.374 211.898 103.259L210.763 102.583C210.579 102.468 210.293 102.48 210.109 102.583L209.077 103.236C208.894 103.34 208.905 103.523 209.089 103.638Z" fill="#E2E2E2"/>
<path d="M214.031 104.911C214.203 104.796 214.203 104.624 214.008 104.509L212.85 103.821C212.666 103.707 212.368 103.707 212.196 103.821L211.153 104.475C210.981 104.59 210.981 104.762 211.164 104.876L212.311 105.564C212.495 105.679 212.793 105.679 212.976 105.564L214.031 104.911Z" fill="#E2E2E2"/>
<path d="M216.175 106.183C216.347 106.068 216.335 105.885 216.152 105.77L214.982 105.082C214.799 104.967 214.501 104.967 214.317 105.082L213.274 105.747C213.102 105.862 213.102 106.045 213.297 106.149L214.466 106.848C214.661 106.963 214.959 106.963 215.131 106.848L216.175 106.183Z" fill="#E2E2E2"/>
<path d="M215.441 107.433L216.622 108.144C216.817 108.259 217.115 108.259 217.287 108.144L218.342 107.468C218.514 107.353 218.503 107.17 218.319 107.055L217.138 106.356C216.943 106.241 216.645 106.241 216.473 106.356L215.43 107.021C215.235 107.135 215.246 107.319 215.441 107.433Z" fill="#E2E2E2"/>
<path d="M191.821 95.1981C191.649 95.3013 191.638 95.4619 191.81 95.5651L192.842 96.1958C193.014 96.299 193.289 96.299 193.461 96.1958L194.482 95.588C194.653 95.4848 194.653 95.3243 194.493 95.2211L193.461 94.6018C193.289 94.4986 193.014 94.4986 192.842 94.6018L191.821 95.1981Z" fill="#E2E2E2"/>
<path d="M188.508 93.5696L190.904 95.026C191.065 95.1292 191.34 95.1292 191.524 95.026L192.544 94.4182C192.716 94.315 192.716 94.1545 192.556 94.0513L190.148 92.6064C189.987 92.5032 189.712 92.5146 189.54 92.6064L188.531 93.2027C188.359 93.3059 188.348 93.4664 188.508 93.5696Z" fill="#E2E2E2"/>
<path d="M193.725 96.3441C193.553 96.4473 193.553 96.6193 193.714 96.7225L194.757 97.3532C194.929 97.4564 195.204 97.4564 195.376 97.3532L196.397 96.734C196.569 96.6308 196.569 96.4588 196.397 96.3556L195.353 95.7249C195.181 95.6217 194.906 95.6217 194.734 95.7249L193.725 96.3441Z" fill="#E2E2E2"/>
<path d="M195.64 97.881L196.695 98.5232C196.867 98.6264 197.153 98.6264 197.325 98.5232L198.357 97.9039C198.529 97.8007 198.529 97.6287 198.357 97.5255L197.302 96.8948C197.13 96.7916 196.855 96.7916 196.683 96.8948L195.663 97.514C195.468 97.6058 195.468 97.7778 195.64 97.881Z" fill="#E2E2E2"/>
<path d="M197.589 99.0624L198.655 99.716C198.827 99.8192 199.114 99.8192 199.286 99.716L200.318 99.0853C200.49 98.9821 200.49 98.8101 200.318 98.7069L199.24 98.0647C199.068 97.9615 198.781 97.9615 198.609 98.0647L197.577 98.6839C197.417 98.7872 197.405 98.9592 197.589 99.0624Z" fill="#E2E2E2"/>
<path d="M199.55 100.255L200.628 100.909C200.8 101.012 201.086 101.012 201.27 100.909L202.302 100.278C202.474 100.175 202.474 100.003 202.302 99.8883L201.212 99.2346C201.04 99.1314 200.754 99.1314 200.582 99.2346L199.55 99.8653C199.378 99.98 199.378 100.152 199.55 100.255Z" fill="#E2E2E2"/>
<path d="M201.544 101.459L202.645 102.124C202.828 102.228 203.115 102.228 203.287 102.124L204.33 101.482C204.502 101.379 204.502 101.196 204.319 101.092L203.218 100.439C203.046 100.336 202.759 100.336 202.576 100.439L201.544 101.069C201.372 101.184 201.372 101.356 201.544 101.459Z" fill="#E2E2E2"/>
<path d="M203.563 102.686L204.675 103.362C204.859 103.477 205.145 103.477 205.317 103.362L206.361 102.72C206.533 102.606 206.533 102.434 206.349 102.33L205.237 101.665C205.053 101.562 204.767 101.562 204.595 101.665L203.551 102.307C203.379 102.399 203.379 102.571 203.563 102.686Z" fill="#E2E2E2"/>
<path d="M205.603 103.924L206.727 104.6C206.911 104.715 207.197 104.715 207.381 104.6L208.424 103.947C208.596 103.832 208.596 103.66 208.413 103.545L207.289 102.869C207.105 102.754 206.819 102.766 206.647 102.869L205.603 103.511C205.42 103.626 205.42 103.809 205.603 103.924Z" fill="#E2E2E2"/>
<path d="M207.667 105.174L208.803 105.862C208.986 105.977 209.284 105.977 209.456 105.862L210.499 105.209C210.671 105.094 210.671 104.922 210.488 104.807L209.353 104.119C209.169 104.005 208.871 104.005 208.699 104.119L207.656 104.773C207.484 104.876 207.484 105.06 207.667 105.174Z" fill="#E2E2E2"/>
<path d="M209.766 106.436L210.912 107.135C211.096 107.25 211.394 107.25 211.577 107.135L212.632 106.47C212.804 106.355 212.804 106.172 212.609 106.057L211.451 105.369C211.268 105.255 210.969 105.255 210.797 105.369L209.754 106.034C209.571 106.149 209.582 106.321 209.766 106.436Z" fill="#E2E2E2"/>
<path d="M213.71 108.431L214.765 107.754C214.948 107.639 214.937 107.456 214.742 107.341L213.572 106.642C213.389 106.527 213.091 106.527 212.907 106.642L211.852 107.307C211.669 107.421 211.68 107.605 211.875 107.72L213.045 108.431C213.24 108.545 213.538 108.545 213.71 108.431Z" fill="#E2E2E2"/>
<path d="M218.537 109.624L215.751 107.949C215.556 107.835 215.258 107.835 215.086 107.949L214.031 108.626C213.848 108.741 213.859 108.924 214.054 109.039L216.829 110.724C217.024 110.839 217.322 110.839 217.505 110.724L218.56 110.048C218.744 109.922 218.732 109.738 218.537 109.624Z" fill="#E2E2E2"/>
<path d="M190.892 97.3075L191.924 97.9382C192.096 98.0414 192.371 98.0414 192.543 97.9382L193.575 97.3189C193.747 97.2157 193.747 97.0437 193.587 96.9405L192.543 96.3098C192.371 96.2066 192.096 96.2066 191.924 96.3098L190.892 96.9291C190.732 97.0437 190.72 97.2157 190.892 97.3075Z" fill="#E2E2E2"/>
<path d="M187.407 95.5646L186.192 94.8192C186.088 94.7504 185.905 94.7504 185.79 94.8192L184.288 95.7136C184.174 95.7824 184.162 95.8856 184.277 95.9544L185.481 96.6998C185.584 96.7686 185.767 96.7686 185.882 96.6998L187.396 95.8054C187.51 95.748 187.51 95.6334 187.407 95.5646Z" fill="#E2E2E2"/>
<path d="M189.287 96.7225L188.06 95.9657C187.957 95.8969 187.774 95.8969 187.659 95.9657L186.146 96.8601C186.031 96.9289 186.02 97.0436 186.134 97.1009L187.35 97.8578C187.464 97.9266 187.636 97.9266 187.751 97.8578L189.264 96.9519C189.391 96.8945 189.391 96.7913 189.287 96.7225Z" fill="#E2E2E2"/>
<path d="M191.179 97.8807L189.941 97.1239C189.826 97.0551 189.654 97.0551 189.539 97.1239L188.026 98.0298C187.911 98.0986 187.911 98.2133 188.014 98.2821L189.253 99.0504C189.367 99.1192 189.551 99.1192 189.666 99.0504L191.191 98.133C191.282 98.0642 191.294 97.9495 191.179 97.8807Z" fill="#E2E2E2"/>
<path d="M193.542 99.3373L191.845 98.2938C191.73 98.225 191.546 98.225 191.432 98.2938L189.907 99.2112C189.792 99.28 189.792 99.3947 189.895 99.4635L191.581 100.518C191.696 100.587 191.879 100.587 191.994 100.518L193.519 99.5896C193.656 99.5208 193.656 99.4061 193.542 99.3373Z" fill="#E2E2E2"/>
<path d="M206.108 107.055L204.273 105.931C204.158 105.863 203.963 105.863 203.849 105.931L202.301 106.895C202.186 106.964 202.186 107.09 202.301 107.158L204.124 108.294C204.25 108.374 204.434 108.374 204.56 108.294L206.119 107.319C206.234 107.25 206.234 107.124 206.108 107.055Z" fill="#E2E2E2"/>
<path d="M208.217 108.351L206.864 107.525C206.738 107.445 206.543 107.445 206.429 107.525L204.869 108.5C204.755 108.569 204.755 108.695 204.869 108.775L206.222 109.612C206.348 109.692 206.543 109.692 206.658 109.612L208.217 108.626C208.343 108.546 208.343 108.431 208.217 108.351Z" fill="#E2E2E2"/>
<path d="M209.376 110.3L208.012 109.452C207.885 109.372 207.691 109.372 207.576 109.452L207.003 109.807C206.888 109.888 206.888 110.002 207.014 110.083L208.379 110.931C208.505 111.011 208.7 111.011 208.814 110.931L209.388 110.564C209.502 110.507 209.502 110.381 209.376 110.3Z" fill="#E2E2E2"/>
<path d="M213.71 112.983L212.311 112.112C212.185 112.032 211.99 112.032 211.864 112.112L211.291 112.479C211.176 112.559 211.176 112.685 211.302 112.754L212.701 113.626C212.827 113.706 213.033 113.706 213.148 113.626L213.721 113.259C213.848 113.19 213.836 113.064 213.71 112.983Z" fill="#E2E2E2"/>
<path d="M211.532 111.63L210.144 110.77C210.018 110.69 209.823 110.69 209.709 110.77L209.135 111.137C209.021 111.217 209.021 111.332 209.147 111.412L210.534 112.272C210.66 112.353 210.855 112.353 210.981 112.272L211.555 111.905C211.658 111.837 211.658 111.71 211.532 111.63Z" fill="#E2E2E2"/>
<path d="M210.259 110.713L211.646 111.573C211.772 111.654 211.967 111.654 212.093 111.573L212.666 111.206C212.781 111.126 212.781 111.012 212.655 110.931L211.268 110.083C211.141 110.002 210.947 110.002 210.832 110.083L210.27 110.45C210.121 110.507 210.132 110.633 210.259 110.713Z" fill="#E2E2E2"/>
<path d="M203.471 105.427L194.218 99.7391C194.103 99.6703 193.919 99.6703 193.805 99.7391L192.28 100.668C192.165 100.737 192.165 100.851 192.268 100.92L201.499 106.654C201.613 106.723 201.808 106.723 201.923 106.654L203.471 105.691C203.585 105.622 203.585 105.507 203.471 105.427Z" fill="#E2E2E2"/>
<path d="M186.616 94.6927L189.907 96.7109C190.079 96.8141 190.354 96.8141 190.526 96.7109L191.558 96.0917C191.73 95.9885 191.742 95.8165 191.57 95.7247L188.267 93.7294C188.107 93.6262 187.832 93.6377 187.66 93.7294L186.639 94.3372C186.456 94.4289 186.444 94.5895 186.616 94.6927Z" fill="#E2E2E2"/>
<path d="M192.796 98.4774L193.84 99.1196C194.012 99.2228 194.287 99.2228 194.47 99.1196L195.502 98.5003C195.674 98.3971 195.674 98.2251 195.514 98.1219L194.459 97.4797C194.287 97.3765 194.012 97.3765 193.84 97.4797L192.808 98.099C192.636 98.2137 192.624 98.3742 192.796 98.4774Z" fill="#E2E2E2"/>
<path d="M194.723 99.6581L195.789 100.312C195.961 100.415 196.248 100.415 196.42 100.312L197.452 99.681C197.624 99.5778 197.624 99.4058 197.452 99.3026L196.385 98.6604C196.213 98.5572 195.938 98.5572 195.755 98.6604L194.723 99.2911C194.551 99.3829 194.551 99.5549 194.723 99.6581Z" fill="#E2E2E2"/>
<path d="M196.672 100.863L197.749 101.516C197.921 101.619 198.208 101.619 198.38 101.516L199.423 100.886C199.595 100.782 199.595 100.61 199.423 100.496L198.346 99.8421C198.174 99.7388 197.887 99.7388 197.715 99.8421L196.683 100.473C196.5 100.576 196.5 100.748 196.672 100.863Z" fill="#E2E2E2"/>
<path d="M198.655 102.066L199.744 102.732C199.916 102.835 200.203 102.835 200.387 102.732L201.43 102.089C201.602 101.986 201.602 101.803 201.43 101.7L200.341 101.034C200.169 100.931 199.882 100.931 199.699 101.034L198.655 101.677C198.472 101.791 198.472 101.963 198.655 102.066Z" fill="#E2E2E2"/>
<path d="M200.65 103.293L201.751 103.97C201.935 104.085 202.221 104.085 202.393 103.97L203.437 103.328C203.609 103.213 203.609 103.041 203.437 102.938L202.336 102.273C202.153 102.17 201.866 102.17 201.694 102.273L200.65 102.915C200.478 103.007 200.478 103.19 200.65 103.293Z" fill="#E2E2E2"/>
<path d="M202.68 104.532L203.792 105.208C203.975 105.323 204.262 105.323 204.445 105.208L205.489 104.555C205.661 104.44 205.661 104.268 205.477 104.153L204.365 103.477C204.182 103.362 203.895 103.362 203.723 103.477L202.68 104.13C202.496 104.245 202.496 104.428 202.68 104.532Z" fill="#E2E2E2"/>
<path d="M204.72 105.793L205.844 106.481C206.028 106.596 206.326 106.596 206.498 106.481L207.553 105.816C207.725 105.701 207.725 105.529 207.541 105.415L206.406 104.727C206.223 104.612 205.936 104.612 205.752 104.727L204.698 105.38C204.537 105.495 204.548 105.678 204.72 105.793Z" fill="#E2E2E2"/>
<path d="M206.796 107.067L207.931 107.766C208.115 107.881 208.413 107.881 208.596 107.766L209.651 107.101C209.835 106.986 209.823 106.803 209.64 106.688L208.493 106C208.31 105.885 208.012 105.885 207.84 106L206.785 106.665C206.613 106.768 206.613 106.952 206.796 107.067Z" fill="#E2E2E2"/>
<path d="M211.761 107.972L210.603 107.273C210.419 107.158 210.121 107.158 209.938 107.273L208.883 107.938C208.7 108.052 208.711 108.236 208.894 108.35L210.053 109.061C210.236 109.176 210.534 109.176 210.718 109.061L211.772 108.385C211.956 108.27 211.944 108.087 211.761 107.972Z" fill="#E2E2E2"/>
<path d="M216.611 110.919L212.724 108.568C212.529 108.454 212.231 108.454 212.059 108.568L211.004 109.245C210.821 109.36 210.832 109.543 211.016 109.658L214.891 112.032C215.086 112.146 215.384 112.158 215.568 112.032L216.634 111.344C216.817 111.229 216.806 111.034 216.611 110.919Z" fill="#E2E2E2"/>
<path d="M220.498 108.362L219.305 107.651C219.11 107.537 218.812 107.537 218.629 107.651L217.574 108.328C217.39 108.443 217.413 108.626 217.597 108.741L218.789 109.452C218.984 109.566 219.282 109.566 219.466 109.452L220.521 108.775C220.704 108.661 220.693 108.477 220.498 108.362Z" fill="#E2E2E2"/>
<path d="M200.673 94.349L199.618 93.7297C199.447 93.6265 199.171 93.6265 198.999 93.7297L197.99 94.3375C197.818 94.4407 197.818 94.6013 197.99 94.7045L199.045 95.3237C199.217 95.4269 199.492 95.4269 199.664 95.3237L200.673 94.7159C200.845 94.6127 200.845 94.4522 200.673 94.349Z" fill="#E2E2E2"/>
<path d="M202.634 95.4962L201.567 94.8655C201.395 94.7623 201.12 94.7623 200.948 94.8655L199.928 95.4733C199.756 95.5765 199.756 95.7485 199.928 95.8517L200.994 96.4824C201.166 96.5856 201.453 96.5856 201.625 96.4824L202.645 95.8632C202.806 95.7599 202.806 95.5994 202.634 95.4962Z" fill="#E2E2E2"/>
<path d="M204.618 96.6544L203.54 96.0237C203.368 95.9205 203.081 95.9205 202.909 96.0237L201.889 96.6429C201.717 96.7461 201.717 96.9181 201.889 97.0213L202.967 97.6635C203.139 97.7667 203.425 97.7667 203.597 97.6635L204.618 97.0443C204.79 96.9296 204.79 96.7576 204.618 96.6544Z" fill="#E2E2E2"/>
<path d="M206.624 97.8348L205.535 97.1926C205.363 97.0894 205.076 97.0894 204.904 97.1926L203.883 97.8119C203.711 97.9151 203.711 98.0871 203.895 98.1903L204.984 98.8325C205.168 98.9357 205.443 98.9357 205.626 98.8325L206.647 98.2018C206.807 98.11 206.807 97.938 206.624 97.8348Z" fill="#E2E2E2"/>
<path d="M208.653 99.0279L207.541 98.3743C207.358 98.2711 207.083 98.2711 206.899 98.3743L205.879 99.005C205.707 99.1082 205.707 99.2802 205.89 99.3949L206.991 100.049C207.174 100.152 207.461 100.152 207.633 100.049L208.665 99.4178C208.848 99.3031 208.837 99.1311 208.653 99.0279Z" fill="#E2E2E2"/>
<path d="M210.717 100.232L209.594 99.5784C209.41 99.4752 209.124 99.4752 208.952 99.5784L207.92 100.209C207.748 100.312 207.748 100.496 207.931 100.599L209.055 101.264C209.238 101.367 209.525 101.367 209.697 101.264L210.729 100.622C210.901 100.507 210.901 100.335 210.717 100.232Z" fill="#E2E2E2"/>
<path d="M212.792 101.448L211.657 100.782C211.474 100.679 211.187 100.679 211.015 100.782L209.983 101.425C209.811 101.528 209.811 101.711 209.995 101.815L211.13 102.48C211.313 102.594 211.611 102.583 211.783 102.48L212.815 101.837C212.987 101.734 212.976 101.562 212.792 101.448Z" fill="#E2E2E2"/>
<path d="M214.903 102.686L213.756 102.009C213.573 101.906 213.275 101.906 213.103 102.009L212.071 102.651C211.899 102.766 211.899 102.938 212.094 103.053L213.24 103.729C213.424 103.844 213.722 103.844 213.894 103.729L214.926 103.076C215.098 102.972 215.086 102.789 214.903 102.686Z" fill="#E2E2E2"/>
<path d="M215.361 104.99C215.545 105.105 215.843 105.105 216.026 104.99L217.07 104.337C217.242 104.222 217.23 104.05 217.047 103.935L215.889 103.259C215.705 103.144 215.407 103.144 215.235 103.259L214.203 103.912C214.031 104.027 214.043 104.199 214.226 104.314L215.361 104.99Z" fill="#E2E2E2"/>
<path d="M219.202 105.197L218.021 104.509C217.826 104.394 217.539 104.394 217.356 104.509L216.313 105.162C216.141 105.277 216.152 105.461 216.335 105.564L217.516 106.263C217.711 106.378 218.01 106.378 218.182 106.263L219.225 105.598C219.408 105.495 219.385 105.312 219.202 105.197Z" fill="#E2E2E2"/>
<path d="M222.63 107.204L220.119 105.736C219.993 105.667 219.809 105.667 219.695 105.736L218.422 106.55C218.307 106.619 218.319 106.734 218.445 106.814L220.945 108.293C221.071 108.362 221.266 108.362 221.38 108.293L222.664 107.468C222.768 107.399 222.756 107.284 222.63 107.204Z" fill="#E2E2E2"/>
<path d="M220.394 194.872C217.069 195.858 213.985 197.681 210.603 198.519C207.633 199.482 204.617 200.204 201.602 200.984C199.687 201.489 197.772 202.119 196.167 203.312C195.445 203.851 195.571 204.975 195.639 205.766C195.754 207.085 197.52 207.738 198.575 208.094C200.042 208.587 201.613 208.805 203.15 208.575C205.225 208.266 206.888 207.211 208.63 206.121C210.224 205.124 211.852 204.172 213.538 203.335C215.177 202.521 216.909 201.959 218.583 201.202C220.177 200.479 221.381 199.367 221.541 197.555C221.587 197.085 221.621 196.615 221.552 196.145C221.484 195.698 221.3 195.262 220.979 194.952C220.91 194.883 220.83 194.826 220.727 194.815C220.647 194.803 220.578 194.826 220.509 194.849C220.463 194.86 220.429 194.86 220.394 194.872Z" fill="#31394C"/>
<path d="M216.633 192.223C216.106 192.189 215.567 192.2 215.04 192.234C213.744 192.326 212.448 192.544 211.153 192.67C209.765 192.808 208.435 192.682 207.048 192.555C206.624 192.51 206.188 192.475 205.764 192.475C202.301 192.406 198.792 194.643 197.095 197.636C197.084 197.636 197.072 197.624 197.061 197.624C195.639 198.22 196.213 200.17 196.086 201.362C195.995 202.211 195.593 203.083 195.662 203.943C195.72 204.642 196.213 205.101 196.751 205.491C198.827 206.947 201.67 207.497 204.136 206.798C206.05 206.259 207.667 205.112 209.387 204.138C211.52 202.933 213.687 201.695 215.968 200.789C217.149 200.319 218.411 199.952 219.477 199.229C220.864 198.301 221.942 196.684 221.197 195.009C220.348 193.026 218.571 192.338 216.633 192.223Z" fill="#2D2D2D"/>
<path d="M214.26 194.746C213.251 193.955 212.082 193.209 210.855 192.693C209.571 192.785 208.332 192.682 207.048 192.556C206.624 192.51 206.188 192.476 205.764 192.476C205.225 192.716 204.709 193.037 204.239 193.439C204.182 193.485 204.159 193.542 204.147 193.611C204.101 193.668 204.056 193.726 204.01 193.771C203.78 194.058 203.597 194.368 203.482 194.723C203.23 195.503 203.517 196.202 203.941 196.856C204.354 197.51 204.766 198.106 205.408 198.553C205.695 198.748 206.028 198.943 206.372 199.012C206.67 199.069 207.117 199.115 207.358 198.897C207.404 198.863 207.415 198.806 207.415 198.748C209.066 197.854 210.797 197.521 212.655 197.28C213.343 197.189 214.478 197.108 214.948 196.512C215.43 195.881 214.73 195.125 214.26 194.746Z" fill="#101011"/>
<path d="M204.02 184.402C200.695 185.388 197.611 187.212 194.228 188.049C191.259 189.012 188.243 189.734 185.228 190.514C183.313 191.019 181.398 191.65 179.793 192.842C179.07 193.381 179.197 194.505 179.265 195.296C179.38 196.615 181.146 197.269 182.201 197.624C183.668 198.117 185.239 198.335 186.776 198.106C188.851 197.796 190.514 196.741 192.256 195.652C193.85 194.654 195.478 193.702 197.164 192.865C198.803 192.051 200.535 191.489 202.209 190.732C203.803 190.01 205.006 188.897 205.167 187.086C205.213 186.615 205.247 186.145 205.167 185.675C205.098 185.228 204.915 184.792 204.594 184.482C204.525 184.414 204.445 184.356 204.341 184.345C204.261 184.333 204.192 184.356 204.124 184.379C204.089 184.379 204.055 184.391 204.02 184.402Z" fill="#31394C"/>
<path d="M200.26 181.753C199.732 181.719 199.193 181.73 198.666 181.765C197.37 181.856 196.075 182.074 194.779 182.2C193.392 182.338 192.061 182.212 190.674 182.086C190.25 182.04 189.814 182.005 189.39 182.005C185.927 181.937 182.419 184.173 180.722 187.166C180.71 187.166 180.699 187.154 180.687 187.154C179.265 187.751 179.839 189.7 179.724 190.893C179.632 191.741 179.231 192.613 179.3 193.473C179.357 194.172 179.85 194.631 180.389 195.021C182.464 196.477 185.308 197.028 187.773 196.328C189.688 195.789 191.305 194.642 193.025 193.668C195.157 192.464 197.324 191.225 199.606 190.319C200.787 189.849 202.048 189.482 203.115 188.76C204.502 187.831 205.58 186.214 204.835 184.54C203.975 182.556 202.197 181.868 200.26 181.753Z" fill="#2D2D2D"/>
<path d="M197.737 186.237C198.219 185.618 197.519 184.861 197.049 184.483C195.926 183.588 194.584 182.774 193.197 182.247C192.36 182.235 191.534 182.166 190.686 182.086C190.261 182.04 189.826 182.006 189.401 182.006C189.287 182.006 189.172 182.029 189.058 182.029C188.324 182.27 187.647 182.659 187.028 183.187C186.971 183.233 186.948 183.29 186.936 183.359C186.89 183.416 186.845 183.474 186.799 183.52C186.569 183.806 186.386 184.116 186.271 184.471C186.019 185.251 186.306 185.951 186.73 186.604C187.143 187.258 187.555 187.854 188.198 188.301C188.484 188.496 188.817 188.691 189.161 188.76C189.459 188.817 189.906 188.863 190.147 188.645C190.193 188.611 190.204 188.554 190.204 188.496C191.855 187.602 193.587 187.269 195.444 187.029C196.132 186.925 197.267 186.834 197.737 186.237Z" fill="#101011"/>
<g opacity="0.3">
<path opacity="0.3" d="M133.826 202.154C134.388 201.832 135.283 201.787 135.925 202.085L155.497 212.199L172.696 199.539C172.73 199.516 172.765 199.493 172.799 199.47C173.269 199.195 174.358 198.243 174.989 198.415C175.769 198.633 175.734 200.055 175.356 200.514L163.775 214.641L192.245 218.689C192.417 218.724 192.945 217.956 193.082 218.013C193.507 218.196 193.381 219.332 193.312 219.653C193.277 219.871 193.105 220.066 192.853 220.203C192.532 220.387 192.062 220.501 191.557 220.467L162.262 219.951L165.289 232.725L165.277 233.654C165.323 233.941 165.151 234.205 164.819 234.4C164.647 234.503 164.429 234.572 164.188 234.629C163.351 234.778 162.457 234.514 162.205 234.033L153.078 220.788L129.274 227.003C128.621 227.187 127.818 227.095 127.36 226.751C126.844 226.384 126.66 225.123 127.233 224.79C127.268 224.767 127.795 224.698 127.83 224.675L148.893 215.983L133.654 203.369C133.219 203.048 132.978 201.729 133.425 201.385C133.505 201.362 133.78 202.188 133.826 202.154Z" fill="#808080"/>
</g>
<path d="M191.821 212.119C193.518 211.144 194.894 211.935 194.894 213.873C194.894 215.823 193.541 218.185 191.844 219.16C190.158 220.134 188.782 219.355 188.782 217.405C188.782 215.467 190.135 213.093 191.821 212.119Z" fill="#1B1F2D"/>
<path d="M192.738 221.165L189.791 219.434L194.01 211.911L197.072 213.7L192.738 221.165Z" fill="#1B1F2D"/>
<path d="M194.928 213.93C196.625 212.956 198.001 213.747 198.001 215.685C198.001 217.634 196.648 219.996 194.951 220.971C193.266 221.946 191.89 221.166 191.89 219.217C191.878 217.279 193.243 214.905 194.928 213.93Z" fill="#1B1F2D"/>
<path d="M194.928 214.137C196.533 213.208 197.818 213.965 197.829 215.788C197.829 217.623 196.545 219.859 194.951 220.777C193.357 221.694 192.062 220.96 192.062 219.114C192.05 217.291 193.334 215.055 194.928 214.137Z" fill="#31394C"/>
<path d="M162.686 226.808C164.383 225.833 165.759 226.625 165.759 228.563C165.759 230.512 164.406 232.874 162.709 233.849C161.023 234.824 159.648 234.044 159.648 232.095C159.636 230.157 160.989 227.783 162.686 226.808Z" fill="#1B1F2D"/>
<path d="M163.592 235.855L160.646 234.123L164.865 226.601L167.926 228.389L163.592 235.855Z" fill="#1B1F2D"/>
<path d="M165.782 228.62C167.479 227.645 168.855 228.436 168.855 230.374C168.855 232.324 167.502 234.686 165.805 235.661C164.119 236.635 162.743 235.856 162.743 233.906C162.732 231.968 164.096 229.594 165.782 228.62Z" fill="#1B1F2D"/>
<path d="M165.782 228.827C167.387 227.898 168.671 228.655 168.682 230.478C168.682 232.313 167.398 234.549 165.805 235.466C164.211 236.384 162.915 235.65 162.915 233.803C162.904 231.98 164.199 229.744 165.782 228.827Z" fill="#31394C"/>
<path d="M126.901 219.206C128.598 218.231 129.974 219.022 129.974 220.96C129.974 222.91 128.621 225.272 126.924 226.247C125.238 227.221 123.862 226.442 123.862 224.492C123.851 222.554 125.215 220.18 126.901 219.206Z" fill="#1B1F2D"/>
<path d="M127.818 228.252L124.871 226.521L129.091 218.998L132.152 220.787L127.818 228.252Z" fill="#1B1F2D"/>
<path d="M130.008 221.017C131.705 220.042 133.081 220.834 133.081 222.772C133.081 224.721 131.728 227.083 130.031 228.058C128.346 229.033 126.97 228.253 126.97 226.304C126.958 224.366 128.323 221.992 130.008 221.017Z" fill="#1B1F2D"/>
<path d="M130.008 221.224C131.613 220.295 132.898 221.052 132.909 222.875C132.909 224.71 131.625 226.946 130.031 227.864C128.437 228.781 127.142 228.047 127.142 226.201C127.13 224.378 128.414 222.141 130.008 221.224Z" fill="#31394C"/>
<path d="M132.427 196.455C134.124 195.48 135.5 196.271 135.5 198.209C135.5 200.159 134.147 202.521 132.45 203.496C130.765 204.47 129.389 203.691 129.389 201.741C129.389 199.803 130.742 197.429 132.427 196.455Z" fill="#1B1F2D"/>
<path d="M133.344 205.501L130.397 203.77L134.617 196.247L137.678 198.036L133.344 205.501Z" fill="#1B1F2D"/>
<path d="M135.535 198.266C137.232 197.291 138.608 198.083 138.608 200.021C138.608 201.97 137.255 204.332 135.558 205.307C133.872 206.282 132.496 205.502 132.496 203.553C132.485 201.615 133.849 199.241 135.535 198.266Z" fill="#1B1F2D"/>
<path d="M135.535 198.473C137.14 197.544 138.424 198.301 138.435 200.124C138.435 201.959 137.151 204.195 135.557 205.113C133.964 206.03 132.668 205.296 132.668 203.45C132.657 201.627 133.941 199.39 135.535 198.473Z" fill="#31394C"/>
<path d="M173.544 192.625C175.241 191.65 176.617 192.441 176.617 194.379C176.617 196.329 175.264 198.691 173.567 199.666C171.882 200.64 170.506 199.86 170.506 197.911C170.506 195.973 171.859 193.599 173.544 192.625Z" fill="#1B1F2D"/>
<path d="M174.461 201.66L171.515 199.94L175.734 192.417L178.796 194.194L174.461 201.66Z" fill="#1B1F2D"/>
<path d="M176.652 194.436C178.349 193.461 179.725 194.253 179.725 196.191C179.725 198.14 178.372 200.502 176.675 201.477C174.989 202.452 173.613 201.672 173.613 199.723C173.602 197.785 174.966 195.411 176.652 194.436Z" fill="#1B1F2D"/>
<path d="M176.652 194.631C178.257 193.702 179.541 194.459 179.553 196.283C179.553 198.117 178.268 200.354 176.675 201.271C175.081 202.188 173.785 201.454 173.785 199.608C173.774 197.796 175.058 195.549 176.652 194.631Z" fill="#31394C"/>
<path d="M133.826 195.961C134.388 195.64 135.282 195.594 135.924 195.892L155.497 204.091L172.695 193.347C172.73 193.324 172.764 193.301 172.799 193.278C173.269 193.003 174.358 192.051 174.989 192.223C175.768 192.441 175.734 193.863 175.356 194.321L163.775 206.534L192.245 212.497C192.417 212.531 192.944 211.763 193.082 211.82C193.506 212.004 193.38 213.139 193.311 213.46C193.277 213.678 193.105 213.873 192.853 214.011C192.532 214.194 192.061 214.309 191.557 214.274L162.284 211.843L165.311 226.533L165.3 227.462C165.346 227.749 165.174 228.012 164.841 228.207C164.669 228.311 164.451 228.379 164.211 228.437C163.374 228.586 162.479 228.322 162.227 227.84L153.1 212.692L129.297 220.822C128.643 221.006 127.841 220.914 127.382 220.57C126.866 220.203 126.683 218.942 127.256 218.609C127.29 218.586 127.818 218.517 127.852 218.494L148.915 207.887L133.677 197.177C133.241 196.856 133 195.537 133.447 195.193C133.505 195.17 133.78 195.984 133.826 195.961Z" fill="#AFAFAF"/>
<path d="M133.826 194.872C134.388 194.551 135.283 194.505 135.925 194.803L155.497 200.743L172.696 192.326C172.73 192.303 172.765 192.28 172.799 192.257C173.269 191.982 173.992 191.902 174.622 192.074C175.402 192.292 175.735 192.842 175.356 193.301L163.787 203.186L192.257 211.442C192.945 211.568 193.415 211.97 193.323 212.405C193.289 212.623 193.117 212.818 192.865 212.956C192.544 213.139 192.074 213.254 191.569 213.22L162.274 208.495L165.289 226.441C165.335 226.728 165.163 226.992 164.83 227.187C164.658 227.29 164.441 227.359 164.2 227.416C163.363 227.565 162.468 227.301 162.216 226.82L153.089 209.332L129.286 219.871C128.632 220.054 127.83 219.962 127.371 219.618C126.855 219.251 126.924 218.724 127.497 218.391C127.532 218.368 127.578 218.345 127.623 218.323L148.916 204.504L133.677 196.053C133.242 195.732 133.219 195.262 133.677 194.929C133.735 194.929 133.781 194.906 133.826 194.872Z" fill="#DDDDDD"/>
<path d="M161.643 195.01V204.161C161.632 204.929 161.116 205.697 160.107 206.282C158.077 207.452 154.832 207.452 152.814 206.282C151.805 205.697 151.301 204.929 151.301 204.161V195.205L161.643 195.01Z" fill="#AFAFAF"/>
<path d="M152.826 193.083C154.855 191.914 158.135 191.914 160.153 193.083C162.171 194.253 162.136 196.145 160.107 197.315C158.077 198.484 154.832 198.484 152.814 197.315C150.796 196.145 150.808 194.253 152.826 193.083Z" fill="#DDDDDD"/>
<path d="M161.219 186.719V195.101C161.207 195.801 160.737 196.5 159.808 197.039C157.951 198.117 154.97 198.117 153.124 197.039C152.206 196.5 151.736 195.801 151.736 195.101V186.891L161.219 186.719Z" fill="#AFAFAF"/>
<path d="M153.135 184.953C154.993 183.875 158.008 183.875 159.854 184.953C161.7 186.031 161.677 187.762 159.82 188.829C157.962 189.907 154.981 189.907 153.135 188.829C151.278 187.762 151.278 186.031 153.135 184.953Z" fill="#A6BFFF"/>
<path d="M137.851 165.092C146.519 177.832 178.463 148.567 178.463 148.567C176.262 158.624 181.823 165.195 179.919 185.825C179.885 186.26 180 186.685 180.252 187.029C180.905 187.9 182.327 189.471 184.242 189.804C187.636 190.389 189.654 189.184 190.525 188.451C190.858 188.175 191.064 187.785 191.099 187.35C191.477 183.485 193.621 161.674 193.942 153.796C194.183 147.73 195.169 135.173 185.308 133.063C178.188 131.538 154.58 140.792 154.58 140.792C154.58 140.792 128.288 151.033 137.851 165.092Z" fill="#070707"/>
<path d="M198.162 161.146L168.477 144.003C163.776 141.285 156.243 141.182 151.347 143.762L119.07 160.768C113.83 163.532 113.658 168.279 118.692 171.18L151.392 190.067C156.426 192.968 164.624 192.865 169.371 189.815L198.632 171.066C203.07 168.222 202.863 163.853 198.162 161.146Z" fill="#0F0F0F"/>
<path d="M118.176 161.296C118.462 161.112 118.76 160.94 119.07 160.768L151.335 143.762C156.231 141.182 163.764 141.285 168.465 144.003L198.151 161.146C199.458 161.903 200.398 162.786 201.006 163.727C198.346 166.834 192.36 168.199 189.024 169.575C183.004 172.052 177.707 175.882 172.329 179.483C169.669 181.26 167.055 183.29 163.902 184.024C160.577 184.792 157.034 184.643 153.812 183.519C148.366 181.627 144.146 177.155 139.25 174.242C136.28 172.476 133.139 170.985 129.882 169.793C127.234 168.83 124.642 167.626 122.108 166.399C120.492 165.619 118.818 164.403 118.313 162.591C118.199 162.167 118.153 161.731 118.176 161.296Z" fill="#333333"/>
<path d="M170.207 63.7314C170.23 63.0319 168.614 59.993 167.868 58.6169C167.203 54.1217 166.469 50.4866 166.469 50.4866C161.39 46.1749 149.293 64.8666 149.293 64.8666L147.986 82.0562C154.499 88.0536 160.553 84.6593 160.553 84.6593C160.691 76.8615 165.782 78.3637 168.086 74.9694C169.072 73.513 169.072 69.6026 168.694 65.3253C169.405 64.8437 170.196 64.213 170.207 63.7314Z" fill="#F2C599"/>
<path d="M148.411 78.2375C154.671 80.1296 158.192 77.2857 159.946 72.0451C159.946 72.0451 160.359 71.4259 157.962 70.7034C155.566 69.981 154.614 62.5846 157.079 63.1579C159.545 63.7313 159.43 67.1142 160.485 67.4008C161.54 67.6875 162.113 66.7013 161.333 64.3391C160.554 61.9883 165.094 61.4378 163.638 58.7201C162.182 56.0023 163.191 52.9749 166.034 51.6332C168.878 50.2916 167.043 39.3403 164.853 39.9824C162.663 40.6131 162.228 42.8149 160.932 40.292C159.636 37.7692 158.604 35.8657 156.655 36.978C154.706 38.1018 155.944 39.5696 153.651 38.6293C151.358 37.7004 150.911 38.3541 150.119 39.971C149.328 41.5993 150.658 42.5511 148.021 42.7805C145.384 43.0098 146.244 45.3262 143.756 47.5165C141.256 49.7067 136.785 50.7503 137.209 58.4563C137.633 66.1624 142.747 76.5288 148.411 78.2375Z" fill="#1C1C1C"/>
<path d="M170.873 71.1846C170.816 70.8865 170.518 70.8979 170.277 70.8865C169.921 70.8635 169.554 70.8521 169.199 70.8406C168.133 70.7832 167.089 70.703 166.046 70.4736C165.289 70.3016 164.544 70.0493 163.821 69.7627C163.466 69.6136 163.111 69.4645 162.767 69.2925C162.446 69.1434 162.125 68.9485 161.781 68.8682C161.54 68.8223 161.356 68.9829 161.299 69.2122C161.196 69.6709 161.792 69.8773 162.113 70.0493C162.583 70.3016 163.076 70.5424 163.569 70.7488C165.461 71.5401 167.525 72.0332 169.589 72.0103C169.898 72.0103 170.219 71.9415 170.518 71.8382C170.735 71.758 170.896 71.5745 170.896 71.3337C170.896 71.2763 170.884 71.2305 170.873 71.1846Z" fill="black"/>
<path d="M174.072 71.1621C174.026 70.7149 173.774 70.2103 173.338 70.0842C173.166 70.0383 172.983 70.0268 172.799 70.0383C172.272 70.0383 171.744 70.0727 171.217 70.153C170.747 70.2333 170.174 70.325 169.864 70.7264C169.623 71.0474 169.669 71.5061 169.83 71.8616C170.013 72.2859 170.391 72.4006 170.804 72.4694C171.492 72.5841 172.318 72.6299 173.017 72.4923C173.579 72.3777 174.026 72.0451 174.083 71.4373C174.083 71.3456 174.083 71.2539 174.072 71.1621Z" fill="#1B1F2D"/>
<path d="M158.169 62.4932C160.026 61.4267 161.528 62.2867 161.528 64.4082C161.54 66.5411 160.049 69.1213 158.192 70.1877C156.346 71.2542 154.844 70.3942 154.844 68.2612C154.832 66.1512 156.323 63.5481 158.169 62.4932Z" fill="#1B1F2D"/>
<path d="M159.155 72.3654L155.933 70.4848L160.553 62.2627L163.901 64.2121L159.155 72.3654Z" fill="#1B1F2D"/>
<path d="M161.562 64.4658C163.42 63.3993 164.922 64.2594 164.922 66.3809C164.933 68.5138 163.443 71.0939 161.585 72.1604C159.739 73.2269 158.237 72.3668 158.237 70.2339C158.226 68.1239 159.716 65.5323 161.562 64.4658Z" fill="#1B1F2D"/>
<path d="M161.563 64.6833C163.317 63.6742 164.727 64.4884 164.739 66.4952C164.739 68.5019 163.34 70.9445 161.586 71.9536C159.843 72.9627 158.432 72.1486 158.421 70.1418C158.41 68.135 159.82 65.6924 161.563 64.6833Z" fill="#31394C"/>
<path d="M161.563 65.1994C162.996 64.3279 164.143 65.0389 164.154 66.7475C164.154 68.4791 163.008 70.5661 161.586 71.4376C160.164 72.2977 159.017 71.6096 159.006 69.8781C158.994 68.158 160.141 66.0594 161.563 65.1994Z" stroke="#BF0020" stroke-width="0.25" stroke-miterlimit="10"/>
<path d="M143.527 107.823L142.988 113.545C147.517 111.687 152.035 109.807 156.541 107.903C158.593 107.032 160.657 106.16 162.606 105.071C163.661 104.486 164.762 103.947 165.668 103.156C166.803 102.17 167.089 101.115 167.284 99.6812C167.376 98.9931 167.789 97.9382 168.672 98.0987C169.234 98.1904 169.417 99.0046 169.899 98.9473C170.46 98.8785 171.011 98.4312 171.458 98.1102C171.962 97.7547 172.444 97.3763 173.029 97.1698C173.636 96.952 174.302 96.7799 174.944 96.9061C175.093 96.929 175.253 96.9864 175.356 97.0896C175.46 97.2042 175.505 97.3877 175.402 97.5139C175.884 97.3648 176.388 97.3418 176.881 97.4451C177.111 97.4909 177.351 97.5712 177.512 97.7432C177.673 97.9152 177.741 98.1904 177.615 98.3854C177.959 98.328 178.326 98.2936 178.67 98.3739C179.014 98.4542 179.347 98.6721 179.473 98.9931C179.668 99.4633 179.404 99.9793 179.163 100.427C179.358 100.358 179.576 100.289 179.771 100.358C179.989 100.427 180.138 100.644 180.172 100.874C180.206 101.103 180.161 101.332 180.069 101.539C179.954 101.803 179.794 102.055 179.599 102.261C179.392 102.468 179.152 102.64 178.911 102.812C177.879 103.534 176.893 104.291 175.826 104.968C174.382 105.885 172.926 106.802 171.481 107.72C168.431 109.658 165.198 111.447 162.285 113.58C159.419 115.667 156.403 117.628 153.376 119.497C149.122 122.123 144.754 124.909 140.099 126.779C139.468 127.031 138.757 127.34 138.069 127.34C132.646 127.34 130.662 122.008 131.35 110.357L143.527 107.823Z" fill="#F2C599"/>
<path d="M144.352 112.33C144.352 112.33 139.547 115.163 130.18 115.3C130.18 115.3 130.386 92.4689 136.199 87.2857C142.013 82.1139 145.062 96.3334 144.352 112.33Z" fill="#D31726"/>
<path d="M201.281 141.606C194.16 140.081 169.279 146.721 169.279 146.721L133.827 142.707C133.827 142.707 130.822 157.5 133.964 163.417C137.117 169.346 145.831 172.775 154.293 175.412C169.004 179.988 194.906 158.888 194.906 158.888C194.883 159.002 194.86 159.117 194.837 159.22L198.162 161.135C202.863 163.853 203.069 168.211 198.632 171.055L195.662 172.958C196.717 178.646 197.91 185.675 196.912 196.489C196.878 196.856 196.958 197.246 197.153 197.556C197.646 198.347 198.793 199.78 200.696 200.113C204.067 200.686 206.567 199.539 207.748 198.806C208.218 198.519 208.504 198.037 208.539 197.487C208.802 193.118 210.087 171.846 210.396 164.105C210.626 158.051 211.13 143.716 201.281 141.606Z" fill="#2B2B2B"/>
<path d="M133.815 142.707C133.815 142.707 132.725 148.097 132.542 153.67L149.879 144.53L133.815 142.707Z" fill="#31394C"/>
<path d="M171.985 146.033L168.476 144.003C163.775 141.285 156.242 141.182 151.346 143.762L149.89 144.53L169.279 146.732C169.279 146.721 170.299 146.445 171.985 146.033Z" fill="#2B3D89"/>
<path d="M194.837 159.22L197.772 160.917C197.852 159.988 198.104 159.094 198.231 158.176C198.299 157.683 198.437 157.213 198.059 156.812C197.222 155.917 195.536 156.892 194.688 157.225C190.766 158.773 186.983 160.619 183.302 162.66C179.507 164.759 175.723 166.766 171.412 167.58C166.837 168.44 161.838 168.703 157.263 167.752C152.78 166.811 146.37 164.082 143.87 160.16C140.763 155.298 141.291 144.473 141.291 144.473C141.199 144.14 141.107 143.831 140.993 143.521L133.815 142.707C133.815 142.707 130.811 157.5 133.952 163.417C137.106 169.346 145.82 172.774 154.282 175.412C168.992 179.987 194.894 158.887 194.894 158.887C194.871 159.002 194.86 159.105 194.837 159.22Z" fill="#070707"/>
<path d="M200.546 184.15C200.604 179.541 199.492 175.321 198.632 171.055C198.632 171.055 198.632 171.055 198.62 171.066L195.65 172.97C196.705 178.658 197.898 185.687 196.9 196.501C196.866 196.868 196.946 197.258 197.141 197.567C197.634 198.358 198.781 199.792 200.684 200.124C200.913 200.159 201.131 200.182 201.349 200.205C201.223 199.482 201.12 198.76 201.074 198.026C200.764 193.599 200.501 188.565 200.546 184.15Z" fill="#070707"/>
<path d="M171.573 94.3831C171.573 94.3831 165.874 87.1816 160.542 84.6587C160.542 84.6587 156.781 84.2803 153.296 84.0166C150.234 83.7872 147.976 82.0557 147.976 82.0557C147.976 82.0557 141.039 83.6611 137.908 86.0807C134.629 88.615 131.499 101.011 132.783 111.057C134.067 121.102 133.288 135.207 132.783 138.945C131.809 146.112 138.665 152.775 147.655 153.405C159.453 154.243 172.582 151.376 172.157 145.516C171.229 132.776 171.573 94.3831 171.573 94.3831Z" fill="#D31726"/>
<path d="M177.03 122.926L177.259 128.785C181.788 126.928 186.306 125.047 190.812 123.144C192.865 122.272 194.928 121.4 196.878 120.311C197.933 119.726 199.033 119.187 199.939 118.396C201.074 117.41 201.361 116.355 201.556 114.921C201.648 114.233 202.06 113.178 202.943 113.339C203.505 113.431 203.688 114.245 204.17 114.188C204.732 114.119 205.282 113.671 205.729 113.35C206.234 112.995 206.715 112.616 207.3 112.41C207.908 112.192 208.573 112.02 209.215 112.146C209.364 112.169 209.525 112.227 209.628 112.33C209.731 112.444 209.777 112.628 209.674 112.754C210.155 112.605 210.66 112.582 211.153 112.685C211.382 112.731 211.623 112.811 211.783 112.983C211.944 113.155 212.013 113.431 211.887 113.626C212.231 113.568 212.598 113.534 212.941 113.614C213.285 113.694 213.618 113.912 213.744 114.233C213.939 114.704 213.675 115.22 213.435 115.667C213.629 115.598 213.847 115.529 214.042 115.598C214.26 115.667 214.409 115.885 214.444 116.114C214.478 116.343 214.421 116.573 214.34 116.779C214.226 117.043 214.065 117.295 213.87 117.502C213.664 117.708 213.423 117.88 213.182 118.052C212.15 118.774 211.164 119.531 210.098 120.208C208.653 121.125 207.197 122.043 205.752 122.96C202.702 124.898 199.469 126.687 196.557 128.82C193.69 130.907 190.675 132.868 187.648 134.737C183.394 137.363 179.025 140.15 174.37 142.019C173.739 142.271 173.028 142.581 172.341 142.581C166.917 142.581 164.635 136.641 165.323 124.978L177.03 122.926Z" fill="#F2C599"/>
<path d="M178.911 123.419C178.911 123.419 172.914 126.917 163.569 127.674C163.569 127.674 162.17 101.482 167.697 95.2554C173.201 89.0401 178.739 105.289 178.911 123.419Z" fill="#D31726"/>
<path d="M111.995 111.848C112.328 112.043 112.672 111.974 112.924 111.779C113.52 117.708 115.894 123.579 118.106 129.049C123.392 142.11 131.533 154.048 140.557 164.69C142.414 166.88 144.042 169.781 146.576 171.237C149.42 172.877 153.227 172.442 155.428 169.942C156.965 168.199 157.664 165.882 157.997 163.589C158.891 157.511 158.983 151.273 158.455 145.149C157.974 139.519 158.696 133.544 156.666 128.155C154.958 123.625 151.381 119.933 147.494 117.169C143.423 114.279 138.825 112.272 134.377 110.059C130.398 108.075 126.373 105.277 121.867 104.692C119.012 104.314 114.644 104.222 112.305 106.229C110.608 107.674 109.817 110.518 111.995 111.848Z" fill="#333333"/>
<path d="M117.029 107.41L146.657 124.52C150.475 126.721 153.559 132.065 153.548 136.469L153.456 167.66C153.445 172.052 150.337 173.818 146.519 171.616L116.891 154.495C113.073 152.294 109.989 146.938 110 142.546L110.092 111.355C110.103 106.975 113.211 105.209 117.029 107.41Z" fill="#0F0F0F"/>
<path d="M126.316 181.719L134.801 186.592L133.815 133.865C133.815 133.567 133.654 133.292 133.391 133.143L125.731 128.682C125.158 128.35 124.447 128.762 124.447 129.416V178.508C124.459 179.826 125.158 181.053 126.316 181.719Z" fill="#DDDDDD"/>
<path d="M140.798 183.955L134.812 180.492L134.319 184.666L136.693 186.593L140.798 183.955Z" fill="#AFAFAF"/>
<path d="M140.797 183.955L138.206 185.446C136.337 186.524 134.824 185.652 134.812 183.508L134.72 133.648C134.72 133.155 134.457 132.685 134.021 132.444L126.614 128.258C126.327 128.098 125.972 128.086 125.674 128.247L124.963 128.614C124.963 128.614 125.364 128.465 125.731 128.659L133.092 132.983C133.516 133.235 133.769 133.682 133.78 134.175L133.872 184.047C133.883 186.787 135.833 187.9 138.218 186.524L141.749 184.483L140.797 183.955Z" fill="#AFAFAF"/>
<path d="M178.05 184.952L177.293 184.734L176.342 163.726L179.541 163.348L178.05 184.952Z" fill="#AFAFAF"/>
<path d="M178.05 184.952L177.936 163.141L184.104 160.148L182.786 182.223L178.05 184.952Z" fill="#C6C6C6"/>
<path d="M192.498 157.706V155.894L191.787 156.135L190.858 154.083C190.79 153.922 190.641 153.784 190.457 153.67C189.884 153.337 188.898 153.303 188.267 153.67L173.396 162.316L167.869 164.174V165.928C167.881 166.158 168.041 166.376 168.328 166.536C168.511 166.639 168.752 166.731 169.039 166.765L175.299 167.706C175.804 168.004 180.08 165.997 184.827 163.233C189.574 160.481 193.014 158.004 192.498 157.706Z" fill="#C6C6C6"/>
<path d="M190.457 151.869C189.883 151.536 188.897 151.502 188.267 151.869L168.316 163.462C167.674 163.829 167.754 164.403 168.327 164.735C168.511 164.838 168.752 164.93 169.038 164.965L175.299 165.905C175.803 166.203 180.08 164.196 184.827 161.433C189.585 158.669 193.025 156.192 192.509 155.894L190.869 152.27C190.789 152.121 190.64 151.984 190.457 151.869Z" fill="#DDDDDD"/>
<path d="M146.083 82.5604L148.17 79.5674C148.17 79.5674 153.421 82.2278 160.908 81.7577L162.433 85.691C162.422 85.691 150.876 86.9753 146.083 82.5604Z" fill="#D31726"/>
<path d="M156.827 66.0477C156.827 66.0477 157.997 57.4128 154.247 53.3992C150.498 49.3857 143.458 47.5624 141.417 49.271C141.417 49.271 142.208 46.8284 145.373 45.4409C145.373 45.4409 160.129 40.9342 160.909 63.3529L156.827 66.0477Z" fill="#BF0020"/>
</g>
<defs>
<clipPath id="clip0_1290_634">
<rect width="412" height="240" fill="white" transform="translate(0 0.5)"/>
</clipPath>
</defs>
</svg>
