<svg width="64" height="64" viewBox="0 0 64 64" fill="none" xmlns="http://www.w3.org/2000/svg">
<path d="M32 0C14.3552 0 0 14.3552 0 32C0 49.6448 14.3552 64 32 64C49.6448 64 64 49.6448 64 32C64 14.3552 49.6448 0 32 0ZM32 57.6C17.8848 57.6 6.4 46.1152 6.4 32C6.4 17.8848 17.8848 6.4 32 6.4C46.1152 6.4 57.6 17.8848 57.6 32C57.6 46.1152 46.1152 57.6 32 57.6Z" fill="#07354F"/>
<path d="M25.5969 37.0783L18.2401 29.7343L13.7217 34.2655L25.6033 46.1215L47.0625 24.6623L42.5377 20.1375L25.5969 37.0783Z" fill="#07354F"/>
</svg>
