<svg width="22" height="21" viewBox="0 0 22 21" fill="none" xmlns="http://www.w3.org/2000/svg">
<path d="M13.9411 11.1982H8.05895C3.61726 11.1982 0 14.3308 0 18.1828V19.9927C0 20.5496 0.449263 20.9998 1.00505 20.9998C1.56084 20.9998 2.01011 20.5496 2.01011 19.9927V18.1828C2.01011 15.44 4.72421 13.2124 8.05895 13.2124H13.9411C17.2758 13.2124 19.9899 15.44 19.9899 18.1828V19.9927C19.9899 20.5496 20.4392 20.9998 20.9949 20.9998C21.5507 20.9998 22 20.5496 22 19.9927V18.1828C22 14.3308 18.3827 11.1982 13.9411 11.1982Z" fill="#282828"/>
<path d="M11.4397 10.5627C14.3483 10.5627 16.7104 8.19116 16.7104 5.28133C16.7104 2.37149 14.3483 0 11.4397 0C8.53105 0 6.16895 2.37149 6.16895 5.28133C6.16895 8.19116 8.53568 10.5627 11.4397 10.5627ZM11.4397 2.01414C13.2367 2.01414 14.7049 3.48066 14.7049 5.28133C14.7049 7.08199 13.2414 8.55315 11.4397 8.55315C9.638 8.55315 8.17442 7.08663 8.17442 5.28133C8.17442 3.47602 9.64263 2.01414 11.4397 2.01414Z" fill="#282828"/>
</svg>
