<svg width="357" height="834" viewBox="0 0 357 834" fill="none" xmlns="http://www.w3.org/2000/svg">
<rect x="333" y="1" width="23" height="28" rx="2" fill="white" stroke="#C4122F" stroke-width="2"/>
<path d="M351 15C351 14.6101 350.705 14.2929 350.343 14.2929H345.157V8.70707C345.157 8.31717 344.862 8 344.5 8C344.138 8 343.843 8.31717 343.843 8.70707V14.2929H338.657C338.295 14.2929 338 14.6101 338 15C338 15.3899 338.295 15.7071 338.657 15.7071H343.843V21.2929C343.843 21.6828 344.138 22 344.5 22C344.862 22 345.157 21.6828 345.157 21.2929V15.7071H350.343C350.705 15.7071 351 15.3899 351 15Z" fill="#C4122F"/>
</svg>
