<svg width="125" height="38" viewBox="0 0 125 38" fill="none" xmlns="http://www.w3.org/2000/svg">
<rect x="1.02234" y="1.02344" width="123" height="36" rx="18" fill="#FFD1D9" stroke="#C4122F"/>
<path d="M31.2406 12.8052C30.865 12.4295 30.2591 12.4295 29.8835 12.8052L24.5237 18.1661L19.1611 12.8052C18.7855 12.4295 18.1796 12.4295 17.804 12.8052C17.4284 13.1809 17.4284 13.7869 17.804 14.1626L23.1639 19.5234L17.8068 24.8843C17.4312 25.26 17.4312 25.866 17.8068 26.2417C18.1824 26.6174 18.7883 26.6174 19.1639 26.2417L24.5237 20.8808L29.8835 26.2417C30.2591 26.6174 30.865 26.6174 31.2406 26.2417C31.6162 25.866 31.6162 25.26 31.2406 24.8843L25.8781 19.5234L31.2406 14.1598C31.6135 13.7869 31.6135 13.1781 31.2406 12.8052Z" fill="#C4122F"/>
<path d="M42.9538 24.5234H45.1588V17.3534H45.1888L49.6438 24.5234H51.9988V13.8134H49.7938V20.9984H49.7638L45.2938 13.8134H42.9538V24.5234ZM53.607 20.6534C53.607 23.1134 55.182 24.7334 57.612 24.7334C60.057 24.7334 61.632 23.1134 61.632 20.6534C61.632 18.1784 60.057 16.5584 57.612 16.5584C55.182 16.5584 53.607 18.1784 53.607 20.6534ZM55.737 20.6534C55.737 19.4084 56.172 18.1634 57.612 18.1634C59.067 18.1634 59.502 19.4084 59.502 20.6534C59.502 21.8834 59.067 23.1284 57.612 23.1284C56.172 23.1284 55.737 21.8834 55.737 20.6534ZM72.0217 21.5234C72.0217 21.9884 71.9617 23.3084 70.2967 23.3084C69.6067 23.3084 68.9917 23.1134 68.9917 22.3184C68.9917 21.5384 69.5917 21.3134 70.2517 21.1784C70.9117 21.0584 71.6617 21.0434 72.0217 20.7284V21.5234ZM69.2317 19.1534C69.3067 18.3134 69.8317 17.9834 70.6417 17.9834C71.3917 17.9834 72.0217 18.1184 72.0217 19.0334C72.0217 19.9034 70.8067 19.8584 69.5017 20.0534C68.1817 20.2334 66.8617 20.6534 66.8617 22.4084C66.8617 23.9984 68.0317 24.7334 69.5017 24.7334C70.4467 24.7334 71.4367 24.4784 72.1117 23.7734C72.1267 24.0284 72.1867 24.2834 72.2617 24.5234H74.4217C74.2267 24.2084 74.1517 23.5034 74.1517 22.7984V18.7634C74.1517 16.9034 72.2917 16.5584 70.7467 16.5584C69.0067 16.5584 67.2217 17.1584 67.1017 19.1534H69.2317ZM75.805 27.2534H77.935V23.5634H77.965C78.475 24.3284 79.36 24.7334 80.29 24.7334C82.555 24.7334 83.695 22.7984 83.695 20.7284C83.695 18.5234 82.6 16.5584 80.17 16.5584C79.21 16.5584 78.37 16.9334 77.86 17.7584H77.83V16.7684H75.805V27.2534ZM79.72 23.1284C78.34 23.1284 77.86 21.9284 77.86 20.6684C77.86 19.4084 78.31 18.1634 79.705 18.1634C81.07 18.1634 81.565 19.4384 81.565 20.6684C81.565 21.9284 81.115 23.1284 79.72 23.1284ZM85.0349 24.5234H87.1649V13.8134H85.0349V24.5234ZM88.9021 24.5234H91.0321V16.7684H88.9021V24.5234ZM91.0321 13.8134H88.9021V15.5684H91.0321V13.8134ZM100.074 19.4984C99.9393 17.5184 98.2593 16.5584 96.4293 16.5584C93.9093 16.5584 92.4693 18.3434 92.4693 20.7584C92.4693 23.0834 94.0443 24.7334 96.3843 24.7334C98.4243 24.7334 99.8493 23.6084 100.119 21.5534H98.0643C97.9293 22.4984 97.3593 23.1284 96.3693 23.1284C95.0343 23.1284 94.5993 21.7934 94.5993 20.6834C94.5993 19.5434 95.0493 18.1634 96.4143 18.1634C97.2993 18.1634 97.8543 18.6284 97.9893 19.4984H100.074ZM106.153 21.5234C106.153 21.9884 106.093 23.3084 104.428 23.3084C103.738 23.3084 103.123 23.1134 103.123 22.3184C103.123 21.5384 103.723 21.3134 104.383 21.1784C105.043 21.0584 105.793 21.0434 106.153 20.7284V21.5234ZM103.363 19.1534C103.438 18.3134 103.963 17.9834 104.773 17.9834C105.523 17.9834 106.153 18.1184 106.153 19.0334C106.153 19.9034 104.938 19.8584 103.633 20.0534C102.313 20.2334 100.993 20.6534 100.993 22.4084C100.993 23.9984 102.163 24.7334 103.633 24.7334C104.578 24.7334 105.568 24.4784 106.243 23.7734C106.258 24.0284 106.318 24.2834 106.393 24.5234H108.553C108.358 24.2084 108.283 23.5034 108.283 22.7984V18.7634C108.283 16.9034 106.423 16.5584 104.878 16.5584C103.138 16.5584 101.353 17.1584 101.233 19.1534H103.363Z" fill="#C4122F"/>
</svg>
