<svg width="126" height="42" viewBox="0 0 126 42" fill="none" xmlns="http://www.w3.org/2000/svg">
<rect x="0.522308" y="1.02319" width="124" height="40" rx="20" fill="#BEF8A3" stroke="#95E159"/>
<path d="M63.4818 24.3259H59.6292L58.8968 26.5232H56.5604L60.5301 15.8591H62.5663L66.558 26.5232H64.2215L63.4818 24.3259ZM60.2225 22.5461H62.8885L61.5482 18.5544L60.2225 22.5461ZM74.1971 22.634C74.1971 23.8547 73.9188 24.8337 73.3622 25.571C72.8104 26.3035 72.0633 26.6697 71.1209 26.6697C70.3202 26.6697 69.6732 26.3914 69.18 25.8347V29.5701H67.0633V18.5984H69.0262L69.0995 19.3748C69.6122 18.7595 70.2811 18.4519 71.1063 18.4519C72.0829 18.4519 72.8421 18.8132 73.3841 19.5359C73.9261 20.2585 74.1971 21.2546 74.1971 22.5242V22.634ZM72.0804 22.4802C72.0804 21.7429 71.9486 21.1741 71.6849 20.7737C71.4261 20.3733 71.0477 20.1731 70.5497 20.1731C69.8856 20.1731 69.429 20.427 69.18 20.9348V24.1794C69.4388 24.7019 69.9002 24.9631 70.5643 24.9631C71.575 24.9631 72.0804 24.1355 72.0804 22.4802ZM77.7494 26.5232H75.6253V15.2732H77.7494V26.5232ZM81.7337 26.5232H79.6097V18.5984H81.7337V26.5232ZM79.4852 16.5476C79.4852 16.2302 79.5902 15.969 79.8001 15.7639C80.015 15.5588 80.3055 15.4563 80.6717 15.4563C81.0331 15.4563 81.3211 15.5588 81.536 15.7639C81.7508 15.969 81.8582 16.2302 81.8582 16.5476C81.8582 16.8699 81.7484 17.1335 81.5287 17.3386C81.3138 17.5437 81.0282 17.6462 80.6717 17.6462C80.3153 17.6462 80.0272 17.5437 79.8075 17.3386C79.5926 17.1335 79.4852 16.8699 79.4852 16.5476ZM86.7801 24.9631C87.1707 24.9631 87.4881 24.8557 87.7323 24.6409C87.9764 24.426 88.1034 24.1404 88.1131 23.7839H90.098C90.0931 24.321 89.9466 24.8142 89.6585 25.2634C89.3705 25.7078 88.9749 26.0544 88.472 26.3035C87.974 26.5476 87.4222 26.6697 86.8167 26.6697C85.6839 26.6697 84.7904 26.3108 84.1361 25.593C83.4818 24.8704 83.1546 23.8743 83.1546 22.6047V22.4656C83.1546 21.2449 83.4793 20.2708 84.1288 19.5432C84.7782 18.8157 85.6693 18.4519 86.8021 18.4519C87.7933 18.4519 88.5868 18.7351 89.1825 19.3015C89.7831 19.863 90.0882 20.6125 90.098 21.55H88.1131C88.1034 21.1399 87.9764 20.8079 87.7323 20.554C87.4881 20.2952 87.1659 20.1658 86.7655 20.1658C86.2723 20.1658 85.8988 20.3464 85.6449 20.7078C85.3958 21.0642 85.2713 21.6453 85.2713 22.4509V22.6707C85.2713 23.4861 85.3958 24.072 85.6449 24.4285C85.8939 24.7849 86.2723 24.9631 86.7801 24.9631ZM95.8988 26.5232C95.8011 26.3328 95.7303 26.0959 95.6864 25.8127C95.1737 26.384 94.5072 26.6697 93.6869 26.6697C92.9105 26.6697 92.266 26.4451 91.7533 25.9958C91.2455 25.5466 90.9915 24.9802 90.9915 24.2966C90.9915 23.4568 91.3016 22.8123 91.9217 22.363C92.5467 21.9138 93.4476 21.6868 94.6244 21.6819H95.5985V21.2278C95.5985 20.8616 95.5033 20.5686 95.3128 20.3489C95.1273 20.1292 94.8319 20.0193 94.4266 20.0193C94.0702 20.0193 93.7894 20.1047 93.5843 20.2756C93.3841 20.4465 93.284 20.6809 93.284 20.9788H91.1673C91.1673 20.5198 91.3089 20.095 91.5921 19.7043C91.8753 19.3137 92.2757 19.0085 92.7933 18.7888C93.3109 18.5642 93.8919 18.4519 94.5365 18.4519C95.513 18.4519 96.287 18.6985 96.8582 19.1917C97.4344 19.6799 97.7225 20.3684 97.7225 21.2571V24.6921C97.7274 25.4441 97.8324 26.0129 98.0374 26.3987V26.5232H95.8988ZM94.1483 25.051C94.4608 25.051 94.7489 24.9827 95.0125 24.8459C95.2762 24.7043 95.4715 24.5164 95.5985 24.282V22.9197H94.8075C93.7479 22.9197 93.1839 23.2859 93.1156 24.0183L93.1082 24.1428C93.1082 24.4065 93.201 24.6238 93.3866 24.7947C93.5721 24.9656 93.826 25.051 94.1483 25.051Z" fill="#1A994D"/>
<path d="M46.0223 21.5232C46.0223 24.1754 44.9687 26.7189 43.0934 28.5943C41.218 30.4696 38.6745 31.5232 36.0223 31.5232C33.3701 31.5232 30.8266 30.4696 28.9512 28.5943C27.0759 26.7189 26.0223 24.1754 26.0223 21.5232C26.0223 18.871 27.0759 16.3275 28.9512 14.4521C30.8266 12.5768 33.3701 11.5232 36.0223 11.5232C38.6745 11.5232 41.218 12.5768 43.0934 14.4521C44.9687 16.3275 46.0223 18.871 46.0223 21.5232ZM41.2534 17.4032C41.1502 17.2997 41.0276 17.2176 40.8926 17.1616C40.7576 17.1056 40.6129 17.0768 40.4668 17.0768C40.3206 17.0768 40.1759 17.1056 40.0409 17.1616C39.9059 17.2176 39.7833 17.2997 39.6801 17.4032L33.8001 23.2854L32.3645 21.8476C32.2612 21.7443 32.1386 21.6624 32.0036 21.6065C31.8686 21.5506 31.724 21.5218 31.5779 21.5218C31.4318 21.5218 31.2871 21.5506 31.1521 21.6065C31.0171 21.6624 30.8945 21.7443 30.7912 21.8476C30.6879 21.9509 30.6059 22.0736 30.55 22.2086C30.4941 22.3435 30.4653 22.4882 30.4653 22.6343C30.4653 22.7804 30.4941 22.9251 30.55 23.06C30.6059 23.195 30.6879 23.3177 30.7912 23.421L33.0134 25.6432C33.1166 25.7467 33.2392 25.8288 33.3742 25.8848C33.5092 25.9408 33.6539 25.9696 33.8001 25.9696C33.9462 25.9696 34.0909 25.9408 34.2259 25.8848C34.3609 25.8288 34.4835 25.7467 34.5868 25.6432L41.2534 18.9765C41.3569 18.8733 41.439 18.7507 41.495 18.6157C41.551 18.4807 41.5799 18.336 41.5799 18.1899C41.5799 18.0437 41.551 17.899 41.495 17.764C41.439 17.629 41.3569 17.5064 41.2534 17.4032Z" fill="#19994C"/>
</svg>
