<svg width="179" height="56" viewBox="0 0 179 56" fill="none" xmlns="http://www.w3.org/2000/svg">
<rect x="28.5223" y="10.5" width="122" height="35" rx="17.5" fill="#FFE791" stroke="#E9D692" stroke-width="2"/>
<path d="M47.9045 32.5H50.2595V21.79H47.9045V32.5ZM52.1033 32.5H54.2333V28.435C54.2333 26.86 54.7283 26.215 55.8833 26.215C56.8733 26.215 57.2483 26.845 57.2483 28.12V32.5H59.3783V27.73C59.3783 25.81 58.8083 24.535 56.5433 24.535C55.6433 24.535 54.7133 24.955 54.1733 25.825H54.1283V24.745H52.1033V32.5ZM60.6199 29.98C60.7099 32.035 62.4649 32.71 64.2649 32.71C66.0349 32.71 67.8049 32.05 67.8049 30.01C67.8049 28.57 66.5899 28.12 65.3449 27.835C64.1299 27.55 62.9299 27.445 62.9299 26.68C62.9299 26.05 63.6349 25.96 64.1149 25.96C64.8799 25.96 65.5099 26.185 65.5699 27.01H67.5949C67.4299 25.105 65.8699 24.535 64.1749 24.535C62.5099 24.535 60.7999 25.045 60.7999 27.025C60.7999 28.39 62.0299 28.825 63.2599 29.095C64.7899 29.425 65.6749 29.65 65.6749 30.295C65.6749 31.045 64.8949 31.285 64.2799 31.285C63.4399 31.285 62.6599 30.91 62.6449 29.98H60.6199ZM76.3266 24.745H74.1966V28.81C74.1966 30.385 73.7016 31.03 72.5466 31.03C71.5566 31.03 71.1816 30.4 71.1816 29.125V24.745H69.0516V29.515C69.0516 31.435 69.6216 32.71 71.8866 32.71C72.7866 32.71 73.7166 32.29 74.2566 31.42H74.3016V32.5H76.3266V24.745ZM85.4282 21.79H83.2982V23.545H85.4282V21.79ZM83.2982 32.5H85.4282V24.745H83.2982V32.5ZM78.4082 32.5H80.5382V26.17H82.0082V24.745H80.5382V24.28C80.5382 23.635 80.7782 23.395 81.3482 23.395C81.6182 23.395 81.8732 23.41 82.1282 23.44V21.85C81.7682 21.835 81.3782 21.79 81.0032 21.79C79.2632 21.79 78.4082 22.78 78.4082 24.145V24.745H77.1332V26.17H78.4082V32.5ZM94.4781 27.475C94.3431 25.495 92.6631 24.535 90.8331 24.535C88.3131 24.535 86.8731 26.32 86.8731 28.735C86.8731 31.06 88.4481 32.71 90.7881 32.71C92.8281 32.71 94.2531 31.585 94.5231 29.53H92.4681C92.3331 30.475 91.7631 31.105 90.7731 31.105C89.4381 31.105 89.0031 29.77 89.0031 28.66C89.0031 27.52 89.4531 26.14 90.8181 26.14C91.7031 26.14 92.2581 26.605 92.3931 27.475H94.4781ZM95.7864 32.5H97.9164V24.745H95.7864V32.5ZM97.9164 21.79H95.7864V23.545H97.9164V21.79ZM106.944 29.14C107.094 26.755 105.819 24.535 103.179 24.535C100.824 24.535 99.2186 26.305 99.2186 28.63C99.2186 31.03 100.734 32.71 103.179 32.71C104.934 32.71 106.209 31.93 106.809 30.1H104.934C104.799 30.58 104.109 31.105 103.254 31.105C102.069 31.105 101.409 30.49 101.349 29.14H106.944ZM101.349 27.79C101.379 27.19 101.769 26.14 103.119 26.14C104.154 26.14 104.619 26.71 104.814 27.79H101.349ZM108.207 32.5H110.337V28.435C110.337 26.86 110.832 26.215 111.987 26.215C112.977 26.215 113.352 26.845 113.352 28.12V32.5H115.482V27.73C115.482 25.81 114.912 24.535 112.647 24.535C111.747 24.535 110.817 24.955 110.277 25.825H110.232V24.745H108.207V32.5ZM119.798 22.42H117.668V24.745H116.378V26.17H117.668V30.745C117.668 32.29 118.808 32.59 120.113 32.59C120.533 32.59 120.998 32.575 121.358 32.515V30.85C121.133 30.895 120.923 30.91 120.698 30.91C119.978 30.91 119.798 30.73 119.798 30.01V26.17H121.358V24.745H119.798V22.42ZM129.722 29.14C129.872 26.755 128.597 24.535 125.957 24.535C123.602 24.535 121.997 26.305 121.997 28.63C121.997 31.03 123.512 32.71 125.957 32.71C127.712 32.71 128.987 31.93 129.587 30.1H127.712C127.577 30.58 126.887 31.105 126.032 31.105C124.847 31.105 124.187 30.49 124.127 29.14H129.722ZM124.127 27.79C124.157 27.19 124.547 26.14 125.897 26.14C126.932 26.14 127.397 26.71 127.592 27.79H124.127Z" fill="#9E7713"/>
</svg>
