<svg width="30" height="30" viewBox="0 0 30 30" fill="none" xmlns="http://www.w3.org/2000/svg">
<circle cx="15" cy="15" r="15" fill="#C4122F"/>
<path d="M10 9V22H20V12.1707H17.0968C16.9279 12.1707 16.7742 12.0197 16.7742 11.8537V9H10ZM17.4194 9.31707V11.5366H19.6774L17.4194 9.31707ZM11.6129 14.0732H17.0968C17.2749 14.0732 17.4194 14.2151 17.4194 14.3902C17.4194 14.5654 17.2749 14.7073 17.0968 14.7073H11.6129C11.4347 14.7073 11.2903 14.5654 11.2903 14.3902C11.2903 14.2151 11.4347 14.0732 11.6129 14.0732ZM11.6129 16.6098H18.3871C18.5653 16.6098 18.7097 16.7517 18.7097 16.9268C18.7097 17.1019 18.5653 17.2439 18.3871 17.2439H11.6129C11.4347 17.2439 11.2903 17.1019 11.2903 16.9268C11.2903 16.7517 11.4347 16.6098 11.6129 16.6098ZM11.6129 19.1463H18.3871C18.5653 19.1463 18.7097 19.2883 18.7097 19.4634C18.7097 19.6385 18.5653 19.7805 18.3871 19.7805H11.6129C11.4347 19.7805 11.2903 19.6385 11.2903 19.4634C11.2903 19.2883 11.4347 19.1463 11.6129 19.1463Z" fill="white"/>
</svg>
