<svg width="41" height="41" viewBox="0 0 41 41" fill="none" xmlns="http://www.w3.org/2000/svg">
<circle cx="20.5" cy="20.5" r="20.5" fill="#C4122F"/>
<path d="M30.5994 10.4038C30.0627 9.86704 29.1969 9.86704 28.6601 10.4038L21.001 18.0629L13.3379 10.4038C12.8012 9.86704 11.9354 9.86704 11.3986 10.4038C10.8619 10.9405 10.8619 11.8063 11.3986 12.343L19.0578 20.0022L11.4026 27.6614C10.8658 28.1981 10.8658 29.0639 11.4026 29.6006C11.9393 30.1374 12.8051 30.1374 13.3418 29.6006L21.001 21.9415L28.6601 29.6006C29.1969 30.1374 30.0627 30.1374 30.5994 29.6006C31.1362 29.0639 31.1362 28.1981 30.5994 27.6614L22.9363 20.0022L30.5994 12.3391C31.1322 11.8063 31.1322 10.9366 30.5994 10.4038Z" fill="white"/>
</svg>
