<svg width="13" height="22" viewBox="0 0 13 22" fill="none" xmlns="http://www.w3.org/2000/svg">
<path d="M12.5258 9.92566L2.62162 0.910357C2.30425 0.618773 1.87312 0.470005 1.44797 0.50571C1.01683 0.535463 0.615632 0.743737 0.346171 1.07698C-0.168799 1.7137 -0.102931 2.64201 0.501859 3.19542L8.77731 10.8004C8.84916 10.8718 8.86114 10.9551 8.86114 10.9968C8.86114 11.0384 8.84916 11.1217 8.77731 11.1932L0.501859 18.8041C-0.102931 19.3575 -0.168799 20.2918 0.346171 20.9225C0.615632 21.2558 1.01683 21.4641 1.44797 21.4938C1.4839 21.4938 1.52581 21.4998 1.56174 21.4998C1.95096 21.4998 2.33419 21.3569 2.62162 21.0892L12.5258 12.0739C12.8252 11.8001 12.9989 11.4074 12.9989 11.0027C12.9989 10.5921 12.8252 10.1994 12.5258 9.92566Z" fill="#C4122F"/>
</svg>
