<svg width="35" height="34" viewBox="0 0 35 34" fill="none" xmlns="http://www.w3.org/2000/svg">
<g clip-path="url(#clip0_1044:12218)">
<path d="M0.5 34L3.14615 24.3711C1.87692 21.9869 1.20769 19.3037 1.20769 16.5822C1.20769 7.4363 8.67692 0 17.8538 0C22.3077 0 26.4846 1.73258 29.6308 4.86809C32.7769 8.00361 34.5 12.1664 34.5 16.5975C34.5 25.7434 27.0308 33.1797 17.8538 33.1797C15.2615 33.1797 12.6923 32.5741 10.3846 31.4165L0.5 34ZM10.7231 28.5033L11.2 28.7639C13.2308 29.8679 15.5308 30.4505 17.8462 30.4505C25.5154 30.4505 31.7538 24.2331 31.7615 16.5975C31.7615 12.8947 30.3154 9.41421 27.6923 6.8C25.0692 4.17813 21.5769 2.73687 17.8538 2.73687C10.1923 2.73687 3.95385 8.95423 3.94615 16.5899C3.94615 19.0277 4.58462 21.4196 5.8 23.5125L6.08462 24.0032L4.39231 30.1592L10.7231 28.5033Z" fill="#C4122F"/>
<path d="M25.3384 20.009C24.9307 19.802 22.9231 18.8207 22.5461 18.6827C22.1692 18.5447 21.9 18.4757 21.6307 18.8897C21.3615 19.296 20.5769 20.216 20.3384 20.4843C20.1 20.7526 19.8615 20.791 19.4538 20.584C19.0461 20.377 17.7307 19.9477 16.1692 18.5677C14.9538 17.4868 14.1384 16.1605 13.9 15.7542C13.6615 15.3479 13.8769 15.1256 14.0769 14.9262C14.2615 14.7423 14.4846 14.4509 14.6923 14.2133C14.8923 13.9756 14.9615 13.807 15.1 13.5386C15.2384 13.2703 15.1692 13.0327 15.0692 12.8257C14.9692 12.6187 14.1769 10.6101 13.8077 9.80516C13.5 9.13053 13.1769 9.11519 12.8923 9.09986C12.6538 9.09219 12.3846 9.09219 12.1077 9.09219C11.8384 9.09219 11.3923 9.19186 11.0231 9.59817C10.6461 10.0045 9.59229 10.9858 9.59229 12.9867C9.59229 14.9876 11.0538 16.9195 11.2615 17.1955C11.4692 17.4638 14.0846 21.7032 18.2307 23.3362C21.6769 24.6931 22.3769 24.4248 23.1307 24.3558C23.8846 24.2868 25.5461 23.3745 25.8846 22.4239C26.2231 21.4733 26.2231 20.6606 26.1231 20.492C26.0154 20.3156 25.7461 20.2083 25.3384 20.009Z" fill="#C4122F"/>
</g>
<defs>
<clipPath id="clip0_1044:12218">
<rect width="34" height="34" fill="white" transform="translate(0.5)"/>
</clipPath>
</defs>
</svg>
