<svg width="61" height="61" viewBox="0 0 61 61" fill="none" xmlns="http://www.w3.org/2000/svg">
<path d="M30.5 0C13.6569 0 0 13.6569 0 30.5C0 47.3431 13.6569 61 30.5 61C47.3431 61 61 47.3431 61 30.5C61 13.6569 47.3431 0 30.5 0ZM30.5 55.8259C16.5163 55.8259 5.17411 44.4837 5.17411 30.5C5.17411 24.4408 7.30502 18.8719 10.8588 14.5147L46.4853 50.1412C42.1281 53.695 36.5592 55.8259 30.5 55.8259ZM50.1412 46.4853L14.5147 10.8588C18.8719 7.30502 24.4408 5.17411 30.5 5.17411C44.4837 5.17411 55.8259 16.5163 55.8259 30.5C55.8259 36.5592 53.695 42.1281 50.1412 46.4853Z" fill="#C4122F"/>
</svg>
