<svg width="21" height="14" viewBox="0 0 21 14" fill="none" xmlns="http://www.w3.org/2000/svg">
<path d="M11.5741 13.0263L20.5894 3.12211C20.881 2.80474 21.0298 2.3736 20.994 1.94846C20.9643 1.51732 20.756 1.11612 20.4228 0.846659C19.7861 0.331689 18.8577 0.397557 18.3043 1.00235L10.6993 9.2778C10.6279 9.34965 10.5446 9.36163 10.503 9.36163C10.4613 9.36163 10.378 9.34965 10.3066 9.2778L2.69566 1.00235C2.14225 0.397556 1.20799 0.331688 0.577215 0.846658C0.243975 1.11612 0.0357017 1.51732 0.00594896 1.94845C0.00594896 1.98438 -3.88139e-06 2.0263 -3.88296e-06 2.06223C-3.89998e-06 2.45145 0.142815 2.83468 0.410595 3.12211L9.4259 13.0263C9.69963 13.3257 10.0924 13.4994 10.497 13.4994C10.9076 13.4994 11.3004 13.3257 11.5741 13.0263Z" fill="#C4122F"/>
</svg>
