<svg width="29" height="24" viewBox="0 0 29 24" fill="none" xmlns="http://www.w3.org/2000/svg">
<g clip-path="url(#clip0_534_71266)">
<path d="M28.6253 19.9808L16.9996 1.3376C16.4904 0.5056 15.5173 0 14.4991 0C13.4809 0 12.5078 0.5056 11.9987 1.3376L0.379333 19.9808C-0.129778 20.8192 -0.129778 21.824 0.379333 22.6624C0.888444 23.5008 1.86155 24 2.87978 24H26.0927C27.1431 24 28.084 23.4944 28.5931 22.6624C29.128 21.824 29.128 20.7808 28.6253 19.9808ZM14.4991 19.5392C13.7 19.5392 13.0491 18.9376 13.0491 18.2016C13.0491 17.4592 13.7 16.864 14.4991 16.864C15.2982 16.864 15.9491 17.4656 15.9491 18.2016C15.9491 18.944 15.2982 19.5392 14.4991 19.5392ZM15.9491 14.4832C15.9491 15.2192 15.2982 15.8208 14.4991 15.8208C13.7 15.8208 13.0491 15.2192 13.0491 14.4832V8.8832C13.0491 8.1472 13.7 7.5456 14.4991 7.5456C15.2982 7.5456 15.9491 8.1472 15.9491 8.8832V14.4832Z" fill="#C4122F"/>
</g>
<defs>
<clipPath id="clip0_534_71266">
<rect width="29" height="24" fill="white"/>
</clipPath>
</defs>
</svg>
