<svg width="200" height="241" viewBox="0 0 200 241" fill="none" xmlns="http://www.w3.org/2000/svg">
<g clip-path="url(#clip0_1290_960)">
<path d="M82.5626 170.446C82.7689 172.567 83.1672 174.162 84.1274 176.103C84.9027 177.675 86.2896 179.645 87.6055 180.806C89.0778 182.112 90.863 183 92.5914 183.952C95.1946 185.38 97.6058 186.91 100.117 188.432C100.757 188.822 141.989 212.976 142.679 213.258C146.093 214.715 148.632 212.623 148.632 208.676C148.902 93.3009 148.753 114.966 148.852 108.091C148.881 103.069 149.009 98.012 148.945 92.9907C148.852 83.0923 149.123 81.4546 148.817 78.7779C148.234 74.6151 145.837 70.8708 143.24 68.793C142.174 67.9344 140.95 67.2707 139.727 66.5997C137.785 65.4887 135.9 64.3416 134.022 63.2305C127.55 59.3852 121.106 55.814 112.521 50.706C96.8519 41.2477 97.9828 42.5247 93.9073 39.8625C91.0907 38.0156 87.3281 35.0288 84.5684 37.0633C82.6053 38.4846 82.7831 41.4786 82.8471 43.679C82.8827 45.0715 82.4773 168.722 82.5626 170.446ZM122.614 60.7704C122.614 60.8353 122.614 60.9291 122.585 60.994C122.557 61.0878 122.557 61.1527 122.493 61.1816C122.464 61.2465 122.429 61.2754 122.365 61.3115C121.952 61.5207 122.671 61.8093 109.982 54.3783C109.889 54.3133 109.825 54.2484 109.761 54.1907C109.605 54.0897 109.434 53.8588 109.384 53.7145C109.064 53.2239 109.135 52.9209 109.135 51.9325C109.135 51.6728 109.178 51.4636 109.384 51.3626C109.47 51.276 109.64 51.2904 109.761 51.3337C109.825 51.3337 109.918 51.3626 109.982 51.4275C111.831 52.553 121.746 58.2453 121.988 58.4834C122.194 58.6926 122.336 58.7719 122.486 59.2481C122.671 59.5223 122.614 60.0417 122.614 60.7704Z" fill="white"/>
<path d="M110.139 51.5215C122.721 58.8803 122.202 58.3681 122.486 59.2483C122.55 59.3421 122.579 59.4359 122.579 59.5369C122.607 59.6307 122.607 59.7245 122.607 59.8255V60.5902C109.783 53.0654 110.95 53.7869 110.665 53.4983C110.374 53.2025 110.132 52.7263 110.132 52.2574V51.5215H110.139Z" fill="#3F4F5D"/>
<path d="M109.762 51.3337C109.826 51.3337 109.919 51.3626 109.983 51.4275L110.139 51.5213C110.139 52.4087 110.125 52.3943 110.203 52.6973C110.367 53.2023 110.694 53.5847 111.021 53.7795L122.615 60.5828V60.7704C122.615 60.8353 122.615 60.9291 122.586 60.994C122.558 61.0878 122.558 61.1528 122.494 61.1816C122.465 61.2466 122.43 61.2754 122.366 61.3115C122.209 61.3909 122.266 61.3764 121.989 61.3764C121.925 61.3476 121.832 61.3115 121.768 61.2826C109.726 54.234 109.577 54.2845 109.385 53.7145C109.058 53.2095 109.136 52.8344 109.136 51.9325C109.136 51.7738 109.143 51.6584 109.229 51.4852C109.399 51.3193 109.527 51.2472 109.762 51.3337Z" fill="#5D6571"/>
<path d="M154.365 81.9311C154.358 83.7852 154.358 85.6105 154.351 87.4142C154.344 87.4214 154.351 87.4286 154.351 87.4286C154.273 125.817 154.209 152.05 154.173 170.007C154.074 213.604 154.06 208.265 153.96 209.182C153.732 210.682 152.843 212.428 151.549 213.193C151.549 213.193 147.971 215.22 148.49 214.686C148.512 214.672 148.526 214.65 148.54 214.636C148.625 214.557 148.711 214.47 148.789 214.376C148.946 214.196 149.095 213.994 149.223 213.785C149.287 213.684 149.344 213.59 149.394 213.489C149.486 213.308 149.579 213.128 149.65 212.933C149.728 212.746 149.799 212.551 149.856 212.356C149.891 212.241 149.92 212.132 149.948 212.017C149.963 211.967 149.97 211.916 149.984 211.866C150.169 211.122 150.247 210.358 150.261 209.651V209.506C150.261 209.506 150.261 209.506 150.261 209.499L150.276 204.334L150.347 166.558L150.51 81.0798C150.51 75.6833 146.904 68.9521 141.954 66.0157L89.7969 35.4692C87.4497 34.0696 85.3444 34.0263 83.8223 34.8055C84.2632 34.5385 87.8836 32.403 89.05 32.2659C90.8993 32.0495 92.1014 32.5545 93.6306 33.3842L145.78 63.9307C148.22 65.3159 150.617 68.9304 152.253 72.8768V72.884C153.547 76.0007 154.365 79.3266 154.365 81.9311Z" fill="black"/>
<path d="M141.953 66.0161L89.8036 35.4624C87.428 34.0483 85.3084 34.0267 83.7863 34.8275C83.7863 34.8564 83.7579 34.8564 83.7579 34.8564C81.9513 35.6716 81.2187 38.3843 81.2187 40.4837L80.9768 161.515L80.9697 161.508V169.04C80.9697 174.386 84.4478 181.038 89.4978 184.111L141.683 214.665C146.1 217.291 150.161 215.524 150.268 209.644L150.517 81.0802C150.51 75.7197 146.925 68.9741 141.953 66.0161ZM148.846 108.106C148.753 114.642 148.895 93.8427 148.625 208.692C148.625 212.623 146.086 214.73 142.672 213.273C142.003 212.991 100.729 188.815 100.11 188.447C97.5991 186.918 95.1879 185.396 92.5846 183.967C90.8634 183.015 89.071 182.12 87.5987 180.822C86.29 179.667 84.8959 177.698 84.1206 176.118C83.1604 174.17 82.755 172.583 82.5558 170.462C82.4776 168.867 82.5701 169.545 82.5843 163.889C82.5843 88.8791 82.8261 63.4189 82.8048 57.9574C82.6768 46.2554 82.9399 46.9119 82.8332 43.7159C82.7834 41.9339 82.6554 39.9859 83.4947 38.3771C84.0851 37.3093 84.8888 36.7538 85.6854 36.5662C88.1606 35.7293 91.7169 38.4781 93.9005 39.9066C96.1908 41.4 98.6659 42.6698 101.077 44.0045C106.803 47.1428 110.729 49.8266 123.958 57.4236C137.956 65.5183 136.242 64.6454 139.72 66.6438C142.16 67.9785 143.767 68.9164 145.552 71.225C146.733 72.7906 147.423 74.1181 147.999 75.5826C149.045 78.4973 149.023 80.5463 148.959 83.5475C148.895 86.9167 148.91 89.6944 148.945 93.0347C149.002 98.0344 148.881 103.085 148.846 108.106Z" fill="#636363"/>
<path d="M178.726 170.807L198.136 187.473C201.138 190.048 200.391 194.94 196.763 196.476C187.709 200.315 173.967 206.043 172.765 206.029C169.045 205.978 165.894 206.952 162.8 208.806C157.075 212.233 156.349 212.421 150.638 215.862C148.291 217.283 146.029 217.031 143.554 215.53C145.716 216.194 147.373 215.761 148.49 214.679C148.511 214.664 148.525 214.643 148.54 214.628C148.625 214.549 148.703 214.462 148.789 214.369C148.945 214.188 149.087 213.986 149.222 213.777C149.279 213.683 149.343 213.582 149.393 213.481C149.486 213.301 149.578 213.12 149.649 212.926C149.72 212.753 149.791 212.572 149.848 212.377C149.848 212.363 149.855 212.356 149.855 212.341C149.891 212.24 149.92 212.125 149.948 212.002C149.962 211.952 149.969 211.901 149.984 211.851C150.126 211.187 150.211 210.364 150.261 209.499C150.261 209.499 150.261 209.499 150.261 209.492C150.41 207.053 150.275 204.326 150.275 204.326L150.346 166.55L150.51 81.0721C150.51 81.0721 150.681 84.1167 152.252 72.8691C153.547 75.9931 154.365 79.319 154.365 81.9234C154.358 83.7776 154.358 85.6029 154.351 87.4065C154.344 87.4137 154.351 87.4209 154.351 87.4209C154.336 87.4714 154.336 87.4859 154.336 87.4859L154.173 169.992C154.173 169.992 166.051 170.237 172.047 170.136C174.366 170.107 178.726 170.807 178.726 170.807Z" fill="#ADADAD"/>
<path d="M183.947 185.135C186.598 185.135 188.748 183.875 188.748 182.322C188.748 180.768 186.598 179.508 183.947 179.508C181.295 179.508 179.146 180.768 179.146 182.322C179.146 183.875 181.295 185.135 183.947 185.135Z" fill="#EAE8ED"/>
<path d="M2.93733 223.135C2.93733 223.135 0.981355 224.477 0.12784 225.22C-0.725676 225.963 3.07958 227.478 2.93733 230.623C2.79508 233.769 5.14936 234.526 6.97019 234.635C8.79102 234.743 8.79102 233.084 8.79102 233.084C8.79102 233.084 5.2845 228.156 6.99864 224.253C8.69856 220.35 2.93733 223.135 2.93733 223.135Z" fill="black"/>
<path d="M62.342 149.568C62.3562 149.785 62.2353 150.045 61.9081 150.218L56.0189 153.399V153.407C55.3574 153.76 55.1654 153.832 55.016 154.056C54.8738 154.272 54.8809 154.496 54.9591 154.662L57.4628 160.39C57.541 160.578 57.5125 160.801 57.413 160.982C57.1498 161.458 56.3034 161.573 55.7913 161.292C48.5649 157.389 49.1623 157.692 48.9276 157.634C48.5649 157.548 48.1879 157.62 47.9603 157.75L41.4024 161.292C41.1108 161.451 40.7694 161.48 40.428 161.408C39.7665 161.256 39.5816 160.737 39.731 160.39C42.4622 154.135 42.2844 154.597 42.2844 154.409C42.2844 154.121 42.0781 153.883 41.8363 153.76L41.1677 153.399V153.392L35.2785 150.211C35.1078 150.124 34.9513 149.987 34.8802 149.806C34.809 149.619 34.8375 149.388 34.9228 149.237C35.1006 148.919 35.5487 148.753 35.9186 148.753C44.8236 148.753 44.091 148.768 44.3257 148.724C44.6102 148.667 44.9587 148.45 45.0512 148.198L47.562 142.462C47.6402 142.282 47.7825 142.145 47.9887 142.051C48.387 141.863 48.7925 141.863 49.205 142.051C49.4113 142.145 49.5535 142.282 49.6317 142.462C52.3701 148.732 52.1354 148.27 52.3203 148.443C52.5479 148.645 52.8182 148.753 53.1667 148.753C61.8441 148.753 61.4743 148.703 61.837 148.876C62.1357 149.013 62.342 149.229 62.342 149.568Z" fill="#F2A305"/>
<path d="M57.4624 156.711V160.405L54.9587 154.676C54.9587 154.099 54.9374 154.186 55.0156 154.07C55.1579 153.847 55.3072 153.803 56.0185 153.421L57.4624 156.711Z" fill="#F6BA28"/>
<path d="M54.9588 154.171V154.676C54.8947 154.524 54.8805 154.337 54.9588 154.171Z" fill="#F6BA28"/>
<path d="M62.3562 145.882V149.575H62.342C62.342 149.236 62.1357 149.02 61.8299 148.89C61.4671 148.717 61.9223 148.767 53.1596 148.767C52.804 148.767 52.5408 148.659 52.3132 148.457C52.1283 148.284 52.363 148.738 49.6246 142.476C49.5464 142.296 49.4041 142.159 49.1979 142.065C48.7924 141.877 48.387 141.877 47.9816 142.065C47.7753 142.159 47.6331 142.296 47.5548 142.476L45.0441 148.212C44.9516 148.464 44.6102 148.681 44.3186 148.739C44.0768 148.782 44.788 148.767 35.9115 148.767C35.5487 148.767 35.0935 148.933 34.9157 149.251C34.8659 149.345 34.8375 149.46 34.8304 149.575H34.8232V145.882C34.8232 145.377 35.3994 145.073 35.9044 145.073C44.8094 145.073 44.0768 145.088 44.3115 145.045C44.596 144.987 44.9445 144.77 45.037 144.518L47.5477 138.782C47.626 138.602 47.7682 138.465 47.9745 138.371C48.3728 138.184 48.7782 138.184 49.1908 138.371C49.397 138.465 49.5393 138.602 49.6175 138.782C52.3559 145.052 52.1212 144.59 52.3061 144.763C52.5337 144.965 52.804 145.073 53.1525 145.073H61.2609C61.9152 145.073 62.3562 145.47 62.3562 145.882Z" fill="#F6BA28"/>
<path d="M42.2422 154.669V154.171C42.3133 154.337 42.3062 154.524 42.2422 154.669Z" fill="#F6BA28"/>
<path d="M42.2419 154.669L39.7383 160.397V156.703L41.1821 153.406C41.8436 153.76 42.0357 153.832 42.185 154.056C42.2562 154.178 42.2419 154.113 42.2419 154.669Z" fill="#F6BA28"/>
<path d="M15.2135 181.428L14.4667 202.177C12.4609 204.168 9.92884 209.637 3.49902 223.539L6.59302 225.653C10.1849 223.07 17.6674 210.488 20.612 206.953C21.0743 206.405 21.4086 205.762 21.6078 205.07L27.6251 187.38L15.2135 181.428Z" fill="black"/>
<path d="M32.4407 151.205C32.7181 150.852 32.5616 153.637 32.8959 153.406C33.8988 152.72 35.6414 149.82 36.4166 150.448C37.4551 151.285 37.0283 153.976 35.933 155.382C34.8305 156.789 33.1022 157.251 32.0637 156.421C31.0181 155.584 31.3382 152.612 32.4407 151.205Z" fill="#DCA19C"/>
<path d="M17.9018 150.7C17.8875 150.845 18.0013 152.028 18.044 152.41C18.3854 155.209 19.3741 159.639 21.6572 161.241C21.7426 161.291 21.8279 161.363 21.9133 161.407C21.9986 161.45 22.0982 161.508 22.1693 161.544C22.1978 161.551 22.212 161.587 22.2618 161.594C22.2831 161.601 22.3045 161.616 22.3329 161.623C22.3614 161.623 22.3969 161.63 22.4254 161.638C22.6957 161.681 23.158 161.594 23.6345 161.428C26.8637 160.296 31.4727 155.801 33.8909 153.398C34.2537 153.038 34.844 153.045 35.1997 153.413C35.5269 153.752 35.5482 154.286 35.2708 154.647C32.9307 157.691 30.0715 161.277 27.0273 163.622C25.7257 164.61 24.2035 165.497 22.5819 165.642C22.1053 165.67 22.2049 165.67 21.771 165.642C21.4936 165.634 21.1949 165.555 20.9104 165.49C20.1494 165.266 19.936 165.137 19.6372 165.007C15.2488 162.871 12.866 156.544 11.9129 151.674C11.8489 151.313 11.7707 150.772 11.7778 150.808C11.5217 149.099 12.674 147.511 14.3597 147.252C16.3512 146.949 18.1294 148.608 17.9018 150.7Z" fill="#EDBEBC"/>
<path d="M32.5112 234.497C32.5112 234.497 31.4941 239.822 32.4898 240.377C33.4785 240.933 36.4658 239.346 38.6992 239.49C40.9325 239.634 44.56 238.884 44.7876 237.773C45.0152 236.655 43.5855 236.315 39.446 235.522C35.2993 234.721 34.4316 232.91 34.4316 232.91L32.5112 234.497Z" fill="black"/>
<path d="M15.2133 174.076C15.2133 174.076 13.2502 180.201 15.2133 181.427C17.1764 182.654 24.4242 188.029 24.4242 188.029C24.4242 188.029 27.2408 201.924 27.447 205.603C27.6533 209.29 28.0018 214.261 29.4599 220.4C30.918 226.533 32.7175 233.856 32.5183 234.505C32.3192 235.154 34.012 235.4 35.2994 234.75C36.5796 234.101 38.4716 187.711 37.7177 178.361C36.9566 169.018 15.2133 174.076 15.2133 174.076Z" fill="#333333"/>
<path d="M31.6932 143.623L29.9364 141.675L30.8184 140.218C30.8184 140.218 32.7317 141.596 33.7132 140.218C34.6947 138.84 35.1286 129.006 33.0873 127.095C31.046 125.183 24.6517 128.04 24.6517 131.568C24.6517 135.088 26.6148 139.835 24.9504 140.449C23.2861 141.062 23.1367 142.671 23.1367 142.671L31.6932 143.623Z" fill="#EDBEBC"/>
<path d="M31.9713 123.292C31.9713 123.292 35.051 123.877 34.6954 127.094C34.3469 130.312 30.6127 133.559 28.9484 133.71C27.284 133.862 29.4747 137.462 28.1162 138.768C26.7577 140.066 25.1716 140.607 23.5855 138.234C21.9994 135.86 21.9994 135.86 21.9994 135.86C21.9994 135.86 18.9694 131.077 21.6153 127.636C24.2612 124.18 24.8729 120.998 31.9713 123.292Z" fill="#512518"/>
<path d="M24.9511 140.449C24.9511 140.449 18.7632 138.84 17.2482 141.062C15.7403 143.284 14.2253 174.761 14.9864 176.522C15.7403 178.282 26.0821 186.478 31.5943 184.486C37.1066 182.495 37.7112 178.361 37.7112 178.361L36.9573 159.062C36.9573 159.062 39.4467 158.759 40.2789 157.223C41.111 155.693 39.0697 148.875 36.2033 146.422C33.3298 143.977 24.9511 140.449 24.9511 140.449Z" fill="#DB0505"/>
<path d="M14.9855 142.317C12.8304 143.652 9.57277 149.792 10.6397 152.115C11.1091 153.139 13.2998 153.89 14.7863 154.56C19.7296 156.783 20.1208 141.452 20.1208 141.452C19.0041 140.73 17.5816 140.716 16.4507 141.416L14.9855 142.317Z" fill="#DB0505"/>
<path d="M54.3118 154.048C54.5892 153.694 54.4327 156.479 54.767 156.248C55.7699 155.563 57.5125 152.663 58.2877 153.29C59.3262 154.127 58.8994 156.818 57.8041 158.225C56.7016 159.632 54.9732 160.094 53.9348 159.264C52.8892 158.427 53.2093 155.455 54.3118 154.048Z" fill="#DCA19C"/>
<path d="M37.3552 169.22C37.3552 169.22 34.1261 165.238 33.3864 161.212C32.668 157.295 33.0877 153.204 33.0877 153.204L37.1205 162.345L37.3552 169.22Z" fill="#9386AC"/>
<path d="M39.7738 153.543C39.7596 153.688 39.8734 154.871 39.9161 155.253C40.2575 158.053 41.2461 162.482 43.5293 164.084C43.6147 164.135 43.7 164.207 43.7854 164.25C43.8707 164.293 43.9703 164.351 44.0414 164.387C44.0699 164.394 44.0841 164.43 44.1339 164.438C44.1552 164.445 44.1765 164.459 44.205 164.466C44.2334 164.466 44.269 164.474 44.2975 164.481C44.5677 164.524 45.0301 164.438 45.5066 164.272C48.7357 163.139 53.3447 158.644 55.763 156.242C56.1258 155.881 56.7161 155.888 57.0717 156.256C57.3989 156.595 57.4203 157.129 57.1429 157.49C54.8028 160.534 51.9435 164.12 48.8993 166.465C47.5977 167.453 46.0756 168.341 44.4539 168.485C43.9774 168.514 44.077 168.514 43.6431 168.485C43.3657 168.478 43.067 168.398 42.7825 168.333C42.0214 168.11 41.808 167.98 41.5093 167.85C37.1208 165.715 34.7381 159.387 33.785 154.517C33.721 154.157 33.6427 153.616 33.6499 153.652C33.3938 151.942 34.5461 150.355 36.2317 150.095C38.2233 149.799 40.0014 151.451 39.7738 153.543Z" fill="#EDBEBC"/>
<path d="M34.1188 160.743C34.1188 160.743 36.8642 161.256 38.7633 160.743C40.2143 160.354 41.1034 157.98 41.1034 157.98C41.1034 157.98 41.8075 151.595 38.1018 148.818C34.3962 146.047 31.4373 152.014 34.1188 160.743Z" fill="#DB0505"/>
<path d="M102.834 118.444C102.379 118.444 101.917 118.17 101.554 117.686L96.9948 111.532C96.8312 111.316 96.6819 111.251 96.6392 111.244L92.1156 112.052C92.0587 112.059 91.9947 112.066 91.9306 112.066C91.4612 112.066 90.9633 111.749 90.6006 111.222C90.2521 110.703 90.1383 110.133 90.3018 109.686L92.0444 105.068C92.0444 105.047 92.0373 104.845 91.8453 104.585L89.1283 100.92C87.3501 98.5173 87.1367 98.236 87.0798 98.1133C86.8095 97.5939 86.7811 97.06 87.0016 96.6632C87.1723 96.3602 87.4852 96.187 87.8338 96.187C88.0471 96.187 88.2676 96.252 88.481 96.3746L94.0715 99.65L95.7288 95.2347C95.871 94.8523 96.2195 94.6143 96.6392 94.6143C96.9664 94.6143 97.3149 94.7658 97.6136 95.0399C97.9266 95.3213 98.1684 95.7181 98.2822 96.1293C98.837 98.2504 99.214 99.7005 99.4771 100.711C99.8826 102.254 100.032 102.832 100.067 102.925C100.075 102.94 100.103 102.976 100.146 103.07C100.231 103.214 100.373 103.344 100.473 103.402L106.106 106.699C106.398 106.872 106.654 107.124 106.846 107.449L106.874 107.499C107.173 108.026 107.23 108.567 107.045 108.964C106.91 109.253 106.654 109.44 106.341 109.498L101.981 110.277C101.981 110.284 103.723 116.951 103.723 116.951C103.873 117.506 103.723 117.86 103.574 118.062C103.425 118.307 103.14 118.444 102.834 118.444Z" fill="#DB0505"/>
<path d="M88.8587 69.9182C87.4362 70.7478 87.3366 70.7983 85.9141 71.6352C86.0421 71.5703 86.2199 71.5919 86.4404 71.7146L91.9811 74.9611C92.1803 75.0766 92.3937 75.1127 92.5359 75.0261C92.543 75.0189 92.5501 75.0189 92.5501 75.0116C92.607 74.9756 92.6568 74.9179 92.6853 74.8313L93.5744 72.4649L89.4064 69.9759C89.2428 69.8821 89.0223 69.8172 88.8587 69.9182Z" fill="#F2A305"/>
<path d="M104.343 83.4746C105.758 82.645 105.836 82.6089 107.252 81.772C107.266 81.7648 107.28 81.7576 107.294 81.7504C107.721 81.5195 107.387 80.5022 106.747 80.1271L101.199 76.8805C100.886 76.6929 100.594 76.3178 100.495 75.9282L98.7877 69.3846C98.681 68.9661 98.2685 68.4395 97.863 68.3385C97.735 68.3024 97.6212 68.3096 97.5287 68.3673C97.5145 68.3745 97.5145 68.3817 97.5003 68.3817C96.0778 69.2114 95.9782 69.2619 94.5557 70.0988C94.6481 70.0411 94.769 70.0339 94.89 70.07C95.2954 70.171 95.7008 70.6976 95.8146 71.1161L97.5216 77.6597C97.6212 78.0348 97.9057 78.4244 98.2258 78.612L103.774 81.8586C104.4 82.2337 104.734 83.2221 104.343 83.4746Z" fill="#F2A305"/>
<path d="M101.163 91.5908C101.249 91.9226 101.185 92.1463 101.035 92.2401C102.465 91.4104 102.557 91.3599 103.98 90.523C104.193 90.4003 104.193 90.0973 104.136 89.852L102.422 83.8423L104.037 83.5537L99.7265 84.3257C99.4206 84.3762 99.3708 84.7297 99.4562 85.0399L101.163 91.5908Z" fill="#F2A305"/>
<path d="M100.025 91.7932C100.367 92.2549 100.779 92.392 101.007 92.2622C101.021 92.2549 101.021 92.2477 101.035 92.2477C101.185 92.1467 101.249 91.9231 101.163 91.5984L99.4491 85.0548C99.3708 84.7446 99.4135 84.3911 99.7193 84.3406L104.03 83.5686L104.2 83.5397C104.243 83.5325 104.286 83.5181 104.321 83.4965C104.328 83.4892 104.335 83.4892 104.335 83.482C104.727 83.2295 104.392 82.2411 103.766 81.8732L98.2186 78.6266C97.8914 78.439 97.614 78.0494 97.5144 77.6743L95.8074 71.1307C95.7007 70.7122 95.2882 70.1856 94.8827 70.0845C94.7547 70.0485 94.6409 70.0557 94.5484 70.1134C94.4773 70.1567 94.4275 70.2144 94.392 70.301L94.0719 71.1451L92.6778 74.839C92.6494 74.9255 92.5996 74.9832 92.5427 75.0193C92.5356 75.0265 92.5285 75.0265 92.5285 75.0337C92.3862 75.1203 92.1728 75.0843 91.9737 74.9688L86.4329 71.7223C86.2196 71.5924 86.0417 71.578 85.9066 71.6429C85.8924 71.6501 85.8924 71.6573 85.8782 71.6573C85.6079 71.816 85.6079 72.3499 85.9991 72.8766L90.48 78.9296C90.6934 79.2182 90.8641 79.6511 90.7503 79.9541L89.0433 84.4921C88.8157 85.0837 89.6123 86.1298 90.1813 86.036L94.6623 85.2352C94.9681 85.1847 95.3308 85.466 95.53 85.7402L100.025 91.7932Z" fill="#F6BA28"/>
<path d="M88.8587 120.767C87.4362 121.596 87.3366 121.647 85.9141 122.484C86.0421 122.419 86.2199 122.441 86.4404 122.563L91.9811 125.81C92.1803 125.925 92.3937 125.961 92.5359 125.875C92.543 125.867 92.5501 125.867 92.5501 125.86C92.607 125.824 92.6568 125.766 92.6853 125.68L93.5744 123.314L89.4064 120.825C89.2428 120.731 89.0223 120.666 88.8587 120.767Z" fill="#F2A305"/>
<path d="M104.343 134.323C105.758 133.494 105.836 133.458 107.252 132.621C107.266 132.613 107.28 132.606 107.294 132.599C107.721 132.368 107.387 131.351 106.747 130.976L101.199 127.729C100.886 127.542 100.594 127.166 100.495 126.777L98.7877 120.233C98.681 119.815 98.2685 119.288 97.863 119.187C97.735 119.151 97.6212 119.158 97.5287 119.216C97.5145 119.223 97.5145 119.23 97.5003 119.23C96.0778 120.06 95.9782 120.111 94.5557 120.947C94.6481 120.89 94.769 120.883 94.89 120.919C95.2954 121.02 95.7008 121.546 95.8146 121.965L97.5216 128.508C97.6212 128.883 97.9057 129.273 98.2258 129.461L103.774 132.707C104.4 133.082 104.734 134.071 104.343 134.323Z" fill="#F2A305"/>
<path d="M101.163 142.439C101.249 142.771 101.185 142.995 101.035 143.089C102.465 142.259 102.557 142.208 103.98 141.372C104.193 141.249 104.193 140.946 104.136 140.701L102.422 134.691L104.037 134.402L99.7265 135.174C99.4206 135.225 99.3708 135.578 99.4562 135.889L101.163 142.439Z" fill="#F2A305"/>
<path d="M100.025 142.642C100.367 143.104 100.779 143.241 101.007 143.111C101.021 143.104 101.021 143.096 101.035 143.096C101.185 142.995 101.249 142.772 101.163 142.447L99.4491 135.903C99.3708 135.593 99.4135 135.24 99.7193 135.189L104.03 134.417L104.2 134.388C104.243 134.381 104.286 134.367 104.321 134.345C104.328 134.338 104.335 134.338 104.335 134.331C104.727 134.078 104.392 133.09 103.766 132.722L98.2186 129.475C97.8914 129.288 97.614 128.898 97.5144 128.523L95.8074 121.979C95.7007 121.561 95.2882 121.034 94.8827 120.933C94.7547 120.897 94.6409 120.904 94.5484 120.962C94.4773 121.005 94.4275 121.063 94.392 121.15L94.0719 121.994L92.6778 125.688C92.6494 125.774 92.5996 125.832 92.5427 125.868C92.5356 125.875 92.5285 125.875 92.5285 125.882C92.3862 125.969 92.1728 125.933 91.9737 125.817L86.4329 122.571C86.2196 122.441 86.0417 122.427 85.9066 122.492C85.8924 122.499 85.8924 122.506 85.8782 122.506C85.6079 122.665 85.6079 123.199 85.9991 123.725L90.48 129.778C90.6934 130.067 90.8641 130.5 90.7503 130.803L89.0433 135.341C88.8157 135.932 89.6123 136.978 90.1813 136.885L94.6623 136.084C94.9681 136.033 95.3308 136.315 95.53 136.589L100.025 142.642Z" fill="#F6BA28"/>
<path d="M88.8587 145.304C87.4362 146.134 87.3366 146.184 85.9141 147.021C86.0421 146.956 86.2199 146.978 86.4404 147.1L91.9811 150.347C92.1803 150.462 92.3937 150.498 92.5359 150.412C92.543 150.405 92.5501 150.405 92.5501 150.397C92.607 150.361 92.6568 150.304 92.6853 150.217L93.5744 147.851L89.4064 145.362C89.2428 145.275 89.0223 145.21 88.8587 145.304Z" fill="#F2A305"/>
<path d="M104.343 158.867C105.758 158.038 105.836 158.001 107.252 157.165C107.266 157.157 107.28 157.15 107.294 157.143C107.721 156.912 107.387 155.895 106.747 155.52L101.199 152.273C100.886 152.086 100.594 151.71 100.495 151.321L98.7877 144.777C98.681 144.359 98.2685 143.832 97.863 143.731C97.735 143.695 97.6212 143.702 97.5287 143.76C97.5145 143.767 97.5145 143.774 97.5003 143.774C96.0778 144.604 95.9782 144.654 94.5557 145.491C94.6481 145.434 94.769 145.426 94.89 145.463C95.2954 145.564 95.7008 146.09 95.8146 146.509L97.5216 153.052C97.6212 153.427 97.9057 153.817 98.2258 154.005L103.774 157.251C104.4 157.619 104.734 158.607 104.343 158.867Z" fill="#F2A305"/>
<path d="M101.163 166.977C101.249 167.308 101.185 167.532 101.035 167.626C102.465 166.796 102.557 166.746 103.98 165.909C104.193 165.786 104.193 165.483 104.136 165.238L102.422 159.228L104.037 158.939L99.7265 159.711C99.4206 159.762 99.3708 160.115 99.4562 160.426L101.163 166.977Z" fill="#F2A305"/>
<path d="M100.025 167.178C100.367 167.64 100.779 167.777 101.007 167.647C101.021 167.64 101.021 167.632 101.035 167.632C101.185 167.531 101.249 167.308 101.163 166.983L99.4491 160.44C99.3708 160.129 99.4135 159.776 99.7193 159.725L104.03 158.953L104.2 158.924C104.243 158.917 104.286 158.903 104.321 158.881C104.328 158.874 104.335 158.874 104.335 158.867C104.727 158.614 104.392 157.626 103.766 157.258L98.2186 154.011C97.8914 153.824 97.614 153.434 97.5144 153.059L95.8074 146.515C95.7007 146.097 95.2882 145.57 94.8827 145.469C94.7547 145.433 94.6409 145.44 94.5484 145.498C94.4773 145.541 94.4275 145.599 94.392 145.686L94.0719 146.53L92.6778 150.224C92.6494 150.31 92.5996 150.368 92.5427 150.404C92.5356 150.411 92.5285 150.411 92.5285 150.419C92.3862 150.505 92.1728 150.469 91.9737 150.354L86.4329 147.107C86.2196 146.977 86.0417 146.963 85.9066 147.028C85.8924 147.035 85.8924 147.042 85.8782 147.042C85.6079 147.201 85.6079 147.735 85.9991 148.261L90.48 154.314C90.6934 154.603 90.8641 155.036 90.7503 155.339L89.0433 159.877C88.8157 160.468 89.6123 161.515 90.1813 161.421L94.6623 160.62C94.9681 160.569 95.3308 160.851 95.53 161.125L100.025 167.178Z" fill="#F6BA28"/>
<path d="M92.0164 111.46C91.4332 111.568 90.6366 110.5 90.857 109.894L92.5996 105.284C92.6779 105.061 92.6352 104.649 92.3223 104.231C87.3434 97.5069 87.6706 97.9614 87.6279 97.8604C87.2296 97.1318 87.571 96.533 88.204 96.9009L93.8444 100.205C94.1715 100.4 94.456 100.335 94.5627 100.075L96.2982 95.458C96.4049 95.1622 96.8245 95.1117 97.2371 95.4941C97.4789 95.7105 97.6567 96.0063 97.735 96.3021C99.8118 104.216 99.4349 102.903 99.634 103.336C99.7763 103.596 99.9897 103.812 100.196 103.928L105.829 107.225C106.05 107.355 106.227 107.55 106.363 107.766C106.377 107.788 106.377 107.795 106.391 107.817C106.661 108.3 106.668 108.848 106.27 108.913L101.711 109.728C101.49 109.764 101.32 110.003 101.441 110.457L103.176 117.109C103.411 117.982 102.6 118.097 102.017 117.318L97.4576 111.164C97.1446 110.746 96.7819 110.609 96.5685 110.645L92.0164 111.46Z" fill="white"/>
<path d="M108.958 178.534V197.213L84.8105 211.353V205.062L92.862 200.351V194.356L100.906 189.645V183.253L108.958 178.534Z" fill="#8140FF"/>
<path d="M108.958 178.534L100.907 183.252L79.3057 170.598L87.3572 165.887L108.958 178.534Z" fill="#FFCACA"/>
<path d="M100.907 183.252V189.644L79.3057 176.99V170.598L100.907 183.252Z" fill="#930920"/>
<path d="M100.907 189.645L92.8628 194.356L71.2617 181.701L79.3061 176.99L100.907 189.645Z" fill="#FFCACA"/>
<path d="M92.8628 194.356V200.351L71.2617 187.696V181.701L92.8628 194.356Z" fill="#930920"/>
<path d="M92.8625 200.351L84.811 205.062L63.21 192.415L71.2615 187.696L92.8625 200.351Z" fill="#FFCACA"/>
<path d="M84.811 205.062V211.353L63.21 198.706V192.415L84.811 205.062Z" fill="#930920"/>
<path d="M84.8105 211.353L119.627 203.518L108.958 178.534L100.906 183.253V189.645L92.862 194.356V200.351L84.8105 205.062V211.353Z" fill="#494949"/>
<path d="M134.82 106.662L114.086 94.5202C112.102 93.3587 110.487 90.7831 110.487 88.763V81.1444C110.487 79.1315 112.095 78.4389 114.086 79.6005L134.82 91.7426C136.804 92.9042 138.419 95.4797 138.419 97.4998V105.118C138.419 107.138 136.804 107.824 134.82 106.662Z" fill="#DDDDDD"/>
<path d="M134.82 132.029L114.086 119.886C112.102 118.725 110.487 116.149 110.487 114.129V106.511C110.487 104.498 112.095 103.805 114.086 104.967L134.82 117.109C136.804 118.27 138.419 120.846 138.419 122.866V130.485C138.419 132.497 136.804 133.19 134.82 132.029Z" fill="#DDDDDD"/>
<path d="M134.82 157.388L114.086 145.246C112.102 144.084 110.487 141.509 110.487 139.489V131.87C110.487 129.857 112.095 129.165 114.086 130.326L134.82 142.468C136.804 143.63 138.419 146.205 138.419 148.225V155.844C138.419 157.864 136.804 158.55 134.82 157.388Z" fill="#DDDDDD"/>
<path d="M134.82 182.754L114.086 170.612C112.102 169.45 110.487 166.875 110.487 164.855V157.236C110.487 155.223 112.095 154.531 114.086 155.692L134.82 167.834C136.804 168.996 138.419 171.572 138.419 173.592V181.21C138.419 183.223 136.804 183.916 134.82 182.754Z" fill="#DDDDDD"/>
<path d="M133.489 73.8217C131.989 72.9415 130.765 73.4609 130.765 74.9904C130.765 76.5127 131.982 78.4679 133.489 79.348C134.99 80.2282 136.213 79.7088 136.213 78.1793C136.213 76.657 134.997 74.7018 133.489 73.8217ZM133.489 74.5431C134.599 75.1924 135.502 76.6354 135.502 77.7608C135.502 78.8863 134.599 79.2759 133.489 78.6266C132.38 77.9773 131.477 76.5344 131.477 75.4089C131.477 74.2762 132.38 73.8938 133.489 74.5431ZM133.489 80.3076C131.548 79.1677 129.748 79.1821 128.788 80.3292C128.695 80.4446 128.752 80.7044 128.93 80.9064C128.987 80.9785 129.051 81.0218 129.108 81.0579C129.229 81.13 129.357 81.1445 129.414 81.0579C130.239 80.0551 131.804 80.0478 133.482 81.029C135.161 82.0102 136.726 83.8499 137.565 85.8339C137.657 86.0576 137.871 86.2452 138.049 86.2524C138.212 86.2524 138.276 86.072 138.177 85.8339C137.231 83.5685 135.431 81.4475 133.489 80.3076Z" fill="black"/>
<path d="M95.1172 55.4962L90.4158 52.7402C90.0032 52.495 89.6689 51.9611 89.6689 51.5426C89.6689 51.1242 90.0032 50.9799 90.4158 51.2252L95.1172 53.9812C95.5298 54.2264 95.864 54.7603 95.864 55.1788C95.8712 55.59 95.5298 55.7343 95.1172 55.4962Z" fill="black"/>
<path d="M95.1172 58.2091L90.4158 55.4531C90.0032 55.2078 89.6689 54.674 89.6689 54.2555C89.6689 53.8371 90.0032 53.6928 90.4158 53.9381L95.1172 56.694C95.5298 56.9393 95.864 57.4732 95.864 57.8917C95.8712 58.3029 95.5298 58.4472 95.1172 58.2091Z" fill="black"/>
<path d="M95.1172 60.9142L90.4158 58.1582C90.0032 57.9129 89.6689 57.379 89.6689 56.9606C89.6689 56.5421 90.0032 56.3979 90.4158 56.6432L95.1172 59.3991C95.5298 59.6444 95.864 60.1783 95.864 60.5967C95.8712 61.0152 95.5298 61.1595 95.1172 60.9142Z" fill="black"/>
<path d="M118.198 29.0048L106.817 22.3385L104.634 26.2849C104.392 26.7178 103.603 26.2777 103.325 25.5634L100.75 18.7889L98.9438 17.7284C97.123 16.6606 95.6436 14.2943 95.6436 12.4473V2.43349C95.6436 0.586563 97.123 -0.0483198 98.9438 1.01944L118.198 12.2958C120.019 13.3636 121.498 15.73 121.498 17.5769V27.5907C121.498 29.4376 120.026 30.0725 118.198 29.0048Z" fill="#E6AE40"/>
<path d="M115.41 30.621L104.029 23.9547L101.846 27.9011C101.604 28.334 100.815 27.8939 100.537 27.1796L97.9623 20.4051L96.1557 19.3446C94.3349 18.2768 92.8555 15.9177 92.8555 14.0635V4.0497C92.8555 2.20277 94.3349 1.56789 96.1557 2.63565L115.41 13.912C117.23 14.9798 118.71 17.3462 118.71 19.1931V29.2069C118.71 31.0538 117.23 31.6887 115.41 30.621Z" fill="#EEC659"/>
<path opacity="0.5" d="M108.823 17.353L99.9678 12.1658C99.1072 11.6607 98.4102 10.5497 98.4102 9.67672C98.4102 8.80376 99.1072 8.50796 99.9678 9.01298L108.823 14.2003C109.684 14.7053 110.381 15.8163 110.381 16.6893C110.374 17.555 109.684 17.8581 108.823 17.353Z" fill="#616161"/>
<path opacity="0.5" d="M105.765 20.3109L99.9678 16.9128C99.1072 16.4078 98.4102 15.2968 98.4102 14.4238C98.4102 13.5508 99.1072 13.255 99.9678 13.7601L105.765 17.1581C106.625 17.6631 107.322 18.7742 107.322 19.6472C107.315 20.5129 106.618 20.8087 105.765 20.3109Z" fill="#616161"/>
</g>
<defs>
<clipPath id="clip0_1290_960">
<rect width="200" height="240" fill="white" transform="translate(0 0.5)"/>
</clipPath>
</defs>
</svg>
