<svg width="18" height="15" viewBox="0 0 18 15" fill="none" xmlns="http://www.w3.org/2000/svg">
<path d="M17.5055 0.272498C16.7939 0.696383 16.0017 1.00421 15.159 1.17073C14.4828 0.449117 13.524 0 12.4643 0C10.4256 0 8.77039 1.65517 8.77039 3.69386C8.77039 3.98654 8.80572 4.26409 8.86627 4.53658C5.7931 4.3852 3.07317 2.91169 1.24643 0.676198C0.933558 1.22119 0.746846 1.85702 0.746846 2.53322C0.746846 3.81497 1.39781 4.94533 2.39193 5.60639C1.78637 5.58621 1.21615 5.41968 0.721615 5.14214V5.18755C0.721615 6.97897 1.99327 8.47266 3.68377 8.81076C3.37595 8.89655 3.04794 8.94197 2.70984 8.94197C2.47267 8.94197 2.24054 8.91674 2.01346 8.87637C2.48276 10.3448 3.84525 11.4146 5.4651 11.4449C4.20353 12.434 2.60891 13.0244 0.878049 13.0244C0.58032 13.0244 0.287637 13.0042 0 12.9739C1.62994 14.0235 3.57275 14.6341 5.65685 14.6341C12.4491 14.6341 16.1682 9.00757 16.1682 4.12279C16.1682 3.96131 16.1632 3.80488 16.1581 3.6434C16.8797 3.12363 17.5055 2.47267 18 1.73087C17.3389 2.02355 16.6274 2.2254 15.8806 2.31119C16.6426 1.85702 17.2279 1.13541 17.5055 0.272498Z" fill="black"/>
</svg>
