<svg width="83" height="62" viewBox="0 0 83 62" fill="none" xmlns="http://www.w3.org/2000/svg">
<path d="M79.3966 30.0209L58.0753 17.666C56.9172 16.994 54.8933 17.0765 53.5533 17.848L8.80744 43.614C7.46747 44.3855 7.32135 45.5552 8.47944 46.2256L29.7992 58.579C30.9573 59.251 32.9812 59.1685 34.3212 58.397L79.0671 32.6294C80.407 31.861 80.5547 30.6913 79.3966 30.0209Z" fill="#EDEDED"/>
<path d="M29.1788 55.602L6.99166 42.7446C6.26261 42.3216 5.92373 41.7523 5.94705 41.1596L5.94238 41.1612L5.95171 37.9399L7.18597 39.3864C7.26525 39.3335 7.34608 39.2807 7.43469 39.2309L52.8256 13.0931C54.6273 12.0556 57.3523 11.9467 58.9099 12.8489L80.7862 25.5258C81.2292 25.0405 82.1572 24.017 82.1572 24.017L82.1464 27.1684C82.179 27.8792 81.6738 28.6352 80.6556 29.2216L35.2646 55.3593C33.4614 56.3953 30.738 56.5042 29.1788 55.602Z" fill="#6C91CA"/>
<path d="M52.8226 13.0931C54.6243 12.0556 57.3493 11.9467 58.9069 12.8489L80.7832 25.5258C81.2262 25.0405 82.1542 24.017 82.1542 24.017L82.1433 27.1684C82.176 27.8792 81.6708 28.6352 80.6526 29.2216L35.2616 55.3593C34.3212 55.9006 33.1304 56.1868 31.9863 56.2102L32.0299 25.067L52.8226 13.0931Z" fill="#2A3F77"/>
<path d="M81.106 22.4662L58.9172 9.61036C57.3596 8.70664 54.6346 8.81708 52.833 9.85456L7.44202 35.9924C5.64038 37.0298 5.44296 38.604 7.00055 39.5061L29.1893 52.3635C30.7469 53.2672 33.4719 53.1567 35.2735 52.1193L80.6645 25.9815C82.4661 24.9424 82.6636 23.3699 81.106 22.4662Z" fill="#D9EAFD"/>
<path d="M29.1727 52.7073L6.98403 39.85C6.18036 39.3849 5.8477 38.7409 5.95807 38.083C5.99693 38.6165 6.33892 39.122 7.00113 39.5062L29.1898 52.3636C30.7474 53.2673 33.4724 53.1569 35.2741 52.1194L80.665 25.9816C81.5371 25.4792 82.0299 24.8508 82.134 24.2348C82.1869 24.9565 81.6848 25.7296 80.6495 26.3269L35.2586 52.4647C33.4538 53.5006 30.7303 53.6095 29.1727 52.7073Z" fill="#FFF6F1"/>
<path d="M79.3966 22.9731L58.0753 10.6198C56.9172 9.9478 54.8933 10.0302 53.5533 10.8017L8.80744 36.5678C7.46747 37.3393 7.32135 38.509 8.47944 39.1794L29.7992 51.5328C30.9573 52.2047 32.9812 52.1223 34.3212 51.3508L79.0671 25.5832C80.407 24.8132 80.5547 23.6435 79.3966 22.9731Z" fill="white"/>
<path d="M56.052 13.8783L11.7881 39.5152L27.8242 48.7795C30.5212 50.3381 33.8462 50.3349 36.5417 48.7702L76.45 25.6608L56.052 13.8783Z" fill="#EDEDED"/>
<path d="M7.76551 36.1959H7.77017C5.67473 35.0308 4.36741 32.4815 4.35653 28.8293C4.33321 21.6026 9.39461 12.7661 15.639 9.13259L20.1454 6.5101L20.3631 6.63298L41.033 18.2646L35.796 21.6711L33.8296 23.1099L31.1232 25.9392L30.688 26.3359L27.8075 30.702L26.7504 33.4365L25.967 35.6095L25.3234 40.1701L25.2783 40.5636L25.5115 42.4861L26.1768 44.866L27.1142 46.479L28.4775 48.0982L7.76551 36.1959Z" fill="#74A5F0"/>
<path d="M55.7747 11.3398L55.7778 12.1051L30.2236 26.9098C30.4553 26.3763 30.8952 25.9346 31.3444 25.4913L55.7747 11.3398Z" fill="#D9EAFD"/>
<path d="M76.4466 23.2203L55.7751 11.3398L31.4225 25.6919L29.8556 27.5165L27.5036 31.654L26.0253 35.7884L25.5434 39.019L25.4844 42.2466L27.5021 46.8616L30.1276 48.3968L32.8278 48.5368L36.0642 47.1929L73.4962 25.2922L76.4466 23.2203Z" fill="#D9EAFD"/>
<path d="M7.7691 36.1976C6.01564 35.2239 4.81713 33.2749 4.46582 30.528L25.5493 42.62L26.1773 44.8677L27.1147 46.4807L28.478 48.0999L7.76444 36.196L7.7691 36.1976Z" fill="#4B7BC5"/>
<path d="M4.54517 31.0548C4.42548 30.3673 4.35708 29.6269 4.35553 28.8305C4.35397 28.2985 4.38351 27.7572 4.43481 27.2097L25.4514 39.2629L25.324 40.1682L25.2789 40.5617L25.5121 42.4842L25.7095 43.1904L4.54517 31.0548Z" fill="#2A3F77"/>
<path d="M76.4478 23.9853L76.4447 23.22L36.3888 46.4631C30.5097 49.8851 25.7079 47.1304 25.6861 40.3253C25.6659 33.5187 30.432 25.1986 36.311 21.7766L41.0336 19.0281L41.0305 18.2628L36.3079 21.0113C30.0636 24.6448 25.0022 33.4813 25.0255 40.7095C25.0488 47.9377 30.1475 50.8619 36.3903 47.2284L76.4478 23.9853Z" fill="#2A3F77"/>
<path d="M56.0761 29.0067L45.8834 23.2484C45.4761 23.0197 44.7704 23.0555 44.3071 23.3308L38.4825 26.7777C38.0177 27.053 37.9726 27.4605 38.3783 27.6908L48.5711 33.449C48.9784 33.6777 49.6841 33.6419 50.1473 33.3666L55.972 29.9197C56.4368 29.6444 56.4834 29.2353 56.0761 29.0067Z" fill="#6C91CA"/>
<path d="M48.3195 32.1982L37.8407 26.2906C37.6339 26.174 37.5345 26.0153 37.5298 25.8489L37.5251 25.8535L37.5127 24.6854C37.5127 24.6854 37.8811 24.9872 38.0972 25.1645L44.626 21.3007C45.1577 20.9865 45.966 20.9445 46.4308 21.2074L56.4463 26.8552L57.2127 26.4026L57.2267 27.5816L57.222 27.5785C57.2189 27.7807 57.0774 27.9938 56.7914 28.1634L50.1242 32.108C49.5926 32.4191 48.7843 32.4611 48.3195 32.1982Z" fill="#560513"/>
<path d="M56.8956 25.9267L46.4168 20.0191C45.9504 19.7563 45.1437 19.7983 44.612 20.1125L37.9448 24.0571C37.4132 24.3713 37.3604 24.8395 37.8267 25.1024L48.3055 31.01C48.7718 31.2728 49.5786 31.2308 50.1102 30.9166L56.7774 26.972C57.3091 26.6578 57.3619 26.1896 56.8956 25.9267Z" fill="#C4122F"/>
<path d="M48.3051 31.0099L37.8263 25.1023C37.5621 24.953 37.4704 24.7367 37.5341 24.5221C37.5838 24.6232 37.6693 24.7165 37.803 24.7927L48.2818 30.7003C48.7482 30.9632 49.5549 30.9212 50.0866 30.607L56.7538 26.6624C56.9823 26.5271 57.1175 26.3622 57.1657 26.1989C57.2869 26.4493 57.1564 26.7495 56.7771 26.9735L50.1099 30.9181C49.5798 31.2308 48.7715 31.2728 48.3051 31.0099Z" fill="#FFF6F1"/>
<path d="M45.9041 24.3946C46.2896 24.1659 46.2865 23.8035 45.8964 23.5826C45.5062 23.3618 44.8766 23.3695 44.4911 23.5966C44.1056 23.8253 44.1087 24.1877 44.4989 24.4086C44.8891 24.6294 45.5186 24.6232 45.9041 24.3946Z" fill="#FFF6F1"/>
<path d="M48.0457 25.603C48.4313 25.3744 48.4282 25.012 48.038 24.7911C47.6478 24.5702 47.0182 24.578 46.6327 24.8051C46.2472 25.0337 46.2503 25.3962 46.6405 25.617C47.0307 25.8379 47.6587 25.8317 48.0457 25.603Z" fill="#FFF6F1"/>
<path d="M50.1864 26.81C50.5719 26.5814 50.5688 26.2189 50.1786 25.9981C49.7884 25.7772 49.1589 25.785 48.7733 26.0121C48.3878 26.2407 48.3909 26.6031 48.7811 26.824C49.1713 27.0449 49.8009 27.0387 50.1864 26.81Z" fill="#FFF6F1"/>
<path d="M47.2822 9.50123L37.0894 3.74295C36.6822 3.5143 35.9764 3.55008 35.5132 3.82539L29.6885 7.27227C29.2237 7.54758 29.1787 7.95511 29.5844 8.18532L39.7771 13.9436C40.1844 14.1722 40.8901 14.1365 41.3534 13.8612L47.178 10.4143C47.6428 10.139 47.6879 9.72988 47.2822 9.50123Z" fill="#EDEDED"/>
<path d="M39.4184 12.4084L28.893 6.47437C28.6847 6.35615 28.5852 6.1975 28.5806 6.03107L28.5759 6.03573L28.5635 4.86292C28.5635 4.86292 28.9334 5.16624 29.1511 5.34511L35.7094 1.46426C36.2426 1.14851 37.0541 1.10651 37.522 1.36938L47.5826 7.04211L48.3521 6.58636L48.3661 7.77006L48.3614 7.76695C48.3583 7.96916 48.2153 8.18381 47.9292 8.35335L41.2325 12.3166C40.6978 12.6293 39.8863 12.6713 39.4184 12.4084Z" fill="#6C91CA"/>
<path d="M48.0349 6.10882L37.5079 0.173217C37.04 -0.0912101 36.2285 -0.0476574 35.6954 0.268099L28.9986 4.23139C28.4654 4.54714 28.411 5.01689 28.8789 5.28132L39.4059 11.2154C39.8738 11.4798 40.6853 11.4362 41.2184 11.1205L47.9152 7.15719C48.4484 6.84143 48.5012 6.37169 48.0349 6.10882Z" fill="#D9EAFD"/>
<path d="M39.406 11.2152L28.8806 5.28114C28.6148 5.13182 28.5231 4.91405 28.5868 4.69785C28.6366 4.79895 28.7221 4.89383 28.8573 4.97005L39.3827 10.9041C39.8506 11.1685 40.6621 11.125 41.1953 10.8092L47.892 6.84592C48.122 6.70904 48.2573 6.54417 48.3055 6.38084C48.4267 6.63127 48.2961 6.93303 47.9153 7.15857L41.2186 11.1219C40.6854 11.4361 39.8724 11.4781 39.406 11.2152Z" fill="#FFF6F1"/>
<path d="M36.9922 4.57022C37.3793 4.34157 37.3761 3.97604 36.9829 3.75516C36.5911 3.53429 35.9584 3.54051 35.5714 3.76916C35.1843 3.99781 35.1874 4.36334 35.5792 4.58422C35.9724 4.80509 36.6051 4.79887 36.9922 4.57022Z" fill="white"/>
<path d="M39.1434 5.7821C39.5304 5.55345 39.5273 5.18792 39.134 4.96705C38.7423 4.74617 38.1096 4.75239 37.7226 4.98105C37.3355 5.2097 37.3386 5.57523 37.7319 5.7961C38.1252 6.01698 38.7563 6.01231 39.1434 5.7821Z" fill="white"/>
<path d="M41.2951 6.99536C41.6822 6.76671 41.6791 6.40118 41.2873 6.1803C40.8956 5.95943 40.2629 5.96565 39.8759 6.1943C39.4888 6.42295 39.4919 6.78849 39.8852 7.00936C40.2754 7.23179 40.9081 7.22557 41.2951 6.99536Z" fill="white"/>
<path d="M6.86664 61.4877C9.89635 61.4877 12.3524 60.0684 12.3524 58.3177C12.3524 56.5669 9.89635 55.1477 6.86664 55.1477C3.83693 55.1477 1.38086 56.5669 1.38086 58.3177C1.38086 60.0684 3.83693 61.4877 6.86664 61.4877Z" fill="#EDEDED"/>
<path d="M13.7308 55.6143V54.3513H13.367C13.0406 53.7882 12.4965 53.2578 11.7193 52.8099C9.0378 51.2606 4.69146 51.2606 2.00997 52.8099C1.23429 53.2578 0.690216 53.7882 0.362219 54.3513H2.41769e-05V55.6035C-0.00463928 56.6223 0.665344 57.6411 2.00997 58.4188C4.69146 59.968 9.0378 59.968 11.7193 58.4188C13.0608 57.6442 13.7308 56.6285 13.7308 55.6143Z" fill="#2A3F77"/>
<path d="M6.86616 58.3175C10.6582 58.3175 13.7323 56.5417 13.7323 54.3511C13.7323 52.1605 10.6582 50.3847 6.86616 50.3847C3.07408 50.3847 0 52.1605 0 54.3511C0 56.5417 3.07408 58.3175 6.86616 58.3175Z" fill="#5C91E3"/>
<path d="M11.7202 57.1558C9.03873 58.705 4.69239 58.705 2.0109 57.1558C0.725345 56.4138 0.0631348 55.4495 0.0102823 54.4773C-0.0472337 55.5334 0.614977 56.602 2.0109 57.4078C4.69239 58.957 9.03873 58.957 11.7202 57.4078C13.1161 56.6005 13.7784 55.5334 13.7208 54.4773C13.6664 55.4495 13.0042 56.4138 11.7202 57.1558Z" fill="#FFF6F1"/>
<path d="M3.55632 55.664C3.44129 55.5971 3.37445 55.5069 3.376 55.4105L3.38222 52.8269C3.38222 52.6293 3.66047 52.4707 4.00091 52.4707C4.34289 52.4707 4.61804 52.6309 4.61804 52.8284L4.61182 54.9718L10.8267 54.2097C11.1609 54.1692 11.4889 54.2921 11.5588 54.485C11.6303 54.6778 11.4158 54.8676 11.0831 54.9081L4.1206 55.7604C3.93873 55.7822 3.74753 55.7558 3.60296 55.6889C3.58741 55.6811 3.57187 55.6733 3.55632 55.664Z" fill="white"/>
<path d="M63.0527 24.8254L53.746 19.3954L53.1631 19.7298L62.4682 25.1583L63.0527 24.8254Z" fill="#6C91CA"/>
<path d="M62.793 21.7272L56.2968 17.9366L55.7139 18.271L62.2085 22.0601L62.793 21.7272Z" fill="#6C91CA"/>
<path d="M60.6414 21.945L55.022 18.6661L54.4375 19.0005L60.057 22.2794L60.6414 21.945Z" fill="#6C91CA"/>
<path d="M64.327 24.096L61.5165 22.4566L60.9336 22.7895L63.7441 24.4289L64.327 24.096Z" fill="#6C91CA"/>
<path d="M39.9023 37.4154L30.5956 31.9853L30.0127 32.3197L39.3178 37.7498L39.9023 37.4154Z" fill="#6C91CA"/>
<path d="M39.6426 34.3169L33.1464 30.5263L32.5635 30.8607L39.0581 34.6513L39.6426 34.3169Z" fill="#6C91CA"/>
<path d="M37.4911 34.5347L31.8716 31.2558L31.2871 31.5902L36.9066 34.8691L37.4911 34.5347Z" fill="#6C91CA"/>
<path d="M41.1776 36.6858L38.3687 35.0463L37.7842 35.3807L40.5947 37.0202L41.1776 36.6858Z" fill="#6C91CA"/>
<path d="M61.752 57.8183C65.1781 59.7969 70.7307 59.7969 74.1568 57.8183C77.5829 55.8398 77.5829 52.6309 74.1568 50.6524C70.7307 48.6739 65.1781 48.6739 61.752 50.6524C58.3275 52.6309 58.3275 55.8382 61.752 57.8183ZM65.1035 52.5874C66.6782 51.6774 69.2306 51.6774 70.8053 52.5874C72.38 53.4973 72.38 54.9719 70.8053 55.8818C69.2306 56.7917 66.6782 56.7917 65.1035 55.8818C63.5288 54.9719 63.5288 53.4973 65.1035 52.5874Z" fill="#EDEDED"/>
<path d="M75.4512 49.4782L72.322 49.5264C72.0904 49.2247 71.7624 48.9416 71.3334 48.6943C69.6126 47.7003 66.9078 47.6241 65.0331 48.4625L63.1739 46.7126L60.3105 46.7577C60.452 46.6644 60.5966 46.5742 60.7505 46.4855C64.7284 44.1866 71.1795 44.1866 75.159 46.4855C75.8911 46.9086 76.4865 47.3799 76.9497 47.8808L75.4512 49.4782Z" fill="#560513"/>
<path d="M60.3105 42.2126V46.7591L63.1739 46.714V42.1674L60.3105 42.2126Z" fill="#560513"/>
<path d="M65.033 43.9173V48.4639L63.1738 46.714V42.1674L65.033 43.9173Z" fill="#79061A"/>
<path d="M72.3222 44.9813V49.5279L68.2059 46.1713L65.0332 48.464V43.9174L67.9541 42.4988C67.9541 42.4988 71.9755 43.7308 72.1854 43.7836C72.3952 43.8365 72.3222 44.9813 72.3222 44.9813Z" fill="#560613"/>
<path d="M75.4514 44.9314V49.4779L72.3223 49.5277V44.9811L75.4514 44.9314Z" fill="#79061A"/>
<path d="M76.9481 43.3357V47.8822L75.4512 49.4781V44.9316L76.9481 43.3357Z" fill="#560513"/>
<path d="M75.4512 44.9315L72.322 44.9798C72.0904 44.678 71.7624 44.3949 71.3334 44.1476C69.6126 43.1537 66.9078 43.0774 65.0331 43.9158L63.1739 42.1659L60.3105 42.211C60.452 42.1177 60.5966 42.0275 60.7505 41.9388C64.7284 39.6399 71.1795 39.6399 75.159 41.9388C75.8911 42.3619 76.4865 42.8332 76.9497 43.3341L75.4512 44.9315Z" fill="#C4122F"/>
<path d="M64.0907 44.4772V48.6567L61.3828 48.0081C61.3828 48.0081 61.5414 45.5629 61.5989 45.4975C61.6564 45.4307 64.0907 44.4772 64.0907 44.4772Z" fill="#6C91CA"/>
<path d="M66.1396 48.6566V53.2032L65.8474 53.5159L63.9385 52.4146C63.9385 52.4146 64.2338 48.9444 64.2696 48.8744C64.3038 48.8029 66.1396 48.6566 66.1396 48.6566Z" fill="#2A3F77"/>
<path d="M62.4525 47.4822L64.0894 49.0236C62.7245 50.1031 62.8862 51.6259 64.5744 52.6012C65.0361 52.8687 65.5708 53.0694 66.1397 53.2031L64.4469 55.0074L65.947 56.4182C64.0427 56.1989 62.2255 55.6623 60.7503 54.8099C57.3305 52.8345 56.8532 49.8029 59.314 47.5319L62.4525 47.4822Z" fill="#4D6CA5"/>
<path d="M65.9467 51.8717V56.4182L62.233 54.9841L57.7686 50.7206L57.7841 45.8925L62.5097 49.6396L65.9467 51.8717Z" fill="#4D6CA5"/>
<path d="M62.4525 42.9358L64.0894 44.4772C62.7245 45.5567 62.8862 47.0795 64.5744 48.0547C65.0361 48.3223 65.5708 48.5229 66.1397 48.6567L64.4469 50.461L65.947 51.8718C64.0427 51.6525 62.2255 51.1159 60.7503 50.2635C57.3305 48.2881 56.8532 45.2565 59.314 42.9855L62.4525 42.9358Z" fill="#D9EAFD"/>
<path d="M65.96 54.9826L67.4523 53.393C68.8373 53.477 70.2736 53.2125 71.3354 52.5997C72.4313 51.9666 72.8836 51.1018 72.6909 50.2774L76.2429 50.2214L77.6093 48.7655C78.8047 50.8171 77.9885 53.1736 75.1594 54.8084C73.081 56.0092 70.3265 56.5816 67.6031 56.5272L65.96 54.9826Z" fill="#4D6CA5"/>
<path d="M67.6016 51.9823V56.5289L78.141 50.685V46.1369L76.602 46.7591L67.6016 51.9823Z" fill="#4D6CA5"/>
<path d="M65.96 50.436V54.9826L67.6015 56.5287V51.9822L65.96 50.436Z" fill="#2A3F77"/>
<path d="M65.96 50.436L67.4523 48.8464C68.8373 48.9304 70.2736 48.6659 71.3354 48.0531C72.4313 47.42 72.8836 46.5552 72.6909 45.7308L76.2429 45.6748L77.6093 44.2189C78.8047 46.2705 77.9885 48.6271 75.1594 50.2618C73.081 51.4626 70.3265 52.035 67.6031 51.9806L65.96 50.436Z" fill="#5C91E3"/>
</svg>
