<svg width="90" height="69" viewBox="0 0 90 69" fill="none" xmlns="http://www.w3.org/2000/svg">
<path opacity="0.25" d="M88.9996 35.0882L88.1917 34.933C88.2772 34.7934 88.3393 34.6615 88.3471 34.5452C88.3548 34.3823 88.2694 34.2892 88.114 34.2814C88.1218 34.2814 88.1296 34.2814 88.1373 34.2814L88.0441 34.2659C87.912 34.2504 87.7256 34.2969 87.5159 34.4133C87.3683 34.4986 87.2362 34.5995 87.1197 34.7158L85.8767 34.5374L86.0787 31.2173L85.232 31.2949L85.0766 29.7046C85.0844 29.5883 85.03 29.5185 84.9368 29.4952H84.929C84.8979 29.4874 84.8591 29.4874 84.8202 29.4874C84.8125 29.4874 84.8125 29.4874 84.8047 29.4874C84.7969 29.4874 84.7814 29.4874 84.7736 29.4874C84.7581 29.4874 84.7425 29.4874 84.727 29.4874C84.7115 29.4874 84.7037 29.4874 84.6882 29.4874C84.6804 29.4874 84.6649 29.4874 84.6571 29.4874C84.6416 29.4874 84.626 29.4874 84.6105 29.4874C84.5872 29.4874 84.5716 29.4874 84.5483 29.4874C84.5328 29.4874 84.5095 29.4874 84.494 29.4874C84.4784 29.4874 84.4629 29.4874 84.4473 29.4874C84.4318 29.4874 84.4163 29.4874 84.4007 29.4874C84.3774 29.4874 84.3619 29.4874 84.3386 29.4874C84.3231 29.4874 84.3075 29.4874 84.292 29.4874C84.2531 29.4874 84.2143 29.4874 84.1755 29.4874C84.1599 29.4874 84.1444 29.4874 84.1288 29.4874C84.1055 29.4874 84.0822 29.4874 84.0589 29.4874C84.0434 29.4874 84.0201 29.4874 84.0046 29.4874C83.9657 29.4874 83.9269 29.4874 83.888 29.4874C83.8647 29.4874 83.8492 29.4874 83.8259 29.4874C83.8026 29.4874 83.7715 29.4874 83.7482 29.4874C83.7327 29.4874 83.7094 29.4874 83.6861 29.4874C83.6627 29.4874 83.6317 29.4874 83.6084 29.4874C83.5695 29.4874 83.5229 29.4874 83.4841 29.4874C83.4608 29.4874 83.4297 29.4874 83.4064 29.4874C83.3831 29.4874 83.3598 29.4874 83.3442 29.4874C83.3132 29.4874 83.2899 29.4874 83.2588 29.4874C83.2355 29.4874 83.2122 29.4874 83.1889 29.4874C83.1423 29.4874 83.0957 29.4874 83.049 29.4874C83.0257 29.4874 82.9947 29.4874 82.9714 29.4874C82.9403 29.4874 82.917 29.4874 82.8859 29.4874C82.8626 29.4874 82.8315 29.4874 82.8082 29.4874C82.7771 29.4874 82.7461 29.4874 82.715 29.4874C82.6684 29.4874 82.6295 29.4874 82.5829 29.4874C82.5519 29.4874 82.5286 29.4874 82.4975 29.4874C82.4664 29.4874 82.4431 29.4874 82.412 29.4874C82.381 29.4874 82.3577 29.4874 82.3266 29.4874C82.2877 29.4874 82.2489 29.4874 82.2101 29.4874C82.179 29.4874 82.1401 29.4874 82.1091 29.4874C82.0858 29.4874 82.0625 29.4874 82.0392 29.4874C81.4255 29.4874 80.804 29.4952 80.2757 29.5185C77.4014 29.6581 73.9212 31.1009 73.9212 31.1009L32.6245 54.8382C28.4529 57.2507 19.9932 55.8621 19.5348 58.8642C19.5348 58.8719 19.5038 59.2055 19.4649 59.733C19.4494 59.9347 19.4338 60.1674 19.4105 60.4234C19.4105 60.4699 19.4028 60.5242 19.395 60.5708C19.3872 60.6484 19.3795 60.7337 19.3717 60.819C19.3639 60.8656 19.3639 60.9199 19.3562 60.9664C19.3406 61.1448 19.3251 61.331 19.3095 61.5249C19.3095 61.5327 19.3095 61.5404 19.3095 61.5404C19.1542 63.4953 22.7742 67.9479 22.7665 68.0022C22.7665 68.041 22.7665 68.0798 22.7665 68.1186C22.7665 68.1264 22.7665 68.1264 22.7665 68.1264C22.9529 69.8252 29.2453 68.9098 33.3159 66.5594L36.3767 64.7907L36.3922 64.5658L37.3943 64.6589C37.4176 64.6589 37.4565 64.6511 37.4953 64.6278C37.573 64.5813 37.6351 64.5037 37.6429 64.4417C37.6429 64.4106 37.6274 64.3951 37.6041 64.3951L36.4233 64.1624L36.4854 63.0764L36.5243 63.0841L37.9769 63.2936L40.1132 63.6039L42.2418 62.3782L42.2496 62.2619L42.4127 62.2851L46.6931 60.0123L46.7008 59.8649L46.9028 59.8959L49.0313 58.6703L49.0391 58.5539L49.2022 58.5772L51.3308 57.3515L51.3385 57.1731L51.5561 57.2041L53.6846 55.9785L53.6924 55.8621L53.8555 55.8854L55.984 54.6597L55.9918 54.5124L56.1938 54.5434L58.3223 53.3177L58.3301 53.2014L58.4932 53.2247L60.6218 51.999L60.6295 51.8206L60.8626 51.8516L62.9911 50.626L62.9989 50.5096L63.162 50.5329L65.2905 49.3072L65.2983 49.1598L65.5003 49.1909L67.6288 47.9652L67.6366 47.8489L67.7997 47.8721L69.9283 46.6465L69.9127 46.4215L70.1302 46.4526L72.2588 45.2269L72.2665 45.1106L72.4297 45.1338L74.5582 43.9082L74.566 43.7608L74.768 43.7918L76.8965 42.5662L76.9043 42.4498L77.0674 42.4731L79.1959 41.2474L79.2969 39.6339L79.1182 39.6107L79.2969 39.5098L79.3668 38.3074L79.7475 38.0902L80.4 37.7179L81.6896 37.9118L83.0024 37.1516L82.9636 37.7722L84.2687 38.2764L85.7214 37.4386L85.869 34.9408L86.8555 35.0882C86.7856 35.2123 86.739 35.3286 86.7313 35.4295C86.7235 35.5846 86.8012 35.67 86.9332 35.6932L87.0265 35.7088C87.1585 35.732 87.3449 35.6777 87.5547 35.5614C87.7178 35.4683 87.8654 35.3519 87.9897 35.22L88.8598 35.3054C88.8753 35.3054 88.8986 35.3054 88.9297 35.2821C88.9841 35.2511 89.0307 35.189 89.0385 35.1502C89.0307 35.1037 89.0152 35.0959 88.9996 35.0882ZM37.5652 64.3641C37.5652 64.3641 37.573 64.3641 37.5652 64.3641V64.3641ZM37.3943 64.4804C37.3866 64.4882 37.3788 64.5037 37.371 64.5115C37.3788 64.496 37.3866 64.4882 37.3943 64.4804ZM37.9847 62.8902L38.0313 62.1377L38.0391 62.0059L37.9847 62.8902ZM46.8873 58.2281L46.996 58.2436L46.8873 58.2281ZM88.8442 35.1968C88.852 35.189 88.852 35.1813 88.8598 35.1735C88.852 35.1813 88.8442 35.189 88.8442 35.1968ZM88.9763 35.0959C88.9841 35.0959 88.9841 35.0882 88.9763 35.0959C88.9841 35.0882 88.9841 35.0882 88.9763 35.0959C88.9841 35.0882 88.9841 35.0959 88.9763 35.0959Z" fill="#A5ACB0"/>
<path d="M16.9948 47.1041C15.2858 48.0893 13.4835 49.8425 12.0386 51.7352L0.953125 52.7825C0.953125 52.7825 13.4835 59.8105 13.5534 59.8416C18.2144 62.1687 24.7166 59.5623 29.3077 56.9171L74.2399 31.1397C74.2399 31.1397 75.4596 29.4098 76.3063 26.1363C76.8424 24.0728 77.3084 20.551 77.3084 20.551L16.9948 47.1041Z" fill="#A84300"/>
<path d="M16.9948 47.1041C15.2858 48.0893 13.4835 49.8425 12.0386 51.7352L0.953125 52.7825C0.953125 52.7825 9.49833 57.5764 12.5125 59.2598C16.1092 58.484 19.7448 56.7852 22.7123 55.0786L76.7414 24.0806C77.0676 22.3197 77.3007 20.551 77.3007 20.551L16.9948 47.1041Z" fill="#22313F"/>
<path d="M5.69913 41.7749C1.11579 44.4201 -1.70412 51.262 1.14687 52.9066C3.99786 54.5511 15.8679 52.9221 20.459 50.2768L23.8305 48.3375L9.07061 39.8356L5.69913 41.7749Z" fill="#1A4B6C"/>
<path d="M5.26414 52.8677C2.8404 52.8677 1.86159 52.5109 1.49648 52.3014C0.968226 51.9989 0.704102 51.4016 0.704102 50.5328C0.704102 49.2994 1.24789 47.7324 2.2034 46.212C3.22882 44.583 4.59606 43.2254 6.05651 42.3799L9.7931 40.2466L23.1314 47.9418L20.1017 49.664C16.7924 51.58 9.75426 52.8677 5.26414 52.8677Z" fill="#F2F2F2"/>
<path d="M2.74718 51.3008C2.74718 50.0674 3.29097 48.5004 4.24648 46.98C5.2719 45.351 6.63914 43.9934 8.09959 43.1479L11.4788 41.2163L9.7931 40.2389L6.05651 42.3877C4.59606 43.2255 3.22882 44.5907 2.2034 46.2198C1.24789 47.7324 0.704102 49.3072 0.704102 50.5406C0.704102 51.4094 0.968226 51.9989 1.49648 52.3092C1.72953 52.4411 2.21893 52.635 3.16668 52.7591C2.88701 52.4178 2.74718 51.9291 2.74718 51.3008Z" fill="#DCDCDC"/>
<path d="M77.005 20.1863L63.6512 12.4911C63.2627 12.2661 62.6335 12.2661 62.2528 12.4911L57.1568 15.4311L11.8672 41.4645L23.8227 48.3529L24.786 50.9594L27.0621 49.7182L71.9089 23.9408L74.4647 22.4669L77.005 21.0008C77.3934 20.7681 77.3934 20.4035 77.005 20.1863Z" fill="#1A4B6C"/>
<path d="M76.298 20.5898L71.5593 23.3203L24.5529 50.3156L24.2499 49.5088L24.1878 49.3304L24.0635 48.9891L23.8304 48.353L23.776 48.322L23.5896 48.2134L23.2245 48.0039L12.543 41.8912L57.5063 16.0285L62.6024 13.0885C62.6645 13.0497 62.7888 13.0187 62.9519 13.0187C63.1151 13.0187 63.2394 13.0575 63.3015 13.0885L76.298 20.5898Z" fill="#DCDCDC"/>
<path d="M57.9882 17.673L63.0843 14.733C63.1464 14.6942 63.2707 14.6631 63.4338 14.6631C63.597 14.6631 63.7213 14.7019 63.7834 14.733L75.1175 21.2723L76.2983 20.5897L63.3018 13.0962C63.2396 13.0574 63.1153 13.0264 62.9522 13.0264C62.7891 13.0264 62.6648 13.0652 62.6026 13.0962L57.5066 16.0362L12.5898 41.8679L14.2134 42.8453L57.9882 17.673Z" fill="#DCDCDC"/>
<path d="M69.1437 19.6976L60.7383 14.8183L65.1196 12.2894L73.525 17.1765L69.1437 19.6976Z" fill="#EDEDED"/>
<path d="M69.1592 22.5602L60.7538 17.6809L60.7383 14.8184L69.1437 19.6977L69.1592 22.5602Z" fill="#C2C2C2"/>
<path d="M61.7021 16.5715L61.1738 16.2612V15.4235L61.7021 15.7338V16.5715Z" fill="#22313F"/>
<path d="M61.7021 17.929L61.1738 17.6187V16.7887L61.7021 17.0912V17.929Z" fill="#22313F"/>
<path d="M62.9061 17.2463L62.3701 16.9438V16.106L62.9061 16.4163V17.2463Z" fill="#22313F"/>
<path d="M62.9061 18.6118L62.3701 18.3015V17.4637L62.9061 17.774V18.6118Z" fill="#22313F"/>
<path d="M64.0868 17.929L63.5508 17.6187V16.7887L64.0868 17.0912V17.929Z" fill="#22313F"/>
<path d="M64.0868 19.2867L63.5508 18.9842V18.1464L64.0868 18.4567V19.2867Z" fill="#22313F"/>
<path d="M65.1669 18.6118L64.6309 18.3015V17.4637L65.1669 17.774V18.6118Z" fill="#22313F"/>
<path d="M65.1669 19.9692L64.6309 19.6589V18.8289L65.1669 19.1314V19.9692Z" fill="#22313F"/>
<path d="M66.3632 19.2867L65.835 18.9842V18.1464L66.3632 18.4567V19.2867Z" fill="#22313F"/>
<path d="M66.3632 20.652L65.835 20.3417V19.5039L66.3632 19.8142V20.652Z" fill="#22313F"/>
<path d="M67.5438 19.9692L67.0078 19.6589V18.8289L67.5438 19.1314V19.9692Z" fill="#22313F"/>
<path d="M67.5438 21.3267L67.0078 21.0241V20.1863L67.5438 20.4966V21.3267Z" fill="#22313F"/>
<path d="M68.6786 20.6208L68.1426 20.3105V19.4727L68.6786 19.783V20.6208Z" fill="#22313F"/>
<path d="M68.6786 21.9783L68.1426 21.668V20.838L68.6786 21.1405V21.9783Z" fill="#22313F"/>
<path d="M69.1436 19.6977L69.1591 22.5601L73.5249 20.039V17.1766L69.1436 19.6977Z" fill="#B3B3B3"/>
<path d="M70.4178 20.6828L69.874 21.0009V21.8619L70.4178 21.5439V20.6828Z" fill="#22313F"/>
<path d="M70.4178 19.2711L69.874 19.5891V20.4579L70.4178 20.1399V19.2711Z" fill="#22313F"/>
<path d="M71.6687 19.977L71.1172 20.295V21.1561L71.6687 20.8458V19.977Z" fill="#22313F"/>
<path d="M71.6687 18.5729L71.1172 18.891V19.752L71.6687 19.434V18.5729Z" fill="#22313F"/>
<path d="M72.8885 19.2711L72.3369 19.5891V20.4579L72.8885 20.1399V19.2711Z" fill="#22313F"/>
<path d="M72.8885 17.867L72.3369 18.1851V19.0461L72.8885 18.7281V17.867Z" fill="#22313F"/>
<path d="M10.5781 44.1406L7.48633 42.3487L9.17207 41.3791L12.2639 43.171L10.5781 44.1406Z" fill="#EDEDED"/>
<path d="M10.5859 44.7535L7.4941 42.9616L7.48633 42.3488L10.5781 44.1407L10.5859 44.7535Z" fill="#DCDCDC"/>
<path d="M10.5781 44.1406L10.5859 44.7534L12.2639 43.7838V43.1709L10.5781 44.1406Z" fill="#C3C3C3"/>
<path d="M10.391 49.1829L7.36133 47.422L9.01599 46.4679L12.0457 48.2288L10.391 49.1829Z" fill="white"/>
<path d="M10.3988 50.331L7.3691 48.5701L7.36133 47.4221L10.391 49.183L10.3988 50.331Z" fill="#C7C7C7"/>
<path d="M10.3916 49.1829L10.3994 50.331L12.0463 49.3769V48.2288L10.3916 49.1829Z" fill="#9C9C9C"/>
<path d="M10.1181 41.4955L10.1103 47.7866C10.1103 47.8021 10.1025 47.8254 10.1025 47.8409L10.1103 41.5498C10.1103 41.5343 10.1181 41.5188 10.1181 41.4955Z" fill="#949494"/>
<path d="M10.1031 41.5498L10.0954 47.8409C10.0798 47.8797 10.041 47.9185 9.9866 47.9495C9.90892 47.9961 9.80016 48.0193 9.69141 48.0193L9.69917 41.7282C9.80793 41.7282 9.90892 41.7049 9.99437 41.6584C10.0488 41.6273 10.0876 41.5963 10.1031 41.5498Z" fill="#B3B3B3"/>
<path d="M9.70669 41.7282L9.69892 48.0193C9.59793 48.0193 9.49695 47.996 9.41926 47.9495C9.34158 47.903 9.30273 47.8409 9.30273 47.7788L9.3105 41.4877C9.3105 41.5498 9.34935 41.6118 9.42703 41.6584C9.50471 41.7049 9.6057 41.7282 9.70669 41.7282Z" fill="#DCDCDC"/>
<path d="M9.99412 41.3326C10.1495 41.4257 10.1573 41.5731 9.99412 41.6662C9.83875 41.7593 9.5824 41.7593 9.41926 41.6662C9.26389 41.5731 9.25613 41.4257 9.41926 41.3326C9.5824 41.2395 9.83875 41.2395 9.99412 41.3326Z" fill="#CCCCCC"/>
<path d="M10.888 41.2625V41.3866C10.888 41.5573 10.7715 41.7357 10.5462 41.8598C10.0879 42.1236 9.34209 42.1236 8.88376 41.8598C8.65071 41.728 8.53418 41.5495 8.53418 41.3789V41.2548C8.53418 41.4332 8.65071 41.6038 8.88376 41.7357C9.34209 41.9995 10.0879 41.9995 10.5462 41.7357C10.7715 41.6116 10.888 41.4332 10.888 41.2625Z" fill="#C3C3C3"/>
<path d="M10.5404 40.7817C10.9987 41.0455 11.0065 41.4799 10.5482 41.7436C10.0898 42.0074 9.34408 42.0074 8.88575 41.7436C8.42741 41.4799 8.41964 41.0455 8.87798 40.7817C9.33631 40.518 10.0821 40.5102 10.5404 40.7817Z" fill="white"/>
<path d="M9.9316 38.7569L10.0714 41.2858C10.0714 41.3013 10.0714 41.3168 10.0637 41.3323L9.92383 38.7879C9.92383 38.7802 9.9316 38.7647 9.9316 38.7569Z" fill="#949494"/>
<path d="M9.9245 38.788L10.0566 41.3324C10.041 41.3712 10.01 41.4022 9.96334 41.4332C9.89343 41.472 9.79244 41.4953 9.69922 41.4953L9.70699 38.8811C9.76137 38.8811 9.82351 38.8656 9.86235 38.8423C9.89343 38.8268 9.91673 38.8113 9.9245 38.788Z" fill="#C3C3C3"/>
<path d="M9.70691 38.8811L9.69914 41.4953C9.60592 41.4953 9.52047 41.4721 9.45055 41.4333C9.38064 41.3945 9.3418 41.3402 9.3418 41.2859L9.49716 38.757C9.49716 38.788 9.52047 38.8191 9.55931 38.8501C9.59815 38.8734 9.65253 38.8811 9.70691 38.8811Z" fill="#DCDCDC"/>
<path d="M9.86213 38.6716C9.94758 38.7182 9.94758 38.8035 9.86213 38.85C9.77668 38.8966 9.63685 38.8966 9.55139 38.85C9.46594 38.8035 9.46594 38.7182 9.55139 38.6716C9.63685 38.6173 9.77668 38.6173 9.86213 38.6716Z" fill="white"/>
<path d="M64.5831 14.376L56.1777 9.50445L60.7611 6.85922L69.1665 11.7385L64.5831 14.376Z" fill="white"/>
<path d="M64.5987 25.1822L56.1933 20.3029L56.1777 9.50479L64.5831 14.3764L64.5987 25.1822Z" fill="#DCDCDC"/>
<path d="M57.3119 11.4052L56.6904 11.0484V10.071L57.3119 10.4278V11.4052Z" fill="#134663"/>
<path d="M57.3119 12.9956L56.6904 12.6388V11.6614L57.3119 12.0182V12.9956Z" fill="#134663"/>
<path d="M57.3119 14.5859L56.6904 14.2291V13.2516L57.3119 13.6085V14.5859Z" fill="#134663"/>
<path d="M57.3119 16.1759L56.6904 15.8191V14.8417L57.3119 15.1985V16.1759Z" fill="#134663"/>
<path d="M58.7181 12.1966L58.0967 11.8398V10.8624L58.7181 11.2192V12.1966Z" fill="#134663"/>
<path d="M58.7181 13.787L58.0967 13.4302V12.4528L58.7181 12.8096V13.787Z" fill="#134663"/>
<path d="M58.7181 15.385L58.0967 15.0204V14.043L58.7181 14.4076V15.385Z" fill="#134663"/>
<path d="M58.7181 16.9751L58.0967 16.6105V15.6331L58.7181 15.9977V16.9751Z" fill="#134663"/>
<path d="M60.1009 12.9956L59.4717 12.6388V11.6614L60.1009 12.0182V12.9956Z" fill="#134663"/>
<path d="M60.1009 14.586L59.4717 14.2291V13.2517L60.1009 13.6085V14.586Z" fill="#134663"/>
<path d="M60.1009 16.176L59.4717 15.8192V14.8417L60.1009 15.1986V16.176Z" fill="#134663"/>
<path d="M60.1009 17.7663L59.4717 17.4095V16.432L60.1009 16.7889V17.7663Z" fill="#134663"/>
<path d="M61.2973 13.7324L60.6758 13.3755V12.3981L61.2973 12.755V13.7324Z" fill="#134663"/>
<path d="M61.2973 15.3227L60.6758 14.9658V13.9884L61.2973 14.3452V15.3227Z" fill="#134663"/>
<path d="M61.2973 16.9127L60.6758 16.5559V15.5785L61.2973 15.9353V16.9127Z" fill="#134663"/>
<path d="M61.2973 18.503L60.6758 18.1461V17.1687L61.2973 17.5256V18.503Z" fill="#134663"/>
<path d="M62.7035 14.5314L62.082 14.1668V13.1894L62.7035 13.554V14.5314Z" fill="#134663"/>
<path d="M62.7035 16.1217L62.082 15.7571V14.7874L62.7035 15.1443V16.1217Z" fill="#134663"/>
<path d="M62.7035 17.7117L62.082 17.3549V16.3775L62.7035 16.7343V17.7117Z" fill="#134663"/>
<path d="M62.7035 19.302L62.082 18.9452V17.9678L62.7035 18.3246V19.302Z" fill="#134663"/>
<path d="M64.0853 15.3226L63.4639 14.9658V13.9883L64.0853 14.3452V15.3226Z" fill="#134663"/>
<path d="M64.0853 16.9126L63.4639 16.5558V15.5784L64.0853 15.9352V16.9126Z" fill="#134663"/>
<path d="M64.0853 18.5029L63.4639 18.1461V17.1687L64.0853 17.5255V18.5029Z" fill="#134663"/>
<path d="M64.0853 20.0932L63.4639 19.7364V18.7589L64.0853 19.1158V20.0932Z" fill="#134663"/>
<path d="M57.3119 17.7661L56.6904 17.4093V16.4319L57.3119 16.7887V17.7661Z" fill="#134663"/>
<path d="M58.7181 18.565L58.0967 18.2004V17.223L58.7181 17.5876V18.565Z" fill="#134663"/>
<path d="M60.1009 19.3564L59.4717 18.9996V18.0222L60.1009 18.379V19.3564Z" fill="#134663"/>
<path d="M61.2973 20.0932L60.6758 19.7364V18.7589L61.2973 19.1158V20.0932Z" fill="#134663"/>
<path d="M62.7035 20.8924L62.082 20.5356V19.5582L62.7035 19.915V20.8924Z" fill="#134663"/>
<path d="M64.0853 21.6835L63.4639 21.3266V20.3492L64.0853 20.7138V21.6835Z" fill="#134663"/>
<path d="M64.583 14.3762L64.5985 25.182L69.1664 22.5523V11.7387L64.583 14.3762Z" fill="#B3B3B3"/>
<path d="M65.7953 19.4262L65.1738 19.7908V20.7682L65.7953 20.4036V19.4262Z" fill="#22313F"/>
<path d="M65.7953 17.8359L65.1738 18.1927V19.1702L65.7953 18.8133V17.8359Z" fill="#22313F"/>
<path d="M65.7953 16.2459L65.1738 16.6027V17.5801L65.7953 17.2233V16.2459Z" fill="#22313F"/>
<path d="M65.7953 14.6556L65.1738 15.0124V15.9899L65.7953 15.633V14.6556Z" fill="#22313F"/>
<path d="M67.2015 18.6351L66.5801 18.992V19.9694L67.2015 19.6125V18.6351Z" fill="#22313F"/>
<path d="M67.2015 17.0449L66.5801 17.4017V18.3791L67.2015 18.0223V17.0449Z" fill="#22313F"/>
<path d="M67.2015 15.4546L66.5801 15.8114V16.7888L67.2015 16.432V15.4546Z" fill="#22313F"/>
<path d="M67.2015 13.8643L66.5801 14.2212V15.1986L67.2015 14.834V13.8643Z" fill="#22313F"/>
<path d="M68.5765 17.8362L67.9551 18.193V19.1705L68.5765 18.8136V17.8362Z" fill="#22313F"/>
<path d="M68.5765 16.2459L67.9551 16.6028V17.5802L68.5765 17.2234V16.2459Z" fill="#22313F"/>
<path d="M68.5765 14.6556L67.9551 15.0125V15.9899L68.5765 15.6331V14.6556Z" fill="#22313F"/>
<path d="M68.5775 13.0653L67.9561 13.4222V14.3996L68.5775 14.0428V13.0653Z" fill="#22313F"/>
<path d="M65.7953 22.607L65.1738 22.9716V23.949L65.7953 23.5844V22.607Z" fill="#22313F"/>
<path d="M65.7953 21.0167L65.1738 21.3813V22.3587L65.7953 21.9941V21.0167Z" fill="#22313F"/>
<path d="M65.7953 19.4263L65.1738 19.7909V20.7683L65.7953 20.4037V19.4263Z" fill="#22313F"/>
<path d="M67.2015 21.8157L66.5801 22.1725V23.1499L67.2015 22.7931V21.8157Z" fill="#22313F"/>
<path d="M67.2015 20.2254L66.5801 20.5822V21.5597L67.2015 21.2028V20.2254Z" fill="#22313F"/>
<path d="M67.2015 18.6353L66.5801 18.9921V19.9696L67.2015 19.6127V18.6353Z" fill="#22313F"/>
<path d="M68.5765 21.0168L67.9551 21.3813V22.3588L68.5765 21.9942V21.0168Z" fill="#22313F"/>
<path d="M68.5765 19.4265L67.9551 19.791V20.7685L68.5765 20.4039V19.4265Z" fill="#22313F"/>
<path d="M68.5775 17.8363L67.9561 18.1931V19.1706L68.5775 18.8137V17.8363Z" fill="#22313F"/>
<path d="M66.2294 8.92282L66.2216 11.506L63.627 13.0187V10.4355L66.2294 8.92282Z" fill="#C2C2C2"/>
<path d="M63.6273 10.4354V13.0186L59.2148 10.4742V7.89102L63.6273 10.4354Z" fill="#DCDCDC"/>
<path d="M66.2297 8.9228L63.6273 10.4355L59.2148 7.89108L61.8172 6.37842L66.2297 8.9228Z" fill="white"/>
<path d="M60.613 9.04696L59.7041 8.51947L59.6963 10.4433L60.613 10.9708V9.04696Z" fill="#134663"/>
<path d="M61.7624 9.71393L60.8457 9.18643V11.1102L61.7624 11.6377V9.71393Z" fill="#134663"/>
<path d="M62.9587 10.4044L62.042 9.87689V11.8007L62.9587 12.3282V10.4044Z" fill="#134663"/>
<path d="M68.6458 11.0093L70.7898 9.7681L70.145 11.754L68.001 13.0029L68.6458 11.0093Z" fill="#7F7F7F"/>
<path d="M55.8672 3.64003L58.0113 2.39886L70.7902 9.76826L68.6462 11.0094L55.8672 3.64003Z" fill="white"/>
<path d="M68.6462 11.0094L68.0014 13.003L56.4964 6.37057L55.8672 3.64001L68.6462 11.0094Z" fill="#DCDCDC"/>
<path d="M57.5374 6.40151L56.7295 5.92832V4.65613L57.5374 5.12156V6.40151Z" fill="#134663"/>
<path d="M59.0061 7.24725L58.1904 6.78181V5.50186L59.0061 5.97505V7.24725Z" fill="#134663"/>
<path d="M60.4739 8.09255L59.6582 7.62711V6.35492L60.4739 6.82036V8.09255Z" fill="#134663"/>
<path d="M61.9349 8.94607L61.127 8.47288V7.20068L61.9349 7.67388V8.94607Z" fill="#134663"/>
<path d="M63.4026 9.79161L62.5869 9.32618V8.05399L63.4026 8.51942V9.79161Z" fill="#134663"/>
<path d="M64.8626 10.6447L64.0547 10.1715V8.89929L64.8626 9.36473V10.6447Z" fill="#134663"/>
<path d="M66.3313 11.4903L65.5156 11.0248V9.74487L66.3313 10.2181V11.4903Z" fill="#134663"/>
<path d="M67.7991 12.3358L66.9834 11.8703V10.5981L67.7991 11.0636V12.3358Z" fill="#134663"/>
<path d="M63.9462 2.3212L63.9384 6.87471C63.9384 6.89023 63.9384 6.9135 63.9307 6.92901L63.9384 2.3755C63.9462 2.35998 63.9462 2.34447 63.9462 2.3212Z" fill="#949494"/>
<path d="M63.9392 2.3757L63.9314 6.92922C63.9159 6.968 63.877 7.00679 63.8304 7.03782C63.7527 7.08436 63.6517 7.10763 63.543 7.10763L63.5507 2.55412C63.6517 2.55412 63.7605 2.53085 63.8382 2.4843C63.8848 2.45327 63.9236 2.41449 63.9392 2.3757Z" fill="#B3B3B3"/>
<path d="M63.5505 2.54644L63.5427 7.09995C63.4417 7.09995 63.3485 7.07668 63.2708 7.03014C63.1931 6.98359 63.1543 6.92929 63.1543 6.86724L63.1621 2.31372C63.1621 2.37578 63.2009 2.43008 63.2786 2.47662C63.3485 2.52317 63.4495 2.54644 63.5505 2.54644Z" fill="#DCDCDC"/>
<path d="M63.8301 2.15848C63.9855 2.24381 63.9855 2.3912 63.8301 2.48429C63.6748 2.56962 63.4262 2.56962 63.2708 2.48429C63.1155 2.39896 63.1155 2.25157 63.2708 2.15848C63.4262 2.07315 63.6748 2.07315 63.8301 2.15848Z" fill="#CCCCCC"/>
<path d="M65.1585 2.53058V2.70124C65.1585 2.93396 65.0032 3.17444 64.6924 3.35285C64.071 3.71745 63.0533 3.71745 62.4241 3.35285C62.1056 3.16668 61.9502 2.93396 61.9502 2.69349V2.52283C61.9502 2.7633 62.1056 3.00378 62.4241 3.18219C63.0533 3.54679 64.071 3.54679 64.6924 3.18219C65.0032 3.00378 65.1585 2.77106 65.1585 2.53058Z" fill="#C3C3C3"/>
<path d="M64.6857 1.87134C65.3149 2.23593 65.3149 2.82548 64.6934 3.18232C64.0719 3.54691 63.0543 3.54691 62.4251 3.18232C61.7958 2.81773 61.7958 2.22818 62.4173 1.87134C63.0388 1.51451 64.0564 1.50675 64.6857 1.87134Z" fill="white"/>
<path d="M63.7685 0.126007L63.9006 2.5773C63.9006 2.59282 63.9006 2.60833 63.8928 2.62385L63.7607 0.157036C63.7685 0.141522 63.7685 0.133764 63.7685 0.126007Z" fill="#949494"/>
<path d="M63.7605 0.157135L63.8925 2.6317C63.877 2.67049 63.8459 2.70152 63.7993 2.72479C63.7294 2.76358 63.6362 2.78685 63.543 2.78685L63.5507 0.250222C63.6051 0.250222 63.6595 0.242465 63.7061 0.211436C63.7294 0.195921 63.7527 0.17265 63.7605 0.157135Z" fill="#C3C3C3"/>
<path d="M63.5507 0.250367L63.543 2.78699C63.4575 2.78699 63.3643 2.76372 63.3022 2.72493C63.2322 2.68615 63.2012 2.63185 63.2012 2.57755L63.3488 0.126251C63.3488 0.15728 63.3721 0.188309 63.4109 0.211581C63.442 0.234853 63.4964 0.250367 63.5507 0.250367Z" fill="#DCDCDC"/>
<path d="M63.7059 0.0407256C63.7914 0.0872692 63.7914 0.164842 63.7059 0.211385C63.6205 0.257929 63.4884 0.257929 63.403 0.211385C63.3175 0.164842 63.3175 0.0872692 63.403 0.0407256C63.4884 -0.0135752 63.6205 -0.0135752 63.7059 0.0407256Z" fill="white"/>
<path d="M52.3554 18.6665L54.6937 17.309L54.6859 20.1481L52.3477 21.4979L52.3554 18.6665Z" fill="#C44A10"/>
<path d="M49.8848 17.239L52.223 15.8892L54.6934 17.3088L52.3551 18.6663L49.8848 17.239Z" fill="#FF8D23"/>
<path d="M52.3551 18.6666L52.3473 21.498L49.877 20.0784L49.8847 17.2393L52.3551 18.6666Z" fill="#82310B"/>
<path d="M49.8388 20.1244L52.1771 18.7746L52.1693 21.606L49.8311 22.9558L49.8388 20.1244Z" fill="#C44A10"/>
<path d="M47.3672 18.7051L49.7055 17.3475L52.1758 18.7749L49.8375 20.1246L47.3672 18.7051Z" fill="#FF8D23"/>
<path d="M49.8385 20.1245L49.8307 22.9559L47.3604 21.5363L47.3681 18.7049L49.8385 20.1245Z" fill="#82310B"/>
<path d="M47.2832 21.6216L49.6137 20.2641L49.6059 23.0955L47.2754 24.453L47.2832 21.6216Z" fill="#C44A10"/>
<path d="M44.8135 20.1944L47.144 18.8446L49.6143 20.2642L47.2838 21.6217L44.8135 20.1944Z" fill="#FF8D23"/>
<path d="M47.2828 21.6217L47.275 24.4531L44.8047 23.0257L44.8125 20.1943L47.2828 21.6217Z" fill="#82310B"/>
<path d="M44.7666 23.0802L47.0971 21.7227L47.0893 24.5541L44.7588 25.9116L44.7666 23.0802Z" fill="#C44A10"/>
<path d="M42.2959 21.6529L44.6264 20.3032L47.0968 21.7227L44.7662 23.0803L42.2959 21.6529Z" fill="#FF8D23"/>
<path d="M44.7662 23.08L44.7584 25.9114L42.2881 24.4919L42.2959 21.6527L44.7662 23.08Z" fill="#82310B"/>
<path d="M42.1562 24.562L44.4867 23.2123L44.4789 26.0437L42.1484 27.3934L42.1562 24.562Z" fill="#C44A10"/>
<path d="M39.6865 23.1423L42.017 21.7848L44.4874 23.2121L42.1569 24.5619L39.6865 23.1423Z" fill="#FF8D23"/>
<path d="M42.1558 24.5619L42.1481 27.3933L39.6777 25.9737L39.6855 23.1423L42.1558 24.5619Z" fill="#82310B"/>
<path d="M39.6396 26.0202L41.9701 24.6704L41.9623 27.5018L39.624 28.8593L39.6396 26.0202Z" fill="#C44A10"/>
<path d="M37.1689 24.6006L39.4995 23.2431L41.9698 24.6704L39.6393 26.0202L37.1689 24.6006Z" fill="#FF8D23"/>
<path d="M39.6392 26.02L39.6237 28.8592L37.1611 27.4319L37.1689 24.6005L39.6392 26.02Z" fill="#82310B"/>
<path d="M37.0761 27.5171L39.4066 26.1596L39.3989 28.991L37.0684 30.3485L37.0761 27.5171Z" fill="#C44A10"/>
<path d="M34.6045 26.0899L36.9428 24.7401L39.4054 26.1597L37.0748 27.5172L34.6045 26.0899Z" fill="#FF8D23"/>
<path d="M37.0758 27.5172L37.068 30.3486L34.5977 28.929L34.6054 26.0899L37.0758 27.5172Z" fill="#82310B"/>
<path d="M34.5586 28.9757L36.8891 27.6259L36.8813 30.4574L34.5508 31.8071L34.5586 28.9757Z" fill="#C44A10"/>
<path d="M32.0889 27.556L34.4271 26.1985L36.8897 27.6259L34.5592 28.9756L32.0889 27.556Z" fill="#FF8D23"/>
<path d="M34.5582 28.9756L34.5504 31.807L32.0801 30.3874L32.0878 27.556L34.5582 28.9756Z" fill="#82310B"/>
<path d="M31.955 30.488L34.2855 29.1305L34.2778 31.9619L31.9473 33.3194L31.955 30.488Z" fill="#C44A10"/>
<path d="M29.4863 29.0606L31.8246 27.7108L34.2872 29.1304L31.9567 30.4879L29.4863 29.0606Z" fill="#FF8D23"/>
<path d="M31.9556 30.4881L31.9479 33.3195L29.4775 31.8922L29.4853 29.0608L31.9556 30.4881Z" fill="#82310B"/>
<path d="M29.4394 31.9464L31.7699 30.5889L31.7622 33.4203L29.4316 34.7778L29.4394 31.9464Z" fill="#C44A10"/>
<path d="M26.9688 30.5189L29.307 29.1691L31.7696 30.5887L29.4391 31.9462L26.9688 30.5189Z" fill="#FF8D23"/>
<path d="M29.439 31.9465L29.4313 34.7779L26.9609 33.3583L26.9687 30.5192L29.439 31.9465Z" fill="#82310B"/>
<path d="M26.8837 33.4357L29.2143 32.086L29.2065 34.9174L26.876 36.2671L26.8837 33.4357Z" fill="#C44A10"/>
<path d="M24.4131 32.0163L26.7436 30.6588L29.2139 32.0861L26.8834 33.4359L24.4131 32.0163Z" fill="#FF8D23"/>
<path d="M26.8834 33.4358L26.8756 36.2672L24.4053 34.8476L24.413 32.0162L26.8834 33.4358Z" fill="#82310B"/>
<path d="M24.3671 34.8943L26.6976 33.5446L26.6898 36.376L24.3516 37.7335L24.3671 34.8943Z" fill="#C44A10"/>
<path d="M21.8955 33.4746L24.226 32.1171L26.6964 33.5445L24.3659 34.8942L21.8955 33.4746Z" fill="#FF8D23"/>
<path d="M24.3668 34.8942L24.3512 37.7334L21.8887 36.306L21.8964 33.4746L24.3668 34.8942Z" fill="#82310B"/>
<path d="M21.749 36.3836L24.0873 35.026L24.0795 37.8574L21.7412 39.215L21.749 36.3836Z" fill="#C44A10"/>
<path d="M19.2852 34.9561L21.6157 33.6064L24.086 35.0259L21.7477 36.3835L19.2852 34.9561Z" fill="#FF8D23"/>
<path d="M21.7487 36.3834L21.7409 39.2148L19.2783 37.7952L19.2861 34.9561L21.7487 36.3834Z" fill="#82310B"/>
<path d="M19.2314 37.8419L21.5697 36.4921L21.5619 39.3235L19.2236 40.6733L19.2314 37.8419Z" fill="#C44A10"/>
<path d="M16.7686 36.4222L19.0991 35.0647L21.5694 36.492L19.2311 37.8418L16.7686 36.4222Z" fill="#FF8D23"/>
<path d="M19.2311 37.8418L19.2233 40.6732L16.7607 39.2536L16.7685 36.4222L19.2311 37.8418Z" fill="#82310B"/>
<path d="M16.6757 39.3313L19.0062 37.9815L18.9985 40.8129L16.668 42.1704L16.6757 39.3313Z" fill="#C44A10"/>
<path d="M14.2041 37.9116L16.5346 36.5541L19.005 37.9814L16.6744 39.3312L14.2041 37.9116Z" fill="#FF8D23"/>
<path d="M16.6754 39.3311L16.6676 42.1703L14.1973 40.743L14.205 37.9116L16.6754 39.3311Z" fill="#82310B"/>
<path d="M16.4897 39.4396V39.6801L16.4819 42.0615V42.1469V42.271L14.8428 43.2251L14.3456 42.9381L14.1514 42.8295L14.1591 40.7971L14.2213 40.7583L16.4897 39.4396Z" fill="#82310B"/>
<path d="M11.6895 39.3701L14.02 38.0203L16.4903 39.4399L14.1598 40.7974L11.6895 39.3701Z" fill="#FF8D23"/>
<path d="M14.1588 40.7974L14.151 42.8298L11.6807 41.3404L11.6884 39.3701L13.3897 40.3553L14.1588 40.7974Z" fill="#F9781A"/>
<path d="M55.0214 20.2104L57.3597 18.8606L57.352 21.692L55.0137 23.0418L55.0214 20.2104Z" fill="#C44A10"/>
<path d="M52.5508 18.7906L54.8891 17.4331L57.3594 18.8604L55.0211 20.2102L52.5508 18.7906Z" fill="#FF8D23"/>
<path d="M55.0211 20.2102L55.0133 23.0416L52.543 21.6221L52.5507 18.7906L55.0211 20.2102Z" fill="#82310B"/>
<path d="M52.5039 21.6685L54.8422 20.3187L54.8344 23.1501L52.4961 24.5076L52.5039 21.6685Z" fill="#C44A10"/>
<path d="M50.0332 20.2489L52.3715 18.8914L54.8418 20.3187L52.5035 21.6685L50.0332 20.2489Z" fill="#FF8D23"/>
<path d="M52.5035 21.6684L52.4957 24.5075L50.0254 23.0802L50.0332 20.2488L52.5035 21.6684Z" fill="#82310B"/>
<path d="M49.9482 23.1655L52.2787 21.808L52.2709 24.6394L49.9404 25.9969L49.9482 23.1655Z" fill="#C44A10"/>
<path d="M47.4775 21.738L49.8081 20.3882L52.2784 21.8078L49.9479 23.1653L47.4775 21.738Z" fill="#FF8D23"/>
<path d="M49.9478 23.1656L49.9401 25.997L47.4697 24.5774L47.4775 21.7383L49.9478 23.1656Z" fill="#82310B"/>
<path d="M47.4306 24.6238L49.7611 23.274L49.7534 26.1054L47.4229 27.4552L47.4306 24.6238Z" fill="#C44A10"/>
<path d="M44.96 23.2044L47.2905 21.8469L49.7608 23.2742L47.4303 24.624L44.96 23.2044Z" fill="#FF8D23"/>
<path d="M47.4303 24.6239L47.4225 27.4553L44.9521 26.0357L44.9599 23.2043L47.4303 24.6239Z" fill="#82310B"/>
<path d="M44.8193 26.1059L47.1498 24.7561L47.142 27.5875L44.8115 28.9451L44.8193 26.1059Z" fill="#C44A10"/>
<path d="M42.3486 24.6861L44.6791 23.3286L47.1495 24.7559L44.819 26.1057L42.3486 24.6861Z" fill="#FF8D23"/>
<path d="M44.8189 26.1058L44.8112 28.9449L42.3408 27.5176L42.3486 24.6862L44.8189 26.1058Z" fill="#82310B"/>
<path d="M42.3027 27.5719L44.6332 26.2144L44.6254 29.0458L42.2949 30.4033L42.3027 27.5719Z" fill="#C44A10"/>
<path d="M39.832 26.1447L42.1625 24.7949L44.6329 26.2145L42.3024 27.572L39.832 26.1447Z" fill="#FF8D23"/>
<path d="M42.3023 27.572L42.2946 30.4034L39.8242 28.9761L39.832 26.1447L42.3023 27.572Z" fill="#82310B"/>
<path d="M39.7402 29.061L42.0707 27.7112L42.0629 30.5426L39.7324 31.8924L39.7402 29.061Z" fill="#C44A10"/>
<path d="M37.2686 27.6415L39.6068 26.284L42.0694 27.7113L39.7389 29.0611L37.2686 27.6415Z" fill="#FF8D23"/>
<path d="M39.7398 29.0611L39.7321 31.8925L37.2617 30.4729L37.2695 27.6415L39.7398 29.0611Z" fill="#82310B"/>
<path d="M37.2226 30.5194L39.5531 29.1696L39.5454 32.001L37.2148 33.3585L37.2226 30.5194Z" fill="#C44A10"/>
<path d="M34.751 29.0998L37.0893 27.7423L39.5518 29.1696L37.2213 30.5194L34.751 29.0998Z" fill="#FF8D23"/>
<path d="M37.2222 30.5197L37.2145 33.3588L34.7441 31.9315L34.7519 29.1001L37.2222 30.5197Z" fill="#82310B"/>
<path d="M34.6201 32.0322L36.9506 30.6747L36.9428 33.5061L34.6123 34.8636L34.6201 32.0322Z" fill="#C44A10"/>
<path d="M32.1484 30.605L34.4867 29.2553L36.9493 30.6749L34.6188 32.0324L32.1484 30.605Z" fill="#FF8D23"/>
<path d="M34.6197 32.0323L34.6119 34.8637L32.1416 33.4441L32.1494 30.605L34.6197 32.0323Z" fill="#82310B"/>
<path d="M32.1025 33.4906L34.433 32.1408L34.4252 34.9722L32.0947 36.322L32.1025 33.4906Z" fill="#C44A10"/>
<path d="M29.6318 32.0708L31.9701 30.7133L34.4327 32.1407L32.1022 33.4904L29.6318 32.0708Z" fill="#FF8D23"/>
<path d="M32.1021 33.4907L32.0944 36.3221L29.624 34.9025L29.6318 32.0711L32.1021 33.4907Z" fill="#82310B"/>
<path d="M29.5468 34.9798L31.8773 33.63L31.8696 36.4614L29.5391 37.8189L29.5468 34.9798Z" fill="#C44A10"/>
<path d="M27.0762 33.5602L29.4067 32.2026L31.877 33.63L29.5465 34.9797L27.0762 33.5602Z" fill="#FF8D23"/>
<path d="M29.5465 34.9799L29.5387 37.819L27.0684 36.3917L27.0761 33.5603L29.5465 34.9799Z" fill="#82310B"/>
<path d="M27.0302 36.4461L29.3607 35.0885L29.3529 37.9199L27.0146 39.2775L27.0302 36.4461Z" fill="#C44A10"/>
<path d="M24.5586 35.0186L26.8891 33.6689L29.3594 35.0885L27.0289 36.446L24.5586 35.0186Z" fill="#FF8D23"/>
<path d="M27.0299 36.4457L27.0143 39.2771L24.5518 37.8497L24.5595 35.0183L27.0299 36.4457Z" fill="#82310B"/>
<path d="M24.4121 37.9278L26.7503 36.578L26.7426 39.4094L24.4043 40.7592L24.4121 37.9278Z" fill="#C44A10"/>
<path d="M21.9502 36.5081L24.2807 35.1506L26.751 36.5779L24.4128 37.9277L21.9502 36.5081Z" fill="#FF8D23"/>
<path d="M24.4118 37.9276L24.404 40.759L21.9414 39.3395L21.9492 36.5081L24.4118 37.9276Z" fill="#82310B"/>
<path d="M21.8955 39.3861L24.2337 38.0364L24.226 40.8678L21.8877 42.2253L21.8955 39.3861Z" fill="#C44A10"/>
<path d="M19.4316 37.9664L21.7622 36.6089L24.2325 38.0363L21.8942 39.386L19.4316 37.9664Z" fill="#FF8D23"/>
<path d="M21.8951 39.386L21.8874 42.2252L19.4248 40.7978L19.4326 37.9664L21.8951 39.386Z" fill="#82310B"/>
<path d="M19.3388 40.8834L21.6693 39.5258L21.6616 42.3572L19.3311 43.7148L19.3388 40.8834Z" fill="#C44A10"/>
<path d="M16.8682 39.456L19.1987 38.1062L21.669 39.5258L19.3385 40.8833L16.8682 39.456Z" fill="#FF8D23"/>
<path d="M19.3385 40.8837L19.3307 43.7151L16.8604 42.2878L16.8681 39.4564L19.3385 40.8837Z" fill="#82310B"/>
<path d="M19.1527 40.9922V41.2637L19.145 43.6064V43.7072V43.8236L17.5291 44.7544L17.032 44.4674L16.8145 44.3511L16.8222 42.3419L16.8844 42.3031L19.1527 40.9922Z" fill="#82310B"/>
<path d="M14.3516 40.9223L16.6821 39.5648L19.1524 40.9921L16.8219 42.3419L14.3516 40.9223Z" fill="#FF8D23"/>
<path d="M16.8219 42.342L16.8141 44.3512L14.8409 43.2264L14.3438 42.9393L14.3515 40.9225L16.4801 42.1481L16.8219 42.342Z" fill="#F9781A"/>
<path d="M57.7099 21.7845L60.0404 20.4347L60.0327 23.2661L57.7021 24.6159L57.7099 21.7845Z" fill="#C44A10"/>
<path d="M55.2393 20.3648L57.5698 19.0073L60.0401 20.4346L57.7096 21.7844L55.2393 20.3648Z" fill="#FF8D23"/>
<path d="M57.7096 21.7843L57.7018 24.6157L55.2314 23.1961L55.2392 20.3647L57.7096 21.7843Z" fill="#82310B"/>
<path d="M55.1923 23.2428L57.5229 21.8931L57.5151 24.7245L55.1846 26.082L55.1923 23.2428Z" fill="#C44A10"/>
<path d="M52.7217 21.8233L55.0522 20.4658L57.5225 21.8931L55.192 23.2429L52.7217 21.8233Z" fill="#FF8D23"/>
<path d="M55.192 23.2429L55.1842 26.0821L52.7139 24.6547L52.7216 21.8233L55.192 23.2429Z" fill="#82310B"/>
<path d="M52.6289 24.7396L54.9594 23.382L54.9516 26.2135L52.6211 27.571L52.6289 24.7396Z" fill="#C44A10"/>
<path d="M50.1572 23.3122L52.4955 21.9624L54.9581 23.382L52.6276 24.7395L50.1572 23.3122Z" fill="#FF8D23"/>
<path d="M52.6285 24.7394L52.6207 27.5708L50.1504 26.1435L50.1582 23.3121L52.6285 24.7394Z" fill="#82310B"/>
<path d="M50.1123 26.1979L52.4428 24.8404L52.435 27.6796L50.1045 29.0293L50.1123 26.1979Z" fill="#C44A10"/>
<path d="M47.6416 24.7783L49.9799 23.4207L52.4424 24.8403L50.1119 26.1978L47.6416 24.7783Z" fill="#FF8D23"/>
<path d="M50.1119 26.198L50.1041 29.0294L47.6338 27.6098L47.6416 24.7784L50.1119 26.198Z" fill="#82310B"/>
<path d="M47.5019 27.6804L49.8324 26.3307L49.8247 29.1621L47.4941 30.5196L47.5019 27.6804Z" fill="#C44A10"/>
<path d="M45.0312 26.2605L47.3695 24.903L49.8321 26.3304L47.5016 27.6801L45.0312 26.2605Z" fill="#FF8D23"/>
<path d="M47.5015 27.6803L47.4938 30.5194L45.0234 29.0921L45.0312 26.2607L47.5015 27.6803Z" fill="#82310B"/>
<path d="M44.9843 29.146L47.3148 27.7885L47.3071 30.6199L44.9766 31.9774L44.9843 29.146Z" fill="#C44A10"/>
<path d="M42.5137 27.7188L44.8442 26.369L47.3145 27.7886L44.984 29.1461L42.5137 27.7188Z" fill="#FF8D23"/>
<path d="M44.984 29.1461L44.9762 31.9775L42.5059 30.5502L42.5136 27.7188L44.984 29.1461Z" fill="#82310B"/>
<path d="M42.4209 30.6355L44.7591 29.278L44.7514 32.1172L42.4131 33.4669L42.4209 30.6355Z" fill="#C44A10"/>
<path d="M39.957 29.2159L42.2875 27.8584L44.7579 29.278L42.4196 30.6355L39.957 29.2159Z" fill="#FF8D23"/>
<path d="M42.4205 30.6356L42.4128 33.467L39.9502 32.0474L39.958 29.216L42.4205 30.6356Z" fill="#82310B"/>
<path d="M39.9043 32.0941L42.2425 30.7443L42.2348 33.5757L39.8965 34.9255L39.9043 32.0941Z" fill="#C44A10"/>
<path d="M37.4404 30.6745L39.7709 29.317L42.2413 30.7443L39.903 32.0941L37.4404 30.6745Z" fill="#FF8D23"/>
<path d="M39.9039 32.094L39.8962 34.9254L37.4336 33.5058L37.4414 30.6744L39.9039 32.094Z" fill="#82310B"/>
<path d="M37.3105 33.6073L39.641 32.2498L39.6332 35.0812L37.2949 36.4387L37.3105 33.6073Z" fill="#C44A10"/>
<path d="M34.8389 32.1797L37.1694 30.8299L39.6397 32.2495L37.3092 33.607L34.8389 32.1797Z" fill="#FF8D23"/>
<path d="M37.3101 33.6075L37.2946 36.4389L34.832 35.0115L34.8398 32.1801L37.3101 33.6075Z" fill="#82310B"/>
<path d="M34.7851 35.0655L37.1234 33.708L37.1156 36.5471L34.7773 37.8969L34.7851 35.0655Z" fill="#C44A10"/>
<path d="M32.3223 33.6459L34.6528 32.2883L37.1231 33.7079L34.7848 35.0654L32.3223 33.6459Z" fill="#FF8D23"/>
<path d="M34.7848 35.0655L34.777 37.8969L32.3145 36.4774L32.3222 33.646L34.7848 35.0655Z" fill="#82310B"/>
<path d="M32.2294 36.5551L34.56 35.2053L34.5522 38.0367L32.2217 39.3942L32.2294 36.5551Z" fill="#C44A10"/>
<path d="M29.7588 35.1352L32.0971 33.7777L34.5596 35.205L32.2291 36.5548L29.7588 35.1352Z" fill="#FF8D23"/>
<path d="M32.2291 36.5549L32.2213 39.3941L29.751 37.9667L29.7587 35.1353L32.2291 36.5549Z" fill="#82310B"/>
<path d="M29.7128 38.0209L32.0434 36.6634L32.0356 39.4948L29.7051 40.8523L29.7128 38.0209Z" fill="#C44A10"/>
<path d="M27.2412 36.5932L29.5717 35.2435L32.0421 36.663L29.7116 38.0206L27.2412 36.5932Z" fill="#FF8D23"/>
<path d="M29.7125 38.021L29.7047 40.8524L27.2344 39.425L27.2421 36.5936L29.7125 38.021Z" fill="#82310B"/>
<path d="M27.1025 39.5025L29.433 38.1449L29.4252 40.9841L27.0947 42.3339L27.1025 39.5025Z" fill="#C44A10"/>
<path d="M24.6318 38.083L26.9623 36.7254L29.4327 38.145L27.1022 39.5025L24.6318 38.083Z" fill="#FF8D23"/>
<path d="M27.1021 39.5025L27.0944 42.3339L24.624 40.9143L24.6318 38.0829L27.1021 39.5025Z" fill="#82310B"/>
<path d="M24.5849 40.9608L26.9154 39.611L26.9077 42.4424L24.5771 43.7922L24.5849 40.9608Z" fill="#C44A10"/>
<path d="M22.1143 39.5411L24.4448 38.1835L26.9151 39.6109L24.5846 40.9606L22.1143 39.5411Z" fill="#FF8D23"/>
<path d="M24.5846 40.9606L24.5768 43.792L22.1064 42.3724L22.1142 39.541L24.5846 40.9606Z" fill="#82310B"/>
<path d="M22.0214 42.458L24.3597 41.1004L24.352 43.9318L22.0137 45.2894L22.0214 42.458Z" fill="#C44A10"/>
<path d="M19.5498 41.0305L21.8881 39.6807L24.3584 41.1003L22.0201 42.4578L19.5498 41.0305Z" fill="#FF8D23"/>
<path d="M22.0211 42.4581L22.0133 45.2895L19.543 43.8621L19.5507 41.0307L22.0211 42.4581Z" fill="#82310B"/>
<path d="M21.8431 42.5588L21.8353 42.7993V45.1808L21.8276 45.2661V45.398L20.2584 46.3056L19.699 45.9875L19.4971 45.8789L19.5048 43.9163L19.5748 43.8775L21.8431 42.5588Z" fill="#07334E"/>
<path d="M17.0342 42.489L19.3725 41.1393L21.8428 42.5588L19.5045 43.9163L17.0342 42.489Z" fill="#FF8D23"/>
<path d="M19.5045 43.9167L19.4968 45.8792L17.5314 44.7544L17.0342 44.4674V42.4893L19.1472 43.7072L19.5045 43.9167Z" fill="#1A4B6C"/>
<path d="M60.373 23.3284L62.7035 21.9787L62.6958 24.8101L60.3652 26.1676L60.373 23.3284Z" fill="#C44A10"/>
<path d="M57.9023 21.9088L60.2329 20.5513L62.7032 21.9786L60.3727 23.3284L57.9023 21.9088Z" fill="#FF8D23"/>
<path d="M60.3726 23.3283L60.3649 26.1674L57.8945 24.7401L57.9023 21.9087L60.3726 23.3283Z" fill="#82310B"/>
<path d="M57.8564 24.7945L60.1869 23.437L60.1791 26.2684L57.8486 27.6259L57.8564 24.7945Z" fill="#C44A10"/>
<path d="M55.3848 23.3673L57.7153 22.0175L60.1856 23.4371L57.8551 24.7946L55.3848 23.3673Z" fill="#FF8D23"/>
<path d="M57.856 24.7946L57.8483 27.626L55.3779 26.1986L55.3857 23.3672L57.856 24.7946Z" fill="#82310B"/>
<path d="M55.2929 26.2835L57.6234 24.926L57.6157 27.7652L55.2852 29.1149L55.2929 26.2835Z" fill="#C44A10"/>
<path d="M52.8223 24.864L55.1605 23.5065L57.6231 24.9261L55.2926 26.2836L52.8223 24.864Z" fill="#FF8D23"/>
<path d="M55.2926 26.2836L55.2848 29.115L52.8145 27.6955L52.8222 24.864L55.2926 26.2836Z" fill="#82310B"/>
<path d="M52.7763 27.7421L55.1068 26.3924L55.0991 29.2238L52.7686 30.5735L52.7763 27.7421Z" fill="#C44A10"/>
<path d="M50.3057 26.3225L52.6439 24.965L55.1065 26.3923L52.776 27.7421L50.3057 26.3225Z" fill="#FF8D23"/>
<path d="M52.776 27.742L52.7682 30.5734L50.2979 29.1538L50.3056 26.3224L52.776 27.742Z" fill="#82310B"/>
<path d="M50.1669 29.2317L52.4975 27.8741L52.4897 30.7055L50.1592 32.0631L50.1669 29.2317Z" fill="#C44A10"/>
<path d="M47.6973 27.8043L50.0355 26.4545L52.4981 27.8741L50.1676 29.2316L47.6973 27.8043Z" fill="#FF8D23"/>
<path d="M50.1666 29.2318L50.1588 32.0632L47.6885 30.6358L47.6962 27.8044L50.1666 29.2318Z" fill="#82310B"/>
<path d="M47.6494 30.6898L49.9799 29.3323L49.9721 32.1715L47.6416 33.5212L47.6494 30.6898Z" fill="#C44A10"/>
<path d="M45.1787 29.2626L47.5092 27.9128L49.9796 29.3324L47.6491 30.6899L45.1787 29.2626Z" fill="#FF8D23"/>
<path d="M47.649 30.6899L47.6412 33.5213L45.1709 32.1017L45.1787 29.2626L47.649 30.6899Z" fill="#82310B"/>
<path d="M45.0859 32.1796L47.4242 30.8298L47.4164 33.6612L45.0781 35.011L45.0859 32.1796Z" fill="#C44A10"/>
<path d="M42.623 30.76L44.9536 29.4025L47.4239 30.8299L45.0856 32.1796L42.623 30.76Z" fill="#FF8D23"/>
<path d="M45.0856 32.1795L45.0778 35.0109L42.6152 33.5913L42.623 30.7599L45.0856 32.1795Z" fill="#82310B"/>
<path d="M42.5693 33.6455L44.9076 32.2879L44.8998 35.1193L42.5615 36.4769L42.5693 33.6455Z" fill="#C44A10"/>
<path d="M40.1055 32.2181L42.436 30.8683L44.9063 32.2879L42.568 33.6454L40.1055 32.2181Z" fill="#FF8D23"/>
<path d="M42.569 33.6458L42.5612 36.4772L40.0986 35.0499L40.1064 32.2184L42.569 33.6458Z" fill="#82310B"/>
<path d="M39.9726 35.1509L42.3031 33.7934L42.2953 36.6326L39.957 37.9824L39.9726 35.1509Z" fill="#C44A10"/>
<path d="M37.502 33.7311L39.8325 32.3736L42.3028 33.7932L39.9723 35.1507L37.502 33.7311Z" fill="#FF8D23"/>
<path d="M39.9722 35.151L39.9567 37.9824L37.4941 36.5628L37.5019 33.7314L39.9722 35.151Z" fill="#82310B"/>
<path d="M37.4482 36.609L39.7865 35.2593L39.7787 38.0907L37.4404 39.4404L37.4482 36.609Z" fill="#C44A10"/>
<path d="M34.9844 35.1894L37.3149 33.8319L39.7852 35.2592L37.4469 36.609L34.9844 35.1894Z" fill="#FF8D23"/>
<path d="M37.4479 36.6089L37.4401 39.4403L34.9775 38.0207L34.9853 35.1893L37.4479 36.6089Z" fill="#82310B"/>
<path d="M34.8925 38.106L37.2231 36.7485L37.2153 39.5799L34.8848 40.9374L34.8925 38.106Z" fill="#C44A10"/>
<path d="M32.4229 36.6787L34.7611 35.329L37.2237 36.7486L34.8932 38.1061L32.4229 36.6787Z" fill="#FF8D23"/>
<path d="M34.8922 38.1061L34.8844 40.9375L32.4141 39.5102L32.4218 36.6788L34.8922 38.1061Z" fill="#82310B"/>
<path d="M32.3759 39.5646L34.7064 38.2071L34.6987 41.0463L32.3682 42.3961L32.3759 39.5646Z" fill="#C44A10"/>
<path d="M29.9043 38.1372L32.2348 36.7875L34.7052 38.2071L32.3746 39.5646L29.9043 38.1372Z" fill="#FF8D23"/>
<path d="M32.3756 39.5647L32.3678 42.3961L29.8975 40.9766L29.9052 38.1374L32.3756 39.5647Z" fill="#82310B"/>
<path d="M29.7656 41.0467L32.0961 39.6969L32.0883 42.5283L29.7578 43.8781L29.7656 41.0467Z" fill="#C44A10"/>
<path d="M27.2949 39.6269L29.6254 38.2694L32.0958 39.6967L29.7653 41.0465L27.2949 39.6269Z" fill="#FF8D23"/>
<path d="M29.7652 41.0465L29.7575 43.8779L27.2871 42.4583L27.2949 39.627L29.7652 41.0465Z" fill="#82310B"/>
<path d="M27.249 42.5125L29.5795 41.155L29.5717 43.9864L27.2412 45.3439L27.249 42.5125Z" fill="#C44A10"/>
<path d="M24.7783 41.0851L27.1088 39.7354L29.5792 41.155L27.2487 42.5125L24.7783 41.0851Z" fill="#FF8D23"/>
<path d="M27.2486 42.5126L27.2409 45.344L24.7705 43.9166L24.7783 41.0852L27.2486 42.5126Z" fill="#82310B"/>
<path d="M24.6845 44.0018L27.0228 42.6443L27.015 45.4834L24.6768 46.8332L24.6845 44.0018Z" fill="#C44A10"/>
<path d="M22.2148 42.5743L24.5531 41.2245L27.0235 42.6441L24.6852 44.0017L22.2148 42.5743Z" fill="#FF8D23"/>
<path d="M24.6842 44.0021L24.6764 46.8335L22.2061 45.4139L22.2138 42.5748L24.6842 44.0021Z" fill="#82310B"/>
<path d="M24.5062 44.1106L24.4985 44.3278V46.7325V46.7481V46.942L22.9448 47.8418L22.401 47.5315L22.168 47.3997V45.4604L22.2301 45.4216L24.5062 44.1106Z" fill="#82310B"/>
<path d="M19.6973 44.0406L22.0355 42.683L24.5059 44.1104L22.1676 45.4601L19.6973 44.0406Z" fill="#FF8D23"/>
<path d="M22.1676 45.4604V47.3997L20.2566 46.306L19.6973 45.9879V44.0409L21.8258 45.2665L22.1676 45.4604Z" fill="#F9781A"/>
<path d="M63.0771 24.8333L65.4076 23.4835L65.3998 26.3149L63.0693 27.6724L63.0771 24.8333Z" fill="#C44A10"/>
<path d="M60.6074 23.4136L62.9379 22.0561L65.4083 23.4834L63.0778 24.8332L60.6074 23.4136Z" fill="#FF8D23"/>
<path d="M63.0767 24.8331L63.069 27.6723L60.5986 26.2449L60.6064 23.4135L63.0767 24.8331Z" fill="#82310B"/>
<path d="M60.5595 26.2993L62.89 24.9418L62.8823 27.7732L60.5518 29.1307L60.5595 26.2993Z" fill="#1A4B6C"/>
<path d="M58.0889 24.8721L60.4194 23.5223L62.8897 24.9419L60.5592 26.2994L58.0889 24.8721Z" fill="#2B3E4F"/>
<path d="M60.5592 26.2994L60.5514 29.1308L58.0811 27.7035L58.0888 24.8721L60.5592 26.2994Z" fill="#07334E"/>
<path d="M57.9961 27.7886L60.3343 26.4388L60.3266 29.2702L57.9883 30.62L57.9961 27.7886Z" fill="#C44A10"/>
<path d="M55.5254 26.369L57.8637 25.0115L60.334 26.4388L57.9957 27.7886L55.5254 26.369Z" fill="#FF8D23"/>
<path d="M57.9957 27.7884L57.9879 30.6198L55.5176 29.2002L55.5253 26.3688L57.9957 27.7884Z" fill="#82310B"/>
<path d="M55.4794 29.2469L57.8177 27.8972L57.8022 30.7286L55.4717 32.0861L55.4794 29.2469Z" fill="#C44A10"/>
<path d="M53.0098 27.8276L55.348 26.47L57.8184 27.8974L55.4801 29.2471L53.0098 27.8276Z" fill="#FF8D23"/>
<path d="M55.4791 29.247L55.4713 32.0862L53.001 30.6589L53.0087 27.8275L55.4791 29.247Z" fill="#82310B"/>
<path d="M52.8681 30.7362L55.1986 29.3787L55.1909 32.2101L52.8604 33.5676L52.8681 30.7362Z" fill="#C44A10"/>
<path d="M50.3975 29.3092L52.7357 27.9594L55.1983 29.379L52.8678 30.7365L50.3975 29.3092Z" fill="#FF8D23"/>
<path d="M52.8678 30.7364L52.86 33.5678L50.3896 32.1404L50.3974 29.309L52.8678 30.7364Z" fill="#82310B"/>
<path d="M50.3515 32.1947L52.682 30.8372L52.6743 33.6763L50.3438 35.0261L50.3515 32.1947Z" fill="#C44A10"/>
<path d="M47.8818 30.775L50.2201 29.4174L52.6827 30.837L50.3522 32.1946L47.8818 30.775Z" fill="#FF8D23"/>
<path d="M50.3512 32.1945L50.3434 35.0259L47.873 33.6063L47.8808 30.7749L50.3512 32.1945Z" fill="#82310B"/>
<path d="M47.7958 33.6842L50.1263 32.3345L50.1186 35.1659L47.7803 36.5234L47.7958 33.6842Z" fill="#C7C7C7"/>
<path d="M45.3262 32.2647L47.6567 30.9071L50.127 32.3345L47.7965 33.6842L45.3262 32.2647Z" fill="#808080"/>
<path d="M47.7955 33.6841L47.78 36.5232L45.3174 35.0959L45.3251 32.2645L47.7955 33.6841Z" fill="#808080"/>
<path d="M45.2714 35.1503L47.6097 33.7928L47.6019 36.6242L45.2637 37.9817L45.2714 35.1503Z" fill="#C44A10"/>
<path d="M42.8076 33.7227L45.1381 32.373L47.6085 33.7925L45.2702 35.1501L42.8076 33.7227Z" fill="#FF8D23"/>
<path d="M45.2711 35.1502L45.2634 37.9816L42.8008 36.5542L42.8086 33.7228L45.2711 35.1502Z" fill="#82310B"/>
<path d="M42.6767 36.6546L45.0072 35.3048L44.9995 38.1362L42.6689 39.486L42.6767 36.6546Z" fill="#C7C7C7"/>
<path d="M40.2061 35.235L42.5366 33.8775L45.0069 35.3048L42.6764 36.6546L40.2061 35.235Z" fill="#808080"/>
<path d="M42.6764 36.6542L42.6686 39.4856L40.1982 38.066L40.206 35.2346L42.6764 36.6542Z" fill="#808080"/>
<path d="M40.1591 38.1127L42.4896 36.763L42.4819 39.5944L40.1514 40.9519L40.1591 38.1127Z" fill="#1A4B6C"/>
<path d="M37.6875 36.6933L40.018 35.3358L42.4884 36.7631L40.1578 38.1129L37.6875 36.6933Z" fill="#2B3E4F"/>
<path d="M40.1588 38.1128L40.151 40.952L37.6807 39.5246L37.6884 36.6932L40.1588 38.1128Z" fill="#07334E"/>
<path d="M37.5957 39.6106L39.9262 38.2531L39.9184 41.0845L37.5879 42.442L37.5957 39.6106Z" fill="#C44A10"/>
<path d="M35.126 38.1831L37.4643 36.8334L39.9268 38.253L37.5963 39.6105L35.126 38.1831Z" fill="#FF8D23"/>
<path d="M37.5953 39.6105L37.5875 42.4419L35.1172 41.0146L35.125 38.1832L37.5953 39.6105Z" fill="#82310B"/>
<path d="M35.0781 41.0692L37.4086 39.7195L37.4008 42.5508L35.0703 43.9006L35.0781 41.0692Z" fill="#1A4B6C"/>
<path d="M32.6084 39.6494L34.9467 38.2919L37.4093 39.7193L35.0787 41.069L32.6084 39.6494Z" fill="#2B3E4F"/>
<path d="M35.0777 41.0691L35.07 43.9005L32.5996 42.4809L32.6074 39.6495L35.0777 41.0691Z" fill="#07334E"/>
<path d="M32.4687 42.5497L34.7992 41.1999L34.7915 44.0313L32.4609 45.3888L32.4687 42.5497Z" fill="#C44A10"/>
<path d="M29.999 41.1306L32.3373 39.773L34.7999 41.2004L32.4694 42.5501L29.999 41.1306Z" fill="#FF8D23"/>
<path d="M32.4683 42.55L32.4606 45.3892L29.9902 43.9618L29.998 41.1304L32.4683 42.55Z" fill="#82310B"/>
<path d="M29.9521 44.0162L32.2826 42.6587L32.2748 45.4901L29.9443 46.8476L29.9521 44.0162Z" fill="#C44A10"/>
<path d="M27.4814 42.5889L29.812 41.2391L32.2823 42.6587L29.9518 44.0162L27.4814 42.5889Z" fill="#FF8D23"/>
<path d="M29.9517 44.0163L29.944 46.8477L27.4736 45.4204L27.4814 42.589L29.9517 44.0163Z" fill="#82310B"/>
<path d="M27.3867 45.5062L29.725 44.1564L29.7172 46.9878L27.3789 48.3376L27.3867 45.5062Z" fill="#1A4B6C"/>
<path d="M24.9248 44.0864L27.2553 42.7289L29.7257 44.1562L27.3874 45.506L24.9248 44.0864Z" fill="#2B3E4F"/>
<path d="M27.3873 45.506L27.3796 48.3374L24.917 46.9178L24.9248 44.0864L27.3873 45.506Z" fill="#07334E"/>
<path d="M24.8711 46.9645L27.2093 45.6148L27.2016 48.4462L24.8633 49.7959L24.8711 46.9645Z" fill="#C7C7C7"/>
<path d="M22.4072 45.5448L24.7377 44.1873L27.2081 45.6146L24.8698 46.9644L22.4072 45.5448Z" fill="#FF8D23"/>
<path d="M24.8707 46.9644L24.863 49.7958L24.226 49.4312L24.1871 49.3304L24.0628 48.9813L23.822 48.3452L23.7676 48.3142L23.5812 48.2056L23.2161 47.9961L22.9442 47.841L22.4004 47.5307L22.4082 45.5448L24.4979 46.7472L24.8707 46.9644Z" fill="#C7C7C7"/>
<path d="M52.3642 15.8341L54.7025 14.4766L54.6947 17.308L52.3564 18.6655L52.3642 15.8341Z" fill="#1A4B6C"/>
<path d="M49.9014 14.4068L52.2319 13.057L54.7022 14.4766L52.3639 15.8341L49.9014 14.4068Z" fill="#4B86A6"/>
<path d="M52.3639 15.834L52.3561 18.6654L49.8936 17.2381L49.9013 14.4067L52.3639 15.834Z" fill="#07334E"/>
<path d="M49.8476 17.2925L52.1859 15.935L52.1781 18.7664L49.8398 20.1239L49.8476 17.2925Z" fill="#C44A10"/>
<path d="M47.3838 15.8654L49.7143 14.5156L52.1846 15.9352L49.8464 17.2927L47.3838 15.8654Z" fill="#FF8D23"/>
<path d="M49.8472 17.2926L49.8395 20.124L47.3691 18.7045L47.3847 15.8653L49.8472 17.2926Z" fill="#82310B"/>
<path d="M47.2919 18.7819L49.6225 17.4321L49.6147 20.2635L47.2842 21.6133L47.2919 18.7819Z" fill="#1A4B6C"/>
<path d="M44.8213 17.3623L47.1518 16.0048L49.6221 17.4321L47.2916 18.7819L44.8213 17.3623Z" fill="#4B86A6"/>
<path d="M47.2916 18.7817L47.2838 21.6131L44.8135 20.1936L44.8212 17.3622L47.2916 18.7817Z" fill="#07334E"/>
<path d="M44.7744 20.2479L47.1049 18.8904L47.0971 21.7218L44.7666 23.0793L44.7744 20.2479Z" fill="#C44A10"/>
<path d="M42.3037 18.8205L44.6342 17.4707L47.1046 18.8903L44.7741 20.2478L42.3037 18.8205Z" fill="#FF8D23"/>
<path d="M44.774 20.2483L44.7662 23.0797L42.2959 21.6523L42.3037 18.8209L44.774 20.2483Z" fill="#82310B"/>
<path d="M42.165 21.7295L44.4955 20.3719L44.4877 23.2033L42.1572 24.5609L42.165 21.7295Z" fill="#9C9C9C"/>
<path d="M39.6943 20.3023L42.0248 18.9526L44.4952 20.3722L42.1647 21.7297L39.6943 20.3023Z" fill="white"/>
<path d="M42.1646 21.7298L42.1569 24.5612L39.6865 23.1416L39.6943 20.3025L42.1646 21.7298Z" fill="#808080"/>
<path d="M39.6484 23.1878L41.9789 21.8381L41.9711 24.6695L39.6406 26.0192L39.6484 23.1878Z" fill="#1A4B6C"/>
<path d="M37.1777 21.7684L39.5082 20.4109L41.9786 21.8382L39.6481 23.188L37.1777 21.7684Z" fill="#4B86A6"/>
<path d="M39.648 23.1879L39.6403 26.0193L37.1699 24.5997L37.1777 21.7683L39.648 23.1879Z" fill="#07334E"/>
<path d="M37.0839 24.685L39.4145 23.3275L39.4067 26.1589L37.0762 27.5164L37.0839 24.685Z" fill="#C44A10"/>
<path d="M34.6143 23.2577L36.9525 21.9002L39.4151 23.3275L37.0846 24.685L34.6143 23.2577Z" fill="#FF8D23"/>
<path d="M37.0836 24.6848L37.0758 27.5162L34.6055 26.0889L34.6132 23.2575L37.0836 24.6848Z" fill="#82310B"/>
<path d="M34.5673 26.143L36.8978 24.7855L36.8901 27.6169L34.5596 28.9744L34.5673 26.143Z" fill="#9C9C9C"/>
<path d="M32.0967 24.7159L34.435 23.3661L36.8975 24.7857L34.567 26.1433L32.0967 24.7159Z" fill="white"/>
<path d="M34.567 26.1431L34.5592 28.9745L32.0889 27.5472L32.0966 24.7158L34.567 26.1431Z" fill="#808080"/>
<path d="M31.9638 27.6481L34.3021 26.2983L34.2943 29.1297L31.9561 30.4795L31.9638 27.6481Z" fill="#C44A10"/>
<path d="M29.4941 26.2285L31.8324 24.871L34.3028 26.2983L31.9645 27.6481L29.4941 26.2285Z" fill="#FF8D23"/>
<path d="M31.9644 27.6479L31.9567 30.4793L29.4863 29.0598L29.4941 26.2284L31.9644 27.6479Z" fill="#82310B"/>
<path d="M29.4472 29.1142L31.7777 27.7567L31.77 30.5881L29.4395 31.9456L29.4472 29.1142Z" fill="#1A4B6C"/>
<path d="M26.9785 27.6873L29.3168 26.3298L31.7871 27.7571L29.4489 29.1146L26.9785 27.6873Z" fill="#4B86A6"/>
<path d="M29.4469 29.1141L29.4391 31.9455L26.9688 30.5182L26.9765 27.6868L29.4469 29.1141Z" fill="#07334E"/>
<path d="M26.8916 30.6039L29.2221 29.2464L29.2143 32.0855L26.8838 33.4353L26.8916 30.6039Z" fill="#C44A10"/>
<path d="M24.4209 29.1766L26.7514 27.8268L29.2218 29.2464L26.8912 30.6039L24.4209 29.1766Z" fill="#FF8D23"/>
<path d="M26.8912 30.604L26.8834 33.4354L24.4131 32.0158L24.4209 29.1766L26.8912 30.604Z" fill="#82310B"/>
<path d="M24.375 32.0622L26.7055 30.7125L26.6977 33.5439L24.3672 34.8936L24.375 32.0622Z" fill="#C44A10"/>
<path d="M21.9043 30.6426L24.2348 29.2851L26.7051 30.7124L24.3746 32.0622L21.9043 30.6426Z" fill="#FF8D23"/>
<path d="M24.3746 32.0623L24.3668 34.8937L21.8965 33.4742L21.9043 30.6428L24.3746 32.0623Z" fill="#82310B"/>
<path d="M21.7636 33.5514L24.0941 32.1939L24.0864 35.0253L21.7559 36.3828L21.7636 33.5514Z" fill="#C44A10"/>
<path d="M19.2939 32.1241L21.6245 30.7665L24.0948 32.1939L21.7643 33.5514L19.2939 32.1241Z" fill="#FF8D23"/>
<path d="M21.7633 33.5512L21.7555 36.3826L19.2852 34.9553L19.2929 32.1239L21.7633 33.5512Z" fill="#82310B"/>
<path d="M19.2393 35.0099L21.5775 33.6524L21.5931 36.4993L19.2626 37.8568L19.2393 35.0099Z" fill="#1A4B6C"/>
<path d="M16.7764 33.5825L19.1069 32.2328L21.5772 33.6523L19.2389 35.0099L16.7764 33.5825Z" fill="#4B86A6"/>
<path d="M19.2389 35.0098L19.2311 37.8412L16.7686 36.4138L16.7763 33.5824L19.2389 35.0098Z" fill="#07334E"/>
<path d="M16.6835 36.4998L19.0141 35.1501L19.0063 37.9815L16.6758 39.3312L16.6835 36.4998Z" fill="#C44A10"/>
<path d="M14.2129 35.0801L16.5512 33.7226L19.0137 35.1499L16.6832 36.4997L14.2129 35.0801Z" fill="#FF8D23"/>
<path d="M16.6832 36.4997L16.6754 39.3311L14.2051 37.9115L14.2128 35.0801L16.6832 36.4997Z" fill="#82310B"/>
<path d="M14.1669 37.958L16.4975 36.6083L16.4897 39.4397L14.1592 40.7972L14.1669 37.958Z" fill="#07334E"/>
<path d="M11.6963 36.5382L14.0268 35.1807L16.4971 36.6081L14.1666 37.9578L11.6963 36.5382Z" fill="#4B86A6"/>
<path d="M14.1666 37.9579L14.1588 40.797L11.6885 39.3697L11.6962 36.5383L14.1666 37.9579Z" fill="#1A4B6C"/>
<path d="M55.0292 17.3778L57.3675 16.0203L57.3598 18.8517L55.0215 20.2092L55.0292 17.3778Z" fill="#C44A10"/>
<path d="M52.5664 15.9507L54.8969 14.6009L57.3673 16.0205L55.029 17.378L52.5664 15.9507Z" fill="#FF8D23"/>
<path d="M55.0289 17.3781L55.0212 20.2095L52.5586 18.79L52.5664 15.9508L55.0289 17.3781Z" fill="#82310B"/>
<path d="M52.5127 18.8364L54.8509 17.4866L54.8432 20.318L52.5049 21.6678L52.5127 18.8364Z" fill="#C44A10"/>
<path d="M50.0498 17.4167L52.3803 16.0592L54.8507 17.4865L52.5124 18.8363L50.0498 17.4167Z" fill="#FF8D23"/>
<path d="M52.5123 18.8362L52.5045 21.6676L50.0342 20.2481L50.0497 17.4167L52.5123 18.8362Z" fill="#82310B"/>
<path d="M49.956 20.3336L52.2865 18.9761L52.2788 21.8075L49.9482 23.165L49.956 20.3336Z" fill="#9C9C9C"/>
<path d="M47.4854 18.9063L49.8159 17.5565L52.2862 18.9761L49.9557 20.3336L47.4854 18.9063Z" fill="white"/>
<path d="M49.9557 20.3337L49.9479 23.1651L47.4775 21.7378L47.4853 18.9064L49.9557 20.3337Z" fill="#808080"/>
<path d="M47.4394 21.7922L49.7699 20.4347L49.7622 23.2661L47.4316 24.6236L47.4394 21.7922Z" fill="#C44A10"/>
<path d="M44.9688 20.3646L47.2993 19.0148L49.7696 20.4344L47.4391 21.7919L44.9688 20.3646Z" fill="#FF8D23"/>
<path d="M47.439 21.7921L47.4313 24.6235L44.9609 23.2039L44.9687 20.3647L47.439 21.7921Z" fill="#82310B"/>
<path d="M44.8291 23.2736L47.1596 21.9238L47.1518 24.7552L44.8213 26.105L44.8291 23.2736Z" fill="#9C9C9C"/>
<path d="M42.3594 21.854L44.6899 20.4965L47.1602 21.9238L44.8297 23.2736L42.3594 21.854Z" fill="white"/>
<path d="M44.8287 23.2736L44.8209 26.105L42.3506 24.6855L42.3584 21.8541L44.8287 23.2736Z" fill="#808080"/>
<path d="M42.3125 24.7319L44.643 23.3822L44.6352 26.2136L42.3047 27.5711L42.3125 24.7319Z" fill="#C44A10"/>
<path d="M39.8408 23.3125L42.1713 21.955L44.6417 23.3824L42.3112 24.7321L39.8408 23.3125Z" fill="#FF8D23"/>
<path d="M42.3121 24.732L42.3043 27.5712L39.834 26.1438L39.8418 23.3124L42.3121 24.732Z" fill="#82310B"/>
<path d="M39.748 26.2292L42.0785 24.8716L42.0707 27.703L39.7402 29.0606L39.748 26.2292Z" fill="#C44A10"/>
<path d="M37.2773 24.8019L39.6156 23.4521L42.0782 24.8717L39.7477 26.2292L37.2773 24.8019Z" fill="#FF8D23"/>
<path d="M39.7476 26.2292L39.7399 29.0606L37.2695 27.6333L37.2773 24.8019L39.7476 26.2292Z" fill="#82310B"/>
<path d="M37.2314 27.6873L39.5619 26.3375L39.5541 29.1689L37.2236 30.5187L37.2314 27.6873Z" fill="#C44A10"/>
<path d="M34.7607 26.2677L37.099 24.9102L39.5616 26.3375L37.2311 27.6873L34.7607 26.2677Z" fill="#FF8D23"/>
<path d="M37.231 27.6871L37.2233 30.5185L34.7529 29.0989L34.7607 26.2675L37.231 27.6871Z" fill="#82310B"/>
<path d="M34.6289 29.2008L36.9671 27.8433L36.9594 30.6747L34.6211 32.0322L34.6289 29.2008Z" fill="#C44A10"/>
<path d="M32.1582 27.7735L34.4965 26.416L36.9668 27.8433L34.6285 29.2008L32.1582 27.7735Z" fill="#FF8D23"/>
<path d="M34.6285 29.2009L34.6207 32.0323L32.1504 30.605L32.1582 27.7736L34.6285 29.2009Z" fill="#82310B"/>
<path d="M32.1123 30.6592L34.4505 29.3016L34.435 32.133L32.1045 33.4906L32.1123 30.6592Z" fill="#C44A10"/>
<path d="M29.6416 29.2318L31.9799 27.882L34.4502 29.3016L32.1119 30.6592L29.6416 29.2318Z" fill="#FF8D23"/>
<path d="M32.1119 30.6592L32.1041 33.4906L29.6338 32.0633L29.6416 29.2319L32.1119 30.6592Z" fill="#82310B"/>
<path d="M29.5566 32.1484L31.8871 30.7986L31.8793 33.63L29.5488 34.9798L29.5566 32.1484Z" fill="#9C9C9C"/>
<path d="M27.0869 30.7287L29.4174 29.3712L31.8878 30.7985L29.5573 32.1483L27.0869 30.7287Z" fill="white"/>
<path d="M29.5562 32.1482L29.5485 34.9796L27.0781 33.5601L27.0859 30.7287L29.5562 32.1482Z" fill="#808080"/>
<path d="M27.04 33.6067L29.3705 32.257L29.3938 35.0884L27.0322 36.4614L27.04 33.6067Z" fill="#1A4B6C"/>
<path d="M24.5693 32.1871L26.8998 30.8296L29.3702 32.257L27.0397 33.6067L24.5693 32.1871Z" fill="#4B86A6"/>
<path d="M27.0396 33.6069L27.0319 36.446L24.5615 35.0187L24.5693 32.1873L27.0396 33.6069Z" fill="#07334E"/>
<path d="M24.4296 35.0961L26.7602 33.7386L26.7524 36.57L24.4219 37.9275L24.4296 35.0961Z" fill="#C44A10"/>
<path d="M21.959 33.6686L24.2895 32.3188L26.7598 33.7384L24.4293 35.0959L21.959 33.6686Z" fill="#FF8D23"/>
<path d="M24.4293 35.096L24.4215 37.9274L21.9512 36.5L21.9589 33.6686L24.4293 35.096Z" fill="#82310B"/>
<path d="M21.912 36.5545L24.2425 35.2047L24.2348 38.0361L21.8965 39.3859L21.912 36.5545Z" fill="#C44A10"/>
<path d="M19.4424 35.1347L21.7729 33.7772L24.2432 35.2045L21.9127 36.5543L19.4424 35.1347Z" fill="#FF8D23"/>
<path d="M21.9117 36.5543L21.8962 39.3857L19.4336 37.9662L19.4414 35.1348L21.9117 36.5543Z" fill="#82310B"/>
<path d="M19.3486 38.0436L21.6791 36.6938L21.6713 39.5253L19.3408 40.8828L19.3486 38.0436Z" fill="#C44A10"/>
<path d="M16.8779 36.6242L19.2162 35.2666L21.6788 36.694L19.3483 38.0437L16.8779 36.6242Z" fill="#FF8D23"/>
<path d="M19.3482 38.0437L19.3405 40.8829L16.8701 39.4555L16.8779 36.6241L19.3482 38.0437Z" fill="#82310B"/>
<path d="M16.832 39.5097L19.1625 38.1521L19.1547 40.9835L16.8242 42.3411L16.832 39.5097Z" fill="#9C9C9C"/>
<path d="M14.3613 38.0824L16.6996 36.7326L19.1622 38.1522L16.8317 39.5097L14.3613 38.0824Z" fill="white"/>
<path d="M16.8316 39.5098L16.8239 42.3412L14.3535 40.9138L14.3613 38.0824L16.8316 39.5098Z" fill="#C7C7C7"/>
<path d="M57.7158 18.9535L60.0463 17.596L60.0385 20.4274L57.708 21.7849L57.7158 18.9535Z" fill="#1A4B6C"/>
<path d="M55.2461 17.526L57.5766 16.1763L60.0469 17.5958L57.7164 18.9534L55.2461 17.526Z" fill="#4B86A6"/>
<path d="M57.7154 18.9536L57.7076 21.785L55.2373 20.3577L55.2451 17.5263L57.7154 18.9536Z" fill="#07334E"/>
<path d="M55.1992 20.4117L57.5297 19.0541L57.5219 21.8933L55.1914 23.2431L55.1992 20.4117Z" fill="#C44A10"/>
<path d="M52.7285 18.9922L55.059 17.6347L57.5294 19.0543L55.1989 20.4118L52.7285 18.9922Z" fill="#FF8D23"/>
<path d="M55.1988 20.4117L55.191 23.2431L52.7207 21.8236L52.7285 18.9922L55.1988 20.4117Z" fill="#82310B"/>
<path d="M52.6357 21.901L54.974 20.5512L54.9662 23.3826L52.6279 24.7402L52.6357 21.901Z" fill="#1A4B6C"/>
<path d="M50.165 20.4815L52.5033 19.1239L54.9737 20.5513L52.6354 21.901L50.165 20.4815Z" fill="#4B86A6"/>
<path d="M52.6353 21.9009L52.6276 24.74L50.1572 23.3127L50.165 20.4813L52.6353 21.9009Z" fill="#07334E"/>
<path d="M50.1191 23.3671L52.4496 22.0096L52.4418 24.841L50.1113 26.1985L50.1191 23.3671Z" fill="#1A4B6C"/>
<path d="M47.6484 21.9399L49.9867 20.5901L52.4493 22.0097L50.1188 23.3673L47.6484 21.9399Z" fill="#4B86A6"/>
<path d="M50.1187 23.3672L50.111 26.1986L47.6406 24.7712L47.6484 21.9398L50.1187 23.3672Z" fill="#07334E"/>
<path d="M47.5087 24.8489L49.8393 23.4913L49.8315 26.3305L47.501 27.6803L47.5087 24.8489Z" fill="#C44A10"/>
<path d="M45.0381 23.4293L47.3764 22.0717L49.8389 23.4913L47.5084 24.8488L45.0381 23.4293Z" fill="#FF8D23"/>
<path d="M47.5084 24.8489L47.5006 27.6803L45.0303 26.2607L45.038 23.4293L47.5084 24.8489Z" fill="#82310B"/>
<path d="M44.9921 26.3072L47.3227 24.9575L47.3149 27.7889L44.9844 29.1386L44.9921 26.3072Z" fill="#C44A10"/>
<path d="M42.5215 24.8877L44.8598 23.5302L47.3223 24.9575L44.9918 26.3073L42.5215 24.8877Z" fill="#FF8D23"/>
<path d="M44.9918 26.3073L44.984 29.1387L42.5137 27.7191L42.5214 24.8877L44.9918 26.3073Z" fill="#82310B"/>
<path d="M42.4364 27.8041L44.7669 26.4466L44.7592 29.278L42.4209 30.6356L42.4364 27.8041Z" fill="#9C9C9C"/>
<path d="M39.9668 26.3769L42.2973 25.0271L44.7676 26.4467L42.4371 27.8042L39.9668 26.3769Z" fill="white"/>
<path d="M42.4361 27.8042L42.4206 30.6356L39.958 29.2083L39.9658 26.3769L42.4361 27.8042Z" fill="#808080"/>
<path d="M39.9111 29.2628L42.2494 27.9052L42.2416 30.7444L39.9033 32.0942L39.9111 29.2628Z" fill="#1A4B6C"/>
<path d="M37.4482 27.8353L39.7788 26.4855L42.2491 27.9051L39.9108 29.2626L37.4482 27.8353Z" fill="#4B86A6"/>
<path d="M39.9108 29.2628L39.903 32.0942L37.4404 30.6747L37.4482 27.8355L39.9108 29.2628Z" fill="#07334E"/>
<path d="M37.3164 30.7672L39.6469 29.4174L39.6391 32.2489L37.3086 33.6064L37.3164 30.7672Z" fill="#C44A10"/>
<path d="M34.8457 29.3477L37.1762 27.9901L39.6466 29.4175L37.316 30.7672L34.8457 29.3477Z" fill="#FF8D23"/>
<path d="M37.316 30.7673L37.3082 33.6065L34.8379 32.1791L34.8457 29.3477L37.316 30.7673Z" fill="#82310B"/>
<path d="M34.7998 32.2255L37.1303 30.8757L37.1225 33.7071L34.792 35.0569L34.7998 32.2255Z" fill="#1A4B6C"/>
<path d="M32.3281 30.806L34.6586 29.4563L37.129 30.8758L34.7985 32.2334L32.3281 30.806Z" fill="#4B86A6"/>
<path d="M34.7994 32.2334L34.7916 35.0648L32.3213 33.6374L32.3291 30.806L34.7994 32.2334Z" fill="#07334E"/>
<path d="M32.2363 33.7225L34.5668 32.3728L34.559 35.2042L32.2285 36.5539L32.2363 33.7225Z" fill="#C44A10"/>
<path d="M29.7656 32.3029L32.1039 30.9453L34.5665 32.3727L32.236 33.7224L29.7656 32.3029Z" fill="#FF8D23"/>
<path d="M32.2359 33.7224L32.2282 36.5538L29.7578 35.1342L29.7656 32.3028L32.2359 33.7224Z" fill="#82310B"/>
<path d="M29.7197 35.1807L32.0502 33.8309L32.0424 36.6623L29.7119 38.0199L29.7197 35.1807Z" fill="#C44A10"/>
<path d="M27.249 33.7611L29.5873 32.4036L32.0499 33.831L29.7194 35.1807L27.249 33.7611Z" fill="#FF8D23"/>
<path d="M29.7193 35.1808L29.7116 38.0199L27.2412 36.5926L27.249 33.7612L29.7193 35.1808Z" fill="#82310B"/>
<path d="M27.1093 36.6702L29.4398 35.3127L29.4321 38.1441L27.1016 39.5016L27.1093 36.6702Z" fill="#1A4B6C"/>
<path d="M24.6387 35.243L26.9692 33.8932L29.4395 35.3128L27.109 36.6703L24.6387 35.243Z" fill="#4B86A6"/>
<path d="M27.109 36.6703L27.1012 39.5017L24.6309 38.0744L24.6386 35.243L27.109 36.6703Z" fill="#07334E"/>
<path d="M24.5927 38.1286L26.9232 36.7711L26.9155 39.6103L24.585 40.96L24.5927 38.1286Z" fill="#C44A10"/>
<path d="M22.1221 36.7014L24.4526 35.3516L26.9229 36.7712L24.5924 38.1287L22.1221 36.7014Z" fill="#FF8D23"/>
<path d="M24.5924 38.129L24.5846 40.9604L22.1143 39.5408L22.122 36.7016L24.5924 38.129Z" fill="#82310B"/>
<path d="M22.0283 39.6184L24.3666 38.2687L24.3588 41.1001L22.0205 42.4498L22.0283 39.6184Z" fill="#9C9C9C"/>
<path d="M19.5654 38.1988L21.8959 36.8412L24.3663 38.2686L22.028 39.6183L19.5654 38.1988Z" fill="white"/>
<path d="M22.028 39.6185L22.0202 42.4499L19.5576 41.0303L19.5654 38.1989L22.028 39.6185Z" fill="#808080"/>
<path d="M19.5117 41.0845L21.85 39.727L21.8422 42.5584L19.5039 43.9159L19.5117 41.0845Z" fill="#82310B"/>
<path d="M17.0479 39.6573L19.3784 38.3076L21.8487 39.7272L19.5104 41.0847L17.0479 39.6573Z" fill="#FF8D23"/>
<path d="M19.5113 41.0846L19.5035 43.916L17.0332 42.4886L17.0487 39.6572L19.5113 41.0846Z" fill="#F9781A"/>
<path d="M60.3808 20.4973L62.7113 19.1398L62.7036 21.9789L60.373 23.3287L60.3808 20.4973Z" fill="#C44A10"/>
<path d="M57.9111 19.0777L60.2416 17.7202L62.712 19.1398L60.3815 20.4973L57.9111 19.0777Z" fill="#FF8D23"/>
<path d="M60.3805 20.4973L60.3727 23.3287L57.9023 21.9092L57.9101 19.0778L60.3805 20.4973Z" fill="#82310B"/>
<path d="M57.8642 21.9557L60.1947 20.6059L60.187 23.4373L57.8564 24.7871L57.8642 21.9557Z" fill="#C44A10"/>
<path d="M55.3926 20.5359L57.7231 19.1783L60.1934 20.6057L57.8629 21.9554L55.3926 20.5359Z" fill="#FF8D23"/>
<path d="M57.8638 21.9555L57.8561 24.7869L55.3857 23.3673L55.3935 20.5359L57.8638 21.9555Z" fill="#82310B"/>
<path d="M55.3007 23.4526L57.639 22.0951L57.6313 24.9265L55.293 26.284L55.3007 23.4526Z" fill="#9C9C9C"/>
<path d="M52.8301 22.0252L55.1684 20.6754L57.6387 22.095L55.3004 23.4525L52.8301 22.0252Z" fill="white"/>
<path d="M55.3004 23.4525L55.2926 26.2839L52.8223 24.8565L52.83 22.0251L55.3004 23.4525Z" fill="#808080"/>
<path d="M52.7832 24.9107L55.1137 23.5532L55.1059 26.3924L52.7754 27.7421L52.7832 24.9107Z" fill="#C44A10"/>
<path d="M50.3135 23.4912L52.6518 22.1337L55.1143 23.5533L52.7838 24.9108L50.3135 23.4912Z" fill="#FF8D23"/>
<path d="M52.7828 24.9108L52.775 27.7422L50.3047 26.3226L50.3125 23.4912L52.7828 24.9108Z" fill="#82310B"/>
<path d="M50.1738 26.3924L52.5043 25.0426L52.4965 27.874L50.166 29.2238L50.1738 26.3924Z" fill="#C44A10"/>
<path d="M47.7041 24.9728L50.0424 23.6153L52.5049 25.0426L50.1744 26.3924L47.7041 24.9728Z" fill="#FF8D23"/>
<path d="M50.1734 26.3925L50.1657 29.2239L47.6953 27.8043L47.7031 24.9729L50.1734 26.3925Z" fill="#82310B"/>
<path d="M47.6562 27.8584L49.9867 26.5009L49.9789 29.3323L47.6484 30.6898L47.6562 27.8584Z" fill="#C44A10"/>
<path d="M45.1865 26.4312L47.5248 25.0814L49.9874 26.501L47.6569 27.8585L45.1865 26.4312Z" fill="#FF8D23"/>
<path d="M47.6558 27.8585L47.6481 30.6899L45.1777 29.2626L45.1855 26.4312L47.6558 27.8585Z" fill="#82310B"/>
<path d="M45.1005 29.3475L47.431 27.99L47.4232 30.8291L45.085 32.1789L45.1005 29.3475Z" fill="#C44A10"/>
<path d="M42.6299 27.9203L44.9604 26.5705L47.4307 27.9901L45.1002 29.3476L42.6299 27.9203Z" fill="#FF8D23"/>
<path d="M45.1002 29.3476L45.0846 32.179L42.6221 30.7594L42.6298 27.9203L45.1002 29.3476Z" fill="#82310B"/>
<path d="M42.5761 30.8063L44.9144 29.4565L44.9066 32.2879L42.5684 33.6377L42.5761 30.8063Z" fill="#1A4B6C"/>
<path d="M40.1133 29.3866L42.4438 28.0291L44.9141 29.4564L42.5759 30.8062L40.1133 29.3866Z" fill="#4B86A6"/>
<path d="M42.5758 30.8062L42.568 33.6376L40.1055 32.218L40.1132 29.3866L42.5758 30.8062Z" fill="#07334E"/>
<path d="M39.9814 32.3184L42.3119 30.9609L42.3041 33.7923L39.9736 35.1498L39.9814 32.3184Z" fill="#C44A10"/>
<path d="M37.5107 30.8912L39.8413 29.5414L42.3116 30.961L39.9811 32.3185L37.5107 30.8912Z" fill="#FF8D23"/>
<path d="M39.981 32.3187L39.9733 35.1501L37.5029 33.7228L37.5107 30.8914L39.981 32.3187Z" fill="#82310B"/>
<path d="M37.4648 33.7768L39.7953 32.4193L39.7875 35.2584L37.457 36.6082L37.4648 33.7768Z" fill="#C44A10"/>
<path d="M34.9951 32.3495L37.3256 30.9998L39.796 32.4193L37.4655 33.7769L34.9951 32.3495Z" fill="#FF8D23"/>
<path d="M37.4644 33.7769L37.4567 36.6083L34.9863 35.1887L34.9941 32.3495L37.4644 33.7769Z" fill="#82310B"/>
<path d="M34.9013 35.2664L37.2318 33.9166L37.2241 36.748L34.8936 38.1055L34.9013 35.2664Z" fill="#C44A10"/>
<path d="M32.4307 33.8467L34.7689 32.4892L37.2315 33.9165L34.901 35.2663L32.4307 33.8467Z" fill="#FF8D23"/>
<path d="M34.901 35.2662L34.8932 38.1054L32.4229 36.678L32.4306 33.8466L34.901 35.2662Z" fill="#82310B"/>
<path d="M32.3834 36.7322L34.7217 35.3746L34.7139 38.206L32.3135 39.6256L32.3834 36.7322Z" fill="#1A4B6C"/>
<path d="M29.9141 35.3049L32.2523 33.9551L34.7149 35.3747L32.3844 36.7322L29.9141 35.3049Z" fill="#4B86A6"/>
<path d="M32.3834 36.7323L32.3756 39.5637L29.9053 38.1363L29.913 35.3049L32.3834 36.7323Z" fill="#82310B"/>
<path d="M29.7734 38.2139L32.1039 36.8564L32.0961 39.6956L29.7656 41.0453L29.7734 38.2139Z" fill="#C44A10"/>
<path d="M27.3027 36.7867L29.6332 35.437L32.1036 36.8566L29.7731 38.2141L27.3027 36.7867Z" fill="#FF8D23"/>
<path d="M29.773 38.214L29.7653 41.0454L27.2949 39.6258L27.3027 36.7867L29.773 38.214Z" fill="#82310B"/>
<path d="M27.2568 39.6725L29.5873 38.3228L29.5795 41.1541L27.249 42.5039L27.2568 39.6725Z" fill="#C44A10"/>
<path d="M24.7852 38.2528L27.1157 36.8953L29.586 38.3226L27.2555 39.6724L24.7852 38.2528Z" fill="#FF8D23"/>
<path d="M27.2564 39.6726L27.2487 42.504L24.7783 41.0844L24.7861 38.253L27.2564 39.6726Z" fill="#82310B"/>
<path d="M24.6933 41.1695L27.0316 39.812L27.0238 42.6434L24.6855 44.0009L24.6933 41.1695Z" fill="#C44A10"/>
<path d="M22.2305 39.7424L24.561 38.3926L27.0313 39.8122L24.693 41.1697L22.2305 39.7424Z" fill="#FF8D23"/>
<path d="M24.693 41.1698L24.6852 44.0012L22.2227 42.5739L22.2304 39.7425L24.693 41.1698Z" fill="#82310B"/>
<path d="M22.1767 42.6279L24.515 41.2704L24.5072 44.1095L22.1689 45.4593L22.1767 42.6279Z" fill="#9C9C9C"/>
<path d="M19.7139 41.2007L22.0444 39.8509L24.5147 41.2705L22.1764 42.628L19.7139 41.2007Z" fill="white"/>
<path d="M22.1764 42.628L22.1686 45.4594L19.7061 44.0398L19.7138 41.2006L22.1764 42.628Z" fill="#C7C7C7"/>
<path d="M63.083 22.002L65.4135 20.6522L65.4057 23.4836L63.0752 24.8334L63.083 22.002Z" fill="#C44A10"/>
<path d="M60.6113 20.5822L62.9418 19.2247L65.4122 20.652L63.0817 22.0018L60.6113 20.5822Z" fill="#FF8D23"/>
<path d="M63.0826 22.0018L63.0748 24.8332L60.6045 23.4136L60.6123 20.5822L63.0826 22.0018Z" fill="#82310B"/>
<path d="M60.5664 23.4604L62.8969 22.1106L62.8891 24.942L60.5586 26.2995L60.5664 23.4604Z" fill="#C7C7C7"/>
<path d="M58.0957 22.0405L60.4262 20.683L62.8966 22.1103L60.566 23.4601L58.0957 22.0405Z" fill="white"/>
<path d="M60.566 23.4602L60.5582 26.2994L58.0879 24.8721L58.0957 22.0406L60.566 23.4602Z" fill="#808080"/>
<path d="M58.0029 24.9571L60.3412 23.5995L60.3334 26.4309L57.9951 27.7885L58.0029 24.9571Z" fill="#1A4B6C"/>
<path d="M55.54 23.5298L57.8706 22.1801L60.3409 23.5997L58.0026 24.9572L55.54 23.5298Z" fill="#4B86A6"/>
<path d="M58.0025 24.9569L57.9948 27.7883L55.5244 26.361L55.5399 23.5296L58.0025 24.9569Z" fill="#07334E"/>
<path d="M55.4863 26.4157L57.8246 25.0659L57.8168 27.8973L55.4785 29.2471L55.4863 26.4157Z" fill="#C44A10"/>
<path d="M53.0156 24.996L55.3539 23.6385L57.8243 25.0658L55.486 26.4156L53.0156 24.996Z" fill="#FF8D23"/>
<path d="M55.4859 26.4155L55.4782 29.2469L53.0078 27.8273L53.0156 24.9959L55.4859 26.4155Z" fill="#82310B"/>
<path d="M52.8759 27.8971L55.2142 26.5473L55.2064 29.3787L52.8682 30.7362L52.8759 27.8971Z" fill="#C7C7C7"/>
<path d="M50.4062 26.4776L52.7445 25.1201L55.2149 26.5474L52.8766 27.8972L50.4062 26.4776Z" fill="white"/>
<path d="M52.8756 27.8972L52.8678 30.7363L50.3975 29.309L50.4052 26.4776L52.8756 27.8972Z" fill="#808080"/>
<path d="M50.3593 29.3631L52.6898 28.0056L52.6821 30.837L50.3516 32.1945L50.3593 29.3631Z" fill="#C7C7C7"/>
<path d="M47.8877 27.9359L50.226 26.5861L52.6885 28.0057L50.358 29.3632L47.8877 27.9359Z" fill="white"/>
<path d="M50.359 29.3632L50.3512 32.1946L47.8809 30.7673L47.8886 27.9359L50.359 29.3632Z" fill="#808080"/>
<path d="M47.8037 30.8528L50.1342 29.5031L50.1264 32.3345L47.7959 33.6842L47.8037 30.8528Z" fill="#C44A10"/>
<path d="M45.333 29.433L47.6635 28.0754L50.1339 29.5028L47.8033 30.8525L45.333 29.433Z" fill="#FF8D23"/>
<path d="M47.8033 30.8527L47.7955 33.6841L45.3252 32.2645L45.333 29.4331L47.8033 30.8527Z" fill="#82310B"/>
<path d="M45.2861 32.3112L47.6166 30.9615L47.6088 33.7929L45.2783 35.1504L45.2861 32.3112Z" fill="#1A4B6C"/>
<path d="M42.8164 30.8915L45.1469 29.534L47.6173 30.9613L45.2867 32.3111L42.8164 30.8915Z" fill="#4B86A6"/>
<path d="M45.2857 32.3111L45.278 35.1503L42.8076 33.7229L42.8154 30.8915L45.2857 32.3111Z" fill="#07334E"/>
<path d="M42.6845 33.8233L45.015 32.4658L45.0073 35.2972L42.6768 36.6547L42.6845 33.8233Z" fill="#C44A10"/>
<path d="M40.2148 32.3959L42.5454 31.0461L45.0157 32.4657L42.6852 33.8232L40.2148 32.3959Z" fill="#FF8D23"/>
<path d="M42.6842 33.8232L42.6764 36.6546L40.2061 35.2272L40.2138 32.3958L42.6842 33.8232Z" fill="#82310B"/>
<path d="M40.1679 35.2817L42.4984 33.9319L42.4907 36.7633L40.1602 38.1131L40.1679 35.2817Z" fill="#1A4B6C"/>
<path d="M37.6963 33.862L40.0268 32.5045L42.4971 33.9318L40.1666 35.2816L37.6963 33.862Z" fill="#4B86A6"/>
<path d="M40.1676 35.2815L40.1598 38.1129L37.6895 36.6934L37.6972 33.862L40.1676 35.2815Z" fill="#07334E"/>
<path d="M37.6035 36.7711L39.9418 35.4213L39.9262 38.2527L37.5957 39.6102L37.6035 36.7711Z" fill="#C7C7C7"/>
<path d="M35.1338 35.3514L37.4721 33.9939L39.9424 35.4212L37.6041 36.771L35.1338 35.3514Z" fill="white"/>
<path d="M37.6041 36.7709L37.5963 39.6101L35.126 38.1827L35.1337 35.3513L37.6041 36.7709Z" fill="#808080"/>
<path d="M35.0869 38.2369L37.4174 36.8793L37.4096 39.7107L35.0791 41.0683L35.0869 38.2369Z" fill="#C44A10"/>
<path d="M32.6172 36.8096L34.9555 35.4599L37.418 36.8795L35.0875 38.237L32.6172 36.8096Z" fill="#FF8D23"/>
<path d="M35.0865 38.237L35.0787 41.0684L32.6084 39.641L32.6162 36.8096L35.0865 38.237Z" fill="#82310B"/>
<path d="M32.4765 39.7191L34.807 38.3693L34.7993 41.2007L32.4688 42.5505L32.4765 39.7191Z" fill="#1A4B6C"/>
<path d="M30.0059 38.2994L32.3441 36.9419L34.8067 38.3692L32.4762 39.719L30.0059 38.2994Z" fill="#4B86A6"/>
<path d="M32.4762 39.7189L32.4684 42.5503L29.998 41.1307L30.0058 38.2993L32.4762 39.7189Z" fill="#07334E"/>
<path d="M29.9599 41.1774L32.2904 39.8277L32.2827 42.6591L29.9521 44.0166L29.9599 41.1774Z" fill="#C7C7C7"/>
<path d="M27.4893 39.758L29.8275 38.4005L32.2901 39.8278L29.9596 41.1776L27.4893 39.758Z" fill="white"/>
<path d="M29.9596 41.1775L29.9518 44.0167L27.4814 42.5893L27.4892 39.7579L29.9596 41.1775Z" fill="#9C9C9C"/>
<path d="M27.3955 42.6746L29.7337 41.3171L29.726 44.1485L27.3877 45.506L27.3955 42.6746Z" fill="#C44A10"/>
<path d="M24.9336 41.2473L27.2641 39.8975L29.7345 41.3171L27.3962 42.6746L24.9336 41.2473Z" fill="#FF8D23"/>
<path d="M27.3951 42.675L27.3874 45.5064L24.9248 44.079L24.9326 41.2476L27.3951 42.675Z" fill="#82310B"/>
<path d="M24.8789 44.1328L27.2171 42.7753L27.2094 45.6144L24.8711 46.9642L24.8789 44.1328Z" fill="#07334E"/>
<path d="M22.416 42.7135L24.7465 41.356L27.2169 42.7756L24.8786 44.1331L22.416 42.7135Z" fill="#4B86A6"/>
<path d="M24.8785 44.1328L24.8708 46.9642L22.4082 45.5447L22.416 42.7133L24.8785 44.1328Z" fill="#1A4B6C"/>
</svg>
