<svg width="300" height="155" viewBox="0 0 300 155" fill="none" xmlns="http://www.w3.org/2000/svg">
<path d="M192.872 35.7975L186.32 32.0386C186.102 31.9087 185.921 32.0169 185.921 32.2694C185.921 32.522 186.095 32.825 186.32 32.9476L192.872 36.7066C193.09 36.8365 193.272 36.7355 193.272 36.4829C193.279 36.2304 193.098 35.9202 192.872 35.7975Z" fill="#91AAF2"/>
<path d="M195.618 39.4266L186.313 34.0876C186.095 33.9577 185.914 34.0587 185.914 34.3112C185.914 34.5638 186.088 34.874 186.313 34.9967L195.618 40.3357C195.836 40.4655 196.017 40.3573 196.017 40.1048C196.017 39.8595 195.843 39.5564 195.618 39.4266Z" fill="#91AAF2"/>
<path d="M201.698 42.9186L197.717 40.6387C197.499 40.5088 197.318 40.6098 197.318 40.8624C197.318 41.1149 197.499 41.4251 197.717 41.5478L201.698 43.8277C201.916 43.9575 202.097 43.8493 202.097 43.5968C202.097 43.3443 201.916 43.0412 201.698 42.9186Z" fill="#91AAF2"/>
<path d="M189.625 38.0558L186.306 36.1511C186.088 36.0212 185.906 36.1222 185.906 36.3747C185.906 36.6272 186.081 36.9303 186.306 37.0529L189.625 38.9576C189.843 39.0875 190.025 38.9865 190.025 38.734C190.025 38.4815 189.85 38.1784 189.625 38.0558Z" fill="#91AAF2"/>
<path d="M197.986 42.8464L191.369 39.0514C191.151 38.9215 190.969 39.0226 190.969 39.2751C190.969 39.5276 191.151 39.8306 191.369 39.9605L197.986 43.7555C198.204 43.8854 198.386 43.7844 198.386 43.5318C198.378 43.2793 198.204 42.9763 197.986 42.8464Z" fill="#91AAF2"/>
<path d="M191.964 41.4468L186.306 38.2001C186.088 38.0702 185.906 38.1784 185.906 38.4309C185.906 38.6835 186.081 38.9865 186.306 39.1091L191.964 42.3558C192.182 42.4857 192.364 42.3847 192.364 42.1322C192.356 41.8797 192.182 41.5766 191.964 41.4468Z" fill="#91AAF2"/>
<path d="M195.611 43.5391L193.751 42.4713C193.533 42.3414 193.352 42.4496 193.352 42.7022C193.352 42.9547 193.526 43.2577 193.751 43.3803L195.611 44.4481C195.829 44.578 196.01 44.477 196.01 44.2245C196.003 43.972 195.829 43.6689 195.611 43.5391Z" fill="#91AAF2"/>
<path d="M199.526 39.607L194.289 36.6056C194.071 36.4757 193.889 36.5839 193.889 36.8365C193.889 37.089 194.063 37.392 194.289 37.5147L199.526 40.516C199.744 40.6459 199.925 40.5449 199.925 40.2924C199.925 40.0471 199.744 39.7368 199.526 39.607Z" fill="#91AAF2"/>
<path d="M195.807 33.7846L186.604 28.5033C186.241 28.294 185.936 28.46 185.936 28.8857C185.936 29.3041 186.233 29.8164 186.597 30.0256L195.8 35.3069C196.17 35.5161 196.468 35.3502 196.468 34.9317C196.475 34.5061 196.177 33.9938 195.807 33.7846Z" fill="#1B1F2D"/>
<path d="M201.552 37.0745L198.102 35.0977C197.732 34.8884 197.434 35.0544 197.434 35.4801C197.434 35.8985 197.732 36.4108 198.102 36.62L201.552 38.5969C201.923 38.8061 202.221 38.6402 202.221 38.2217C202.221 37.8032 201.923 37.291 201.552 37.0745Z" fill="#1B1F2D"/>
<path d="M192.698 50.8982L186.146 47.1393C185.928 47.0094 185.747 47.1176 185.747 47.3702C185.747 47.6227 185.921 47.9257 186.146 48.0484L192.698 51.8073C192.916 51.9372 193.098 51.8362 193.098 51.5836C193.098 51.3311 192.916 51.0209 192.698 50.8982Z" fill="#91AAF2"/>
<path d="M195.443 54.5345L186.139 49.1955C185.921 49.0656 185.739 49.1666 185.739 49.4191C185.739 49.6717 185.913 49.9819 186.139 50.1046L195.443 55.4436C195.661 55.5734 195.843 55.4652 195.843 55.2127C195.843 54.9602 195.661 54.6572 195.443 54.5345Z" fill="#91AAF2"/>
<path d="M201.523 58.0193L197.543 55.7394C197.325 55.6095 197.143 55.7105 197.143 55.963C197.143 56.2156 197.325 56.5258 197.543 56.6485L201.523 58.9284C201.741 59.0582 201.923 58.95 201.923 58.6975C201.923 58.445 201.741 58.1419 201.523 58.0193Z" fill="#91AAF2"/>
<path d="M189.451 53.1565L186.131 51.2517C185.914 51.1219 185.732 51.2229 185.732 51.4754C185.732 51.7279 185.906 52.0309 186.131 52.1536L189.451 54.0583C189.669 54.1882 189.85 54.0872 189.85 53.8347C189.85 53.5821 189.669 53.2791 189.451 53.1565Z" fill="#91AAF2"/>
<path d="M197.804 57.9471L191.187 54.1521C190.969 54.0222 190.788 54.1233 190.788 54.3758C190.788 54.6283 190.969 54.9313 191.187 55.0612L197.804 58.8562C198.022 58.9861 198.204 58.8851 198.204 58.6326C198.204 58.38 198.03 58.077 197.804 57.9471Z" fill="#91AAF2"/>
<path d="M191.783 56.5475L186.124 53.3008C185.906 53.1709 185.725 53.2791 185.725 53.5317C185.725 53.7842 185.899 54.0872 186.124 54.2099L191.783 57.4565C192.001 57.5864 192.182 57.4854 192.182 57.2329C192.182 56.9804 192.001 56.6773 191.783 56.5475Z" fill="#91AAF2"/>
<path d="M195.429 58.6398L193.569 57.572C193.352 57.4421 193.17 57.5503 193.17 57.8028C193.17 58.0554 193.344 58.3584 193.569 58.481L195.429 59.5488C195.647 59.6787 195.828 59.5777 195.828 59.3252C195.828 59.0727 195.654 58.7696 195.429 58.6398Z" fill="#91AAF2"/>
<path d="M199.344 54.7077L194.107 51.7063C193.889 51.5764 193.708 51.6846 193.708 51.9371C193.708 52.1897 193.882 52.4927 194.107 52.6153L199.344 55.6167C199.562 55.7466 199.744 55.6456 199.744 55.3931C199.744 55.1478 199.569 54.8375 199.344 54.7077Z" fill="#91AAF2"/>
<path d="M195.633 48.8853L186.43 43.604C186.067 43.3948 185.761 43.5607 185.761 43.9864C185.761 44.4048 186.059 44.9171 186.422 45.1263L195.626 50.4076C195.996 50.6168 196.294 50.4509 196.294 50.0324C196.301 49.6068 196.003 49.0945 195.633 48.8853Z" fill="#1B1F2D"/>
<path d="M201.378 52.1752L197.928 50.1984C197.557 49.9891 197.26 50.1551 197.26 50.5808C197.26 50.9992 197.557 51.5115 197.928 51.7207L201.378 53.6976C201.749 53.9068 202.046 53.7409 202.046 53.3224C202.046 52.904 201.749 52.3917 201.378 52.1752Z" fill="#1B1F2D"/>
<path d="M187.736 19.5496C187.446 19.3837 187.206 18.9796 187.213 18.6477L187.242 9.00146C187.242 8.66958 187.482 8.5325 187.773 8.69844L200.048 15.7329C200.339 15.8989 200.579 16.3029 200.571 16.6348L200.542 26.2811C200.542 26.613 200.303 26.75 200.012 26.5841L192.719 22.4067C192.349 22.1975 192 22.1542 191.731 22.2985L189.61 23.4528V22.2263C189.61 21.3461 188.986 20.2639 188.216 19.8238L187.736 19.5496ZM200.041 14.7373L187.765 7.70279C186.995 7.26268 186.364 7.61621 186.356 8.49642L186.334 18.1427C186.334 19.0229 186.959 20.1051 187.729 20.5453L188.209 20.8194C188.499 20.9854 188.739 21.3894 188.732 21.7213L188.724 23.0488C188.724 23.4384 188.92 23.893 189.24 24.2321C189.342 24.3403 189.451 24.4269 189.56 24.4918C189.778 24.6144 189.988 24.6433 190.148 24.5567L192.334 23.3663C192.436 23.3158 192.567 23.3302 192.705 23.4096L199.998 27.587C200.768 28.0271 201.4 27.6735 201.407 26.7933L201.436 17.1471C201.436 16.2596 200.811 15.1774 200.041 14.7373Z" fill="#F24B4B"/>
<path d="M190.141 14.2827C189.509 13.922 188.993 14.2106 188.986 14.9321C188.986 15.6536 189.494 16.541 190.134 16.9017C190.765 17.2625 191.281 16.9667 191.281 16.2452C191.288 15.5309 190.773 14.6435 190.141 14.2827Z" fill="#F24B4B"/>
<path d="M193.889 16.4328C193.257 16.072 192.741 16.3606 192.734 17.0821C192.734 17.8036 193.242 18.691 193.882 19.0518C194.514 19.4125 195.029 19.1239 195.036 18.4024C195.036 17.6809 194.521 16.7935 193.889 16.4328Z" fill="#F24B4B"/>
<path d="M197.637 18.5828C197.005 18.2221 196.489 18.5107 196.482 19.2322C196.482 19.9537 196.99 20.8411 197.63 21.2018C198.262 21.5626 198.777 21.274 198.785 20.5525C198.785 19.831 198.269 18.9436 197.637 18.5828Z" fill="#F24B4B"/>
<path d="M127.839 16.036C127.549 15.87 127.316 15.466 127.316 15.1341L127.345 5.48785C127.345 5.15597 127.585 5.01888 127.876 5.18483L140.152 12.2193C140.442 12.3853 140.682 12.7893 140.675 13.1212L140.645 22.7747C140.645 23.1066 140.406 23.2436 140.115 23.0777L132.822 18.9003C132.452 18.6911 132.103 18.6478 131.834 18.7921L129.713 19.9465V18.7199C129.713 17.8397 129.089 16.7575 128.319 16.3174L127.839 16.036ZM140.152 11.2237L127.876 4.18917C127.106 3.74907 126.474 4.1026 126.467 4.98281L126.438 14.6291C126.438 15.5093 127.062 16.5915 127.832 17.0316L128.312 17.3058C128.602 17.4718 128.842 17.8758 128.835 18.2077L128.827 19.5352C128.827 19.9248 129.023 20.3793 129.343 20.7184C129.445 20.8267 129.554 20.9132 129.663 20.9782C129.881 21.1008 130.091 21.1297 130.251 21.0431L132.437 19.8527C132.539 19.8022 132.67 19.8166 132.808 19.8959L140.101 24.0734C140.871 24.5135 141.503 24.1599 141.51 23.2797L141.539 13.6334C141.546 12.746 140.921 11.6638 140.152 11.2237Z" fill="#546FBF"/>
<path d="M130.251 10.7691C129.619 10.4084 129.103 10.697 129.096 11.4185C129.096 12.14 129.604 13.0274 130.244 13.3881C130.876 13.7489 131.391 13.4531 131.391 12.7316C131.391 12.0173 130.883 11.1299 130.251 10.7691Z" fill="#546FBF"/>
<path d="M133.999 12.9192C133.367 12.5584 132.852 12.847 132.844 13.5685C132.844 14.29 133.353 15.1774 133.992 15.5382C134.624 15.8989 135.14 15.6103 135.147 14.8888C135.147 14.1673 134.631 13.2799 133.999 12.9192Z" fill="#546FBF"/>
<path d="M137.747 15.0692C137.115 14.7085 136.6 14.9971 136.592 15.7186C136.592 16.44 137.101 17.3275 137.74 17.6882C138.372 18.049 138.888 17.7604 138.895 17.0389C138.895 16.3174 138.379 15.43 137.747 15.0692Z" fill="#546FBF"/>
<g opacity="0.2">
<path opacity="0.2" d="M208.823 132.996L129.009 87.2251C127.44 86.3232 124.905 86.3232 123.35 87.2251L92.0508 105.291C90.4963 106.186 90.5036 107.65 92.0726 108.545L171.887 154.316C173.456 155.218 175.991 155.218 177.545 154.316L208.845 136.25C210.4 135.355 210.392 133.898 208.823 132.996Z" fill="#808080"/>
</g>
<path d="M99.22 107.773L99.0893 62.1968L117.888 51.4177L130.084 90.0678L99.22 107.773ZM119.392 48.2432L97.0554 61.0496L97.2007 111.258L132.837 90.8254L119.392 48.2432Z" fill="#31394C"/>
<path d="M127.353 89.3319L130.091 90.075L117.895 51.4249L115.774 52.637L127.353 89.3319Z" fill="#1B1F2D"/>
<path d="M99.2126 105.457L99.2199 107.773L130.091 90.0822L127.345 89.3319L99.2126 105.457Z" fill="#1B1F2D"/>
<path d="M94.3242 59.4839L97.0554 61.0496L97.1934 111.258L94.4622 109.692L94.3242 59.4839Z" fill="#1B1F2D"/>
<path d="M94.3242 59.4839L97.0554 61.0496L119.392 48.2432L116.66 46.6776L94.3242 59.4839Z" fill="#1B1F2D"/>
<path d="M173.587 150.312L173.456 104.736L192.255 93.9566L204.45 132.607L173.587 150.312ZM193.751 90.782L171.415 103.588L171.56 153.797L207.196 133.364L193.751 90.782Z" fill="#31394C"/>
<path d="M201.712 131.871L204.45 132.614L192.255 93.9638L190.134 95.1759L201.712 131.871Z" fill="#1B1F2D"/>
<path d="M173.579 147.996V150.312L204.45 132.614L201.705 131.871L173.579 147.996Z" fill="#1B1F2D"/>
<path d="M168.684 102.023L171.415 103.588L171.56 153.789L168.829 152.224L168.684 102.023Z" fill="#1B1F2D"/>
<path d="M168.684 102.023L171.415 103.588L193.758 90.782L191.027 89.2092L168.684 102.023Z" fill="#1B1F2D"/>
<path d="M210 82.2829L208.526 82.5138L129.009 36.9158C127.44 36.0139 124.905 36.0139 123.351 36.9158L92.1018 54.953L90.896 54.4984V56.6124V56.6413C90.9105 57.2184 91.3028 57.8029 92.0727 58.243L171.887 104.014C173.456 104.916 175.991 104.916 177.546 104.014L208.845 85.9481C209.659 85.4791 210.044 84.8514 210 84.2309H210.007C209.993 84.1516 210 82.2829 210 82.2829Z" fill="#E29764"/>
<path d="M177.545 104.007L208.845 85.9409C209.659 85.4719 210.044 84.8442 210 84.2237H210.007C209.993 84.1516 210.007 82.2757 210.007 82.2757L208.533 82.5066L197.434 76.1431L174.618 98.805V104.663C175.679 104.685 176.739 104.469 177.545 104.007Z" fill="#7C3301"/>
<path d="M208.823 80.5153L129.009 34.7441C127.44 33.8423 124.905 33.8423 123.35 34.7441L92.0508 52.8102C90.4963 53.7048 90.5036 55.1694 92.0726 56.0641L171.887 101.835C173.456 102.737 175.991 102.737 177.545 101.835L208.845 83.7692C210.4 82.8745 210.392 81.4171 208.823 80.5153Z" fill="#FCDDC5"/>
<path d="M102.787 49.6573C102.38 49.448 101.748 49.448 101.356 49.6789L96.0605 52.738C95.6537 52.9689 95.661 53.3513 96.0678 53.5822L103.876 58.0554C104.283 58.2863 104.937 58.2863 105.344 58.0554L110.639 54.9963C111.031 54.7726 111.038 54.4119 110.668 54.1738C110.835 54.282 110.922 54.4119 110.937 54.5417L104.247 54.0872L104.741 58.2213C104.61 58.2285 104.472 58.2285 104.341 58.2069L103.847 54.0656L103.106 54.0151L103.019 53.5894L95.8208 53.3152C95.7845 53.2359 95.7772 53.1637 95.7917 53.0843L102.976 53.3513L102.162 49.5058C102.373 49.513 102.605 49.5635 102.787 49.6573ZM110.646 54.1594C110.653 54.1594 110.653 54.1666 110.661 54.1666C110.653 54.1666 110.646 54.1666 110.646 54.1594ZM102.801 49.6645C102.794 49.6645 102.794 49.6573 102.787 49.6573C102.794 49.6573 102.801 49.6645 102.801 49.6645Z" fill="white"/>
<path d="M104.24 54.0872L103.833 54.0584L104.327 58.1997C104.457 58.2213 104.595 58.2286 104.726 58.2141L104.24 54.0872ZM102.954 53.3513L95.77 53.0844C95.7554 53.1637 95.7627 53.2359 95.799 53.3152L102.997 53.5894L102.954 53.3513Z" fill="#EEF4FF"/>
<path d="M110.624 54.1521L102.816 49.6789C102.809 49.6789 102.801 49.6717 102.794 49.6717C102.787 49.6717 102.787 49.6645 102.78 49.6645C102.598 49.5707 102.365 49.5202 102.133 49.513L102.947 53.3585L102.997 53.5894L103.085 54.015L103.826 54.0656L104.232 54.0944L110.922 54.5489C110.908 54.4119 110.821 54.282 110.653 54.181H110.646C110.639 54.181 110.639 54.1738 110.632 54.1738C110.639 54.1593 110.632 54.1521 110.624 54.1521Z" fill="#EEF4FF"/>
<path d="M113.886 43.7627C113.479 43.5535 112.847 43.5535 112.455 43.7844L107.159 46.8435C106.753 47.0744 106.76 47.4568 107.167 47.6876L114.975 52.1609C115.382 52.3917 116.036 52.3917 116.442 52.1609L121.738 49.1018C122.13 48.8781 122.137 48.5173 121.767 48.2793C121.934 48.3875 122.021 48.5173 122.036 48.6472L115.346 48.1927L115.84 52.3268C115.709 52.334 115.571 52.334 115.44 52.3124L114.946 48.171L114.205 48.1205L114.118 47.6949L106.92 47.4207C106.883 47.3413 106.876 47.2692 106.891 47.1898L114.074 47.4568L113.261 43.6112C113.472 43.6184 113.697 43.669 113.886 43.7627ZM121.745 48.272C121.752 48.272 121.752 48.2793 121.76 48.2793C121.752 48.2793 121.745 48.272 121.745 48.272ZM113.9 43.7772C113.893 43.7772 113.893 43.77 113.886 43.77C113.893 43.77 113.893 43.77 113.9 43.7772Z" fill="white"/>
<path d="M115.338 48.1999L114.932 48.171L115.426 52.3124C115.556 52.334 115.694 52.3412 115.825 52.3268L115.338 48.1999ZM114.053 47.4568L106.869 47.1898C106.854 47.2692 106.862 47.3413 106.898 47.4207L114.096 47.6949L114.053 47.4568Z" fill="#EEF4FF"/>
<path d="M121.723 48.2648L113.915 43.7916C113.907 43.7916 113.9 43.7844 113.893 43.7844C113.886 43.7844 113.886 43.7772 113.878 43.7772C113.697 43.6834 113.464 43.6329 113.232 43.6257L114.045 47.4712L114.096 47.7021L114.183 48.1277L114.924 48.1783L115.331 48.2071L122.021 48.6617C122.007 48.5246 121.927 48.3947 121.752 48.2937H121.745C121.738 48.2937 121.738 48.2865 121.731 48.2865C121.738 48.272 121.731 48.2648 121.723 48.2648Z" fill="#EEF4FF"/>
<path d="M124.985 37.8754C124.578 37.6662 123.946 37.6662 123.554 37.897L118.259 40.9561C117.852 41.187 117.859 41.5694 118.266 41.8003L126.074 46.2735C126.481 46.5044 127.135 46.5044 127.542 46.2735L132.837 43.2144C133.229 42.9907 133.236 42.63 132.866 42.3919C133.033 42.5001 133.12 42.63 133.135 42.7599L126.445 42.3053L126.939 46.4394C126.808 46.4466 126.67 46.4466 126.539 46.425L126.045 42.2837L125.304 42.2332L125.217 41.8075L118.019 41.5333C117.982 41.454 117.975 41.3818 117.99 41.3024L125.174 41.5694L124.36 37.7239C124.571 37.7311 124.796 37.7816 124.985 37.8754ZM132.844 42.3847C132.851 42.3847 132.851 42.3919 132.859 42.3919C132.851 42.3847 132.844 42.3847 132.844 42.3847ZM124.999 37.8826C124.992 37.8826 124.992 37.8754 124.985 37.8754C124.992 37.8826 124.992 37.8826 124.999 37.8826Z" fill="white"/>
<path d="M126.438 42.3053L126.031 42.2765L126.525 46.4178C126.655 46.4394 126.793 46.4467 126.924 46.4322L126.438 42.3053ZM125.152 41.5694L117.968 41.3025C117.953 41.3818 117.961 41.454 117.997 41.5333L125.195 41.8075L125.152 41.5694Z" fill="#EEF4FF"/>
<path d="M132.822 42.3702L125.014 37.897C125.007 37.897 124.999 37.8898 124.992 37.8898C124.985 37.8898 124.985 37.8826 124.978 37.8826C124.796 37.7888 124.563 37.7383 124.331 37.7311L125.145 41.5766L125.195 41.8075L125.283 42.2332L126.024 42.2837L126.43 42.3125L133.12 42.7671C133.106 42.63 133.019 42.5001 132.851 42.3991H132.844C132.837 42.3991 132.837 42.3919 132.83 42.3919C132.837 42.3775 132.83 42.3775 132.822 42.3702Z" fill="#EEF4FF"/>
<path d="M193.758 84.0722L183.109 77.9612L169.817 85.6378L180.465 91.7416L193.758 84.0722Z" fill="white"/>
<path d="M187.518 86.1429L179.303 81.4316L179.143 81.5254L187.359 86.2367L187.518 86.1429Z" fill="#A6BFFF"/>
<path d="M186.828 86.5397L178.62 81.8284L178.46 81.9222L186.669 86.6335L186.828 86.5397Z" fill="#A6BFFF"/>
<path d="M186.146 86.9365L177.93 82.2252L177.771 82.319L185.986 87.0303L186.146 86.9365Z" fill="#A6BFFF"/>
<path d="M185.456 87.3333L177.247 82.622L177.088 82.7158L185.296 87.4271L185.456 87.3333Z" fill="#A6BFFF"/>
<path d="M184.773 87.7302L176.558 83.0188L176.398 83.1126L184.613 87.824L184.773 87.7302Z" fill="#A6BFFF"/>
<path d="M184.083 88.127L175.875 83.4157L175.715 83.5095L183.923 88.2208L184.083 88.127Z" fill="#A6BFFF"/>
<path d="M183.4 88.5238L175.184 83.8125L175.025 83.9063L183.24 88.6176L183.4 88.5238Z" fill="#A6BFFF"/>
<path d="M182.71 88.9206L174.495 84.2093L174.342 84.3031L182.55 89.0072L182.71 88.9206Z" fill="#A6BFFF"/>
<path d="M182.02 89.3174L173.812 84.6061L173.652 84.6999L181.867 89.404L182.02 89.3174Z" fill="#A6BFFF"/>
<path d="M177.066 87.3117L173.143 85.0679L172.984 85.1544L176.906 87.4055L177.066 87.3117Z" fill="#A6BFFF"/>
<path d="M186.291 82.5787L181.773 79.9886L181.337 80.2411L185.855 82.8313L186.291 82.5787Z" fill="#F24B4B"/>
<path d="M183.632 81.9294L181.025 80.4359L180.72 80.6163L183.327 82.1098L183.632 81.9294Z" fill="#546FBF"/>
<path d="M193.976 83.762L183.327 77.6582L170.035 85.3276L180.683 91.4386L193.976 83.762Z" fill="white"/>
<path d="M187.736 85.8326L179.521 81.1285L179.361 81.2223L187.577 85.9264L187.736 85.8326Z" fill="#A6BFFF"/>
<path d="M187.046 86.2294L178.838 81.5253L178.678 81.6191L186.887 86.3232L187.046 86.2294Z" fill="#A6BFFF"/>
<path d="M186.364 86.6262L178.148 81.9221L177.989 82.0087L186.204 86.72L186.364 86.6262Z" fill="#A6BFFF"/>
<path d="M185.674 87.0231L177.465 82.319L177.306 82.4056L185.514 87.1169L185.674 87.0231Z" fill="#A6BFFF"/>
<path d="M184.991 87.4199L176.776 82.7086L176.616 82.8024L184.831 87.5137L184.991 87.4199Z" fill="#A6BFFF"/>
<path d="M184.301 87.8167L176.093 83.1054L175.933 83.1992L184.141 87.9105L184.301 87.8167Z" fill="#A6BFFF"/>
<path d="M183.618 88.2135L175.402 83.5022L175.243 83.596L183.458 88.3073L183.618 88.2135Z" fill="#A6BFFF"/>
<path d="M182.928 88.6103L174.713 83.899L174.56 83.9928L182.768 88.7041L182.928 88.6103Z" fill="#A6BFFF"/>
<path d="M182.238 89.0072L174.03 84.2959L173.87 84.3896L182.085 89.101L182.238 89.0072Z" fill="#A6BFFF"/>
<path d="M177.284 87.0086L173.361 84.7576L173.202 84.8514L177.124 87.1024L177.284 87.0086Z" fill="#A6BFFF"/>
<path d="M186.509 82.2757L181.991 79.6783L181.555 79.9308L186.073 82.521L186.509 82.2757Z" fill="#F24B4B"/>
<path d="M183.85 81.6263L181.243 80.1256L180.938 80.306L183.545 81.7995L183.85 81.6263Z" fill="#546FBF"/>
<path d="M191.042 83.5022L180.393 77.3985L167.1 85.0679L177.749 91.1789L191.042 83.5022Z" fill="white"/>
<path d="M184.802 85.5729L176.587 80.8688L176.427 80.9554L184.642 85.6667L184.802 85.5729Z" fill="#A6BFFF"/>
<path d="M184.112 85.9697L175.904 81.2657L175.744 81.3522L183.952 86.0635L184.112 85.9697Z" fill="#A6BFFF"/>
<path d="M183.429 86.3665L175.214 81.6624L175.054 81.749L183.269 86.4603L183.429 86.3665Z" fill="#A6BFFF"/>
<path d="M182.739 86.7633L174.531 82.0593L174.371 82.1458L182.579 86.8571L182.739 86.7633Z" fill="#A6BFFF"/>
<path d="M182.056 87.1602L173.841 82.4489L173.681 82.5426L181.896 87.254L182.056 87.1602Z" fill="#A6BFFF"/>
<path d="M181.366 87.557L173.158 82.8457L172.991 82.9395L181.206 87.6508L181.366 87.557Z" fill="#A6BFFF"/>
<path d="M180.683 87.9538L172.468 83.2425L172.308 83.3363L180.516 88.0476L180.683 87.9538Z" fill="#A6BFFF"/>
<path d="M179.993 88.3506L171.778 83.6393L171.625 83.7331L179.834 88.4444L179.993 88.3506Z" fill="#A6BFFF"/>
<path d="M179.303 88.7474L171.095 84.0361L170.935 84.1299L179.151 88.8412L179.303 88.7474Z" fill="#A6BFFF"/>
<path d="M174.349 86.7489L170.427 84.4979L170.267 84.5917L174.19 86.8355L174.349 86.7489Z" fill="#A6BFFF"/>
<path d="M183.574 82.016L179.056 79.4186L178.62 79.6711L183.138 82.2613L183.574 82.016Z" fill="#F24B4B"/>
<path d="M180.916 81.3666L178.308 79.866L178.003 80.0463L180.611 81.5398L180.916 81.3666Z" fill="#546FBF"/>
<g opacity="0.3">
<path opacity="0.3" d="M164.231 72.3192L151.824 79.4764C151.519 79.6495 151.142 79.6495 150.837 79.4764L130.338 67.6223C129.684 67.2472 129.684 66.302 130.338 65.9268L142.883 58.6903C143.188 58.5172 143.566 58.5172 143.871 58.6903L164.166 71.4318C164.71 71.7348 164.674 72.0523 164.231 72.3192Z" fill="#CCCCCC"/>
</g>
<path d="M164.471 71.2514C164.471 71.2514 163.868 71.3091 163.664 71.2009L142.854 59.1593C142.563 58.9934 142.207 58.9934 141.917 59.1593L130.454 65.3208C129.655 65.8763 129.823 67.0379 130.447 67.3915L150.917 79.13C151.207 79.296 151.563 79.296 151.854 79.13L164.34 71.9224C164.638 71.742 164.543 71.4318 164.471 71.2514Z" fill="#1B1F2D"/>
<path d="M142.447 44.0514L142.752 58.1131C142.752 58.4883 142.948 58.8274 143.275 59.0222L163.722 71.0061C164.405 71.4029 165.241 70.768 165.248 69.9816L165.284 56.295C165.284 55.927 165.088 55.5879 164.776 55.4003L144.001 43.1928C143.304 42.7815 142.396 43.2072 142.447 44.0514Z" fill="#31394C"/>
<path d="M142.44 43.972L142.396 58.2935C142.396 58.6687 142.592 59.0078 142.919 59.2026L163.359 71.0494C164.042 71.4462 164.892 70.9556 164.892 70.1619L164.928 56.4681C164.928 56.1002 164.732 55.7611 164.42 55.5735L143.58 43.3298C143.072 43.0268 142.44 43.3876 142.44 43.972Z" fill="#1B1F2D"/>
<path d="M143.217 44.073L143.173 58.1059L164.049 70.0898L164.093 56.2012L143.217 44.073Z" fill="#546FBF"/>
<g opacity="0.03">
<g opacity="0.03">
<path opacity="0.03" d="M145.861 45.6098L143.21 46.8291L143.173 56.901L155.536 51.2302L145.861 45.6098Z" fill="white"/>
</g>
<g opacity="0.03">
<path opacity="0.03" d="M157.149 52.1681L143.638 58.3657L146.13 59.8014L159.626 53.6039L157.149 52.1681Z" fill="white"/>
</g>
<g opacity="0.03">
<path opacity="0.03" d="M161.238 54.5418L147.75 60.7321L157.49 66.3237L164.071 63.3006L164.093 56.2012L161.238 54.5418Z" fill="white"/>
</g>
<g opacity="0.03">
<path opacity="0.03" d="M161.602 68.6901L164.057 67.5646L164.064 64.9817L159.11 67.2544L161.602 68.6901Z" fill="white"/>
</g>
</g>
<path d="M164.376 71.54L151.824 78.7332C151.534 78.8992 151.178 78.8992 150.887 78.7332L130.454 66.9369C129.83 66.5762 129.83 65.6815 130.454 65.3208L141.946 58.7336C142.236 58.5677 142.592 58.5677 142.89 58.7336L164.376 71.1432C164.529 71.2298 164.529 71.4534 164.376 71.54Z" fill="#31394C"/>
<path d="M147.19 72.0162L144.052 73.8632C143.972 73.9065 143.878 73.9065 143.798 73.8632L138.306 70.7175C138.139 70.6237 138.139 70.3784 138.306 70.2846L141.314 68.5963C141.394 68.553 141.488 68.553 141.568 68.5963L147.19 71.9152C147.234 71.9368 147.234 71.9945 147.19 72.0162Z" fill="#E2E2E2"/>
<path d="M142.272 60.4291L142.977 60.8403C143.064 60.8908 143.202 60.8908 143.282 60.8403L143.631 60.6311C143.718 60.5806 143.718 60.5012 143.631 60.4507L142.926 60.0467C142.839 59.9962 142.708 60.0034 142.621 60.0467L142.272 60.2487C142.192 60.2992 142.192 60.3786 142.272 60.4291Z" fill="#E2E2E2"/>
<path d="M143.515 61.1506L144.226 61.5618C144.314 61.6123 144.452 61.6123 144.539 61.5618L144.887 61.3526C144.975 61.3021 144.975 61.2227 144.887 61.1722L144.176 60.761C144.088 60.7105 143.95 60.7105 143.863 60.761L143.515 60.9702C143.427 61.0207 143.427 61.1001 143.515 61.1506Z" fill="#E2E2E2"/>
<path d="M144.771 61.8793L145.49 62.2978C145.578 62.3483 145.716 62.3483 145.803 62.2978L146.159 62.0885C146.246 62.038 146.246 61.9514 146.159 61.9081L145.44 61.4897C145.352 61.4392 145.214 61.4392 145.127 61.4897L144.779 61.6989C144.684 61.7494 144.684 61.8288 144.771 61.8793Z" fill="#E2E2E2"/>
<path d="M146.042 62.6152L146.769 63.0409C146.856 63.0914 146.994 63.0914 147.081 63.0409L147.437 62.8317C147.524 62.7812 147.524 62.6946 147.437 62.6441L146.703 62.2256C146.616 62.1751 146.478 62.1751 146.391 62.2256L146.042 62.4348C145.955 62.4853 145.955 62.5647 146.042 62.6152Z" fill="#E2E2E2"/>
<path d="M147.328 63.3656L148.069 63.7912C148.156 63.8417 148.301 63.8417 148.389 63.7912L148.745 63.5748C148.832 63.5243 148.832 63.4377 148.745 63.3872L148.004 62.9615C147.917 62.911 147.771 62.911 147.684 62.9615L147.328 63.1707C147.234 63.2285 147.241 63.315 147.328 63.3656Z" fill="#E2E2E2"/>
<path d="M148.628 64.1231L149.376 64.556C149.464 64.6065 149.609 64.6065 149.696 64.556L150.052 64.3396C150.139 64.2891 150.139 64.2025 150.045 64.152L149.297 63.7191C149.209 63.6686 149.064 63.6686 148.977 63.7191L148.621 63.9355C148.541 63.986 148.541 64.0654 148.628 64.1231Z" fill="#E2E2E2"/>
<path d="M149.943 64.8879L150.698 65.328C150.786 65.3785 150.931 65.3785 151.018 65.328L151.374 65.1115C151.461 65.061 151.461 64.9745 151.367 64.9167L150.611 64.4766C150.524 64.4261 150.379 64.4261 150.292 64.4766L149.936 64.6931C149.856 64.7508 149.856 64.8302 149.943 64.8879Z" fill="#E2E2E2"/>
<path d="M151.279 65.6599L152.042 66.1072C152.137 66.1577 152.282 66.1577 152.369 66.1072L152.725 65.8835C152.812 65.833 152.812 65.7465 152.718 65.6887L151.948 65.2486C151.853 65.1981 151.708 65.1981 151.621 65.2486L151.265 65.4651C151.185 65.5228 151.192 65.6094 151.279 65.6599Z" fill="#E2E2E2"/>
<path d="M152.631 66.4463L153.408 66.8936C153.502 66.9441 153.648 66.9441 153.735 66.8936L154.091 66.67C154.178 66.6122 154.171 66.5257 154.083 66.4752L153.306 66.0278C153.212 65.9773 153.066 65.9773 152.979 66.0278L152.623 66.2515C152.536 66.302 152.543 66.3958 152.631 66.4463Z" fill="#E2E2E2"/>
<path d="M154.004 67.24L154.788 67.6945C154.882 67.7522 155.028 67.7522 155.122 67.6945L155.485 67.4708C155.572 67.4131 155.565 67.3265 155.471 67.276L154.686 66.8215C154.592 66.771 154.447 66.771 154.359 66.8215L154.004 67.0452C153.902 67.0957 153.909 67.1895 154.004 67.24Z" fill="#E2E2E2"/>
<path d="M155.391 68.048L156.19 68.5097C156.284 68.5675 156.437 68.5675 156.524 68.5097L156.887 68.2861C156.974 68.2284 156.967 68.1418 156.872 68.0841L156.073 67.6223C155.979 67.5646 155.834 67.5646 155.739 67.6223L155.376 67.846C155.289 67.9037 155.289 67.9903 155.391 68.048Z" fill="#E2E2E2"/>
<path d="M156.793 68.8633L157.599 69.3322C157.693 69.3899 157.846 69.3899 157.933 69.3322L158.296 69.1014C158.383 69.0436 158.376 68.9571 158.282 68.8993L157.475 68.4304C157.381 68.3727 157.228 68.3727 157.141 68.4304L156.778 68.654C156.691 68.719 156.698 68.8056 156.793 68.8633Z" fill="#E2E2E2"/>
<path d="M158.216 69.6858L159.03 70.162C159.124 70.2197 159.277 70.2197 159.371 70.162L159.734 69.9311C159.822 69.8734 159.814 69.7796 159.72 69.7291L158.899 69.2601C158.805 69.2024 158.652 69.2024 158.565 69.2601L158.202 69.491C158.107 69.5415 158.115 69.6281 158.216 69.6858Z" fill="#E2E2E2"/>
<path d="M161.165 70.566L160.337 70.0898C160.236 70.0321 160.09 70.0321 159.996 70.0898L159.633 70.3207C159.546 70.3784 159.553 70.4722 159.647 70.5299L160.475 71.0133C160.577 71.071 160.73 71.071 160.817 71.0133L161.18 70.7824C161.274 70.7175 161.267 70.6237 161.165 70.566Z" fill="#E2E2E2"/>
<path d="M141.125 61.1434L141.771 61.5258C141.873 61.5907 142.047 61.5835 142.156 61.5258L142.796 61.1506C142.904 61.0857 142.904 60.9847 142.803 60.9269L142.156 60.5518C142.055 60.494 141.88 60.494 141.771 60.559L141.139 60.9342C141.023 60.9847 141.023 61.0857 141.125 61.1434Z" fill="#E2E2E2"/>
<path d="M144.001 61.6196L143.348 61.2372C143.239 61.1722 143.072 61.1794 142.963 61.2444L142.323 61.6196C142.214 61.6845 142.214 61.7855 142.316 61.8504L142.97 62.2328C143.079 62.2978 143.253 62.2905 143.355 62.2328L143.994 61.8504C144.103 61.7855 144.103 61.6773 144.001 61.6196Z" fill="#E2E2E2"/>
<path d="M145.214 62.3266L144.553 61.9442C144.444 61.8793 144.27 61.8865 144.161 61.9442L143.522 62.3266C143.413 62.3915 143.413 62.4926 143.522 62.5575L144.183 62.9471C144.292 63.012 144.466 63.012 144.575 62.9471L145.214 62.5647C145.316 62.4926 145.316 62.3843 145.214 62.3266Z" fill="#E2E2E2"/>
<path d="M141.728 62.911L142.381 63.3006C142.49 63.3656 142.665 63.3656 142.774 63.3006L143.42 62.9182C143.529 62.8533 143.529 62.7523 143.42 62.6874L142.766 62.305C142.657 62.24 142.483 62.2473 142.381 62.305L141.742 62.6874C141.626 62.7451 141.619 62.8461 141.728 62.911Z" fill="#E2E2E2"/>
<path d="M139.933 61.8432L141.132 62.5575C141.234 62.6224 141.408 62.6152 141.517 62.5575L142.156 62.1751C142.265 62.1102 142.265 62.0092 142.163 61.9442L140.958 61.2372C140.856 61.1794 140.682 61.1794 140.573 61.2444L139.933 61.6196C139.839 61.6845 139.832 61.7855 139.933 61.8432Z" fill="#E2E2E2"/>
<path d="M144.633 63.3944L143.972 63.0048C143.863 62.9399 143.689 62.9399 143.58 63.0048L142.933 63.3872C142.825 63.4521 142.825 63.5531 142.926 63.6181L143.587 64.0149C143.696 64.0798 143.871 64.0798 143.979 64.0149L144.626 63.6253C144.742 63.5676 144.742 63.4593 144.633 63.3944Z" fill="#E2E2E2"/>
<path d="M145.861 64.1231L145.192 63.7263C145.083 63.6614 144.909 63.6614 144.8 63.7263L144.154 64.1159C144.045 64.1809 144.045 64.2891 144.154 64.354L144.822 64.7508C144.931 64.8158 145.105 64.8158 145.222 64.7508L145.868 64.3612C145.97 64.2891 145.97 64.1881 145.861 64.1231Z" fill="#E2E2E2"/>
<path d="M147.103 64.8518L146.42 64.455C146.311 64.3901 146.129 64.3901 146.02 64.455L145.374 64.8446C145.265 64.9095 145.265 65.0178 145.374 65.0827L146.049 65.4867C146.158 65.5517 146.34 65.5517 146.449 65.4867L147.11 65.0899C147.219 65.025 147.219 64.9167 147.103 64.8518Z" fill="#E2E2E2"/>
<path d="M148.367 65.5949L147.677 65.1909C147.568 65.126 147.386 65.126 147.277 65.1909L146.631 65.5877C146.522 65.6527 146.522 65.7609 146.631 65.8258L147.314 66.2371C147.423 66.302 147.604 66.302 147.713 66.2371L148.367 65.8403C148.476 65.7681 148.476 65.6599 148.367 65.5949Z" fill="#E2E2E2"/>
<path d="M149.638 66.3453L148.941 65.934C148.832 65.8691 148.65 65.8691 148.541 65.934L147.887 66.3309C147.778 66.3958 147.778 66.504 147.887 66.5762L148.585 66.9874C148.701 67.0524 148.883 67.0524 148.991 66.9874L149.645 66.5906C149.754 66.5185 149.754 66.4102 149.638 66.3453Z" fill="#E2E2E2"/>
<path d="M150.931 67.1028L150.226 66.6916C150.11 66.6267 149.928 66.6267 149.82 66.6916L149.166 67.0956C149.057 67.1606 149.057 67.276 149.173 67.3409L149.878 67.7594C149.994 67.8243 150.175 67.8243 150.284 67.7594L150.938 67.3554C151.047 67.2832 151.04 67.1678 150.931 67.1028Z" fill="#E2E2E2"/>
<path d="M152.231 67.8676L151.519 67.4492C151.403 67.3842 151.221 67.3842 151.112 67.4492L150.459 67.8532C150.35 67.9182 150.35 68.0336 150.466 68.0985L151.178 68.5242C151.294 68.5963 151.476 68.5963 151.592 68.5242L152.246 68.1202C152.355 68.048 152.347 67.9398 152.231 67.8676Z" fill="#E2E2E2"/>
<path d="M151.773 68.8849L152.493 69.3106C152.609 69.3827 152.798 69.3827 152.907 69.3106L153.568 68.8993C153.677 68.8272 153.677 68.719 153.553 68.6468L152.834 68.2211C152.718 68.149 152.536 68.1562 152.42 68.2211L151.766 68.6324C151.65 68.6973 151.657 68.8128 151.773 68.8849Z" fill="#E2E2E2"/>
<path d="M154.904 69.6858C155.013 69.6136 155.013 69.5054 154.89 69.4332L154.156 69.0004C154.04 68.9282 153.851 68.9282 153.742 69.0004L153.081 69.4116C152.972 69.4838 152.972 69.592 153.088 69.6641L153.814 70.097C153.931 70.1692 154.12 70.1692 154.236 70.097L154.904 69.6858Z" fill="#E2E2E2"/>
<path d="M156.262 70.4866C156.371 70.4145 156.364 70.299 156.248 70.2269L155.507 69.794C155.391 69.7218 155.202 69.7218 155.086 69.794L154.425 70.2125C154.316 70.2846 154.316 70.4 154.439 70.465L155.18 70.9051C155.304 70.9772 155.492 70.9772 155.601 70.9051L156.262 70.4866Z" fill="#E2E2E2"/>
<path d="M155.797 71.2731L156.546 71.7204C156.669 71.7925 156.858 71.7925 156.967 71.7204L157.635 71.2947C157.744 71.2225 157.737 71.1071 157.621 71.035L156.873 70.5949C156.749 70.5227 156.56 70.5227 156.451 70.5949L155.79 71.0133C155.667 71.0855 155.674 71.2009 155.797 71.2731Z" fill="#E2E2E2"/>
<path d="M140.834 63.5748C140.725 63.6397 140.718 63.7407 140.827 63.8057L141.481 64.2025C141.59 64.2674 141.764 64.2674 141.873 64.2025L142.519 63.8201C142.628 63.7552 142.628 63.6541 142.527 63.5892L141.873 63.1996C141.764 63.1347 141.59 63.1347 141.481 63.1996L140.834 63.5748Z" fill="#E2E2E2"/>
<path d="M138.735 62.5503L140.253 63.4666C140.355 63.5315 140.529 63.5315 140.645 63.4666L141.292 63.0842C141.401 63.0192 141.401 62.9182 141.299 62.8533L139.774 61.9442C139.672 61.8793 139.498 61.8865 139.389 61.9442L138.75 62.3194C138.641 62.3843 138.633 62.4853 138.735 62.5503Z" fill="#E2E2E2"/>
<path d="M142.04 64.2963C141.931 64.3612 141.931 64.4694 142.033 64.5344L142.694 64.9312C142.803 64.9961 142.977 64.9961 143.086 64.9312L143.732 64.5416C143.841 64.4766 143.841 64.3684 143.732 64.3035L143.071 63.9067C142.962 63.8417 142.788 63.8417 142.679 63.9067L142.04 64.2963Z" fill="#E2E2E2"/>
<path d="M143.253 65.2631L143.921 65.6671C144.03 65.732 144.212 65.732 144.321 65.6671L144.975 65.2775C145.084 65.2126 145.084 65.1043 144.975 65.0394L144.306 64.6426C144.197 64.5777 144.023 64.5777 143.914 64.6426L143.268 65.0322C143.144 65.0899 143.144 65.1981 143.253 65.2631Z" fill="#E2E2E2"/>
<path d="M144.488 66.0062L145.163 66.4174C145.272 66.4824 145.454 66.4824 145.563 66.4174L146.217 66.0206C146.326 65.9557 146.326 65.8475 146.217 65.7825L145.534 65.3785C145.425 65.3136 145.243 65.3136 145.134 65.3785L144.481 65.7681C144.379 65.833 144.372 65.9413 144.488 66.0062Z" fill="#E2E2E2"/>
<path d="M145.73 66.7566L146.413 67.1678C146.522 67.2327 146.703 67.2327 146.819 67.1678L147.473 66.771C147.582 66.7061 147.582 66.5978 147.473 66.5257L146.783 66.1144C146.674 66.0495 146.493 66.0495 146.384 66.1144L145.73 66.5113C145.621 66.5834 145.621 66.6916 145.73 66.7566Z" fill="#E2E2E2"/>
<path d="M146.994 67.5141L147.691 67.9326C147.807 67.9975 147.989 67.9975 148.098 67.9326L148.759 67.5285C148.868 67.4636 148.868 67.3482 148.752 67.2832L148.054 66.872C147.945 66.807 147.764 66.807 147.648 66.872L146.994 67.2688C146.885 67.3409 146.885 67.4492 146.994 67.5141Z" fill="#E2E2E2"/>
<path d="M148.272 68.2861L148.977 68.7118C149.093 68.7839 149.275 68.7839 149.384 68.7118L150.045 68.3077C150.154 68.2356 150.154 68.1274 150.038 68.0624L149.333 67.644C149.217 67.579 149.035 67.579 148.926 67.644L148.265 68.048C148.156 68.1057 148.156 68.214 148.272 68.2861Z" fill="#E2E2E2"/>
<path d="M149.565 69.0653L150.277 69.491C150.393 69.5631 150.575 69.5631 150.691 69.491L151.352 69.0797C151.461 69.0076 151.461 68.8994 151.345 68.8272L150.633 68.4015C150.517 68.3294 150.335 68.3366 150.226 68.4015L149.565 68.8056C149.449 68.8777 149.449 68.9931 149.565 69.0653Z" fill="#E2E2E2"/>
<path d="M150.873 69.8517L151.592 70.2846C151.708 70.3568 151.897 70.3568 152.006 70.2846L152.667 69.8734C152.776 69.8012 152.776 69.693 152.66 69.6208L151.941 69.1879C151.824 69.1158 151.635 69.1158 151.527 69.1879L150.865 69.5992C150.757 69.6641 150.757 69.7796 150.873 69.8517Z" fill="#E2E2E2"/>
<path d="M152.202 70.6454L152.928 71.0855C153.045 71.1576 153.233 71.1576 153.35 71.0855L154.018 70.667C154.127 70.5949 154.127 70.4794 154.003 70.4073L153.27 69.9744C153.154 69.9022 152.965 69.9022 152.856 69.9744L152.195 70.3928C152.078 70.465 152.086 70.5732 152.202 70.6454Z" fill="#E2E2E2"/>
<path d="M154.701 71.9008L155.369 71.4751C155.485 71.4029 155.478 71.2875 155.354 71.2153L154.614 70.7752C154.497 70.7031 154.308 70.7031 154.192 70.7752L153.524 71.1937C153.408 71.2658 153.415 71.3813 153.538 71.4534L154.279 71.9008C154.403 71.9729 154.592 71.9729 154.701 71.9008Z" fill="#E2E2E2"/>
<path d="M157.759 72.6511L155.994 71.5977C155.87 71.5256 155.681 71.5256 155.572 71.5977L154.904 72.0234C154.788 72.0955 154.795 72.211 154.919 72.2831L156.676 73.3437C156.8 73.4159 156.989 73.4159 157.105 73.3437L157.773 72.918C157.89 72.8387 157.882 72.7232 157.759 72.6511Z" fill="#E2E2E2"/>
<path d="M140.246 64.9023L140.899 65.2991C141.008 65.3641 141.183 65.3641 141.292 65.2991L141.945 64.9095C142.054 64.8446 142.054 64.7364 141.953 64.6714L141.292 64.2746C141.183 64.2097 141.008 64.2097 140.899 64.2746L140.246 64.6642C140.144 64.7364 140.137 64.8446 140.246 64.9023Z" fill="#E2E2E2"/>
<path d="M138.038 63.8057L137.268 63.3367C137.202 63.2934 137.086 63.2934 137.013 63.3367L136.062 63.8995C135.989 63.9428 135.982 64.0077 136.055 64.051L136.817 64.5199C136.883 64.5632 136.999 64.5632 137.072 64.5199L138.03 63.9572C138.103 63.9211 138.103 63.849 138.038 63.8057Z" fill="#E2E2E2"/>
<path d="M139.229 64.5344L138.452 64.0582C138.386 64.0149 138.27 64.0149 138.197 64.0582L137.239 64.621C137.166 64.6642 137.159 64.7364 137.231 64.7725L138.001 65.2486C138.074 65.2919 138.183 65.2919 138.256 65.2486L139.214 64.6787C139.294 64.6426 139.294 64.5777 139.229 64.5344Z" fill="#E2E2E2"/>
<path d="M140.427 65.2631L139.643 64.7869C139.57 64.7436 139.461 64.7436 139.389 64.7869L138.43 65.3569C138.357 65.4002 138.357 65.4723 138.423 65.5156L139.207 65.999C139.28 66.0423 139.396 66.0423 139.469 65.999L140.435 65.4218C140.493 65.3785 140.5 65.3064 140.427 65.2631Z" fill="#E2E2E2"/>
<path d="M141.924 66.1793L140.849 65.5228C140.776 65.4795 140.66 65.4795 140.587 65.5228L139.621 66.1C139.548 66.1433 139.548 66.2154 139.614 66.2587L140.682 66.9225C140.754 66.9658 140.87 66.9658 140.943 66.9225L141.909 66.3381C141.996 66.2948 141.996 66.2226 141.924 66.1793Z" fill="#E2E2E2"/>
<path d="M149.885 71.035L148.723 70.3279C148.65 70.2846 148.526 70.2846 148.454 70.3279L147.473 70.934C147.401 70.9772 147.401 71.0566 147.473 71.0999L148.628 71.8142C148.708 71.8647 148.824 71.8647 148.904 71.8142L149.892 71.2009C149.965 71.1576 149.965 71.0783 149.885 71.035Z" fill="#E2E2E2"/>
<path d="M151.221 71.8502L150.364 71.3308C150.284 71.2803 150.161 71.2803 150.088 71.3308L149.1 71.944C149.028 71.9873 149.028 72.0667 149.1 72.1172L149.958 72.6439C150.037 72.6944 150.161 72.6944 150.234 72.6439L151.221 72.0234C151.301 71.9729 151.301 71.9007 151.221 71.8502Z" fill="#E2E2E2"/>
<path d="M151.955 73.0768L151.091 72.5429C151.011 72.4924 150.887 72.4924 150.815 72.5429L150.452 72.7665C150.379 72.817 150.379 72.8892 150.459 72.9397L151.323 73.4736C151.403 73.5241 151.527 73.5241 151.599 73.4736L151.962 73.2427C152.035 73.2066 152.035 73.1273 151.955 73.0768Z" fill="#E2E2E2"/>
<path d="M154.701 74.765L153.815 74.2167C153.735 74.1662 153.611 74.1662 153.531 74.2167L153.168 74.4476C153.095 74.4981 153.095 74.5775 153.175 74.6208L154.062 75.1691C154.141 75.2196 154.272 75.2196 154.345 75.1691L154.708 74.9382C154.788 74.8949 154.781 74.8156 154.701 74.765Z" fill="#E2E2E2"/>
<path d="M153.321 73.9137L152.442 73.3726C152.362 73.3221 152.238 73.3221 152.166 73.3726L151.803 73.6035C151.73 73.654 151.73 73.7261 151.81 73.7766L152.689 74.3177C152.769 74.3682 152.892 74.3682 152.972 74.3177L153.335 74.0869C153.401 74.0436 153.401 73.9642 153.321 73.9137Z" fill="#E2E2E2"/>
<path d="M152.514 73.3365L153.393 73.8776C153.473 73.9281 153.597 73.9281 153.677 73.8776L154.04 73.6467C154.112 73.5962 154.112 73.5241 154.033 73.4736L153.154 72.9397C153.074 72.8892 152.95 72.8892 152.878 72.9397L152.522 73.1706C152.427 73.2066 152.434 73.286 152.514 73.3365Z" fill="#E2E2E2"/>
<path d="M148.214 70.0105L142.352 66.4319C142.28 66.3886 142.163 66.3886 142.091 66.4319L141.125 67.0163C141.052 67.0596 141.052 67.1317 141.117 67.175L146.965 70.7824C147.037 70.8257 147.161 70.8257 147.234 70.7824L148.214 70.1764C148.287 70.1331 148.287 70.061 148.214 70.0105Z" fill="#E2E2E2"/>
<path d="M137.536 63.2573L139.621 64.5271C139.73 64.5921 139.904 64.5921 140.013 64.5271L140.667 64.1375C140.776 64.0726 140.783 63.9644 140.674 63.9067L138.582 62.6513C138.481 62.5863 138.306 62.5936 138.197 62.6513L137.551 63.0337C137.435 63.0914 137.427 63.1924 137.536 63.2573Z" fill="#E2E2E2"/>
<path d="M141.452 65.6382L142.113 66.0423C142.222 66.1072 142.396 66.1072 142.512 66.0423L143.166 65.6527C143.275 65.5877 143.275 65.4795 143.173 65.4146L142.505 65.0105C142.396 64.9456 142.222 64.9456 142.113 65.0105L141.459 65.4001C141.35 65.4723 141.343 65.5733 141.452 65.6382Z" fill="#E2E2E2"/>
<path d="M142.672 66.3814L143.348 66.7926C143.457 66.8576 143.638 66.8576 143.747 66.7926L144.401 66.3958C144.51 66.3309 144.51 66.2227 144.401 66.1577L143.725 65.7537C143.616 65.6888 143.442 65.6888 143.326 65.7537L142.672 66.1505C142.563 66.2082 142.563 66.3164 142.672 66.3814Z" fill="#E2E2E2"/>
<path d="M143.907 67.1389L144.59 67.5502C144.699 67.6151 144.88 67.6151 144.989 67.5502L145.65 67.1534C145.759 67.0884 145.759 66.9802 145.65 66.9081L144.967 66.4968C144.858 66.4319 144.677 66.4319 144.568 66.4968L143.914 66.8936C143.798 66.9586 143.798 67.0668 143.907 67.1389Z" fill="#E2E2E2"/>
<path d="M145.163 67.8965L145.853 68.315C145.962 68.3799 146.144 68.3799 146.26 68.315L146.921 67.9109C147.03 67.846 147.03 67.7306 146.921 67.6656L146.231 67.2472C146.122 67.1822 145.941 67.1822 145.824 67.2472L145.163 67.6512C145.047 67.7233 145.047 67.8316 145.163 67.8965Z" fill="#E2E2E2"/>
<path d="M146.427 68.6685L147.124 69.0942C147.241 69.1663 147.422 69.1663 147.531 69.0942L148.192 68.6901C148.301 68.618 148.301 68.5098 148.192 68.4448L147.495 68.0264C147.379 67.9614 147.197 67.9614 147.088 68.0264L146.427 68.4304C146.318 68.4881 146.318 68.6036 146.427 68.6685Z" fill="#E2E2E2"/>
<path d="M147.713 69.4477L148.418 69.8734C148.534 69.9455 148.716 69.9455 148.832 69.8734L149.493 69.4621C149.602 69.39 149.602 69.2817 149.486 69.2096L148.781 68.7839C148.665 68.7118 148.483 68.7118 148.374 68.7839L147.713 69.1952C147.597 69.2673 147.597 69.3828 147.713 69.4477Z" fill="#E2E2E2"/>
<path d="M149.006 70.2413L149.718 70.6742C149.834 70.7464 150.023 70.7464 150.132 70.6742L150.8 70.2557C150.909 70.1836 150.909 70.0754 150.793 70.0032L150.074 69.5703C149.957 69.4982 149.776 69.4982 149.66 69.5703L148.991 69.9816C148.89 70.0537 148.897 70.1692 149.006 70.2413Z" fill="#E2E2E2"/>
<path d="M150.321 71.0422L151.04 71.4823C151.156 71.5544 151.345 71.5544 151.461 71.4823L152.129 71.0638C152.246 70.9917 152.238 70.8762 152.122 70.8041L151.396 70.3712C151.28 70.299 151.091 70.299 150.982 70.3712L150.313 70.7897C150.205 70.8546 150.205 70.97 150.321 71.0422Z" fill="#E2E2E2"/>
<path d="M153.466 71.6122L152.732 71.172C152.616 71.0999 152.427 71.0999 152.311 71.172L151.643 71.5905C151.526 71.6627 151.534 71.7781 151.65 71.8502L152.384 72.2976C152.5 72.3697 152.689 72.3697 152.805 72.2976L153.473 71.8719C153.589 71.7997 153.582 71.6843 153.466 71.6122Z" fill="#E2E2E2"/>
<path d="M156.538 73.4664L154.076 71.9873C153.953 71.9152 153.764 71.9152 153.655 71.9873L152.986 72.413C152.87 72.4851 152.877 72.6006 152.994 72.6727L155.449 74.1662C155.572 74.2384 155.761 74.2456 155.877 74.1662L156.553 73.7333C156.669 73.6612 156.662 73.5385 156.538 73.4664Z" fill="#E2E2E2"/>
<path d="M159.001 71.8575L158.245 71.4101C158.122 71.338 157.933 71.338 157.817 71.4101L157.149 71.8358C157.032 71.908 157.047 72.0234 157.163 72.0956L157.919 72.5429C158.042 72.615 158.231 72.615 158.347 72.5429L159.015 72.1172C159.132 72.045 159.124 71.9296 159.001 71.8575Z" fill="#E2E2E2"/>
<path d="M146.442 63.0409L145.774 62.6513C145.665 62.5864 145.49 62.5864 145.381 62.6513L144.742 63.0337C144.633 63.0986 144.633 63.1996 144.742 63.2645L145.41 63.6542C145.519 63.7191 145.694 63.7191 145.803 63.6542L146.442 63.2718C146.551 63.2068 146.551 63.1058 146.442 63.0409Z" fill="#E2E2E2"/>
<path d="M147.684 63.7623L147.008 63.3655C146.899 63.3006 146.725 63.3006 146.616 63.3655L145.97 63.7479C145.861 63.8129 145.861 63.9211 145.97 63.986L146.645 64.3828C146.754 64.4478 146.936 64.4478 147.045 64.3828L147.691 63.9932C147.793 63.9283 147.793 63.8273 147.684 63.7623Z" fill="#E2E2E2"/>
<path d="M148.941 64.4911L148.258 64.0942C148.149 64.0293 147.967 64.0293 147.858 64.0942L147.212 64.4838C147.103 64.5488 147.103 64.657 147.212 64.7219L147.895 65.126C148.004 65.1909 148.185 65.1909 148.294 65.126L148.941 64.7364C149.05 64.6642 149.05 64.556 148.941 64.4911Z" fill="#E2E2E2"/>
<path d="M150.212 65.2342L149.522 64.8302C149.413 64.7652 149.231 64.7652 149.122 64.8302L148.476 65.2198C148.367 65.2847 148.367 65.3929 148.483 65.4579L149.173 65.8619C149.289 65.9268 149.464 65.9268 149.58 65.8619L150.226 65.4651C150.328 65.4074 150.328 65.2991 150.212 65.2342Z" fill="#E2E2E2"/>
<path d="M151.497 65.9845L150.793 65.5733C150.677 65.5084 150.502 65.5084 150.386 65.5733L149.74 65.9701C149.631 66.0351 149.631 66.1433 149.747 66.2154L150.444 66.6267C150.56 66.6916 150.742 66.6916 150.851 66.6267L151.505 66.2299C151.621 66.1577 151.614 66.0495 151.497 65.9845Z" fill="#E2E2E2"/>
<path d="M152.805 66.7421L152.093 66.3309C151.977 66.2659 151.795 66.2659 151.686 66.3309L151.032 66.7277C150.924 66.7926 150.924 66.9081 151.04 66.973L151.752 67.3915C151.868 67.4564 152.049 67.4564 152.158 67.3915L152.812 66.9874C152.921 66.9153 152.921 66.807 152.805 66.7421Z" fill="#E2E2E2"/>
<path d="M154.12 67.5069L153.401 67.0884C153.284 67.0235 153.103 67.0235 152.994 67.0884L152.34 67.4925C152.231 67.5574 152.231 67.6728 152.347 67.7378L153.066 68.1562C153.183 68.2284 153.372 68.2212 153.481 68.1562L154.134 67.7522C154.243 67.6873 154.236 67.579 154.12 67.5069Z" fill="#E2E2E2"/>
<path d="M155.456 68.2861L154.73 67.8604C154.614 67.7955 154.425 67.7955 154.316 67.8604L153.662 68.2644C153.553 68.3366 153.553 68.4448 153.677 68.517L154.403 68.9426C154.519 69.0148 154.708 69.0148 154.817 68.9426L155.471 68.5314C155.58 68.4665 155.572 68.351 155.456 68.2861Z" fill="#E2E2E2"/>
<path d="M155.747 69.7363C155.863 69.8084 156.052 69.8084 156.168 69.7363L156.829 69.325C156.938 69.2529 156.931 69.1447 156.815 69.0725L156.081 68.6468C155.965 68.5747 155.776 68.5747 155.667 68.6468L155.013 69.0581C154.904 69.1302 154.911 69.2385 155.028 69.3106L155.747 69.7363Z" fill="#E2E2E2"/>
<path d="M158.18 69.8661L157.432 69.4332C157.308 69.3611 157.127 69.3611 157.011 69.4332L156.35 69.8445C156.241 69.9166 156.248 70.0321 156.364 70.097L157.112 70.5371C157.236 70.6093 157.425 70.6093 157.534 70.5371L158.195 70.1187C158.311 70.0537 158.296 69.9383 158.18 69.8661Z" fill="#E2E2E2"/>
<path d="M160.352 71.1287L158.761 70.2052C158.681 70.162 158.565 70.162 158.492 70.2052L157.686 70.7175C157.614 70.7608 157.621 70.8329 157.701 70.8834L159.284 71.8142C159.364 71.8574 159.488 71.8574 159.56 71.8142L160.374 71.2947C160.439 71.2514 160.432 71.1793 160.352 71.1287Z" fill="#E2E2E2"/>
<path d="M158.936 126.286C156.829 126.907 154.875 128.054 152.732 128.581C150.851 129.187 148.941 129.641 147.03 130.132C145.817 130.449 144.604 130.846 143.587 131.597C143.13 131.936 143.21 132.643 143.253 133.141C143.326 133.97 144.445 134.381 145.113 134.605C146.043 134.915 147.038 135.052 148.011 134.908C149.326 134.713 150.379 134.05 151.483 133.364C152.493 132.736 153.524 132.138 154.592 131.611C155.631 131.099 156.728 130.745 157.788 130.269C158.798 129.814 159.56 129.115 159.662 127.975C159.691 127.679 159.713 127.383 159.669 127.087C159.626 126.806 159.51 126.532 159.306 126.337C159.263 126.294 159.212 126.258 159.146 126.25C159.096 126.243 159.052 126.258 159.008 126.272C158.979 126.279 158.958 126.279 158.936 126.286Z" fill="#31394C"/>
<path d="M156.553 124.62C156.219 124.598 155.878 124.605 155.543 124.627C154.723 124.685 153.902 124.822 153.081 124.901C152.202 124.988 151.36 124.908 150.481 124.829C150.212 124.8 149.936 124.779 149.667 124.779C147.473 124.735 145.251 126.142 144.176 128.025C144.168 128.025 144.161 128.018 144.154 128.018C143.253 128.393 143.616 129.62 143.536 130.37C143.478 130.904 143.224 131.452 143.268 131.993C143.304 132.433 143.616 132.722 143.958 132.967C145.272 133.884 147.074 134.23 148.636 133.79C149.849 133.451 150.873 132.729 151.962 132.116C153.313 131.358 154.686 130.579 156.132 130.009C156.88 129.713 157.679 129.483 158.355 129.028C159.233 128.444 159.916 127.426 159.444 126.373C158.907 125.125 157.781 124.692 156.553 124.62Z" fill="#2D2D2D"/>
<path d="M155.049 126.207C154.41 125.709 153.669 125.24 152.892 124.916C152.079 124.973 151.294 124.908 150.481 124.829C150.212 124.8 149.936 124.778 149.667 124.778C149.326 124.93 148.999 125.132 148.701 125.385C148.665 125.413 148.65 125.449 148.643 125.493C148.614 125.529 148.585 125.565 148.556 125.594C148.41 125.774 148.294 125.969 148.222 126.193C148.062 126.683 148.243 127.123 148.512 127.535C148.774 127.946 149.035 128.321 149.442 128.602C149.623 128.725 149.834 128.848 150.052 128.891C150.241 128.927 150.524 128.956 150.677 128.819C150.706 128.797 150.713 128.761 150.713 128.725C151.759 128.162 152.856 127.953 154.033 127.802C154.468 127.744 155.187 127.693 155.485 127.318C155.79 126.921 155.347 126.445 155.049 126.207Z" fill="#101011"/>
<path d="M148.563 119.699C146.456 120.32 144.503 121.467 142.36 121.994C140.478 122.6 138.568 123.054 136.658 123.545C135.445 123.862 134.232 124.259 133.215 125.009C132.757 125.348 132.837 126.056 132.88 126.553C132.953 127.383 134.072 127.794 134.74 128.018C135.67 128.328 136.665 128.465 137.638 128.321C138.953 128.126 140.006 127.462 141.11 126.777C142.12 126.149 143.151 125.55 144.219 125.024C145.258 124.512 146.355 124.158 147.415 123.682C148.425 123.227 149.188 122.527 149.289 121.388C149.318 121.092 149.34 120.796 149.289 120.5C149.246 120.219 149.13 119.945 148.926 119.75C148.883 119.706 148.832 119.67 148.766 119.663C148.715 119.656 148.672 119.67 148.628 119.685C148.607 119.685 148.585 119.692 148.563 119.699Z" fill="#31394C"/>
<path d="M146.18 118.033C145.846 118.011 145.505 118.018 145.171 118.04C144.35 118.098 143.529 118.235 142.708 118.314C141.829 118.401 140.987 118.321 140.108 118.242C139.839 118.213 139.563 118.191 139.294 118.191C137.101 118.148 134.878 119.555 133.803 121.438C133.796 121.438 133.788 121.431 133.781 121.431C132.88 121.806 133.244 123.033 133.171 123.783C133.113 124.317 132.859 124.865 132.902 125.406C132.939 125.846 133.251 126.135 133.592 126.38C134.907 127.296 136.708 127.643 138.27 127.203C139.483 126.864 140.507 126.142 141.597 125.529C142.948 124.771 144.321 123.992 145.766 123.422C146.515 123.126 147.314 122.895 147.989 122.441C148.868 121.856 149.551 120.839 149.079 119.786C148.534 118.538 147.408 118.105 146.18 118.033Z" fill="#2D2D2D"/>
<path d="M144.582 120.854C144.888 120.464 144.444 119.988 144.147 119.75C143.435 119.187 142.585 118.675 141.706 118.343C141.176 118.336 140.653 118.292 140.115 118.242C139.846 118.213 139.57 118.191 139.302 118.191C139.229 118.191 139.156 118.206 139.084 118.206C138.619 118.357 138.19 118.603 137.798 118.934C137.762 118.963 137.747 118.999 137.74 119.043C137.711 119.079 137.682 119.115 137.653 119.144C137.508 119.324 137.391 119.519 137.319 119.743C137.159 120.233 137.34 120.673 137.609 121.084C137.871 121.496 138.132 121.871 138.539 122.152C138.721 122.275 138.931 122.398 139.149 122.441C139.338 122.477 139.621 122.506 139.774 122.369C139.803 122.347 139.81 122.311 139.81 122.275C140.856 121.712 141.953 121.503 143.13 121.351C143.566 121.287 144.285 121.229 144.582 120.854Z" fill="#101011"/>
<g opacity="0.3">
<path opacity="0.3" d="M104.094 130.868C104.45 130.666 105.017 130.637 105.424 130.825L117.823 137.188L128.718 129.223C128.74 129.208 128.762 129.194 128.784 129.18C129.082 129.006 129.772 128.408 130.171 128.516C130.665 128.653 130.643 129.548 130.404 129.836L123.067 138.725L141.103 141.272C141.212 141.293 141.546 140.81 141.633 140.846C141.902 140.961 141.822 141.676 141.779 141.878C141.757 142.015 141.648 142.137 141.488 142.224C141.285 142.339 140.987 142.412 140.667 142.39L122.108 142.065L124.026 150.103L124.019 150.687C124.048 150.867 123.939 151.033 123.728 151.156C123.619 151.221 123.481 151.264 123.329 151.3C122.798 151.394 122.232 151.228 122.072 150.925L116.29 142.592L101.211 146.502C100.796 146.618 100.288 146.56 99.9975 146.344C99.6706 146.113 99.5544 145.319 99.9176 145.11C99.9393 145.096 100.273 145.052 100.295 145.038L113.639 139.569L103.985 131.633C103.709 131.431 103.557 130.601 103.84 130.384C103.891 130.37 104.065 130.889 104.094 130.868Z" fill="#808080"/>
</g>
<path d="M140.834 137.138C141.909 136.524 142.781 137.022 142.781 138.241C142.781 139.468 141.924 140.954 140.849 141.567C139.781 142.181 138.909 141.69 138.909 140.464C138.909 139.244 139.767 137.751 140.834 137.138Z" fill="#1B1F2D"/>
<path d="M141.415 142.83L139.549 141.741L142.222 137.008L144.161 138.133L141.415 142.83Z" fill="#1B1F2D"/>
<path d="M142.803 138.277C143.878 137.664 144.75 138.162 144.75 139.381C144.75 140.608 143.892 142.094 142.817 142.707C141.75 143.321 140.878 142.83 140.878 141.604C140.871 140.384 141.735 138.891 142.803 138.277Z" fill="#1B1F2D"/>
<path d="M142.803 138.407C143.82 137.823 144.633 138.299 144.641 139.446C144.641 140.601 143.827 142.008 142.817 142.585C141.808 143.162 140.987 142.7 140.987 141.539C140.98 140.391 141.793 138.985 142.803 138.407Z" fill="#31394C"/>
<path d="M122.377 146.38C123.452 145.767 124.324 146.264 124.324 147.484C124.324 148.71 123.467 150.196 122.392 150.81C121.324 151.423 120.452 150.932 120.452 149.706C120.445 148.487 121.302 146.993 122.377 146.38Z" fill="#1B1F2D"/>
<path d="M122.951 152.072L121.084 150.983L123.757 146.25L125.697 147.375L122.951 152.072Z" fill="#1B1F2D"/>
<path d="M124.338 147.52C125.413 146.906 126.285 147.404 126.285 148.624C126.285 149.85 125.428 151.336 124.353 151.95C123.285 152.563 122.413 152.072 122.413 150.846C122.406 149.626 123.271 148.133 124.338 147.52Z" fill="#1B1F2D"/>
<path d="M124.338 147.65C125.355 147.065 126.169 147.541 126.176 148.689C126.176 149.843 125.362 151.25 124.353 151.827C123.343 152.404 122.522 151.942 122.522 150.781C122.515 149.634 123.336 148.227 124.338 147.65Z" fill="#31394C"/>
<path d="M99.7069 141.596C100.782 140.983 101.654 141.481 101.654 142.7C101.654 143.927 100.796 145.413 99.7215 146.026C98.6537 146.64 97.782 146.149 97.782 144.922C97.7748 143.703 98.6392 142.21 99.7069 141.596Z" fill="#1B1F2D"/>
<path d="M100.288 147.289L98.4211 146.199L101.094 141.466L103.034 142.592L100.288 147.289Z" fill="#1B1F2D"/>
<path d="M101.675 142.736C102.75 142.123 103.622 142.621 103.622 143.84C103.622 145.067 102.765 146.553 101.69 147.166C100.622 147.779 99.7505 147.289 99.7505 146.062C99.7433 144.843 100.608 143.35 101.675 142.736Z" fill="#1B1F2D"/>
<path d="M101.675 142.866C102.692 142.282 103.506 142.758 103.513 143.905C103.513 145.059 102.7 146.466 101.69 147.044C100.68 147.621 99.8594 147.159 99.8594 145.997C99.8522 144.85 100.666 143.443 101.675 142.866Z" fill="#31394C"/>
<path d="M103.208 127.282C104.283 126.669 105.155 127.167 105.155 128.386C105.155 129.612 104.298 131.099 103.223 131.712C102.155 132.325 101.283 131.835 101.283 130.608C101.283 129.389 102.14 127.895 103.208 127.282Z" fill="#1B1F2D"/>
<path d="M103.789 132.975L101.922 131.885L104.595 127.152L106.535 128.278L103.789 132.975Z" fill="#1B1F2D"/>
<path d="M105.177 128.422C106.252 127.809 107.123 128.307 107.123 129.526C107.123 130.752 106.266 132.239 105.191 132.852C104.123 133.465 103.252 132.975 103.252 131.748C103.244 130.529 104.109 129.035 105.177 128.422Z" fill="#1B1F2D"/>
<path d="M105.177 128.552C106.194 127.967 107.007 128.444 107.014 129.591C107.014 130.745 106.201 132.152 105.191 132.729C104.181 133.306 103.361 132.845 103.361 131.683C103.353 130.536 104.167 129.129 105.177 128.552Z" fill="#31394C"/>
<path d="M129.256 124.872C130.331 124.259 131.203 124.757 131.203 125.976C131.203 127.203 130.346 128.689 129.27 129.302C128.203 129.915 127.331 129.425 127.331 128.198C127.331 126.979 128.188 125.486 129.256 124.872Z" fill="#1B1F2D"/>
<path d="M129.837 130.558L127.97 129.475L130.643 124.742L132.583 125.861L129.837 130.558Z" fill="#1B1F2D"/>
<path d="M131.225 126.012C132.3 125.399 133.171 125.897 133.171 127.116C133.171 128.343 132.314 129.829 131.239 130.442C130.171 131.055 129.3 130.565 129.3 129.338C129.292 128.119 130.157 126.625 131.225 126.012Z" fill="#1B1F2D"/>
<path d="M131.224 126.135C132.241 125.55 133.055 126.027 133.062 127.174C133.062 128.328 132.249 129.735 131.239 130.312C130.229 130.889 129.408 130.428 129.408 129.266C129.401 128.126 130.215 126.712 131.224 126.135Z" fill="#31394C"/>
<path d="M104.094 126.972C104.45 126.77 105.017 126.741 105.423 126.929L117.823 132.087L128.718 125.327C128.74 125.312 128.762 125.298 128.784 125.284C129.082 125.11 129.772 124.512 130.171 124.62C130.665 124.757 130.643 125.652 130.404 125.94L123.067 133.624L141.103 137.376C141.212 137.397 141.546 136.914 141.633 136.95C141.902 137.065 141.822 137.78 141.779 137.982C141.757 138.119 141.648 138.241 141.488 138.328C141.285 138.443 140.987 138.516 140.667 138.494L122.123 136.964L124.04 146.207L124.033 146.791C124.062 146.971 123.953 147.137 123.743 147.26C123.634 147.325 123.496 147.368 123.343 147.404C122.813 147.498 122.246 147.332 122.086 147.029L116.305 137.498L101.225 142.614C100.811 142.729 100.302 142.671 100.012 142.455C99.685 142.224 99.5688 141.43 99.932 141.221C99.9538 141.207 100.288 141.163 100.31 141.149L113.653 134.475L104 127.737C103.724 127.535 103.571 126.705 103.854 126.488C103.891 126.474 104.065 126.986 104.094 126.972Z" fill="#AFAFAF"/>
<path d="M104.094 126.286C104.45 126.084 105.017 126.056 105.423 126.243L117.823 129.98L128.718 124.685C128.74 124.67 128.762 124.656 128.784 124.641C129.081 124.468 129.539 124.418 129.939 124.526C130.433 124.663 130.643 125.009 130.403 125.298L123.074 131.517L141.11 136.712C141.546 136.791 141.844 137.044 141.786 137.318C141.764 137.455 141.655 137.578 141.495 137.664C141.292 137.78 140.994 137.852 140.674 137.83L122.116 134.858L124.026 146.149C124.055 146.329 123.946 146.495 123.735 146.618C123.626 146.683 123.488 146.726 123.336 146.762C122.806 146.856 122.239 146.69 122.079 146.387L116.297 135.384L101.218 142.015C100.804 142.13 100.295 142.073 100.005 141.856C99.6777 141.625 99.7213 141.293 100.084 141.084C100.106 141.07 100.135 141.055 100.164 141.041L113.653 132.347L104 127.03C103.724 126.828 103.709 126.532 104 126.322C104.036 126.322 104.065 126.308 104.094 126.286Z" fill="#DDDDDD"/>
<path d="M121.716 126.373V132.13C121.709 132.614 121.382 133.097 120.743 133.465C119.457 134.201 117.401 134.201 116.123 133.465C115.484 133.097 115.164 132.614 115.164 132.13V126.496L121.716 126.373Z" fill="#AFAFAF"/>
<path d="M116.13 125.161C117.416 124.425 119.493 124.425 120.772 125.161C122.05 125.897 122.028 127.087 120.743 127.823C119.457 128.559 117.401 128.559 116.123 127.823C114.844 127.087 114.852 125.897 116.13 125.161Z" fill="#DDDDDD"/>
<path d="M121.447 121.157V126.431C121.44 126.871 121.142 127.311 120.554 127.65C119.377 128.328 117.489 128.328 116.319 127.65C115.738 127.311 115.44 126.871 115.44 126.431V121.265L121.447 121.157Z" fill="#AFAFAF"/>
<path d="M116.326 120.046C117.503 119.367 119.414 119.367 120.583 120.046C121.752 120.724 121.738 121.813 120.561 122.484C119.384 123.162 117.496 123.162 116.326 122.484C115.15 121.813 115.15 120.724 116.326 120.046Z" fill="#A6BFFF"/>
<path d="M106.644 107.549C112.135 115.565 132.372 97.1528 132.372 97.1528C130.977 103.48 134.5 107.614 133.294 120.594C133.273 120.868 133.345 121.135 133.505 121.351C133.919 121.9 134.82 122.888 136.033 123.097C138.183 123.465 139.461 122.708 140.013 122.246C140.224 122.073 140.355 121.828 140.377 121.553C140.616 119.122 141.975 105.399 142.178 100.443C142.331 96.6261 142.955 88.7258 136.708 87.3983C132.198 86.4387 117.242 92.2611 117.242 92.2611C117.242 92.2611 100.586 98.704 106.644 107.549Z" fill="#070707"/>
<path d="M144.851 105.067L126.045 94.2812C123.067 92.5713 118.295 92.5064 115.193 94.1297L94.7456 104.829C91.426 106.568 91.3171 109.555 94.5059 111.38L115.222 123.263C118.411 125.089 123.605 125.024 126.612 123.105L145.149 111.308C147.96 109.519 147.829 106.77 144.851 105.067Z" fill="#0F0F0F"/>
<path d="M94.1792 105.161C94.3608 105.046 94.5496 104.938 94.7457 104.829L115.186 94.1297C118.288 92.5064 123.06 92.5713 126.038 94.2812L144.844 105.067C145.672 105.544 146.268 106.099 146.653 106.691C144.967 108.646 141.176 109.505 139.062 110.37C135.249 111.929 131.893 114.339 128.486 116.604C126.801 117.722 125.145 118.999 123.147 119.461C121.041 119.945 118.796 119.851 116.755 119.144C113.305 117.953 110.632 115.139 107.53 113.307C105.649 112.196 103.658 111.258 101.595 110.507C99.9176 109.901 98.2759 109.144 96.6706 108.372C95.6465 107.881 94.5859 107.117 94.2663 105.977C94.1937 105.71 94.1646 105.435 94.1792 105.161Z" fill="#333333"/>
<path d="M127.142 43.7772C127.157 43.337 126.132 41.4251 125.66 40.5593C125.239 37.7311 124.774 35.444 124.774 35.444C121.556 32.7312 113.893 44.4914 113.893 44.4914L113.065 55.3065C117.191 59.0799 121.026 56.9443 121.026 56.9443C121.113 52.0382 124.338 52.9833 125.798 50.8477C126.423 49.9314 126.423 47.4712 126.183 44.78C126.634 44.477 127.135 44.0802 127.142 43.7772Z" fill="#F2C599"/>
<path d="M113.334 52.904C117.3 54.0944 119.53 52.3051 120.641 49.0079C120.641 49.0079 120.902 48.6183 119.384 48.1638C117.866 47.7093 117.263 43.0557 118.825 43.4164C120.387 43.7772 120.314 45.9055 120.982 46.0859C121.651 46.2663 122.014 45.6458 121.52 44.1595C121.026 42.6805 123.902 42.3342 122.98 40.6243C122.057 38.9143 122.697 37.0096 124.498 36.1655C126.299 35.3213 125.137 28.4311 123.75 28.8352C122.362 29.232 122.086 30.6172 121.266 29.03C120.445 27.4427 119.791 26.245 118.556 26.9449C117.321 27.6519 118.106 28.5754 116.653 27.9838C115.2 27.3994 114.917 27.8107 114.416 28.8279C113.915 29.8525 114.757 30.4513 113.087 30.5956C111.416 30.7399 111.961 32.1973 110.384 33.5753C108.801 34.9534 105.968 35.6099 106.237 40.4583C106.506 45.3067 109.745 51.8289 113.334 52.904Z" fill="#1C1C1C"/>
<path d="M127.563 48.4668C127.527 48.2792 127.338 48.2865 127.186 48.2792C126.961 48.2648 126.728 48.2576 126.503 48.2504C125.827 48.2143 125.166 48.1638 124.505 48.0195C124.026 47.9113 123.554 47.7526 123.096 47.5722C122.871 47.4784 122.646 47.3846 122.428 47.2764C122.225 47.1826 122.021 47.0599 121.803 47.0094C121.651 46.9806 121.535 47.0816 121.498 47.2259C121.433 47.5145 121.811 47.6443 122.014 47.7526C122.312 47.9113 122.624 48.0628 122.936 48.1927C124.135 48.6905 125.442 49.0007 126.75 48.9863C126.946 48.9863 127.149 48.943 127.338 48.8781C127.476 48.8276 127.578 48.7121 127.578 48.5606C127.578 48.5245 127.571 48.4957 127.563 48.4668Z" fill="black"/>
<path d="M129.59 48.4524C129.561 48.171 129.401 47.8536 129.125 47.7742C129.016 47.7453 128.9 47.7381 128.784 47.7453C128.45 47.7453 128.115 47.767 127.781 47.8175C127.483 47.868 127.12 47.9257 126.924 48.1782C126.772 48.3803 126.801 48.6688 126.902 48.8925C127.019 49.1595 127.258 49.2316 127.52 49.2749C127.956 49.347 128.479 49.3759 128.922 49.2893C129.278 49.2172 129.561 49.0079 129.597 48.6256C129.597 48.5678 129.597 48.5101 129.59 48.4524Z" fill="#1B1F2D"/>
<path d="M119.515 42.998C120.692 42.327 121.644 42.8681 121.644 44.2028C121.651 45.5448 120.706 47.1682 119.53 47.8391C118.36 48.5101 117.409 47.969 117.409 46.627C117.401 45.2995 118.346 43.6617 119.515 42.998Z" fill="#1B1F2D"/>
<path d="M120.14 49.21L118.099 48.0267L121.026 42.8537L123.147 44.0802L120.14 49.21Z" fill="#1B1F2D"/>
<path d="M121.665 44.2389C122.842 43.5679 123.794 44.109 123.794 45.4438C123.801 46.7858 122.857 48.4091 121.68 49.0801C120.51 49.7511 119.559 49.21 119.559 47.868C119.552 46.5404 120.496 44.9099 121.665 44.2389Z" fill="#1B1F2D"/>
<path d="M121.665 44.376C122.777 43.7411 123.67 44.2534 123.677 45.516C123.677 46.7786 122.791 48.3153 121.68 48.9502C120.576 49.5852 119.682 49.0729 119.675 47.8103C119.668 46.5477 120.561 45.0109 121.665 44.376Z" fill="#31394C"/>
<path d="M121.665 44.7007C122.573 44.1523 123.3 44.5997 123.307 45.6747C123.307 46.7641 122.581 48.0772 121.68 48.6256C120.779 49.1667 120.053 48.7338 120.045 47.6443C120.038 46.5621 120.765 45.2418 121.665 44.7007Z" stroke="#BF0020" stroke-width="0.25" stroke-miterlimit="10"/>
<path d="M110.239 71.5183L109.898 75.1186C112.767 73.9498 115.629 72.7665 118.484 71.5688C119.784 71.0205 121.091 70.4722 122.326 69.7868C122.994 69.4188 123.692 69.0797 124.266 68.5819C124.985 67.9614 125.166 67.2976 125.29 66.3958C125.348 65.9629 125.609 65.2991 126.169 65.4001C126.525 65.4578 126.641 65.9701 126.946 65.934C127.302 65.8907 127.65 65.6094 127.934 65.4073C128.253 65.1837 128.558 64.9456 128.929 64.8157C129.314 64.6786 129.735 64.5704 130.142 64.6498C130.236 64.6642 130.338 64.7003 130.403 64.7652C130.469 64.8374 130.498 64.9528 130.432 65.0322C130.738 64.9384 131.057 64.9239 131.37 64.9889C131.515 65.0177 131.667 65.0682 131.769 65.1765C131.871 65.2847 131.914 65.4578 131.834 65.5805C132.052 65.5444 132.285 65.5228 132.503 65.5733C132.721 65.6238 132.931 65.7609 133.011 65.9629C133.135 66.2587 132.968 66.5834 132.815 66.8647C132.938 66.8215 133.076 66.7782 133.2 66.8215C133.338 66.8647 133.432 67.0018 133.454 67.1461C133.476 67.2904 133.447 67.4347 133.389 67.5646C133.316 67.7305 133.215 67.8893 133.091 68.0191C132.96 68.149 132.808 68.2572 132.655 68.3654C132.001 68.82 131.377 69.2962 130.701 69.7218C129.786 70.299 128.864 70.8762 127.948 71.4534C126.016 72.6727 123.968 73.7982 122.123 75.1402C120.307 76.4533 118.396 77.6871 116.479 78.8631C113.784 80.5153 111.016 82.2685 108.067 83.4445C107.668 83.6033 107.217 83.798 106.782 83.798C103.346 83.798 102.089 80.4431 102.525 73.1128L110.239 71.5183Z" fill="#F2C599"/>
<path d="M110.762 74.3538C110.762 74.3538 107.719 76.1358 101.784 76.2224C101.784 76.2224 101.915 61.8576 105.598 58.5965C109.28 55.3426 111.213 64.289 110.762 74.3538Z" fill="#D31726"/>
<path d="M146.827 92.7734C142.316 91.8138 126.554 95.9912 126.554 95.9912L104.094 93.466C104.094 93.466 102.191 102.773 104.181 106.496C106.179 110.226 111.699 112.383 117.06 114.043C126.38 116.922 142.788 103.646 142.788 103.646C142.774 103.718 142.759 103.79 142.745 103.855L144.851 105.06C147.829 106.77 147.96 109.512 145.149 111.301L143.268 112.499C143.936 116.077 144.692 120.5 144.06 127.304C144.038 127.535 144.089 127.78 144.212 127.975C144.524 128.473 145.251 129.374 146.457 129.584C148.592 129.944 150.176 129.223 150.924 128.761C151.222 128.581 151.403 128.278 151.425 127.931C151.592 125.183 152.406 111.799 152.602 106.929C152.747 103.119 153.067 94.1009 146.827 92.7734Z" fill="#2B2B2B"/>
<path d="M104.087 93.466C104.087 93.466 103.397 96.8569 103.281 100.363L114.263 94.6131L104.087 93.466Z" fill="#31394C"/>
<path d="M128.268 95.5583L126.045 94.2812C123.067 92.5713 118.295 92.5064 115.193 94.1297L114.271 94.6131L126.554 95.9984C126.554 95.9912 127.2 95.818 128.268 95.5583Z" fill="#2B3D89"/>
<path d="M142.745 103.855L144.604 104.923C144.655 104.339 144.815 103.776 144.895 103.199C144.938 102.889 145.026 102.593 144.786 102.34C144.256 101.777 143.188 102.391 142.65 102.6C140.166 103.574 137.769 104.736 135.437 106.02C133.033 107.34 130.636 108.603 127.905 109.115C125.007 109.656 121.84 109.822 118.941 109.223C116.101 108.632 112.041 106.914 110.457 104.447C108.489 101.388 108.823 94.577 108.823 94.577C108.765 94.3678 108.707 94.173 108.634 93.9782L104.087 93.466C104.087 93.466 102.184 102.773 104.174 106.496C106.172 110.226 111.692 112.383 117.053 114.043C126.372 116.921 142.781 103.646 142.781 103.646C142.767 103.718 142.759 103.783 142.745 103.855Z" fill="#070707"/>
<path d="M146.362 119.54C146.398 116.64 145.694 113.985 145.149 111.301C145.149 111.301 145.149 111.301 145.142 111.308L143.26 112.506C143.929 116.085 144.684 120.507 144.052 127.311C144.03 127.542 144.081 127.787 144.205 127.982C144.517 128.48 145.244 129.382 146.449 129.591C146.595 129.612 146.733 129.627 146.871 129.641C146.791 129.187 146.725 128.732 146.696 128.27C146.5 125.486 146.333 122.318 146.362 119.54Z" fill="#070707"/>
<path d="M128.007 63.0625C128.007 63.0625 124.396 58.5316 121.019 56.9443C121.019 56.9443 118.636 56.7062 116.428 56.5403C114.489 56.396 113.058 55.3065 113.058 55.3065C113.058 55.3065 108.663 56.3166 106.68 57.8389C104.603 59.4334 102.62 67.2327 103.433 73.5529C104.247 79.8732 103.753 88.7474 103.433 91.0995C102.816 95.6088 107.159 99.8006 112.854 100.197C120.329 100.724 128.646 98.9204 128.377 95.2336C127.789 87.2179 128.007 63.0625 128.007 63.0625Z" fill="#D31726"/>
<path d="M131.464 81.0203L131.609 84.7071C134.479 83.5383 137.34 82.3551 140.195 81.1574C141.495 80.6091 142.803 80.0607 144.038 79.3753C144.706 79.0074 145.403 78.6683 145.977 78.1704C146.696 77.55 146.878 76.8862 147.001 75.9843C147.059 75.5514 147.321 74.8877 147.88 74.9887C148.236 75.0464 148.352 75.5586 148.657 75.5226C149.013 75.4793 149.362 75.1979 149.645 74.9959C149.965 74.7722 150.27 74.5341 150.64 74.4043C151.025 74.2672 151.447 74.159 151.853 74.2383C151.948 74.2528 152.05 74.2888 152.115 74.3538C152.18 74.4259 152.209 74.5414 152.144 74.6207C152.449 74.5269 152.769 74.5125 153.081 74.5774C153.226 74.6063 153.379 74.6568 153.481 74.765C153.582 74.8732 153.626 75.0464 153.546 75.169C153.764 75.133 153.996 75.1113 154.214 75.1618C154.432 75.2123 154.643 75.3494 154.723 75.5514C154.846 75.8472 154.679 76.1719 154.527 76.4533C154.65 76.41 154.788 76.3667 154.912 76.41C155.05 76.4533 155.144 76.5904 155.166 76.7347C155.188 76.879 155.151 77.0233 155.1 77.1531C155.028 77.3191 154.926 77.4778 154.803 77.6077C154.672 77.7375 154.519 77.8458 154.367 77.954C153.713 78.4085 153.088 78.8847 152.413 79.3104C151.498 79.8876 150.575 80.4648 149.66 81.042C147.728 82.2613 145.679 83.3868 143.834 84.7288C142.018 86.0419 140.108 87.2756 138.19 88.4516C135.495 90.1038 132.728 91.857 129.779 93.0331C129.379 93.1918 128.929 93.3866 128.493 93.3866C125.057 93.3866 123.612 89.6493 124.048 82.3118L131.464 81.0203Z" fill="#F2C599"/>
<path d="M132.655 81.3306C132.655 81.3306 128.857 83.5311 122.937 84.0073C122.937 84.0073 122.05 67.5285 125.551 63.6108C129.038 59.7004 132.547 69.9239 132.655 81.3306Z" fill="#D31726"/>
<path d="M90.2638 74.0508C90.4745 74.1734 90.6924 74.1301 90.8522 74.0075C91.2299 77.7376 92.7335 81.4316 94.1354 84.8731C97.484 93.0908 102.641 100.601 108.358 107.297C109.535 108.675 110.566 110.5 112.171 111.417C113.973 112.448 116.384 112.174 117.779 110.601C118.752 109.505 119.195 108.047 119.406 106.604C119.973 102.78 120.031 98.8555 119.697 95.0027C119.392 91.4602 119.849 87.7013 118.564 84.3103C117.481 81.4604 115.215 79.1372 112.752 77.3985C110.174 75.5803 107.261 74.3177 104.443 72.9252C101.922 71.6771 99.3726 69.9166 96.518 69.5487C94.7093 69.3106 91.9418 69.2529 90.46 70.5155C89.3849 71.4245 88.8837 73.2138 90.2638 74.0508Z" fill="#333333"/>
<path d="M93.4527 71.2586L112.222 82.0232C114.641 83.4084 116.595 86.7706 116.588 89.5411L116.53 109.166C116.522 111.929 114.554 113.04 112.135 111.655L93.3656 100.883C90.9467 99.4976 88.9928 96.1283 89 93.365L89.0581 73.7405C89.0654 70.9844 91.0339 69.8734 93.4527 71.2586Z" fill="#0F0F0F"/>
<path d="M99.3363 118.011L104.712 121.077L104.087 87.9033C104.087 87.7157 103.985 87.5426 103.818 87.4488L98.9659 84.6422C98.6027 84.433 98.1523 84.6927 98.1523 85.1039V115.991C98.1596 116.821 98.6027 117.592 99.3363 118.011Z" fill="#DDDDDD"/>
<path d="M108.511 119.418L104.719 117.239L104.406 119.865L105.91 121.077L108.511 119.418Z" fill="#AFAFAF"/>
<path d="M108.511 119.418L106.869 120.356C105.685 121.034 104.726 120.486 104.719 119.136L104.661 87.7662C104.661 87.456 104.494 87.1602 104.218 87.0086L99.5252 84.3752C99.3436 84.2742 99.1185 84.267 98.9296 84.368L98.4792 84.5989C98.4792 84.5989 98.7335 84.5051 98.9659 84.6277L103.629 87.3477C103.898 87.5065 104.058 87.7879 104.065 88.0981L104.123 119.476C104.13 121.2 105.365 121.9 106.876 121.034L109.113 119.75L108.511 119.418Z" fill="#AFAFAF"/>
<path d="M132.11 120.046L131.631 119.908L131.028 106.691L133.055 106.453L132.11 120.046Z" fill="#AFAFAF"/>
<path d="M132.11 120.046L132.038 106.323L135.946 104.44L135.11 118.328L132.11 120.046Z" fill="#C6C6C6"/>
<path d="M141.263 102.903V101.763L140.812 101.915L140.224 100.623C140.18 100.522 140.086 100.436 139.97 100.363C139.607 100.154 138.982 100.133 138.582 100.363L129.161 105.803L125.66 106.972V108.076C125.667 108.22 125.769 108.357 125.951 108.458C126.067 108.523 126.219 108.581 126.401 108.603L130.367 109.194C130.687 109.382 133.396 108.119 136.403 106.381C139.41 104.649 141.59 103.091 141.263 102.903Z" fill="#C6C6C6"/>
<path d="M139.97 99.2307C139.607 99.0214 138.982 98.9998 138.582 99.2307L125.943 106.525C125.537 106.756 125.588 107.117 125.951 107.326C126.067 107.391 126.219 107.448 126.401 107.47L130.367 108.062C130.687 108.249 133.396 106.987 136.403 105.248C139.418 103.509 141.597 101.951 141.27 101.763L140.231 99.4832C140.18 99.3894 140.086 99.3028 139.97 99.2307Z" fill="#DDDDDD"/>
<path d="M111.859 55.624L113.181 53.7409C113.181 53.7409 116.508 55.4147 121.251 55.1189L122.217 57.5936C122.21 57.5936 114.895 58.4017 111.859 55.624Z" fill="#D31726"/>
<path d="M118.665 45.2346C118.665 45.2346 119.406 39.8018 117.031 37.2766C114.656 34.7514 110.196 33.6042 108.903 34.6792C108.903 34.6792 109.404 33.1424 111.409 32.2694C111.409 32.2694 120.757 29.434 121.251 43.5391L118.665 45.2346Z" fill="#BF0020"/>
</svg>
