<svg width="18" height="20" viewBox="0 0 18 20" fill="none" xmlns="http://www.w3.org/2000/svg">
<path d="M9.97828 19.9454C14.1281 19.505 17.4571 16.2902 17.9359 12.2827C18.5744 7.02016 14.3561 2.55028 9.04342 2.50624V0.150199C9.04342 0.0180847 8.88381 -0.0479725 8.76981 0.0401038L3.75351 3.6072C3.66231 3.67325 3.66231 3.78335 3.75351 3.84941L8.76981 7.37246C8.88381 7.46054 9.04342 7.37246 9.04342 7.26237V4.90632C12.76 4.97238 15.747 8.01101 15.4962 11.6662C15.2682 14.8149 12.6232 17.3471 9.38544 17.5673C5.94244 17.7875 3.00107 15.4094 2.47664 12.2607C2.38543 11.6662 1.861 11.2478 1.24537 11.2478C0.492922 11.2478 -0.0999146 11.9084 0.0140934 12.613C0.743736 17.1049 5.03039 20.4738 9.97828 19.9454Z" fill="white"/>
</svg>
