<svg width="20" height="20" viewBox="0 0 20 20" fill="none" xmlns="http://www.w3.org/2000/svg">
<path d="M10 20C15.5228 20 20 15.5228 20 10C20 4.47715 15.5228 0 10 0C4.47715 0 0 4.47715 0 10C0 15.5228 4.47715 20 10 20Z" fill="#07354F"/>
<path d="M8.02647 14.8533C7.8598 14.8533 7.6998 14.7933 7.5798 14.68L4.3998 11.7933C4.12646 11.5466 4.10646 11.1266 4.35313 10.8533C4.5998 10.58 5.0198 10.56 5.29313 10.8066L7.96647 13.2266L14.6465 5.37995C14.8865 5.09995 15.3065 5.06662 15.5865 5.30662C15.8665 5.54662 15.8998 5.96662 15.6598 6.24662L8.53313 14.62C8.41313 14.76 8.24647 14.84 8.06647 14.8533C8.05313 14.8533 8.0398 14.8533 8.02647 14.8533Z" fill="white"/>
</svg>
