<svg width="35" height="35" viewBox="0 0 35 35" fill="none" xmlns="http://www.w3.org/2000/svg">
<circle cx="17.5" cy="17.5" r="17" stroke="#C4122F"/>
<path d="M27.5676 13.3118C27.3236 12.4026 26.614 11.6874 25.7104 11.4435C24.0694 11 17.5 11 17.5 11C17.5 11 10.9361 11 9.29514 11.4435C8.3915 11.6874 7.68189 12.4026 7.43796 13.3118C7 14.9583 7 18.401 7 18.401C7 18.401 7 21.8382 7.43796 23.4902C7.68189 24.3994 8.3915 25.1146 9.29514 25.3585C10.9306 25.802 17.5 25.802 17.5 25.802C17.5 25.802 24.0694 25.802 25.7049 25.3585C26.6085 25.1146 27.3181 24.3994 27.562 23.4902C28 21.8437 28 18.401 28 18.401C28 18.401 28.0055 14.9583 27.5676 13.3118ZM15.3545 21.5222V15.2743L20.8429 18.3955L15.3545 21.5222Z" fill="#C4122F"/>
</svg>
