<svg width="112" height="89" viewBox="0 0 112 89" fill="none" xmlns="http://www.w3.org/2000/svg">
<path d="M24.6192 68.9494C22.1434 70.3915 19.5324 72.9577 17.4392 75.7283L1.37988 77.2612C1.37988 77.2612 19.5324 87.5487 19.6337 87.5941C26.3861 91.0006 35.8056 87.1853 42.4567 83.3133L107.549 45.5811C107.549 45.5811 109.316 43.0489 110.543 38.2572C111.319 35.2368 111.995 30.0817 111.995 30.0817L24.6192 68.9494Z" fill="#A84300"/>
<path d="M24.6192 68.9494C22.1434 70.3915 19.5324 72.9577 17.4392 75.7283L1.37988 77.2612C1.37988 77.2612 13.7592 84.2785 18.1257 86.7425C23.3363 85.607 28.6031 83.1203 32.9021 80.6222L111.173 35.2481C111.646 32.6706 111.983 30.0817 111.983 30.0817L24.6192 68.9494Z" fill="#22313F"/>
<path d="M8.25624 61.1488C1.61643 65.0208 -2.46874 75.0358 1.66145 77.443C5.79164 79.8503 22.9876 77.4657 29.6387 73.5937L34.5229 70.755L13.1404 58.3101L8.25624 61.1488Z" fill="#1A4B6C"/>
<path d="M7.62656 77.3864C4.11534 77.3864 2.69734 76.864 2.16841 76.5575C1.40314 76.1146 1.02051 75.2403 1.02051 73.9685C1.02051 72.1631 1.80828 69.8694 3.19251 67.6439C4.67803 65.2594 6.65872 63.2723 8.77446 62.0346L14.1876 58.912L33.5106 70.176L29.1215 72.6968C24.3274 75.5014 14.1313 77.3864 7.62656 77.3864Z" fill="#F2F2F2"/>
<path d="M3.98029 75.0924C3.98029 73.287 4.76806 70.9933 6.15229 68.7678C7.63781 66.3833 9.6185 64.3961 11.7342 63.1585L16.6297 60.3311L14.1876 58.9004L8.77445 62.0457C6.65872 63.272 4.67803 65.2705 3.19251 67.655C1.80828 69.8692 1.02051 72.1742 1.02051 73.9797C1.02051 75.2514 1.40314 76.1144 2.16841 76.5686C2.50602 76.7616 3.21502 77.0455 4.588 77.2272C4.18286 76.7275 3.98029 76.0122 3.98029 75.0924Z" fill="#DCDCDC"/>
<path d="M111.556 29.5482L92.2105 18.2842C91.6478 17.9549 90.7362 17.9549 90.1848 18.2842L82.8022 22.5877L17.1919 60.6947L34.5117 70.7778L35.9072 74.593L39.2046 72.7762L104.173 35.044L107.876 32.8866L111.556 30.7405C112.119 30.3999 112.119 29.8662 111.556 29.5482Z" fill="#1A4B6C"/>
<path d="M110.532 30.1386L103.667 34.1355L35.5694 73.6505L35.1305 72.4696L35.0405 72.2084L34.8605 71.7088L34.5228 70.7777L34.4441 70.7323L34.174 70.5733L33.645 70.2668L18.1709 61.3191L83.3085 23.462L90.6911 19.1585C90.7811 19.1017 90.9612 19.0563 91.1975 19.0563C91.4339 19.0563 91.6139 19.113 91.704 19.1585L110.532 30.1386Z" fill="#DCDCDC"/>
<path d="M84.0067 25.8691L91.3892 21.5656C91.4793 21.5088 91.6593 21.4634 91.8957 21.4634C92.132 21.4634 92.3121 21.5202 92.4021 21.5656L108.822 31.1377L110.532 30.1385L91.7043 19.1697C91.6143 19.1129 91.4342 19.0675 91.1979 19.0675C90.9616 19.0675 90.7815 19.1243 90.6915 19.1697L83.3089 23.4732L18.2388 61.2849L20.5908 62.7156L84.0067 25.8691Z" fill="#DCDCDC"/>
<path d="M100.167 28.8326L87.9902 21.6903L94.3374 17.9886L106.514 25.1422L100.167 28.8326Z" fill="#EDEDED"/>
<path d="M100.189 33.0226L88.0127 25.8804L87.9902 21.6904L100.167 28.8326L100.189 33.0226Z" fill="#C2C2C2"/>
<path d="M89.3864 24.2567L88.6211 23.8025V22.5762L89.3864 23.0304V24.2567Z" fill="#22313F"/>
<path d="M89.3859 26.2438L88.6206 25.7896V24.5746L89.3859 25.0174V26.2438Z" fill="#22313F"/>
<path d="M91.13 25.2445L90.3535 24.8016V23.5753L91.13 24.0295V25.2445Z" fill="#22313F"/>
<path d="M91.13 27.2428L90.3535 26.7886V25.5623L91.13 26.0165V27.2428Z" fill="#22313F"/>
<path d="M92.841 26.2438L92.0645 25.7896V24.5746L92.841 25.0174V26.2438Z" fill="#22313F"/>
<path d="M92.841 28.2309L92.0645 27.7881V26.5618L92.841 27.016V28.2309Z" fill="#22313F"/>
<path d="M94.405 27.2428L93.6284 26.7886V25.5623L94.405 26.0165V27.2428Z" fill="#22313F"/>
<path d="M94.405 29.23L93.6284 28.7758V27.5608L94.405 28.0036V29.23Z" fill="#22313F"/>
<path d="M96.1383 28.2309L95.373 27.7881V26.5618L96.1383 27.016V28.2309Z" fill="#22313F"/>
<path d="M96.1383 30.2291L95.373 29.7749V28.5486L96.1383 29.0028V30.2291Z" fill="#22313F"/>
<path d="M97.8488 29.23L97.0723 28.7758V27.5608L97.8488 28.0036V29.23Z" fill="#22313F"/>
<path d="M97.8488 31.2171L97.0723 30.7743V29.548L97.8488 30.0022V31.2171Z" fill="#22313F"/>
<path d="M99.4914 30.1838L98.7148 29.7296V28.5033L99.4914 28.9575V30.1838Z" fill="#22313F"/>
<path d="M99.4914 32.171L98.7148 31.7168V30.5018L99.4914 30.9447V32.171Z" fill="#22313F"/>
<path d="M100.167 28.8324L100.189 33.0224L106.514 29.332V25.1421L100.167 28.8324Z" fill="#B3B3B3"/>
<path d="M102.013 30.2747L101.225 30.7402V32.0006L102.013 31.535V30.2747Z" fill="#22313F"/>
<path d="M102.013 28.2081L101.225 28.6737V29.9454L102.013 29.4799V28.2081Z" fill="#22313F"/>
<path d="M103.824 29.2415L103.025 29.707V30.9674L103.824 30.5132V29.2415Z" fill="#22313F"/>
<path d="M103.824 27.1862L103.025 27.6517V28.9121L103.824 28.4465V27.1862Z" fill="#22313F"/>
<path d="M105.591 28.2081L104.792 28.6737V29.9454L105.591 29.4799V28.2081Z" fill="#22313F"/>
<path d="M105.591 26.1527L104.792 26.6183V27.8786L105.591 27.4131V26.1527Z" fill="#22313F"/>
<path d="M15.3238 64.6119L10.8447 61.9889L13.2868 60.5696L17.7659 63.1926L15.3238 64.6119Z" fill="#EDEDED"/>
<path d="M15.335 65.509L10.856 62.8861L10.8447 61.989L15.3238 64.612L15.335 65.509Z" fill="#DCDCDC"/>
<path d="M15.3242 64.612L15.3355 65.509L17.7663 64.0897V63.1926L15.3242 64.612Z" fill="#C3C3C3"/>
<path d="M15.0541 71.9926L10.665 69.4151L13.0621 68.0184L17.4512 70.596L15.0541 71.9926Z" fill="white"/>
<path d="M15.0653 73.6732L10.6763 71.0957L10.665 69.4152L15.0541 71.9927L15.0653 73.6732Z" fill="#C7C7C7"/>
<path d="M15.0537 71.9926L15.065 73.6731L17.4508 72.2765V70.5959L15.0537 71.9926Z" fill="#9C9C9C"/>
<path d="M14.6602 60.7401L14.6489 69.9489C14.6489 69.9716 14.6377 70.0057 14.6377 70.0284L14.6489 60.8196C14.6489 60.7969 14.6602 60.7742 14.6602 60.7401Z" fill="#949494"/>
<path d="M14.638 60.8198L14.6267 70.0286C14.6042 70.0854 14.5479 70.1422 14.4692 70.1876C14.3566 70.2557 14.1991 70.2898 14.0415 70.2898L14.0528 61.081C14.2103 61.081 14.3566 61.0469 14.4804 60.9788C14.5592 60.9334 14.6155 60.888 14.638 60.8198Z" fill="#B3B3B3"/>
<path d="M14.0637 61.081L14.0525 70.2898C13.9062 70.2898 13.7599 70.2557 13.6473 70.1876C13.5348 70.1195 13.4785 70.0286 13.4785 69.9378L13.4898 60.729C13.4898 60.8198 13.546 60.9107 13.6586 60.9788C13.7711 61.0469 13.9174 61.081 14.0637 61.081Z" fill="#DCDCDC"/>
<path d="M14.48 60.5016C14.705 60.6379 14.7163 60.8536 14.48 60.9899C14.2549 61.1261 13.8835 61.1261 13.6472 60.9899C13.4221 60.8536 13.4108 60.6379 13.6472 60.5016C13.8835 60.3653 14.2549 60.3653 14.48 60.5016Z" fill="#CCCCCC"/>
<path d="M15.7742 60.3992V60.5808C15.7742 60.8307 15.6054 61.0918 15.279 61.2735C14.615 61.6596 13.5347 61.6596 12.8707 61.2735C12.5331 61.0805 12.3643 60.8193 12.3643 60.5695V60.3878C12.3643 60.649 12.5331 60.8988 12.8707 61.0918C13.5347 61.4779 14.615 61.4779 15.279 61.0918C15.6054 60.9101 15.7742 60.649 15.7742 60.3992Z" fill="#C3C3C3"/>
<path d="M15.2674 59.6952C15.9314 60.0813 15.9427 60.7171 15.2787 61.1032C14.6147 61.4893 13.5343 61.4893 12.8703 61.1032C12.2064 60.7171 12.1951 60.0813 12.8591 59.6952C13.5231 59.3091 14.6035 59.2978 15.2674 59.6952Z" fill="white"/>
<path d="M14.3897 56.7317L14.5922 60.4334C14.5922 60.4561 14.5922 60.4788 14.581 60.5015L14.3784 56.7771C14.3784 56.7658 14.3897 56.743 14.3897 56.7317Z" fill="#949494"/>
<path d="M14.3791 56.7771L14.5704 60.5015C14.5479 60.5583 14.5029 60.6037 14.4354 60.6491C14.3341 60.7059 14.1878 60.7399 14.0527 60.7399L14.064 56.9134C14.1428 56.9134 14.2328 56.8906 14.2891 56.8566C14.3341 56.8339 14.3678 56.8112 14.3791 56.7771Z" fill="#C3C3C3"/>
<path d="M14.0636 56.9143L14.0523 60.7409C13.9173 60.7409 13.7935 60.7069 13.6922 60.6501C13.5909 60.5933 13.5347 60.5138 13.5347 60.4344L13.7597 56.7327C13.7597 56.7781 13.7935 56.8235 13.8498 56.8689C13.906 56.903 13.9848 56.9143 14.0636 56.9143Z" fill="#DCDCDC"/>
<path d="M14.2893 56.6067C14.4133 56.6749 14.4133 56.8 14.2893 56.8682C14.1654 56.9364 13.9625 56.9364 13.8386 56.8682C13.7146 56.8 13.7146 56.6749 13.8386 56.6067C13.9625 56.5271 14.1654 56.5271 14.2893 56.6067Z" fill="white"/>
<path d="M93.561 21.0432L81.3843 13.9123L88.0241 10.0403L100.201 17.1825L93.561 21.0432Z" fill="white"/>
<path d="M93.5831 36.8604L81.4063 29.7182L81.3838 13.9122L93.5605 21.0431L93.5831 36.8604Z" fill="#DCDCDC"/>
<path d="M83.0277 16.6943L82.1274 16.1719V14.7412L83.0277 15.2635V16.6943Z" fill="#134663"/>
<path d="M83.0272 19.0221L82.127 18.4998V17.0691L83.0272 17.5914V19.0221Z" fill="#134663"/>
<path d="M83.0272 21.3498L82.127 20.8274V19.3967L83.0272 19.9191V21.3498Z" fill="#134663"/>
<path d="M83.0272 23.6775L82.127 23.1552V21.7245L83.0272 22.2468V23.6775Z" fill="#134663"/>
<path d="M85.0634 17.8523L84.1631 17.33V15.8993L85.0634 16.4216V17.8523Z" fill="#134663"/>
<path d="M85.0634 20.1803L84.1631 19.658V18.2273L85.0634 18.7496V20.1803Z" fill="#134663"/>
<path d="M85.0634 22.5196L84.1631 21.9859V20.5552L85.0634 21.0889V22.5196Z" fill="#134663"/>
<path d="M85.0634 24.847L84.1631 24.3133V22.8826L85.0634 23.4162V24.847Z" fill="#134663"/>
<path d="M87.0673 19.0221L86.1558 18.4998V17.0691L87.0673 17.5914V19.0221Z" fill="#134663"/>
<path d="M87.0669 21.3497L86.1553 20.8273V19.3966L87.0669 19.9189V21.3497Z" fill="#134663"/>
<path d="M87.0669 23.6775L86.1553 23.1552V21.7245L87.0669 22.2468V23.6775Z" fill="#134663"/>
<path d="M87.0669 26.0053L86.1553 25.483V24.0522L87.0669 24.5746V26.0053Z" fill="#134663"/>
<path d="M88.7997 20.1005L87.8994 19.5782V18.1475L88.7997 18.6698V20.1005Z" fill="#134663"/>
<path d="M88.7997 22.4281L87.8994 21.9058V20.4751L88.7997 20.9974V22.4281Z" fill="#134663"/>
<path d="M88.7997 24.7559L87.8994 24.2336V22.8029L88.7997 23.3252V24.7559Z" fill="#134663"/>
<path d="M88.7997 27.0837L87.8994 26.5613V25.1306L88.7997 25.6529V27.0837Z" fill="#134663"/>
<path d="M90.8368 21.2701L89.9365 20.7364V19.3057L90.8368 19.8393V21.2701Z" fill="#134663"/>
<path d="M90.8368 23.5976L89.9365 23.0639V21.6445L90.8368 22.1669V23.5976Z" fill="#134663"/>
<path d="M90.8368 25.9253L89.9365 25.403V23.9723L90.8368 24.4946V25.9253Z" fill="#134663"/>
<path d="M90.8368 28.2533L89.9365 27.731V26.3003L90.8368 26.8226V28.2533Z" fill="#134663"/>
<path d="M92.8403 22.4283L91.9399 21.9059V20.4752L92.8403 20.9975V22.4283Z" fill="#134663"/>
<path d="M92.8403 24.756L91.9399 24.2337V22.803L92.8403 23.3253V24.756Z" fill="#134663"/>
<path d="M92.8403 27.0835L91.9399 26.5612V25.1305L92.8403 25.6528V27.0835Z" fill="#134663"/>
<path d="M92.8403 29.4113L91.9399 28.889V27.4583L92.8403 27.9806V29.4113Z" fill="#134663"/>
<path d="M83.0272 26.005L82.127 25.4827V24.052L83.0272 24.5743V26.005Z" fill="#134663"/>
<path d="M85.0634 27.1746L84.1631 26.6409V25.2102L85.0634 25.7439V27.1746Z" fill="#134663"/>
<path d="M87.0673 28.3329L86.1558 27.8106V26.3799L87.0673 26.9022V28.3329Z" fill="#134663"/>
<path d="M88.8002 29.4113L87.8999 28.889V27.4583L88.8002 27.9806V29.4113Z" fill="#134663"/>
<path d="M90.8373 30.5811L89.937 30.0588V28.6281L90.8373 29.1504V30.5811Z" fill="#134663"/>
<path d="M92.8403 31.7394L91.9399 31.2171V29.7864L92.8403 30.3201V31.7394Z" fill="#134663"/>
<path d="M93.5605 21.043L93.5831 36.8604L100.2 33.0111V17.1824L93.5605 21.043Z" fill="#B3B3B3"/>
<path d="M95.3158 28.4349L94.4155 28.9686V30.3993L95.3158 29.8657V28.4349Z" fill="#22313F"/>
<path d="M95.3158 26.1073L94.4155 26.6296V28.0603L95.3158 27.538V26.1073Z" fill="#22313F"/>
<path d="M95.3158 23.7795L94.4155 24.3019V25.7326L95.3158 25.2103V23.7795Z" fill="#22313F"/>
<path d="M95.3158 21.4521L94.4155 21.9745V23.4052L95.3158 22.8829V21.4521Z" fill="#22313F"/>
<path d="M97.3534 27.2769L96.4531 27.7992V29.2299L97.3534 28.7076V27.2769Z" fill="#22313F"/>
<path d="M97.3534 24.949L96.4531 25.4713V26.902L97.3534 26.3797V24.949Z" fill="#22313F"/>
<path d="M97.3534 22.6212L96.4531 23.1435V24.5742L97.3534 24.0519V22.6212Z" fill="#22313F"/>
<path d="M97.3534 20.2937L96.4531 20.816V22.2467L97.3534 21.7131V20.2937Z" fill="#22313F"/>
<path d="M99.3451 26.1073L98.4448 26.6296V28.0603L99.3451 27.538V26.1073Z" fill="#22313F"/>
<path d="M99.3451 23.7798L98.4448 24.3021V25.7328L99.3451 25.2105V23.7798Z" fill="#22313F"/>
<path d="M99.3451 21.4521L98.4448 21.9745V23.4052L99.3451 22.8829V21.4521Z" fill="#22313F"/>
<path d="M99.3461 19.124L98.4458 19.6463V21.0771L99.3461 20.5547V19.124Z" fill="#22313F"/>
<path d="M95.3158 33.0905L94.4155 33.6241V35.0548L95.3158 34.5212V33.0905Z" fill="#22313F"/>
<path d="M95.3158 30.7626L94.4155 31.2963V32.727L95.3158 32.1933V30.7626Z" fill="#22313F"/>
<path d="M95.3158 28.4348L94.4155 28.9685V30.3992L95.3158 29.8655V28.4348Z" fill="#22313F"/>
<path d="M97.3534 31.9325L96.4531 32.4548V33.8855L97.3534 33.3632V31.9325Z" fill="#22313F"/>
<path d="M97.3534 29.6046L96.4531 30.1269V31.5577L97.3534 31.0353V29.6046Z" fill="#22313F"/>
<path d="M97.3534 27.2769L96.4531 27.7992V29.2299L97.3534 28.7076V27.2769Z" fill="#22313F"/>
<path d="M99.3451 30.7627L98.4448 31.2964V32.7271L99.3451 32.1934V30.7627Z" fill="#22313F"/>
<path d="M99.3451 28.4348L98.4448 28.9685V30.3992L99.3451 29.8655V28.4348Z" fill="#22313F"/>
<path d="M99.3461 26.1073L98.4458 26.6296V28.0603L99.3461 27.538V26.1073Z" fill="#22313F"/>
<path d="M95.9463 13.0608L95.9351 16.842L92.1763 19.0562V15.275L95.9463 13.0608Z" fill="#C2C2C2"/>
<path d="M92.1764 15.2749V19.0561L85.7842 15.3317V11.5505L92.1764 15.2749Z" fill="#DCDCDC"/>
<path d="M95.9465 13.0608L92.1764 15.275L85.7842 11.5506L89.5542 9.33643L95.9465 13.0608Z" fill="white"/>
<path d="M87.8099 13.2426L86.4932 12.4705L86.4819 15.2865L87.8099 16.0586V13.2426Z" fill="#134663"/>
<path d="M89.4754 14.2192L88.1475 13.447V16.263L89.4754 17.0352V14.2192Z" fill="#134663"/>
<path d="M91.2088 15.2297L89.8809 14.4575V17.2735L91.2088 18.0457V15.2297Z" fill="#134663"/>
<path d="M99.4468 16.1152L102.553 14.2985L101.619 17.2053L98.5127 19.0334L99.4468 16.1152Z" fill="#7F7F7F"/>
<path d="M80.9341 5.32813L84.0402 3.51135L102.553 14.2985L99.4468 16.1153L80.9341 5.32813Z" fill="white"/>
<path d="M99.4468 16.1153L98.5127 19.0335L81.8457 9.32504L80.9341 5.32812L99.4468 16.1153Z" fill="#DCDCDC"/>
<path d="M83.3535 9.3704L82.1831 8.67775V6.81555L83.3535 7.49684V9.3704Z" fill="#134663"/>
<path d="M85.4805 10.6079L84.2988 9.92665V8.0531L85.4805 8.74575V10.6079Z" fill="#134663"/>
<path d="M87.6074 11.846L86.4258 11.1647V9.30249L87.6074 9.98378V11.846Z" fill="#134663"/>
<path d="M89.7232 13.0948L88.5527 12.4021V10.5399L89.7232 11.2326V13.0948Z" fill="#134663"/>
<path d="M91.8496 14.3327L90.668 13.6514V11.7892L91.8496 12.4705V14.3327Z" fill="#134663"/>
<path d="M93.9663 15.5813L92.7959 14.8887V13.0265L93.9663 13.7078V15.5813Z" fill="#134663"/>
<path d="M96.0923 16.8194L94.9106 16.1381V14.2645L96.0923 14.9572V16.8194Z" fill="#134663"/>
<path d="M98.2197 18.0568L97.0381 17.3755V15.5133L98.2197 16.1946V18.0568Z" fill="#134663"/>
<path d="M92.6378 3.39771L92.6265 10.063C92.6265 10.0857 92.6265 10.1198 92.6152 10.1425L92.6265 3.47719C92.6378 3.45448 92.6378 3.43177 92.6378 3.39771Z" fill="#949494"/>
<path d="M92.6272 3.47778L92.6159 10.1431C92.5934 10.1999 92.5371 10.2566 92.4696 10.3021C92.3571 10.3702 92.2108 10.4043 92.0532 10.4043L92.0645 3.73895C92.2108 3.73895 92.3683 3.70488 92.4809 3.63675C92.5484 3.59133 92.6047 3.53456 92.6272 3.47778Z" fill="#B3B3B3"/>
<path d="M92.0637 3.72749L92.0525 10.3928C91.9061 10.3928 91.7711 10.3587 91.6586 10.2906C91.546 10.2225 91.4897 10.143 91.4897 10.0522L91.501 3.38684C91.501 3.47768 91.5573 3.55716 91.6698 3.62529C91.7711 3.69342 91.9174 3.72749 92.0637 3.72749Z" fill="#DCDCDC"/>
<path d="M92.4688 3.15947C92.6939 3.28438 92.6939 3.50012 92.4688 3.63638C92.2438 3.76128 91.8836 3.76128 91.6586 3.63638C91.4335 3.51147 91.4335 3.29573 91.6586 3.15947C91.8836 3.03457 92.2438 3.03457 92.4688 3.15947Z" fill="#CCCCCC"/>
<path d="M94.394 3.70447V3.95428C94.394 4.29492 94.1689 4.64693 93.7187 4.90809C92.8184 5.44177 91.3442 5.44177 90.4326 4.90809C89.9712 4.63557 89.7461 4.29492 89.7461 3.94292V3.69312C89.7461 4.04512 89.9712 4.39712 90.4326 4.65828C91.3442 5.19196 92.8184 5.19196 93.7187 4.65828C94.1689 4.39712 94.394 4.05647 94.394 3.70447Z" fill="#C3C3C3"/>
<path d="M93.708 2.73915C94.6196 3.27283 94.6196 4.1358 93.7193 4.65813C92.819 5.19181 91.3447 5.19181 90.4331 4.65813C89.5216 4.12445 89.5216 3.26148 90.4219 2.73915C91.3222 2.21683 92.7965 2.20547 93.708 2.73915Z" fill="white"/>
<path d="M92.3794 0.184448L92.5707 3.77259C92.5707 3.7953 92.5707 3.81801 92.5595 3.84072L92.3682 0.229868C92.3794 0.207158 92.3794 0.195803 92.3794 0.184448Z" fill="#949494"/>
<path d="M92.3683 0.22998L92.5596 3.85218C92.5371 3.90896 92.4921 3.95438 92.4246 3.98844C92.3233 4.04522 92.1883 4.07928 92.0532 4.07928L92.0645 0.366239C92.1432 0.366239 92.222 0.354884 92.2896 0.309465C92.3233 0.286755 92.3571 0.25269 92.3683 0.22998Z" fill="#C3C3C3"/>
<path d="M92.064 0.367103L92.0528 4.08015C91.929 4.08015 91.7939 4.04608 91.7039 3.98931C91.6026 3.93253 91.5576 3.85305 91.5576 3.77357L91.7714 0.185425C91.7714 0.230844 91.8052 0.276264 91.8615 0.310328C91.9065 0.344393 91.9852 0.367103 92.064 0.367103Z" fill="#DCDCDC"/>
<path d="M92.2902 0.0596903C92.4142 0.127908 92.4142 0.241604 92.2902 0.309821C92.1663 0.378039 91.9747 0.378039 91.8508 0.309821C91.7268 0.241604 91.7268 0.127908 91.8508 0.0596903C91.9747 -0.0198968 92.1663 -0.0198968 92.2902 0.0596903Z" fill="white"/>
<path d="M75.8467 27.3224L79.2342 25.3353L79.2229 29.4912L75.8354 31.467L75.8467 27.3224Z" fill="#C44A10"/>
<path d="M72.2676 25.2332L75.655 23.2574L79.2338 25.3354L75.8463 27.3225L72.2676 25.2332Z" fill="#FF8D23"/>
<path d="M75.8468 27.3224L75.8356 31.467L72.2568 29.389L72.2681 25.2332L75.8468 27.3224Z" fill="#82310B"/>
<path d="M72.2007 29.4574L75.5881 27.4817L75.5769 31.6262L72.1895 33.602L72.2007 29.4574Z" fill="#C44A10"/>
<path d="M68.6201 27.3793L72.0076 25.3922L75.5863 27.4815L72.1989 29.4573L68.6201 27.3793Z" fill="#FF8D23"/>
<path d="M72.2009 29.4572L72.1896 33.6017L68.6108 31.5238L68.6221 27.3793L72.2009 29.4572Z" fill="#82310B"/>
<path d="M68.4986 31.6487L71.8747 29.6616L71.8635 33.8062L68.4873 35.7933L68.4986 31.6487Z" fill="#C44A10"/>
<path d="M64.9189 29.5595L68.2951 27.5837L71.8739 29.6617L68.4977 31.6488L64.9189 29.5595Z" fill="#FF8D23"/>
<path d="M68.4982 31.6487L68.4869 35.7933L64.9082 33.704L64.9195 29.5594L68.4982 31.6487Z" fill="#82310B"/>
<path d="M64.8521 33.7835L68.2283 31.7964L68.217 35.9409L64.8408 37.928L64.8521 33.7835Z" fill="#C44A10"/>
<path d="M61.2729 31.6941L64.6491 29.7184L68.2279 31.7963L64.8517 33.7834L61.2729 31.6941Z" fill="#FF8D23"/>
<path d="M64.8522 33.7831L64.841 37.9277L61.2622 35.8497L61.2735 31.6938L64.8522 33.7831Z" fill="#82310B"/>
<path d="M61.0713 35.9524L64.4475 33.9767L64.4362 38.1212L61.0601 40.097L61.0713 35.9524Z" fill="#C44A10"/>
<path d="M57.4912 33.8744L60.8674 31.8873L64.4461 33.9766L61.0699 35.9524L57.4912 33.8744Z" fill="#FF8D23"/>
<path d="M61.0714 35.9523L61.0602 40.0969L57.4814 38.0189L57.4927 33.8744L61.0714 35.9523Z" fill="#82310B"/>
<path d="M57.4249 38.0871L60.801 36.1113L60.7898 40.2559L57.4023 42.243L57.4249 38.0871Z" fill="#C44A10"/>
<path d="M53.8457 36.009L57.2219 34.0219L60.8006 36.1112L57.4245 38.0869L53.8457 36.009Z" fill="#FF8D23"/>
<path d="M57.4254 38.087L57.4029 42.2429L53.8354 40.1536L53.8467 36.009L57.4254 38.087Z" fill="#82310B"/>
<path d="M53.711 40.2784L57.0871 38.2913L57.0759 42.4358L53.6997 44.4229L53.711 40.2784Z" fill="#C44A10"/>
<path d="M50.1318 38.189L53.5193 36.2133L57.0868 38.2912L53.7106 40.2783L50.1318 38.189Z" fill="#FF8D23"/>
<path d="M53.7111 40.2785L53.6998 44.423L50.1211 42.3451L50.1323 38.1892L53.7111 40.2785Z" fill="#82310B"/>
<path d="M50.065 42.413L53.4411 40.4373L53.4299 44.5818L50.0537 46.5575L50.065 42.413Z" fill="#C44A10"/>
<path d="M46.4854 40.3354L49.8728 38.3483L53.4403 40.4376L50.0641 42.4133L46.4854 40.3354Z" fill="#FF8D23"/>
<path d="M50.0646 42.4129L50.0534 46.5574L46.4746 44.4795L46.4859 40.335L50.0646 42.4129Z" fill="#82310B"/>
<path d="M46.2949 44.6276L49.6711 42.6405L49.6599 46.785L46.2837 48.7721L46.2949 44.6276Z" fill="#C44A10"/>
<path d="M42.7148 42.5384L46.1023 40.5626L49.6698 42.6406L46.2936 44.6277L42.7148 42.5384Z" fill="#FF8D23"/>
<path d="M46.2946 44.6274L46.2833 48.7719L42.7046 46.6826L42.7158 42.5381L46.2946 44.6274Z" fill="#82310B"/>
<path d="M42.6485 46.7621L46.0246 44.775L46.0134 48.9196L42.6372 50.9067L42.6485 46.7621Z" fill="#C44A10"/>
<path d="M39.0684 44.6729L42.4558 42.6971L46.0233 44.7751L42.6471 46.7622L39.0684 44.6729Z" fill="#FF8D23"/>
<path d="M42.6481 46.762L42.6368 50.9066L39.0581 48.8286L39.0694 44.6727L42.6481 46.762Z" fill="#82310B"/>
<path d="M38.9458 48.9424L42.322 46.9667L42.3107 51.1112L38.9346 53.087L38.9458 48.9424Z" fill="#C44A10"/>
<path d="M35.3667 46.8647L38.7429 44.8776L42.3216 46.9669L38.9454 48.9426L35.3667 46.8647Z" fill="#FF8D23"/>
<path d="M38.946 48.9424L38.9347 53.087L35.356 51.009L35.3672 46.8645L38.946 48.9424Z" fill="#82310B"/>
<path d="M35.2999 51.0769L38.676 49.1012L38.6648 53.2457L35.2773 55.2328L35.2999 51.0769Z" fill="#C44A10"/>
<path d="M31.7202 48.9992L35.0964 47.0121L38.6751 49.1014L35.299 51.0771L31.7202 48.9992Z" fill="#FF8D23"/>
<path d="M35.3 51.077L35.2775 55.2329L31.71 53.1436L31.7212 48.999L35.3 51.077Z" fill="#82310B"/>
<path d="M31.5059 53.2573L34.8933 51.2701L34.8821 55.4147L31.4946 57.4018L31.5059 53.2573Z" fill="#C44A10"/>
<path d="M27.9375 51.1679L31.3137 49.1921L34.8924 51.2701L31.505 53.2572L27.9375 51.1679Z" fill="#FF8D23"/>
<path d="M31.506 53.2573L31.4947 57.4018L27.9272 55.3239L27.9385 51.168L31.506 53.2573Z" fill="#82310B"/>
<path d="M27.8599 55.392L31.2473 53.4163L31.2361 57.5608L27.8486 59.5365L27.8599 55.392Z" fill="#C44A10"/>
<path d="M24.292 53.3141L27.6682 51.327L31.2469 53.4163L27.8595 55.3921L24.292 53.3141Z" fill="#FF8D23"/>
<path d="M27.8605 55.3919L27.8492 59.5364L24.2817 57.4585L24.293 53.314L27.8605 55.3919Z" fill="#82310B"/>
<path d="M24.1568 57.5719L27.5329 55.5962L27.5217 59.7407L24.1455 61.7278L24.1568 57.5719Z" fill="#C44A10"/>
<path d="M20.5771 55.4942L23.9533 53.5071L27.5321 55.5964L24.1559 57.5721L20.5771 55.4942Z" fill="#FF8D23"/>
<path d="M24.1569 57.5721L24.1456 61.728L20.5669 59.6387L20.5781 55.4941L24.1569 57.5721Z" fill="#82310B"/>
<path d="M23.8869 57.731V58.083L23.8757 61.5689V61.6938V61.8755L21.5011 63.2721L20.7809 62.852L20.4995 62.693L20.5108 59.7181L20.6008 59.6613L23.8869 57.731Z" fill="#82310B"/>
<path d="M16.9316 57.6291L20.3078 55.6533L23.8866 57.7313L20.5104 59.7184L16.9316 57.6291Z" fill="#FF8D23"/>
<path d="M20.5104 59.7182L20.4992 62.6932L16.9204 60.513L16.9317 57.6289L19.3963 59.071L20.5104 59.7182Z" fill="#F9781A"/>
<path d="M79.708 29.5823L83.0955 27.6066L83.0842 31.7511L79.6968 33.7268L79.708 29.5823Z" fill="#C44A10"/>
<path d="M76.1274 27.5043L79.5149 25.5172L83.0936 27.6065L79.7062 29.5823L76.1274 27.5043Z" fill="#FF8D23"/>
<path d="M79.7077 29.5821L79.6964 33.7266L76.1177 31.6487L76.1289 27.5042L79.7077 29.5821Z" fill="#82310B"/>
<path d="M76.0615 31.7171L79.449 29.7413L79.4377 33.8859L76.0503 35.873L76.0615 31.7171Z" fill="#C44A10"/>
<path d="M72.4819 29.6392L75.8694 27.6521L79.4481 29.7414L76.0607 31.7171L72.4819 29.6392Z" fill="#FF8D23"/>
<path d="M76.0612 31.717L76.0499 35.8729L72.4712 33.7836L72.4824 29.639L76.0612 31.717Z" fill="#82310B"/>
<path d="M72.3579 33.9084L75.7341 31.9213L75.7228 36.0658L72.3467 38.0529L72.3579 33.9084Z" fill="#C44A10"/>
<path d="M68.7788 31.819L72.155 29.8433L75.7337 31.9212L72.3576 33.9083L68.7788 31.819Z" fill="#FF8D23"/>
<path d="M72.3586 33.9084L72.3473 38.0529L68.7686 35.975L68.7798 31.8191L72.3586 33.9084Z" fill="#82310B"/>
<path d="M68.7119 36.0428L72.0881 34.067L72.0769 38.2116L68.7007 40.1873L68.7119 36.0428Z" fill="#C44A10"/>
<path d="M65.1328 33.9651L68.509 31.978L72.0877 34.0673L68.7116 36.0431L65.1328 33.9651Z" fill="#FF8D23"/>
<path d="M68.7121 36.043L68.7008 40.1876L65.1221 38.1096L65.1333 33.9651L68.7121 36.043Z" fill="#82310B"/>
<path d="M64.9322 38.212L68.3083 36.2362L68.2971 40.3807L64.9209 42.3678L64.9322 38.212Z" fill="#C44A10"/>
<path d="M61.3525 36.134L64.7287 34.1469L68.3074 36.2361L64.9313 38.2119L61.3525 36.134Z" fill="#FF8D23"/>
<path d="M64.9323 38.2119L64.921 42.3677L61.3423 40.2784L61.3535 36.1339L64.9323 38.2119Z" fill="#82310B"/>
<path d="M61.2862 40.3582L64.6623 38.3711L64.6511 42.5156L61.2749 44.5027L61.2862 40.3582Z" fill="#C44A10"/>
<path d="M57.7061 38.2687L61.0822 36.293L64.661 38.3709L61.2848 40.358L57.7061 38.2687Z" fill="#FF8D23"/>
<path d="M61.2858 40.358L61.2746 44.5025L57.6958 42.4132L57.7071 38.2687L61.2858 40.358Z" fill="#82310B"/>
<path d="M57.5718 42.5382L60.948 40.5625L60.9367 44.707L57.5605 46.6828L57.5718 42.5382Z" fill="#C44A10"/>
<path d="M53.9922 40.4605L57.3796 38.4734L60.9471 40.5627L57.5709 42.5384L53.9922 40.4605Z" fill="#FF8D23"/>
<path d="M57.5714 42.5381L57.5602 46.6827L53.9814 44.6047L53.9927 40.4602L57.5714 42.5381Z" fill="#82310B"/>
<path d="M53.9258 44.6729L57.302 42.6971L57.2907 46.8417L53.9146 48.8288L53.9258 44.6729Z" fill="#C44A10"/>
<path d="M50.3467 42.5951L53.7341 40.608L57.3016 42.6973L53.9254 44.6731L50.3467 42.5951Z" fill="#FF8D23"/>
<path d="M53.9259 44.6732L53.9147 48.829L50.3359 46.7397L50.3472 42.5952L53.9259 44.6732Z" fill="#82310B"/>
<path d="M50.1558 46.887L53.532 44.8999L53.5207 49.0444L50.1445 51.0315L50.1558 46.887Z" fill="#C44A10"/>
<path d="M46.5762 44.7975L49.9636 42.8218L53.5311 44.8997L50.1549 46.8868L46.5762 44.7975Z" fill="#FF8D23"/>
<path d="M50.1554 46.8867L50.1442 51.0312L46.5654 48.9533L46.5767 44.7974L50.1554 46.8867Z" fill="#82310B"/>
<path d="M46.5093 49.0214L49.8855 47.0457L49.8742 51.1902L46.498 53.1659L46.5093 49.0214Z" fill="#C44A10"/>
<path d="M42.9302 46.9435L46.3176 44.9564L49.8851 47.0457L46.5089 49.0215L42.9302 46.9435Z" fill="#FF8D23"/>
<path d="M46.5089 49.0215L46.4977 53.1661L42.9189 51.0881L42.9302 46.9436L46.5089 49.0215Z" fill="#82310B"/>
<path d="M42.8062 51.2018L46.1824 49.2261L46.1711 53.3706L42.7949 55.3577L42.8062 51.2018Z" fill="#C44A10"/>
<path d="M39.2271 49.1239L42.6032 47.1368L46.182 49.2261L42.8058 51.2019L39.2271 49.1239Z" fill="#FF8D23"/>
<path d="M42.8063 51.202L42.7951 55.3579L39.2163 53.2686L39.2276 49.124L42.8063 51.202Z" fill="#82310B"/>
<path d="M39.1597 53.3479L42.5359 51.3608L42.5246 55.5054L39.1372 57.4925L39.1597 53.3479Z" fill="#C44A10"/>
<path d="M35.5811 51.2587L38.9572 49.283L42.536 51.3609L39.1598 53.348L35.5811 51.2587Z" fill="#FF8D23"/>
<path d="M39.1603 53.348L39.1378 57.4925L35.5703 55.4032L35.5816 51.2587L39.1603 53.348Z" fill="#82310B"/>
<path d="M35.3682 55.5169L38.7556 53.5411L38.7444 57.6857L35.3569 59.6614L35.3682 55.5169Z" fill="#C44A10"/>
<path d="M31.8008 53.4388L35.1769 51.4517L38.7557 53.541L35.3683 55.5167L31.8008 53.4388Z" fill="#FF8D23"/>
<path d="M35.3683 55.5167L35.357 59.6612L31.7896 57.5832L31.8008 53.4387L35.3683 55.5167Z" fill="#82310B"/>
<path d="M31.7222 57.6517L35.1096 55.6759L35.0984 59.8204L31.7109 61.8075L31.7222 57.6517Z" fill="#C44A10"/>
<path d="M28.1538 55.5735L31.53 53.5864L35.1087 55.6757L31.7213 57.6515L28.1538 55.5735Z" fill="#FF8D23"/>
<path d="M31.7223 57.6514L31.711 61.8073L28.1436 59.718L28.1548 55.5735L31.7223 57.6514Z" fill="#82310B"/>
<path d="M28.0196 59.8428L31.3957 57.8557L31.3845 62.0002L28.0083 63.9873L28.0196 59.8428Z" fill="#C44A10"/>
<path d="M24.4409 57.7535L27.8171 55.7777L31.3958 57.8557L28.0197 59.8428L24.4409 57.7535Z" fill="#FF8D23"/>
<path d="M28.0192 59.8428L28.0079 63.9874L24.4292 61.8981L24.4405 57.7535L28.0192 59.8428Z" fill="#82310B"/>
<path d="M27.7497 60.0017V60.3991L27.7385 63.8283V63.9759V64.1462L25.3977 65.5088L24.6774 65.0887L24.3623 64.9184L24.3736 61.9775L24.4636 61.9207L27.7497 60.0017Z" fill="#82310B"/>
<path d="M20.7949 59.8996L24.1711 57.9125L27.7498 60.0018L24.3737 61.9775L20.7949 59.8996Z" fill="#FF8D23"/>
<path d="M24.3737 61.9775L24.3624 64.9184L21.5039 63.2719L20.7837 62.8518L20.7949 59.8995L23.8785 61.6936L24.3737 61.9775Z" fill="#F9781A"/>
<path d="M83.6031 31.8872L86.9792 29.9115L86.968 34.056L83.5918 36.0318L83.6031 31.8872Z" fill="#C44A10"/>
<path d="M80.0239 29.8094L83.4001 27.8223L86.9788 29.9116L83.6027 31.8873L80.0239 29.8094Z" fill="#FF8D23"/>
<path d="M83.6027 31.8873L83.5914 36.0318L80.0127 33.9538L80.024 29.8093L83.6027 31.8873Z" fill="#82310B"/>
<path d="M79.9561 34.0221L83.3323 32.0464L83.321 36.1909L79.9448 38.178L79.9561 34.0221Z" fill="#C44A10"/>
<path d="M76.377 31.9441L79.7531 29.957L83.3319 32.0463L79.9557 34.0221L76.377 31.9441Z" fill="#FF8D23"/>
<path d="M79.9562 34.022L79.945 38.1779L76.3662 36.0886L76.3775 31.9441L79.9562 34.022Z" fill="#82310B"/>
<path d="M76.2422 36.2137L79.6184 34.2266L79.6071 38.3711L76.231 40.3582L76.2422 36.2137Z" fill="#C44A10"/>
<path d="M72.6626 34.1242L76.05 32.1484L79.6175 34.2264L76.2413 36.2135L72.6626 34.1242Z" fill="#FF8D23"/>
<path d="M76.2423 36.2133L76.2311 40.3578L72.6523 38.2686L72.6636 34.124L76.2423 36.2133Z" fill="#82310B"/>
<path d="M72.5967 38.3482L75.9729 36.3611L75.9616 40.517L72.5854 42.4927L72.5967 38.3482Z" fill="#C44A10"/>
<path d="M69.0181 36.2702L72.4055 34.2831L75.973 36.361L72.5968 38.3481L69.0181 36.2702Z" fill="#FF8D23"/>
<path d="M72.5968 38.3478L72.5856 42.4924L69.0068 40.4144L69.0181 36.2699L72.5968 38.3478Z" fill="#82310B"/>
<path d="M68.815 40.5166L72.1911 38.5409L72.1799 42.6854L68.8037 44.6725L68.815 40.5166Z" fill="#C44A10"/>
<path d="M65.2354 38.4388L68.6228 36.4517L72.1903 38.541L68.8141 40.5167L65.2354 38.4388Z" fill="#FF8D23"/>
<path d="M68.8146 40.5163L68.8033 44.6722L65.2246 42.5829L65.2359 38.4384L68.8146 40.5163Z" fill="#82310B"/>
<path d="M65.1685 42.6625L68.5446 40.6754L68.5334 44.8199L65.1572 46.807L65.1685 42.6625Z" fill="#C44A10"/>
<path d="M61.5884 40.5735L64.9645 38.5978L68.5433 40.6757L65.1671 42.6628L61.5884 40.5735Z" fill="#FF8D23"/>
<path d="M65.1676 42.6628L65.1564 46.8073L61.5776 44.718L61.5889 40.5735L65.1676 42.6628Z" fill="#82310B"/>
<path d="M61.4546 44.8429L64.842 42.8558L64.8308 47.0117L61.4434 48.9875L61.4546 44.8429Z" fill="#C44A10"/>
<path d="M57.8862 42.7651L61.2624 40.778L64.8412 42.8559L61.4537 44.843L57.8862 42.7651Z" fill="#FF8D23"/>
<path d="M61.4547 44.843L61.4435 48.9875L57.876 46.9095L57.8872 42.765L61.4547 44.843Z" fill="#82310B"/>
<path d="M57.8081 46.9777L61.1956 45.002L61.1843 49.1465L57.7969 51.1222L57.8081 46.9777Z" fill="#C44A10"/>
<path d="M54.2402 44.8997L57.6164 42.9126L61.1952 45.0019L57.8077 46.9776L54.2402 44.8997Z" fill="#FF8D23"/>
<path d="M57.8082 46.9776L57.797 51.1221L54.2295 49.0442L54.2407 44.8997L57.8082 46.9776Z" fill="#82310B"/>
<path d="M54.0494 49.1918L57.4255 47.2047L57.4143 51.3493L54.0269 53.3364L54.0494 49.1918Z" fill="#C44A10"/>
<path d="M50.4683 47.1027L53.8444 45.127L57.4232 47.2049L54.047 49.192L50.4683 47.1027Z" fill="#FF8D23"/>
<path d="M54.049 49.192L54.0265 53.3365L50.459 51.2472L50.4702 47.1027L54.049 49.192Z" fill="#82310B"/>
<path d="M50.3916 51.3267L53.7791 49.3396L53.7678 53.4955L50.3804 55.4712L50.3916 51.3267Z" fill="#C44A10"/>
<path d="M46.8252 49.2487L50.2014 47.2616L53.7801 49.3395L50.3927 51.3266L46.8252 49.2487Z" fill="#FF8D23"/>
<path d="M50.3917 51.3265L50.3805 55.471L46.813 53.3931L46.8242 49.2485L50.3917 51.3265Z" fill="#82310B"/>
<path d="M46.689 53.5067L50.0652 51.531L50.0539 55.6755L46.6777 57.6626L46.689 53.5067Z" fill="#C44A10"/>
<path d="M43.1104 51.4291L46.4978 49.442L50.0653 51.5313L46.6891 53.5071L43.1104 51.4291Z" fill="#FF8D23"/>
<path d="M46.6891 53.5068L46.6779 57.6627L43.0991 55.5734L43.1104 51.4288L46.6891 53.5068Z" fill="#82310B"/>
<path d="M43.0435 55.653L46.4197 53.6659L46.4084 57.8104L43.0322 59.7975L43.0435 55.653Z" fill="#C44A10"/>
<path d="M39.4624 53.5635L42.8386 51.5878L46.4173 53.6657L43.0411 55.6528L39.4624 53.5635Z" fill="#FF8D23"/>
<path d="M43.0431 55.653L43.0319 59.7976L39.4531 57.7083L39.4644 53.5637L43.0431 55.653Z" fill="#82310B"/>
<path d="M39.2608 57.8222L42.6369 55.8351L42.6257 59.991L39.2495 61.9667L39.2608 57.8222Z" fill="#C44A10"/>
<path d="M35.6821 55.7438L39.0583 53.7567L42.637 55.8347L39.2609 57.8218L35.6821 55.7438Z" fill="#FF8D23"/>
<path d="M39.2609 57.822L39.2496 61.9665L35.6709 59.8885L35.6822 55.744L39.2609 57.822Z" fill="#82310B"/>
<path d="M35.6148 59.9568L38.9909 57.9811L38.9797 62.1256L35.6035 64.1013L35.6148 59.9568Z" fill="#C44A10"/>
<path d="M32.0361 57.8788L35.4123 55.8917L38.9911 57.981L35.6149 59.9568L32.0361 57.8788Z" fill="#FF8D23"/>
<path d="M35.6149 59.9567L35.6036 64.1013L32.0249 62.0233L32.0362 57.8788L35.6149 59.9567Z" fill="#82310B"/>
<path d="M31.9009 62.1482L35.2883 60.1611L35.2771 64.3057L31.8896 66.2928L31.9009 62.1482Z" fill="#C44A10"/>
<path d="M28.3218 60.059L31.7092 58.0833L35.2879 60.1612L31.9005 62.1483L28.3218 60.059Z" fill="#FF8D23"/>
<path d="M31.901 62.1483L31.8898 66.2928L28.311 64.2035L28.3223 60.059L31.901 62.1483Z" fill="#82310B"/>
<path d="M31.6423 62.2955L31.6311 62.6475V66.1335L31.6198 66.2584V66.4514L29.3465 67.7799L28.5363 67.3144L28.2437 67.1554L28.2549 64.2826L28.3562 64.2259L31.6423 62.2955Z" fill="#07334E"/>
<path d="M24.6763 62.1934L28.0637 60.2177L31.6424 62.2956L28.255 64.2827L24.6763 62.1934Z" fill="#FF8D23"/>
<path d="M28.255 64.2829L28.2438 67.1557L25.3965 65.5092L24.6763 65.0891V62.1936L27.7373 63.9763L28.255 64.2829Z" fill="#1A4B6C"/>
<path d="M87.4615 34.147L90.8376 32.1713L90.8264 36.3158L87.4502 38.3029L87.4615 34.147Z" fill="#C44A10"/>
<path d="M83.8818 32.069L87.258 30.0819L90.8367 32.1712L87.4606 34.147L83.8818 32.069Z" fill="#FF8D23"/>
<path d="M87.4616 34.1467L87.4503 38.3026L83.8716 36.2133L83.8828 32.0687L87.4616 34.1467Z" fill="#82310B"/>
<path d="M83.815 36.2929L87.1911 34.3058L87.1799 38.4503L83.8037 40.4374L83.815 36.2929Z" fill="#C44A10"/>
<path d="M80.2354 34.2037L83.6115 32.2279L87.1903 34.3058L83.8141 36.293L80.2354 34.2037Z" fill="#FF8D23"/>
<path d="M83.8151 36.293L83.8038 40.4376L80.2251 38.3483L80.2364 34.2037L83.8151 36.293Z" fill="#82310B"/>
<path d="M80.1016 38.4729L83.4778 36.4858L83.4665 40.6417L80.0903 42.6175L80.1016 38.4729Z" fill="#C44A10"/>
<path d="M76.5229 36.3951L79.9104 34.408L83.4778 36.4859L80.1017 38.473L76.5229 36.3951Z" fill="#FF8D23"/>
<path d="M80.1017 38.473L80.0905 42.6175L76.5117 40.5396L76.523 36.395L80.1017 38.473Z" fill="#82310B"/>
<path d="M76.4556 40.6079L79.8318 38.6322L79.8205 42.7767L76.4443 44.7525L76.4556 40.6079Z" fill="#C44A10"/>
<path d="M72.8755 38.5301L76.2629 36.543L79.8304 38.6323L76.4542 40.608L72.8755 38.5301Z" fill="#FF8D23"/>
<path d="M76.4557 40.608L76.4445 44.7525L72.8657 42.6746L72.877 38.53L76.4557 40.608Z" fill="#82310B"/>
<path d="M72.6739 42.7881L76.05 40.801L76.0388 44.9455L72.6626 46.9327L72.6739 42.7881Z" fill="#C44A10"/>
<path d="M69.0938 40.6988L72.4812 38.723L76.0486 40.801L72.6725 42.7881L69.0938 40.6988Z" fill="#FF8D23"/>
<path d="M72.6735 42.7879L72.6622 46.9324L69.0835 44.8431L69.0948 40.6986L72.6735 42.7879Z" fill="#82310B"/>
<path d="M69.0274 44.9229L72.4035 42.9358L72.3923 47.0917L69.0161 49.0674L69.0274 44.9229Z" fill="#C44A10"/>
<path d="M65.4492 42.8334L68.8254 40.8577L72.4041 42.9356L69.028 44.9227L65.4492 42.8334Z" fill="#FF8D23"/>
<path d="M69.0275 44.9227L69.0162 49.0672L65.4375 46.9893L65.4488 42.8334L69.0275 44.9227Z" fill="#82310B"/>
<path d="M65.313 47.1031L68.7004 45.1273L68.6892 49.2718L65.3018 51.2476L65.313 47.1031Z" fill="#C44A10"/>
<path d="M61.7461 45.0252L65.1223 43.0381L68.701 45.1274L65.3136 47.1031L61.7461 45.0252Z" fill="#FF8D23"/>
<path d="M65.3136 47.103L65.3024 51.2475L61.7349 49.1695L61.7461 45.025L65.3136 47.103Z" fill="#82310B"/>
<path d="M61.667 49.2491L65.0544 47.262L65.0432 51.4065L61.6558 53.3936L61.667 49.2491Z" fill="#C44A10"/>
<path d="M58.0991 47.1597L61.4753 45.184L65.054 47.2619L61.6666 49.249L58.0991 47.1597Z" fill="#FF8D23"/>
<path d="M61.6671 49.2492L61.6559 53.3937L58.0884 51.3044L58.0996 47.1599L61.6671 49.2492Z" fill="#82310B"/>
<path d="M57.9083 51.452L61.2844 49.4648L61.2732 53.6207L57.8857 55.5965L57.9083 51.452Z" fill="#C44A10"/>
<path d="M54.3291 49.3738L57.7053 47.3867L61.284 49.4647L57.9078 51.4518L54.3291 49.3738Z" fill="#FF8D23"/>
<path d="M57.9083 51.4518L57.8858 55.5964L54.3184 53.5184L54.3296 49.3739L57.9083 51.4518Z" fill="#82310B"/>
<path d="M54.2505 53.5865L57.6379 51.6107L57.6267 55.7553L54.2393 57.731L54.2505 53.5865Z" fill="#C44A10"/>
<path d="M50.6821 51.5085L54.0583 49.5214L57.637 51.6107L54.2496 53.5864L50.6821 51.5085Z" fill="#FF8D23"/>
<path d="M54.2506 53.5865L54.2394 57.731L50.6719 55.6531L50.6831 51.5085L54.2506 53.5865Z" fill="#82310B"/>
<path d="M50.5484 55.778L53.9245 53.7909L53.9133 57.9354L50.5371 59.9225L50.5484 55.778Z" fill="#C44A10"/>
<path d="M46.9692 53.6888L50.3567 51.713L53.9242 53.791L50.548 55.7781L46.9692 53.6888Z" fill="#FF8D23"/>
<path d="M50.5485 55.778L50.5372 59.9226L46.9585 57.8333L46.9698 53.6887L50.5485 55.778Z" fill="#82310B"/>
<path d="M46.9024 57.9128L50.2785 55.9257L50.2673 60.0815L46.8911 62.0573L46.9024 57.9128Z" fill="#C44A10"/>
<path d="M43.3232 55.8234L46.6994 53.8477L50.2782 55.9256L46.902 57.9127L43.3232 55.8234Z" fill="#FF8D23"/>
<path d="M46.902 57.9128L46.8908 62.0573L43.312 59.9794L43.3233 55.8235L46.902 57.9128Z" fill="#82310B"/>
<path d="M43.1206 60.0815L46.4968 58.1057L46.4856 62.2502L43.1094 64.226L43.1206 60.0815Z" fill="#C44A10"/>
<path d="M39.541 58.0036L42.9172 56.0165L46.4959 58.1058L43.1198 60.0815L39.541 58.0036Z" fill="#FF8D23"/>
<path d="M43.1203 60.0812L43.109 64.2258L39.5303 62.1478L39.5415 58.0033L43.1203 60.0812Z" fill="#82310B"/>
<path d="M39.4746 62.2275L42.8508 60.2404L42.8396 64.3849L39.4634 66.372L39.4746 62.2275Z" fill="#C44A10"/>
<path d="M35.8945 60.138L39.2707 58.1622L42.8495 60.2402L39.4733 62.2273L35.8945 60.138Z" fill="#FF8D23"/>
<path d="M39.4753 62.2274L39.464 66.3719L35.8853 64.2826L35.8965 60.1381L39.4753 62.2274Z" fill="#82310B"/>
<path d="M35.7613 64.4078L39.1487 62.4207L39.1374 66.5765L35.75 68.5523L35.7613 64.4078Z" fill="#C44A10"/>
<path d="M32.1831 62.3183L35.5705 60.3425L39.1493 62.4205L35.7619 64.4076L32.1831 62.3183Z" fill="#FF8D23"/>
<path d="M35.7609 64.4078L35.7496 68.5523L32.1709 66.4744L32.1822 62.3185L35.7609 64.4078Z" fill="#82310B"/>
<path d="M35.5027 64.5665L35.4914 64.8845V68.4045V68.4272V68.711L33.2406 70.0282L32.4529 69.574L32.1152 69.381V66.5423L32.2053 66.4855L35.5027 64.5665Z" fill="#82310B"/>
<path d="M28.5366 64.4645L31.924 62.4774L35.5028 64.5667L32.1154 66.5425L28.5366 64.4645Z" fill="#FF8D23"/>
<path d="M32.1149 66.5421V69.3808L29.3464 67.7797L28.5361 67.3142V64.4641L31.6197 66.2582L32.1149 66.5421Z" fill="#F9781A"/>
<path d="M91.3779 36.35L94.7541 34.3743L94.7429 38.5188L91.3667 40.5059L91.3779 36.35Z" fill="#C44A10"/>
<path d="M87.7983 34.272L91.1745 32.2849L94.7533 34.3742L91.3771 36.35L87.7983 34.272Z" fill="#FF8D23"/>
<path d="M91.3781 36.3498L91.3668 40.5057L87.7881 38.4164L87.7993 34.2719L91.3781 36.3498Z" fill="#82310B"/>
<path d="M87.7315 38.496L91.1077 36.5089L91.0964 40.6534L87.7202 42.6405L87.7315 38.496Z" fill="#1A4B6C"/>
<path d="M84.1523 36.4065L87.5285 34.4308L91.1073 36.5087L87.7311 38.4958L84.1523 36.4065Z" fill="#2B3E4F"/>
<path d="M87.7316 38.496L87.7203 42.6406L84.1416 40.5513L84.1529 36.4067L87.7316 38.496Z" fill="#07334E"/>
<path d="M84.0176 40.6761L87.405 38.7003L87.3938 42.8448L84.0063 44.8206L84.0176 40.6761Z" fill="#C44A10"/>
<path d="M80.4385 38.5981L83.8259 36.611L87.4047 38.7003L84.0172 40.676L80.4385 38.5981Z" fill="#FF8D23"/>
<path d="M84.0177 40.6761L84.0065 44.8206L80.4277 42.7427L80.439 38.5981L84.0177 40.6761Z" fill="#82310B"/>
<path d="M80.3716 42.8108L83.759 40.8351L83.7365 44.9796L80.3604 46.9667L80.3716 42.8108Z" fill="#C44A10"/>
<path d="M76.793 40.7331L80.1804 38.746L83.7591 40.8353L80.3717 42.811L76.793 40.7331Z" fill="#FF8D23"/>
<path d="M80.3717 42.8109L80.3605 46.9667L76.7817 44.8774L76.793 40.7329L80.3717 42.8109Z" fill="#82310B"/>
<path d="M76.5903 44.9908L79.9665 43.0037L79.9553 47.1482L76.5791 49.1353L76.5903 44.9908Z" fill="#C44A10"/>
<path d="M73.0103 42.9016L76.3977 40.9259L79.9652 43.0038L76.589 44.9909L73.0103 42.9016Z" fill="#FF8D23"/>
<path d="M76.59 44.9908L76.5788 49.1353L73 47.046L73.0112 42.9015L76.59 44.9908Z" fill="#82310B"/>
<path d="M72.9439 47.1258L76.32 45.1387L76.3088 49.2946L72.9326 51.2703L72.9439 47.1258Z" fill="#C44A10"/>
<path d="M69.3643 45.0476L72.7517 43.0605L76.3192 45.1385L72.943 47.1256L69.3643 45.0476Z" fill="#FF8D23"/>
<path d="M72.9435 47.1257L72.9323 51.2702L69.3535 49.1923L69.3648 45.0477L72.9435 47.1257Z" fill="#82310B"/>
<path d="M69.2422 49.3058L72.6184 47.3301L72.6072 51.4746L69.2197 53.4617L69.2422 49.3058Z" fill="#C7C7C7"/>
<path d="M65.6636 47.2278L69.0397 45.2407L72.6185 47.33L69.2423 49.3058L65.6636 47.2278Z" fill="#808080"/>
<path d="M69.2423 49.3057L69.2198 53.4616L65.6523 51.3723L65.6636 47.2278L69.2423 49.3057Z" fill="#808080"/>
<path d="M65.584 51.4521L68.9714 49.465L68.9602 53.6095L65.5728 55.5966L65.584 51.4521Z" fill="#C44A10"/>
<path d="M62.0151 49.3626L65.3913 47.3868L68.97 49.4648L65.5826 51.4519L62.0151 49.3626Z" fill="#FF8D23"/>
<path d="M65.5846 51.4521L65.5734 55.5966L62.0059 53.5073L62.0171 49.3628L65.5846 51.4521Z" fill="#82310B"/>
<path d="M61.8252 53.6548L65.2014 51.6791L65.1901 55.8236L61.814 57.7994L61.8252 53.6548Z" fill="#C7C7C7"/>
<path d="M58.2461 51.5767L61.6223 49.5896L65.201 51.6789L61.8248 53.6546L58.2461 51.5767Z" fill="#808080"/>
<path d="M61.8249 53.6547L61.8136 57.7993L58.2349 55.7213L58.2461 51.5768L61.8249 53.6547Z" fill="#808080"/>
<path d="M58.1792 55.7895L61.5554 53.8137L61.5441 57.9583L58.168 59.9454L58.1792 55.7895Z" fill="#1A4B6C"/>
<path d="M54.5991 53.7115L57.9753 51.7244L61.554 53.8137L58.1779 55.7894L54.5991 53.7115Z" fill="#2B3E4F"/>
<path d="M58.1789 55.7894L58.1676 59.9453L54.5889 57.856L54.6001 53.7114L58.1789 55.7894Z" fill="#07334E"/>
<path d="M54.4644 57.981L57.8406 55.9939L57.8293 60.1384L54.4531 62.1255L54.4644 57.981Z" fill="#C44A10"/>
<path d="M50.8853 55.8918L54.2727 53.916L57.8402 55.994L54.464 57.9811L50.8853 55.8918Z" fill="#FF8D23"/>
<path d="M54.465 57.9812L54.4537 62.1257L50.875 60.0364L50.8863 55.8918L54.465 57.9812Z" fill="#82310B"/>
<path d="M50.8184 60.1158L54.1946 58.14L54.1833 62.2845L50.8071 64.2603L50.8184 60.1158Z" fill="#1A4B6C"/>
<path d="M47.2383 58.0378L50.6257 56.0507L54.1932 58.14L50.817 60.1157L47.2383 58.0378Z" fill="#2B3E4F"/>
<path d="M50.8185 60.1157L50.8073 64.2602L47.2285 62.1822L47.2398 58.0377L50.8185 60.1157Z" fill="#07334E"/>
<path d="M47.0362 62.2846L50.4123 60.3088L50.4011 64.4534L47.0249 66.4405L47.0362 62.2846Z" fill="#C44A10"/>
<path d="M43.4575 60.2066L46.845 58.2195L50.4124 60.3088L47.0363 62.2845L43.4575 60.2066Z" fill="#FF8D23"/>
<path d="M47.0363 62.2844L47.025 66.4402L43.4463 64.3509L43.4575 60.2064L47.0363 62.2844Z" fill="#82310B"/>
<path d="M43.3902 64.4305L46.7663 62.4434L46.7551 66.5879L43.3789 68.575L43.3902 64.4305Z" fill="#C44A10"/>
<path d="M39.811 62.3412L43.1872 60.3655L46.766 62.4434L43.3898 64.4305L39.811 62.3412Z" fill="#FF8D23"/>
<path d="M43.3903 64.4307L43.379 68.5753L39.8003 66.486L39.8115 62.3414L43.3903 64.4307Z" fill="#82310B"/>
<path d="M39.6768 66.6105L43.0642 64.6348L43.053 68.7793L39.6655 70.755L39.6768 66.6105Z" fill="#1A4B6C"/>
<path d="M36.1089 64.5325L39.4851 62.5454L43.0638 64.6347L39.6764 66.6105L36.1089 64.5325Z" fill="#2B3E4F"/>
<path d="M39.6769 66.6103L39.6656 70.7548L36.0981 68.6769L36.1094 64.5323L39.6769 66.6103Z" fill="#07334E"/>
<path d="M36.0298 68.745L39.4172 66.7693L39.406 70.9138L36.0186 72.8895L36.0298 68.745Z" fill="#C7C7C7"/>
<path d="M32.4629 66.6673L35.8391 64.6802L39.4178 66.7695L36.0304 68.7452L32.4629 66.6673Z" fill="#FF8D23"/>
<path d="M36.0304 68.7451L36.0191 72.8896L35.0963 72.3559L35.0401 72.2083L34.86 71.6973L34.5111 70.7662L34.4323 70.7208L34.1623 70.5618L33.6333 70.2553L33.2394 70.0282L32.4517 69.574L32.4629 66.6671L35.4902 68.4271L36.0304 68.7451Z" fill="#C7C7C7"/>
<path d="M75.857 23.1785L79.2444 21.1914L79.2331 25.3359L75.8457 27.323L75.857 23.1785Z" fill="#1A4B6C"/>
<path d="M72.2876 21.089L75.6638 19.1133L79.2425 21.1912L75.8551 23.1783L72.2876 21.089Z" fill="#4B86A6"/>
<path d="M75.8571 23.1784L75.8458 27.3229L72.2783 25.2336L72.2896 21.0891L75.8571 23.1784Z" fill="#07334E"/>
<path d="M72.211 25.3129L75.5984 23.3258L75.5871 27.4703L72.1997 29.4574L72.211 25.3129Z" fill="#C44A10"/>
<path d="M68.6445 23.2238L72.0207 21.248L75.5995 23.326L72.212 25.3131L68.6445 23.2238Z" fill="#FF8D23"/>
<path d="M72.2106 25.3131L72.1994 29.4576L68.6206 27.3796L68.6431 23.2238L72.2106 25.3131Z" fill="#82310B"/>
<path d="M68.5088 27.4934L71.885 25.5177L71.8737 29.6622L68.4976 31.638L68.5088 27.4934Z" fill="#1A4B6C"/>
<path d="M64.9307 25.4153L68.3068 23.4282L71.8856 25.5175L68.5094 27.4933L64.9307 25.4153Z" fill="#4B86A6"/>
<path d="M68.5089 27.4933L68.4977 31.6379L64.9189 29.5599L64.9302 25.4154L68.5089 27.4933Z" fill="#07334E"/>
<path d="M64.8623 29.6396L68.2385 27.6525L68.2272 31.797L64.8511 33.7841L64.8623 29.6396Z" fill="#C44A10"/>
<path d="M61.2822 27.5501L64.6584 25.5743L68.2372 27.6523L64.861 29.6394L61.2822 27.5501Z" fill="#FF8D23"/>
<path d="M64.863 29.6393L64.8517 33.7839L61.2729 31.6946L61.2842 27.55L64.863 29.6393Z" fill="#82310B"/>
<path d="M61.0811 31.8079L64.4573 29.8208L64.446 33.9653L61.0698 35.9524L61.0811 31.8079Z" fill="#9C9C9C"/>
<path d="M57.501 29.7185L60.8771 27.7428L64.4559 29.8207L61.0797 31.8078L57.501 29.7185Z" fill="white"/>
<path d="M61.0812 31.8077L61.0699 35.9522L57.4912 33.8743L57.5025 29.7184L61.0812 31.8077Z" fill="#808080"/>
<path d="M57.4351 33.9424L60.8113 31.9667L60.8 36.1112L57.4238 38.087L57.4351 33.9424Z" fill="#1A4B6C"/>
<path d="M53.8545 31.8645L57.2307 29.8774L60.8094 31.9667L57.4332 33.9425L53.8545 31.8645Z" fill="#4B86A6"/>
<path d="M57.4352 33.9428L57.424 38.0874L53.8452 36.0094L53.8565 31.8649L57.4352 33.9428Z" fill="#07334E"/>
<path d="M53.7212 36.1342L57.0974 34.1471L57.0861 38.2916L53.71 40.2787L53.7212 36.1342Z" fill="#C44A10"/>
<path d="M50.1421 34.0448L53.5295 32.0577L57.097 34.147L53.7208 36.1341L50.1421 34.0448Z" fill="#FF8D23"/>
<path d="M53.7214 36.1345L53.7101 40.279L50.1313 38.1897L50.1426 34.0452L53.7214 36.1345Z" fill="#82310B"/>
<path d="M50.0742 38.2691L53.4504 36.282L53.4392 40.4265L50.063 42.4136L50.0742 38.2691Z" fill="#9C9C9C"/>
<path d="M46.4961 36.1797L49.8835 34.204L53.451 36.2819L50.0748 38.269L46.4961 36.1797Z" fill="white"/>
<path d="M50.0749 38.2692L50.0636 42.4137L46.4849 40.3245L46.4961 36.1799L50.0749 38.2692Z" fill="#808080"/>
<path d="M46.3052 40.4717L49.6926 38.496L49.6814 42.6405L46.2939 44.6163L46.3052 40.4717Z" fill="#C44A10"/>
<path d="M42.7241 38.3937L46.1115 36.4066L49.6903 38.4959L46.3029 40.4717L42.7241 38.3937Z" fill="#FF8D23"/>
<path d="M46.3053 40.4715L46.2941 44.616L42.7153 42.5381L42.7266 38.3936L46.3053 40.4715Z" fill="#82310B"/>
<path d="M42.6592 42.6175L46.0354 40.6304L46.0241 44.7749L42.6479 46.762L42.6592 42.6175Z" fill="#1A4B6C"/>
<path d="M39.0796 40.5282L42.467 38.5411L46.0458 40.6304L42.6583 42.6175L39.0796 40.5282Z" fill="#4B86A6"/>
<path d="M42.6593 42.6176L42.6481 46.7621L39.0693 44.6728L39.0806 40.5283L42.6593 42.6176Z" fill="#07334E"/>
<path d="M38.9575 44.7976L42.3337 42.8105L42.3225 46.9664L38.9463 48.9422L38.9575 44.7976Z" fill="#C44A10"/>
<path d="M35.377 42.7085L38.7531 40.7328L42.3319 42.8107L38.9557 44.7978L35.377 42.7085Z" fill="#FF8D23"/>
<path d="M38.9572 44.7977L38.9459 48.9422L35.3672 46.8643L35.3784 42.7084L38.9572 44.7977Z" fill="#82310B"/>
<path d="M35.3106 46.9322L38.6867 44.9564L38.6755 49.101L35.2993 51.0767L35.3106 46.9322Z" fill="#C44A10"/>
<path d="M31.7305 44.8544L35.1066 42.8673L38.6854 44.9566L35.3092 46.9323L31.7305 44.8544Z" fill="#FF8D23"/>
<path d="M35.3107 46.9323L35.2995 51.0768L31.7207 48.9989L31.732 44.8544L35.3107 46.9323Z" fill="#82310B"/>
<path d="M31.5293 49.1127L34.9055 47.1256L34.8942 51.2701L31.5181 53.2572L31.5293 49.1127Z" fill="#C44A10"/>
<path d="M27.9482 47.0231L31.3244 45.036L34.9032 47.1253L31.527 49.1124L27.9482 47.0231Z" fill="#FF8D23"/>
<path d="M31.5295 49.1124L31.5182 53.2569L27.9395 51.1676L27.9507 47.0231L31.5295 49.1124Z" fill="#82310B"/>
<path d="M27.8721 51.2474L31.2595 49.2603L31.282 53.4275L27.9058 55.4146L27.8721 51.2474Z" fill="#1A4B6C"/>
<path d="M24.3032 49.158L27.6794 47.1823L31.2581 49.2602L27.8707 51.2473L24.3032 49.158Z" fill="#4B86A6"/>
<path d="M27.8722 51.2471L27.861 55.3917L24.2935 53.3024L24.3047 49.1578L27.8722 51.2471Z" fill="#07334E"/>
<path d="M24.169 53.4272L27.5451 51.4514L27.5339 55.5959L24.1577 57.5717L24.169 53.4272Z" fill="#C44A10"/>
<path d="M20.5898 51.3493L23.9773 49.3622L27.5448 51.4515L24.1686 53.4272L20.5898 51.3493Z" fill="#FF8D23"/>
<path d="M24.1691 53.4272L24.1578 57.5717L20.5791 55.4938L20.5904 51.3492L24.1691 53.4272Z" fill="#82310B"/>
<path d="M20.523 55.5621L23.8992 53.5863L23.8879 57.7308L20.5117 59.7179L20.523 55.5621Z" fill="#07334E"/>
<path d="M16.9424 53.4842L20.3186 51.4971L23.8973 53.5864L20.5211 55.5621L16.9424 53.4842Z" fill="#4B86A6"/>
<path d="M20.5231 55.562L20.5118 59.7178L16.9331 57.6285L16.9444 53.484L20.5231 55.562Z" fill="#1A4B6C"/>
<path d="M79.7188 25.4375L83.1062 23.4504L83.0949 27.595L79.7075 29.5821L79.7188 25.4375Z" fill="#C44A10"/>
<path d="M76.1509 23.3481L79.5271 21.3723L83.1058 23.4503L79.7184 25.4374L76.1509 23.3481Z" fill="#FF8D23"/>
<path d="M79.7184 25.4373L79.7071 29.5818L76.1396 27.5039L76.1509 23.348L79.7184 25.4373Z" fill="#82310B"/>
<path d="M76.0723 27.5722L79.4597 25.5964L79.4485 29.741L76.061 31.7167L76.0723 27.5722Z" fill="#C44A10"/>
<path d="M72.5054 25.4941L75.8815 23.507L79.4603 25.5963L76.0729 27.572L72.5054 25.4941Z" fill="#FF8D23"/>
<path d="M76.0719 27.572L76.0607 31.7165L72.4819 29.6385L72.5044 25.494L76.0719 27.572Z" fill="#82310B"/>
<path d="M72.3696 29.7637L75.7458 27.7766L75.7346 31.9211L72.3584 33.9082L72.3696 29.7637Z" fill="#9C9C9C"/>
<path d="M68.79 27.6741L72.1662 25.6984L75.745 27.7763L72.3688 29.7634L68.79 27.6741Z" fill="white"/>
<path d="M72.3698 29.7636L72.3585 33.9081L68.7798 31.8188L68.791 27.6743L72.3698 29.7636Z" fill="#808080"/>
<path d="M68.7232 31.8984L72.0993 29.9113L72.0881 34.0558L68.7119 36.0429L68.7232 31.8984Z" fill="#C44A10"/>
<path d="M65.1436 29.8092L68.5197 27.8335L72.0985 29.9114L68.7223 31.8985L65.1436 29.8092Z" fill="#FF8D23"/>
<path d="M68.7233 31.8984L68.712 36.0429L65.1333 33.965L65.1446 29.8091L68.7233 31.8984Z" fill="#82310B"/>
<path d="M64.9414 34.0669L68.3176 32.0912L68.3064 36.2357L64.9302 38.2115L64.9414 34.0669Z" fill="#9C9C9C"/>
<path d="M61.3608 31.9893L64.737 30.0022L68.3158 32.0915L64.9396 34.0672L61.3608 31.9893Z" fill="white"/>
<path d="M64.9415 34.0674L64.9303 38.212L61.3516 36.134L61.3628 31.9895L64.9415 34.0674Z" fill="#808080"/>
<path d="M61.2959 36.2017L64.6721 34.226L64.6608 38.3705L61.2847 40.3576L61.2959 36.2017Z" fill="#C44A10"/>
<path d="M57.7158 34.1238L61.092 32.1367L64.6707 34.226L61.2946 36.2018L57.7158 34.1238Z" fill="#FF8D23"/>
<path d="M61.2956 36.2017L61.2843 40.3576L57.7056 38.2683L57.7168 34.1238L61.2956 36.2017Z" fill="#82310B"/>
<path d="M57.5816 38.3934L60.9577 36.4062L60.9465 40.5508L57.5703 42.5379L57.5816 38.3934Z" fill="#C44A10"/>
<path d="M54.0024 36.304L57.3899 34.3282L60.9574 36.4062L57.5812 38.3933L54.0024 36.304Z" fill="#FF8D23"/>
<path d="M57.5817 38.3931L57.5705 42.5377L53.9917 40.4484L54.003 36.3038L57.5817 38.3931Z" fill="#82310B"/>
<path d="M53.9351 40.5281L57.3113 38.5524L57.3 42.6969L53.9238 44.6726L53.9351 40.5281Z" fill="#C44A10"/>
<path d="M50.3545 38.4501L53.7419 36.463L57.3094 38.5523L53.9332 40.5281L50.3545 38.4501Z" fill="#FF8D23"/>
<path d="M53.9357 40.528L53.9245 44.6725L50.3457 42.5946L50.357 38.4501L53.9357 40.528Z" fill="#82310B"/>
<path d="M50.1651 42.7428L53.5525 40.7557L53.5412 44.9003L50.1538 46.8874L50.1651 42.7428Z" fill="#C44A10"/>
<path d="M46.585 40.6532L49.9724 38.6661L53.5511 40.7554L50.1637 42.7425L46.585 40.6532Z" fill="#FF8D23"/>
<path d="M50.1657 42.7426L50.1544 46.8872L46.5757 44.7979L46.5869 40.6533L50.1657 42.7426Z" fill="#82310B"/>
<path d="M46.5186 44.8775L49.906 42.8904L49.8835 47.0349L46.5073 49.022L46.5186 44.8775Z" fill="#C44A10"/>
<path d="M42.9395 42.788L46.3269 40.8123L49.9056 42.8902L46.5182 44.8773L42.9395 42.788Z" fill="#FF8D23"/>
<path d="M46.5187 44.8774L46.5075 49.0219L42.9287 46.9326L42.94 42.7881L46.5187 44.8774Z" fill="#82310B"/>
<path d="M42.8159 47.0577L46.1921 45.0819L46.1809 49.2264L42.8047 51.2022L42.8159 47.0577Z" fill="#9C9C9C"/>
<path d="M39.2358 44.9797L42.612 42.9926L46.1908 45.0819L42.8146 47.0576L39.2358 44.9797Z" fill="white"/>
<path d="M42.8161 47.0578L42.8048 51.2023L39.2261 49.1244L39.2373 44.9799L42.8161 47.0578Z" fill="#808080"/>
<path d="M39.1699 49.1923L42.5461 47.2166L42.5799 51.3611L39.1587 53.3709L39.1699 49.1923Z" fill="#1A4B6C"/>
<path d="M35.5908 47.1144L38.967 45.1273L42.5457 47.2166L39.1696 49.1924L35.5908 47.1144Z" fill="#4B86A6"/>
<path d="M39.1701 49.1922L39.1588 53.3481L35.5801 51.2588L35.5913 47.1143L39.1701 49.1922Z" fill="#07334E"/>
<path d="M35.3892 51.3722L38.7654 49.3851L38.7541 53.5297L35.3779 55.5168L35.3892 51.3722Z" fill="#C44A10"/>
<path d="M31.8096 49.2828L35.1857 47.307L38.7645 49.385L35.3883 51.3721L31.8096 49.2828Z" fill="#FF8D23"/>
<path d="M35.3893 51.372L35.3781 55.5165L31.7993 53.4272L31.8106 49.2827L35.3893 51.372Z" fill="#82310B"/>
<path d="M31.7427 53.5066L35.1189 51.5309L35.1077 55.6754L31.7202 57.6512L31.7427 53.5066Z" fill="#C44A10"/>
<path d="M28.1626 51.4289L31.5388 49.4418L35.1175 51.5311L31.7413 53.5068L28.1626 51.4289Z" fill="#FF8D23"/>
<path d="M31.7428 53.5065L31.7203 57.6511L28.1528 55.5731L28.1641 51.4286L31.7428 53.5065Z" fill="#82310B"/>
<path d="M28.0293 55.6869L31.4055 53.7112L31.3942 57.8557L28.0181 59.8428L28.0293 55.6869Z" fill="#C44A10"/>
<path d="M24.4492 53.6091L27.8366 51.6219L31.4041 53.7113L28.028 55.687L24.4492 53.6091Z" fill="#FF8D23"/>
<path d="M28.0295 55.6867L28.0182 59.8426L24.4395 57.7533L24.4507 53.6088L28.0295 55.6867Z" fill="#82310B"/>
<path d="M24.3828 57.8329L27.759 55.8458L27.7478 59.9904L24.3716 61.9775L24.3828 57.8329Z" fill="#9C9C9C"/>
<path d="M20.8032 55.7437L24.1907 53.7679L27.7581 55.8459L24.382 57.833L20.8032 55.7437Z" fill="white"/>
<path d="M24.383 57.8331L24.3717 61.9776L20.793 59.8883L20.8042 55.7438L24.383 57.8331Z" fill="#C7C7C7"/>
<path d="M83.6128 27.7431L86.989 25.756L86.9777 29.9005L83.6016 31.8876L83.6128 27.7431Z" fill="#1A4B6C"/>
<path d="M80.0337 25.6537L83.4099 23.678L86.9886 25.7559L83.6124 27.743L80.0337 25.6537Z" fill="#4B86A6"/>
<path d="M83.6134 27.7432L83.6022 31.8878L80.0234 29.7985L80.0347 25.6539L83.6134 27.7432Z" fill="#07334E"/>
<path d="M79.9668 29.878L83.343 27.8909L83.3318 32.0468L79.9556 34.0225L79.9668 29.878Z" fill="#C44A10"/>
<path d="M76.3877 27.7997L79.7639 25.8126L83.3426 27.8906L79.9664 29.8777L76.3877 27.7997Z" fill="#FF8D23"/>
<path d="M79.9669 29.8779L79.9557 34.0224L76.377 31.9445L76.3882 27.7999L79.9669 29.8779Z" fill="#82310B"/>
<path d="M76.2525 32.0575L79.6399 30.0818L79.6286 34.2263L76.2412 36.2134L76.2525 32.0575Z" fill="#1A4B6C"/>
<path d="M72.6738 29.9795L76.0613 27.9924L79.64 30.0817L76.2526 32.0575L72.6738 29.9795Z" fill="#4B86A6"/>
<path d="M76.2531 32.0576L76.2418 36.2134L72.6631 34.1241L72.6743 29.9796L76.2531 32.0576Z" fill="#07334E"/>
<path d="M72.6065 34.2039L75.9826 32.2168L75.9714 36.3613L72.5952 38.3484L72.6065 34.2039Z" fill="#1A4B6C"/>
<path d="M69.0259 32.1145L72.4133 30.1388L75.9808 32.2167L72.6046 34.2039L69.0259 32.1145Z" fill="#4B86A6"/>
<path d="M72.6066 34.2037L72.5954 38.3482L69.0166 36.2589L69.0279 32.1144L72.6066 34.2037Z" fill="#07334E"/>
<path d="M68.8252 36.3724L72.2014 34.3853L72.1901 38.5411L68.814 40.5169L68.8252 36.3724Z" fill="#C44A10"/>
<path d="M65.2461 34.2944L68.6335 32.3073L72.201 34.3852L68.8248 36.3723L65.2461 34.2944Z" fill="#FF8D23"/>
<path d="M68.8248 36.3724L68.8136 40.5169L65.2349 38.439L65.2461 34.2944L68.8248 36.3724Z" fill="#82310B"/>
<path d="M65.1787 38.507L68.5549 36.5312L68.5437 40.6758L65.1675 42.6515L65.1787 38.507Z" fill="#C44A10"/>
<path d="M61.5981 36.4291L64.9856 34.442L68.553 36.5313L65.1769 38.5071L61.5981 36.4291Z" fill="#FF8D23"/>
<path d="M65.1788 38.507L65.1676 42.6515L61.5889 40.5736L61.6001 36.4291L65.1788 38.507Z" fill="#82310B"/>
<path d="M61.4761 40.6984L64.8523 38.7113L64.841 42.8558L61.4536 44.8429L61.4761 40.6984Z" fill="#9C9C9C"/>
<path d="M57.8979 38.6091L61.2741 36.6333L64.8529 38.7112L61.4767 40.6984L57.8979 38.6091Z" fill="white"/>
<path d="M61.4767 40.6983L61.4542 44.8428L57.8867 42.7535L57.898 38.609L61.4767 40.6983Z" fill="#808080"/>
<path d="M57.8189 42.8331L61.2063 40.8459L61.195 45.0018L57.8076 46.9776L57.8189 42.8331Z" fill="#1A4B6C"/>
<path d="M54.249 40.7438L57.6252 38.7681L61.2039 40.846L57.8165 42.8331L54.249 40.7438Z" fill="#4B86A6"/>
<path d="M57.8185 42.8332L57.8072 46.9777L54.2397 44.8998L54.251 40.7439L57.8185 42.8332Z" fill="#07334E"/>
<path d="M54.0596 45.0365L57.4358 43.0608L57.4245 47.2053L54.0483 49.1924L54.0596 45.0365Z" fill="#C44A10"/>
<path d="M50.481 42.9587L53.8571 40.9716L57.4359 43.0609L54.0597 45.0366L50.481 42.9587Z" fill="#FF8D23"/>
<path d="M54.0597 45.0367L54.0485 49.1926L50.4697 47.1033L50.481 42.9587L54.0597 45.0367Z" fill="#82310B"/>
<path d="M50.4136 47.1714L53.7898 45.1957L53.7785 49.3402L50.4023 51.3159L50.4136 47.1714Z" fill="#1A4B6C"/>
<path d="M46.835 45.0934L50.2111 43.1177L53.7899 45.1956L50.4137 47.1827L46.835 45.0934Z" fill="#4B86A6"/>
<path d="M50.4132 47.1828L50.402 51.3273L46.8232 49.238L46.8345 45.0935L50.4132 47.1828Z" fill="#07334E"/>
<path d="M46.6997 49.3628L50.0759 47.3871L50.0647 51.5316L46.6885 53.5074L46.6997 49.3628Z" fill="#C44A10"/>
<path d="M43.1206 47.2851L46.508 45.298L50.0755 47.3873L46.6994 49.363L43.1206 47.2851Z" fill="#FF8D23"/>
<path d="M46.6999 49.3631L46.6886 53.5076L43.1099 51.4297L43.1211 47.2852L46.6999 49.3631Z" fill="#82310B"/>
<path d="M43.0537 51.4977L46.4299 49.522L46.4186 53.6665L43.0425 55.6536L43.0537 51.4977Z" fill="#C44A10"/>
<path d="M39.4746 49.4196L42.862 47.4325L46.4295 49.5218L43.0533 51.4975L39.4746 49.4196Z" fill="#FF8D23"/>
<path d="M43.0534 51.4976L43.0421 55.6535L39.4634 53.5642L39.4746 49.4197L43.0534 51.4976Z" fill="#82310B"/>
<path d="M39.2725 53.6777L42.6487 51.6906L42.6374 55.8351L39.2612 57.8222L39.2725 53.6777Z" fill="#1A4B6C"/>
<path d="M35.6938 51.5882L39.07 49.6124L42.6488 51.6904L39.2726 53.6775L35.6938 51.5882Z" fill="#4B86A6"/>
<path d="M39.2726 53.6774L39.2614 57.822L35.6826 55.7327L35.6939 51.5881L39.2726 53.6774Z" fill="#07334E"/>
<path d="M35.6265 55.8123L39.0027 53.8252L38.9914 57.9811L35.6152 59.9568L35.6265 55.8123Z" fill="#C44A10"/>
<path d="M32.0469 53.7228L35.423 51.7471L39.0018 53.825L35.6256 55.8121L32.0469 53.7228Z" fill="#FF8D23"/>
<path d="M35.6266 55.8123L35.6154 59.9568L32.0366 57.8789L32.0479 53.723L35.6266 55.8123Z" fill="#82310B"/>
<path d="M31.9126 57.9924L35.3001 56.0166L35.2888 60.1611L31.9014 62.1369L31.9126 57.9924Z" fill="#9C9C9C"/>
<path d="M28.3457 55.9143L31.7219 53.9272L35.3006 56.0165L31.9132 57.9923L28.3457 55.9143Z" fill="white"/>
<path d="M31.9127 57.9925L31.9015 62.137L28.334 60.0591L28.3452 55.9146L31.9127 57.9925Z" fill="#808080"/>
<path d="M28.2661 60.1386L31.6536 58.1515L31.6423 62.296L28.2549 64.2831L28.2661 60.1386Z" fill="#82310B"/>
<path d="M24.6992 58.0492L28.0754 56.0735L31.6541 58.1514L28.2667 60.1385L24.6992 58.0492Z" fill="#FF8D23"/>
<path d="M28.2663 60.1387L28.255 64.2833L24.6763 62.194L24.6988 58.0494L28.2663 60.1387Z" fill="#F9781A"/>
<path d="M87.4727 30.0024L90.8489 28.0153L90.8376 32.1711L87.4614 34.1469L87.4727 30.0024Z" fill="#C44A10"/>
<path d="M83.894 27.9242L87.2702 25.9371L90.849 28.0151L87.4728 30.0022L83.894 27.9242Z" fill="#FF8D23"/>
<path d="M87.4723 30.002L87.4611 34.1465L83.8823 32.0686L83.8936 27.9241L87.4723 30.002Z" fill="#82310B"/>
<path d="M83.8257 32.137L87.2019 30.1613L87.1906 34.3058L83.8145 36.2815L83.8257 32.137Z" fill="#C44A10"/>
<path d="M80.2471 30.059L83.6232 28.0719L87.202 30.1612L83.8258 32.1369L80.2471 30.059Z" fill="#FF8D23"/>
<path d="M83.8263 32.1368L83.8151 36.2813L80.2363 34.2034L80.2476 30.0588L83.8263 32.1368Z" fill="#82310B"/>
<path d="M80.1123 34.3288L83.4998 32.3417L83.4885 36.4862L80.1011 38.4733L80.1123 34.3288Z" fill="#9C9C9C"/>
<path d="M76.5317 32.2392L79.9192 30.2634L83.4979 32.3414L80.1105 34.3285L76.5317 32.2392Z" fill="white"/>
<path d="M80.1125 34.3286L80.1012 38.4731L76.5225 36.3838L76.5337 32.2393L80.1125 34.3286Z" fill="#808080"/>
<path d="M76.4668 36.4632L79.843 34.4761L79.8317 38.632L76.4556 40.6077L76.4668 36.4632Z" fill="#C44A10"/>
<path d="M72.8867 34.3853L76.2741 32.3982L79.8416 34.4761L76.4655 36.4632L72.8867 34.3853Z" fill="#FF8D23"/>
<path d="M76.4665 36.4632L76.4552 40.6077L72.8765 38.5298L72.8877 34.3853L76.4665 36.4632Z" fill="#82310B"/>
<path d="M72.6846 38.6319L76.0607 36.6561L76.0495 40.8007L72.6733 42.7764L72.6846 38.6319Z" fill="#C44A10"/>
<path d="M69.1045 36.554L72.4919 34.5669L76.0594 36.6562L72.6832 38.6319L69.1045 36.554Z" fill="#FF8D23"/>
<path d="M72.6847 38.632L72.6735 42.7765L69.0947 40.6986L69.106 36.5541L72.6847 38.632Z" fill="#82310B"/>
<path d="M69.0381 40.778L72.4143 38.7909L72.403 42.9354L69.0269 44.9225L69.0381 40.778Z" fill="#C44A10"/>
<path d="M65.4585 38.6888L68.8459 36.713L72.4134 38.791L69.0372 40.7781L65.4585 38.6888Z" fill="#FF8D23"/>
<path d="M69.0382 40.7779L69.027 44.9224L65.4482 42.8331L65.4595 38.6886L69.0382 40.7779Z" fill="#82310B"/>
<path d="M65.335 42.9581L68.7112 40.9709L68.6999 45.1268L65.3125 47.1026L65.335 42.9581Z" fill="#C44A10"/>
<path d="M61.7563 40.8687L65.1325 38.8929L68.7113 40.9709L65.3351 42.958L61.7563 40.8687Z" fill="#FF8D23"/>
<path d="M65.3356 42.9578L65.3131 47.1024L61.7456 45.0244L61.7569 40.8685L65.3356 42.9578Z" fill="#82310B"/>
<path d="M61.6782 45.0928L65.0657 43.1171L65.0544 47.2616L61.667 49.2373L61.6782 45.0928Z" fill="#1A4B6C"/>
<path d="M58.1094 43.0147L61.4855 41.0276L65.0643 43.1169L61.6769 45.0926L58.1094 43.0147Z" fill="#4B86A6"/>
<path d="M61.6783 45.0926L61.6671 49.2371L58.0996 47.1592L58.1109 43.0146L61.6783 45.0926Z" fill="#07334E"/>
<path d="M57.9195 47.3074L61.2956 45.3203L61.2844 49.4648L57.9082 51.4519L57.9195 47.3074Z" fill="#C44A10"/>
<path d="M54.3394 45.2178L57.7155 43.2421L61.2943 45.32L57.9181 47.3071L54.3394 45.2178Z" fill="#FF8D23"/>
<path d="M57.9191 47.307L57.9078 51.4515L54.3291 49.3622L54.3404 45.2177L57.9191 47.307Z" fill="#82310B"/>
<path d="M54.273 49.4418L57.6491 47.4547L57.6379 51.6106L54.2617 53.5863L54.273 49.4418Z" fill="#C44A10"/>
<path d="M50.6929 47.3526L54.069 45.3768L57.6478 47.4548L54.2716 49.4419L50.6929 47.3526Z" fill="#FF8D23"/>
<path d="M54.2731 49.4418L54.2618 53.5864L50.6831 51.5084L50.6944 47.3525L54.2731 49.4418Z" fill="#82310B"/>
<path d="M50.5591 51.622L53.9353 49.6462L53.924 53.7908L50.5479 55.7779L50.5591 51.622Z" fill="#C44A10"/>
<path d="M46.98 49.5442L50.3674 47.5571L53.9349 49.6464L50.5587 51.6222L46.98 49.5442Z" fill="#FF8D23"/>
<path d="M50.5592 51.6221L50.548 55.778L46.9692 53.6887L46.9805 49.5442L50.5592 51.6221Z" fill="#82310B"/>
<path d="M46.9123 53.7677L50.2997 51.7806L50.2885 55.9252L46.811 58.0031L46.9123 53.7677Z" fill="#1A4B6C"/>
<path d="M43.3315 51.6785L46.719 49.7028L50.2865 51.7807L46.9103 53.7678L43.3315 51.6785Z" fill="#4B86A6"/>
<path d="M46.9127 53.7681L46.9015 57.9127L43.3228 55.8234L43.334 51.6788L46.9127 53.7681Z" fill="#82310B"/>
<path d="M43.1314 55.9367L46.5075 53.9496L46.4963 58.1055L43.1201 60.0812L43.1314 55.9367Z" fill="#C44A10"/>
<path d="M39.5508 53.8473L42.927 51.8716L46.5057 53.9495L43.1295 55.9366L39.5508 53.8473Z" fill="#FF8D23"/>
<path d="M43.1315 55.9366L43.1202 60.0811L39.5415 58.0032L39.5528 53.8473L43.1315 55.9366Z" fill="#82310B"/>
<path d="M39.4854 58.0713L42.8615 56.0956L42.8503 60.2401L39.4741 62.2159L39.4854 58.0713Z" fill="#C44A10"/>
<path d="M35.9048 55.9936L39.281 54.0065L42.8597 56.0958L39.4835 58.0715L35.9048 55.9936Z" fill="#FF8D23"/>
<path d="M39.485 58.0714L39.4738 62.2159L35.895 60.1379L35.9063 55.9934L39.485 58.0714Z" fill="#82310B"/>
<path d="M35.771 60.2629L39.1584 58.2758L39.1472 62.4203L35.7598 64.4074L35.771 60.2629Z" fill="#C44A10"/>
<path d="M32.2031 58.1736L35.5793 56.1979L39.158 58.2758L35.7706 60.2629L32.2031 58.1736Z" fill="#FF8D23"/>
<path d="M35.7716 60.2629L35.7604 64.4074L32.1929 62.3181L32.2041 58.1736L35.7716 60.2629Z" fill="#82310B"/>
<path d="M32.125 62.3976L35.5125 60.4105L35.5012 64.5664L32.1138 66.5422L32.125 62.3976Z" fill="#9C9C9C"/>
<path d="M28.5581 60.3083L31.9343 58.3325L35.513 60.4105L32.1256 62.3976L28.5581 60.3083Z" fill="white"/>
<path d="M32.1256 62.3975L32.1144 66.542L28.5469 64.4641L28.5581 60.3082L32.1256 62.3975Z" fill="#C7C7C7"/>
<path d="M91.3887 32.2054L94.7649 30.2296L94.7536 34.3741L91.3774 36.3499L91.3887 32.2054Z" fill="#C44A10"/>
<path d="M87.8086 30.1274L91.1848 28.1403L94.7635 30.2296L91.3873 32.2053L87.8086 30.1274Z" fill="#FF8D23"/>
<path d="M91.3888 32.2051L91.3776 36.3497L87.7988 34.2717L87.8101 30.1272L91.3888 32.2051Z" fill="#82310B"/>
<path d="M87.7427 34.3398L91.1189 32.364L91.1076 36.5085L87.7314 38.4956L87.7427 34.3398Z" fill="#C7C7C7"/>
<path d="M84.1631 32.2621L87.5393 30.275L91.118 32.3643L87.7418 34.3401L84.1631 32.2621Z" fill="white"/>
<path d="M87.7423 34.3399L87.7311 38.4958L84.1523 36.4065L84.1636 32.262L87.7423 34.3399Z" fill="#808080"/>
<path d="M84.0283 36.5314L87.4158 34.5443L87.4045 38.6888L84.0171 40.6759L84.0283 36.5314Z" fill="#1A4B6C"/>
<path d="M80.4619 34.4424L83.8381 32.4667L87.4168 34.5446L84.0294 36.5317L80.4619 34.4424Z" fill="#4B86A6"/>
<path d="M84.0285 36.5314L84.0172 40.676L80.4385 38.5867L80.461 34.4421L84.0285 36.5314Z" fill="#07334E"/>
<path d="M80.3824 38.6661L83.7698 36.6903L83.7585 40.8348L80.3711 42.8106L80.3824 38.6661Z" fill="#C44A10"/>
<path d="M76.8027 36.5883L80.1902 34.6012L83.7689 36.6905L80.3815 38.6662L76.8027 36.5883Z" fill="#FF8D23"/>
<path d="M80.3825 38.6663L80.3712 42.8108L76.7925 40.7329L76.8037 36.5884L80.3825 38.6663Z" fill="#82310B"/>
<path d="M76.6011 40.835L79.9885 38.8593L79.9773 43.0038L76.5898 44.9909L76.6011 40.835Z" fill="#C7C7C7"/>
<path d="M73.022 38.7571L76.4094 36.77L79.9882 38.8593L76.6007 40.8351L73.022 38.7571Z" fill="white"/>
<path d="M76.6012 40.835L76.59 44.9909L73.0112 42.9016L73.0225 38.7571L76.6012 40.835Z" fill="#808080"/>
<path d="M72.9551 42.9812L76.3313 40.9941L76.32 45.1387L72.9438 47.1258L72.9551 42.9812Z" fill="#C7C7C7"/>
<path d="M69.3755 40.8919L72.7629 38.9161L76.3304 40.9941L72.9542 42.9812L69.3755 40.8919Z" fill="white"/>
<path d="M72.9547 42.981L72.9435 47.1256L69.3647 45.0363L69.376 40.8917L72.9547 42.981Z" fill="#808080"/>
<path d="M69.2525 45.1611L72.6286 43.1853L72.6174 47.3298L69.2412 49.3056L69.2525 45.1611Z" fill="#C44A10"/>
<path d="M65.6733 43.0832L69.0495 41.0961L72.6283 43.1854L69.2521 45.1611L65.6733 43.0832Z" fill="#FF8D23"/>
<path d="M69.2526 45.1612L69.2413 49.3057L65.6626 47.2278L65.6739 43.0833L69.2526 45.1612Z" fill="#82310B"/>
<path d="M65.606 47.2958L68.9821 45.3201L68.9709 49.4646L65.5947 51.4517L65.606 47.2958Z" fill="#1A4B6C"/>
<path d="M62.0259 45.2178L65.402 43.2307L68.9808 45.32L65.6046 47.2958L62.0259 45.2178Z" fill="#4B86A6"/>
<path d="M65.6061 47.2956L65.5949 51.4515L62.0161 49.3622L62.0274 45.2177L65.6061 47.2956Z" fill="#07334E"/>
<path d="M61.836 49.5104L65.2121 47.5233L65.2009 51.6678L61.8247 53.6549L61.836 49.5104Z" fill="#C44A10"/>
<path d="M58.2554 47.4209L61.6315 45.4452L65.2103 47.5231L61.8341 49.5102L58.2554 47.4209Z" fill="#FF8D23"/>
<path d="M61.8356 49.5103L61.8244 53.6549L58.2456 51.5656L58.2569 47.421L61.8356 49.5103Z" fill="#82310B"/>
<path d="M58.1895 51.6452L61.5657 49.6694L61.5544 53.814L58.1782 55.7897L58.1895 51.6452Z" fill="#1A4B6C"/>
<path d="M54.6104 49.5669L57.9865 47.5798L61.5653 49.6691L58.1891 51.6449L54.6104 49.5669Z" fill="#4B86A6"/>
<path d="M58.1891 51.645L58.1779 55.7895L54.5991 53.7115L54.6104 49.567L58.1891 51.645Z" fill="#07334E"/>
<path d="M54.4761 53.8254L57.8635 51.8496L57.841 55.9941L54.4648 57.9812L54.4761 53.8254Z" fill="#C7C7C7"/>
<path d="M50.896 51.7474L54.2834 49.7603L57.8622 51.8496L54.4747 53.8253L50.896 51.7474Z" fill="white"/>
<path d="M54.4757 53.8253L54.4645 57.9811L50.8857 55.8918L50.897 51.7473L54.4757 53.8253Z" fill="#808080"/>
<path d="M50.8296 55.9714L54.2058 53.9843L54.1945 58.1288L50.8184 60.1159L50.8296 55.9714Z" fill="#C44A10"/>
<path d="M47.25 53.8821L50.6374 51.9064L54.2049 53.9843L50.8287 55.9714L47.25 53.8821Z" fill="#FF8D23"/>
<path d="M50.8297 55.9716L50.8185 60.1162L47.2397 58.0269L47.251 53.8823L50.8297 55.9716Z" fill="#82310B"/>
<path d="M47.0484 58.1399L50.4245 56.1642L50.4133 60.3087L47.0371 62.2845L47.0484 58.1399Z" fill="#1A4B6C"/>
<path d="M43.4692 56.0619L46.8567 54.0748L50.4241 56.1641L47.048 58.1399L43.4692 56.0619Z" fill="#4B86A6"/>
<path d="M47.0485 58.14L47.0372 62.2845L43.4585 60.2065L43.4698 56.062L47.0485 58.14Z" fill="#07334E"/>
<path d="M43.4019 60.2746L46.778 58.2988L46.7668 62.4434L43.3906 64.4305L43.4019 60.2746Z" fill="#C7C7C7"/>
<path d="M39.8228 58.1968L43.2102 56.2097L46.7777 58.299L43.4015 60.2748L39.8228 58.1968Z" fill="white"/>
<path d="M43.402 60.2748L43.3908 64.4307L39.812 62.3414L39.8233 58.1969L43.402 60.2748Z" fill="#9C9C9C"/>
<path d="M39.688 62.4661L43.0755 60.479L43.0642 64.6235L39.6768 66.6106L39.688 62.4661Z" fill="#C44A10"/>
<path d="M36.1201 60.377L39.4963 58.4012L43.075 60.4792L39.6876 62.4663L36.1201 60.377Z" fill="#FF8D23"/>
<path d="M39.6881 62.4664L39.6769 66.6109L36.1094 64.5216L36.1206 60.3771L39.6881 62.4664Z" fill="#82310B"/>
<path d="M36.0415 64.601L39.429 62.6139L39.4177 66.7698L36.0303 68.7455L36.0415 64.601Z" fill="#07334E"/>
<path d="M32.4741 62.5229L35.8503 60.5358L39.429 62.6137L36.0416 64.6008L32.4741 62.5229Z" fill="#4B86A6"/>
<path d="M36.0421 64.601L36.0309 68.7455L32.4634 66.6676L32.4746 62.5231L36.0421 64.601Z" fill="#1A4B6C"/>
</svg>
